<?xml version="1.0" encoding="utf-8"?>
<!-- Generator: Adobe Illustrator 19.0.0, SVG Export Plug-In . SVG Version: 6.00 Build 0)  -->
<svg version="1.1" xmlns="http://www.w3.org/2000/svg" xmlns:xlink="http://www.w3.org/1999/xlink" x="0px" y="0px"
	 viewBox="0 0 595.3 841.9" style="enable-background:new 0 0 595.3 841.9;" xml:space="preserve">
<style type="text/css">
	.st0{opacity:0.5;}
	.st1{fill:none;stroke:#683C11;stroke-miterlimit:10;}
	.st2{opacity:0.8;}
	.st3{fill:#432918;}
	.st4{fill:#683C11;}
	.st5{fill:none;stroke:#000000;stroke-miterlimit:10;}
	.st6{fill:#006633;}
	.st7{fill:none;}
</style>
<g id="Layer_1">
	<g id="XMLID_2_" class="st0">
		<g id="XMLID_206_">
			<path id="XMLID_210_" class="st1" d="M166.5,351.3"/>
		</g>
	</g>
	<g id="XMLID_53_">
		<g id="XMLID_200_">
			<path id="XMLID_204_" class="st1" d="M196.7,459.2"/>
		</g>
	</g>
	<g id="XMLID_51_">
		<g id="XMLID_178_">
			<path id="XMLID_198_" class="st1" d="M385,878"/>
		</g>
	</g>
	<g id="XMLID_8_" class="st2">
		<path id="XMLID_22_" class="st3" d="M376.6,669.4c-0.3,1.8-0.7,3.7-1.2,5.5c-0.5,1.8-1.3,3.5-1.8,4.8l-3.6,8.5l-1.8,4.3l-0.9,2.1
			c-0.3,0.8-0.7,1.5-1,2.3c-2.8,6.1-6.3,11.6-9.7,16.8l-10.2,15.3l-1.2,1.8c-0.4,0.6-0.7,1.2-1.1,1.7c-0.7,1.2-1.3,2.4-2,3.6
			c-0.6,1.3-1.3,2.6-1.9,4l-2,4.2c-1.3,2.7-2.4,5.3-3.4,8c-0.3,0.7-0.5,1.3-0.7,2l-0.3,1l-0.2,0.5l-0.1,0.4
			c-0.3,1.1-0.6,2.2-0.7,3.5c-0.2,1.3-0.3,2.7-0.4,4.2l-0.4,4.5c-0.2,2.6,0,5.8-0.3,9.3c-0.1,1.8-0.3,3.7-0.8,5.7
			c-0.5,1.9-1.1,3.5-1.7,5.1c-1.2,3.1-2.6,5.9-3.6,8.6c-0.3,0.7-0.5,1.3-0.7,1.9l-0.3,0.9l-0.3,1c-0.4,1.3-0.8,2.7-1.1,4
			c-0.7,2.7-1.2,5.6-1.7,8.5l-0.7,4.5c-0.2,1.7-0.6,3.4-0.9,5c-0.7,3.2-1.6,6.3-2.4,9.2c-0.4,1.4-0.8,2.9-1.1,4.2
			c-0.3,1.3-0.6,2.7-0.7,4c-0.4,2.6-0.5,5.3-0.3,8c0,0.5,0.1,0.9,0.1,1.4c0.1,0.7,0.1,1.4,0.2,2c0.1,1.2,0.2,2,0.4,2.6
			c0.3,1.2,0.9,1.7,1.5,1.7c0.6,0,1.3-0.2,1.9-1.4c0.3-0.6,0.6-1.4,0.8-2.8c0.1-0.7,0.1-1.5,0.1-2.4c0-0.4,0-0.8,0-1.3
			c-0.1-2.5,0-4.7,0.3-7.1c0.2-1.2,0.4-2.3,0.7-3.5c0.3-1.2,0.6-2.6,1-4c0.8-2.8,1.7-5.9,2.4-9.4c0.4-1.7,0.7-3.5,1-5.4l0.7-4.4
			c0.4-2.8,1-5.5,1.6-8.1c0.3-1.3,0.7-2.5,1-3.8l0.3-0.9l0.3-0.8c0.2-0.5,0.4-1.1,0.7-1.7c1-2.4,2.3-5.2,3.7-8.6
			c0.7-1.7,1.3-3.5,1.9-5.7c0.6-2.5,0.9-4.7,1-6.6c0.2-3.8,0.1-7,0.3-9.3l0.3-4.4c0.1-1.5,0.2-2.8,0.4-3.9c0.1-1.1,0.3-2,0.6-2.7
			l0.1-0.3l0.2-0.5l0.3-1l0.7-1.9c0.9-2.5,2-5,3.3-7.6l2-4.2c0.7-1.4,1.3-2.7,1.9-3.9c0.6-1.2,1.2-2.3,1.8-3.3c0.3-0.5,0.6-1,1-1.6
			l1.2-1.8l10.2-15.4c3.5-5.3,7.1-11,10.1-17.5c0.4-0.8,0.7-1.6,1.1-2.4l0.9-2.1l1.8-4.3l3.6-8.6c0.5-1.2,1.4-3.2,2-5.3
			c0.6-2,1.1-4.2,1.4-6.2"/>
		<path id="XMLID_21_" class="st3" d="M359.4,407.9"/>
		<path id="XMLID_16_" class="st3" d="M367.6,669c-0.2,1.4-0.6,2.8-1.1,4.1c-0.2,0.7-0.5,1.3-0.8,2l-0.9,2.1l-3.6,8.6
			c-1.2,2.8-2.3,5.8-3.6,8.4c-2.6,5.4-5.9,10.5-9.3,15.7l-10.3,15.5c-1.8,2.7-3.3,5.6-4.7,8.4l-4,8.4c-1.3,2.9-2.5,5.8-3.6,8.8
			c-0.3,0.8-0.5,1.5-0.8,2.3c-0.3,0.8-0.5,1.6-0.7,2.5c-0.4,1.6-0.6,3.3-0.7,4.9c-0.2,1.6-0.3,3.2-0.4,4.7l-0.2,2.3
			c0,0.8-0.1,1.6-0.1,2.4c-0.1,3.2,0,6.2-0.3,9c-0.3,2.7-1.4,5.4-2.5,8.2c-1.2,2.8-2.5,5.6-3.6,8.7c-2.2,6.1-3.4,12.4-4.3,18.6
			c-0.2,1.6-0.4,3-0.7,4.5c-0.3,1.5-0.6,2.9-1,4.4l-2.4,9c-0.8,3.1-1.4,6.3-1.7,9.5c-0.1,1.6-0.2,3.3-0.2,4.9c0,0.8,0,1.6,0.1,2.4
			l0.1,1.2c0,0.3,0,0.6,0,0.9c-0.1,1.7-0.1,3.4,0.3,4.6c0.3,1.2,0.9,1.9,1.5,2c0.2,0.1,0.4,0,0.5,0c0.6-0.2,1.1-0.7,1.6-1.7
			c0.5-1,1-2.4,1.1-4.7c0-0.4,0-0.9,0-1.4l-0.1-1.1c0-0.7-0.1-1.5-0.1-2.2c0-1.5,0-2.9,0.2-4.4c0.2-2.9,0.8-5.8,1.5-8.7l2.4-9
			c0.4-1.5,0.7-3.1,1-4.7c0.3-1.6,0.5-3.2,0.7-4.7c0.9-6,2-12,4-17.6c1-2.8,2.3-5.5,3.5-8.4c0.6-1.5,1.2-3,1.7-4.5
			c0.5-1.5,1-3.3,1.2-5c0.4-3.3,0.3-6.5,0.4-9.5c0-0.8,0-1.5,0.1-2.2l0.2-2.3c0.1-1.6,0.2-3.1,0.4-4.6c0.1-1.5,0.3-2.9,0.6-4.3
			c0.2-0.7,0.3-1.4,0.5-2c0.2-0.7,0.5-1.4,0.7-2.1c1-2.8,2.2-5.6,3.4-8.4l4-8.4c1.3-2.7,2.7-5.3,4.4-7.8l10.3-15.5
			c3.4-5.2,6.9-10.5,9.6-16.3c1.4-2.9,2.5-5.8,3.7-8.7l3.6-8.6l0.9-2.1c0.3-0.7,0.6-1.5,0.9-2.3c0.5-1.6,1-3.2,1.3-4.9"/>
		<path id="XMLID_7_" class="st3" d="M359,665.6c-0.2,1.3-0.3,2.3-0.5,3.1c-0.2,0.9-0.5,1.8-1,3l-1.8,4.3l-3.6,8.7
			c-1.3,3.1-2.2,5.3-3.5,7.7c-2.5,4.9-5.8,9.8-9.3,15l-5.3,7.9l-2.6,3.9c-0.4,0.6-0.9,1.4-1.5,2.2c-0.5,0.8-1,1.6-1.5,2.4
			c-1,1.6-1.8,3.3-2.6,4.9l-2.1,4.4l-2.1,4.4c-0.7,1.5-1.4,3.1-2.1,4.8c-0.7,1.6-1.3,3.3-1.9,4.9c-0.3,0.8-0.6,1.7-0.9,2.5
			c-0.1,0.4-0.3,1-0.5,1.6c-0.2,0.6-0.3,1.1-0.4,1.7c-1.1,4.5-1.2,8.3-1.4,11.2l-0.2,2.5c-0.1,1-0.1,2-0.1,2.9l-0.1,4.8
			c0,1.4-0.1,2.6-0.2,3.5c-0.1,0.4-0.1,0.8-0.2,1c-0.1,0.3-0.2,0.9-0.4,1.4c-0.7,2.1-1.9,4.8-3.3,7.9c-0.7,1.6-1.4,3.2-2,5.1
			c-0.4,1-0.6,1.8-0.9,2.7c-0.3,0.9-0.5,1.8-0.8,2.6c-0.9,3.5-1.7,7-2.2,10.4c-0.3,1.7-0.5,3.3-0.8,5l-0.3,2.1
			c-0.1,0.6-0.2,1.2-0.4,1.9c-0.5,2.6-1.3,5.4-2.2,8.5c-0.4,1.6-0.9,3.2-1.3,4.9c-0.4,1.8-0.8,3.7-1.1,5.6
			c-0.6,3.8-0.8,7.9-0.6,11.6l0.1,2.2c0,0.1,0,0.4-0.1,1c-0.1,1.2-0.5,3.2-0.3,6.4c0.1,1.1,0.2,2.2,0.4,3.3c0.2,1.1,0.5,1.9,0.7,2.6
			c0.2,0.6,0.5,1.2,0.7,1.5c0.4,0.7,0.7,0.9,0.9,1c0.5,0.1,1.1,0,1.7,0c0.6-0.1,1.3-0.2,1.6-0.8c0.2-0.3,0.2-0.8,0.1-1.6
			c-0.1-0.8-0.5-2-0.8-3.6c-0.2-0.8-0.3-1.7-0.3-2.6c-0.1-2.5,0.2-4.3,0.3-5.7c0.1-0.7,0.1-1.2,0.1-1.6l-0.1-2.3
			c-0.1-3.5,0-7.2,0.6-10.7c0.3-1.8,0.6-3.5,1-5.2c0.4-1.6,0.8-3.2,1.2-4.8c0.8-3.1,1.7-6,2.2-8.8c0.1-0.7,0.3-1.4,0.4-2.1l0.3-2.2
			c0.2-1.6,0.5-3.2,0.7-4.9c0.5-3.3,1.2-6.6,2.1-9.9c0.5-1.7,0.9-3.3,1.5-5c0.6-1.7,1.3-3.3,1.9-4.8c1.3-3,2.6-5.8,3.4-8.3
			c0.2-0.6,0.4-1.3,0.5-1.8c0.1-0.5,0.2-1,0.3-1.6c0.2-1.2,0.2-2.6,0.3-4l0.1-4.8c0-1.6,0.2-3.8,0.3-5.1c0.2-3,0.4-6.6,1.3-10.4
			c0.1-0.5,0.2-1,0.4-1.4c0.1-0.5,0.3-1,0.4-1.4l0.8-2.4c0.6-1.6,1.2-3.2,1.8-4.7c0.6-1.5,1.3-3.1,2-4.6l2.1-4.3
			c1.3-2.8,2.7-5.9,4.5-8.9c0.4-0.8,0.9-1.5,1.4-2.3c0.5-0.7,1-1.5,1.4-2.1l2.6-3.9l5.3-7.9c3.5-5.3,6.9-10.3,9.6-15.5
			c1.4-2.6,2.4-5.1,3.7-8.1l3.6-8.7l1.8-4.4c0.5-1.3,0.9-2.5,1.2-3.6c0.3-1.2,0.5-2.4,0.7-3.8"/>
	</g>
	<g id="XMLID_24_" class="st2">
		<g id="XMLID_194_">
			<g id="XMLID_211_">
				<path id="XMLID_214_" class="st4" d="M721.6,635.4c0,0-1-0.3-2.7-0.8c-1.7-0.5-4.3-1.2-7.9-2c-1.8-0.4-3.8-0.8-6.1-1.1
					c-2.1-0.3-4.4-0.6-6.8-0.8c-4.8-0.5-10-0.8-15.6-1.1c-5.5-0.4-11.4-0.8-17.7-1.2c-1.5-0.1-3-0.2-4.5-0.4
					c-0.7-0.1-1.5-0.2-2.2-0.3l-0.9-0.1l-0.9-0.2c-1.2-0.2-2.6-0.6-4-1c-0.7-0.2-1.4-0.4-2.1-0.6l-0.5-0.2c0,0-0.1,0-0.1,0
					c-0.1,0-0.2-0.1-0.3-0.1c-0.5-0.2-1.7-1-3.8-2.2c-1-0.6-2.3-1.3-3.8-1.8c-0.8-0.3-1.7-0.7-2.6-1c-2.9-1.1-5.8-2.5-8.7-4
					c-1.5-0.8-2.9-1.6-4.3-2.4l-2.5-1.5c-1.3-0.7-2.4-1.3-3.4-1.7c-2-0.9-3.4-1.5-4.1-1.9c-0.9-0.5-2.2-1.4-4.4-2.8
					c-1.1-0.7-2.5-1.4-3.9-2c-1.4-0.6-3-1.1-4-1.4c-2.4-0.7-4.7-1.1-7-1.4c-4.6-0.6-8.7-0.6-12.2-0.8c-0.9,0-1.7-0.1-2.6-0.1
					c-0.9,0-1.8-0.1-2.7-0.1c-1.9-0.1-3.8-0.2-5.7-0.2c-3.9-0.1-7.8,0-11.6,0.3c-3.5,0.3-6.9,0.5-10.3,0.8c-1.7,0.1-3.3,0.3-5,0.4
					c-2,0.2-2.5,0.2-3.7,0.2c-1.1,0-2.5-0.1-4-0.2c-0.8-0.1-1.6-0.1-2.5-0.2c-0.7,0-1.4-0.1-2.1-0.1c-0.9-0.1-1.6-0.2-2.6-0.4
					c-1-0.2-2.2-0.6-3.7-1c-1.8-0.5-2.3-0.6-3.2-0.9c-0.9-0.3-1.8-0.7-2.8-1.1c-1.9-0.8-4-1.9-6.1-2.9c-2.1-1-4.4-2.1-6.7-2.9
					c-2.3-0.8-4.1-1.4-5.6-1.9c-3.1-1-5-1.7-6.1-2.2c-0.6-0.2-1-0.4-1.2-0.6c-0.2-0.1-0.4-0.2-0.4-0.2c-1.2-0.6-2.3,0.1-3.1,1.1
					c-0.4,0.5-0.6,1.1-0.5,1.7c0.1,0.6,0.5,1.2,1.3,1.7c0,0,0.6,0.3,2,0.9c1.3,0.6,3.5,1.3,6.5,2.3c1.5,0.5,3.3,1,5.4,1.8
					c2.1,0.8,4.2,1.7,6.3,2.7c2.1,1,4.2,2,6.3,3c1,0.4,2.1,0.9,3.2,1.2c1.1,0.4,1.9,0.6,3.5,1c1.4,0.4,2.7,0.8,3.9,1.1
					c1.2,0.3,2.2,0.4,3.4,0.5c0.7,0,1.4,0.1,2.2,0.1c0.8,0.1,1.6,0.1,2.4,0.2c1.5,0.1,3,0.2,4.3,0.2c1.4,0,2.4-0.1,4.2-0.2
					c1.6-0.1,3.3-0.3,5-0.4c3.4-0.3,6.8-0.5,10.3-0.8c3.7-0.3,7.4-0.4,11.2-0.3c1.9,0,3.7,0.1,5.6,0.2c0.9,0,1.8,0.1,2.7,0.1
					c0.9,0,1.8,0.1,2.6,0.1c3.6,0.1,7.5,0.2,11.7,0.7c2.1,0.3,4.2,0.7,6.3,1.3c1,0.3,2.3,0.7,3.4,1.2c1.2,0.5,2.3,1.1,3.3,1.7
					c2,1.2,3.3,2.2,4.6,2.9c1.1,0.6,2.6,1.3,4.5,2.1c0.9,0.4,1.9,0.9,3,1.5l2.4,1.5c1.5,0.9,3,1.7,4.5,2.5c3,1.6,6.1,3,9.2,4.3
					c0.8,0.3,1.7,0.7,2.5,1c1.2,0.5,2.2,1,3.2,1.6c1.8,1.1,3.1,1.9,4.1,2.4c0.2,0.1,0.5,0.2,0.7,0.3l0.3,0.1l0.6,0.2
					c0.8,0.2,1.5,0.5,2.3,0.7c1.5,0.4,3,0.8,4.4,1.1l1,0.2l1.1,0.1c0.8,0.1,1.5,0.2,2.3,0.3c1.5,0.2,3.1,0.3,4.6,0.4
					c6.3,0.4,12.3,0.8,17.8,1.2c5.5,0.3,10.7,0.6,15.4,1.1c2.3,0.2,4.5,0.5,6.6,0.8c2.2,0.3,4.1,0.7,5.8,1.1
					c3.4,0.8,5.9,1.5,7.6,1.9c1.7,0.5,2.7,0.7,2.7,0.7c2.5,0.7,4.5,0.2,5-1c0.2-0.6,0.1-1.3-0.6-2
					C724,636.4,722.9,635.8,721.6,635.4z"/>
				<path id="XMLID_213_" class="st4" d="M720.6,644.5c0,0-1-0.3-2.7-0.8c-1.7-0.5-4.2-1.2-7.4-1.9c-1.6-0.4-3.4-0.8-5.5-1.1
					c-2-0.3-4.2-0.6-6.5-0.8c-4.6-0.5-9.8-0.8-15.3-1.2c-5.6-0.4-11.6-0.8-18-1.2c-3.1-0.2-6.4-0.5-9.6-1c-1.5-0.3-3.1-0.6-4.8-1
					c-0.8-0.2-1.6-0.4-2.4-0.7c-0.8-0.2-1.7-0.5-2.3-0.7c-1.3-0.5-2.7-1.4-4.3-2.3c-0.8-0.5-1.6-1-2.6-1.4c-0.5-0.2-0.9-0.4-1.4-0.6
					l-1.2-0.5c-3.3-1.3-6.5-2.7-9.7-4.4c-1.6-0.8-3.2-1.7-4.7-2.6l-2.3-1.4c-0.8-0.5-1.8-1-2.7-1.4c-1.8-0.8-3.5-1.5-5-2.3
					c-1.4-0.8-2.9-1.8-4.6-2.9c-1.7-1.1-3.7-2.1-5.7-2.6c-1.9-0.6-3.9-1-5.8-1.3c-3.9-0.6-7.7-0.7-11.4-0.8c-1.8,0-3.6-0.1-5.4-0.2
					c-1.8-0.1-3.7-0.2-5.5-0.2c-3.7-0.1-7.3,0-10.9,0.2c-3.5,0.3-6.9,0.5-10.3,0.8c-1.7,0.1-3.3,0.3-5,0.4c-0.8,0.1-1.6,0.1-2.4,0.2
					c-0.7,0.1-1.5,0.1-2.2,0.1c-1.5,0-3-0.1-4.6-0.2c-0.8-0.1-1.6-0.1-2.3-0.2c-0.8,0-1.5-0.1-2.3-0.1c-2.7-0.1-5.3-0.9-8-1.7
					c-0.7-0.2-1.3-0.4-2-0.5c-0.6-0.2-1.2-0.4-1.8-0.5c-1.2-0.4-2.3-0.9-3.5-1.3c-2.3-1-4.4-2-6.5-3c-2.1-1-4.1-1.9-6-2.6
					c-1.9-0.7-3.7-1.3-5.2-1.8c-3.1-1-5.4-1.8-6.9-2.4c-1.5-0.6-2.3-1-2.3-1c-1.9-1-3.5-0.7-4.3,0.3c-0.4,0.5-0.5,1.2-0.2,2
					c0.3,0.7,1,1.6,2.2,2.2c0,0,0.9,0.5,2.6,1.2c1.7,0.7,4.2,1.6,7.3,2.6c1.6,0.5,3.3,1,5,1.7c1.7,0.7,3.6,1.5,5.6,2.5
					c2,1,4.2,2.1,6.6,3.1c1.2,0.5,2.5,1,3.8,1.5c0.7,0.2,1.4,0.4,2.1,0.6c0.7,0.2,1.3,0.4,2,0.5c1.3,0.4,2.7,0.8,4.2,1.1
					c1.5,0.4,3.2,0.6,4.8,0.7c0.8,0,1.5,0.1,2.3,0.1c0.8,0.1,1.5,0.1,2.3,0.2c1.6,0.1,3.2,0.2,4.9,0.2c0.9,0,1.7,0,2.6-0.1
					c0.8-0.1,1.6-0.1,2.5-0.2c1.6-0.1,3.3-0.3,5-0.4c3.3-0.3,6.8-0.5,10.2-0.8c3.4-0.2,6.9-0.3,10.4-0.2c1.8,0,3.6,0.1,5.4,0.2
					c1.8,0.1,3.7,0.2,5.5,0.2c3.7,0.1,7.3,0.2,10.8,0.7c1.7,0.3,3.4,0.6,5.1,1.1c1.6,0.5,3,1.1,4.4,2.1c1.5,0.9,3.1,2.1,4.9,3.1
					c1.8,0.9,3.6,1.6,5.2,2.4c0.8,0.4,1.5,0.7,2.2,1.2l2.4,1.4c1.6,0.9,3.3,1.8,5,2.7c3.3,1.7,6.7,3.3,10.2,4.6l1.3,0.5
					c0.3,0.1,0.7,0.3,1,0.4c0.7,0.3,1.4,0.7,2.1,1.2c1.5,0.9,3.1,1.9,5,2.7c1,0.4,1.8,0.6,2.7,0.9c0.9,0.3,1.7,0.5,2.6,0.7
					c1.7,0.4,3.4,0.8,5.2,1.1c3.5,0.5,6.8,0.8,10,1c6.4,0.4,12.5,0.8,18.1,1.2c11.2,0.7,20.3,1.4,26.4,3c3.1,0.7,5.6,1.4,7.2,1.9
					c1.7,0.5,2.5,0.7,2.5,0.7c1.1,0.3,1.9,0.4,2.7,0.1c0.7-0.2,1.2-0.6,1.5-1.2c0.3-0.6,0.3-1.3-0.1-2
					C722.7,645.5,721.8,644.9,720.6,644.5z"/>
				<path id="XMLID_212_" class="st4" d="M720.9,654.3c0,0-0.1-0.1-0.4-0.2c-0.3-0.1-0.7-0.3-1.3-0.6c-0.6-0.2-1.5-0.5-2.6-0.9
					c-1.2-0.3-2.6-0.7-4.2-1.1c-3.2-0.8-6.8-1.8-11-2.3c-4.4-0.6-9.5-1-15.1-1.4c-2.9-0.2-5.9-0.4-9-0.6c-3.1-0.2-6.3-0.4-9.5-0.6
					c-3.3-0.2-6.8-0.4-10.4-0.9l-1.4-0.2l-1.5-0.2c-1-0.2-2-0.4-3-0.6c-1.9-0.4-3.8-0.9-5.6-1.5l-1.4-0.4l-0.3-0.1l-0.5-0.2
					c-0.3-0.1-0.6-0.2-0.9-0.3c-1.2-0.5-2.3-1.1-3.2-1.6c-1.9-1.1-3.2-2-4.2-2.4c-0.1-0.1-0.3-0.1-0.4-0.2l-0.5-0.2l-1.4-0.5
					c-0.9-0.4-1.9-0.7-2.8-1.1c-1.8-0.8-3.6-1.6-5.4-2.5c-1.8-0.9-3.6-1.8-5.3-2.8c-0.9-0.5-1.7-1-2.6-1.5l-2.3-1.4
					c-1.1-0.6-2.8-1.3-4.7-2.2c-1-0.4-2.1-1-3.2-1.6c-1-0.6-1.9-1.2-2.7-1.7c-1.6-1.1-2.6-1.7-3.7-2.1c-0.3-0.1-0.5-0.2-0.9-0.3
					c-0.4-0.1-0.7-0.2-1.1-0.3c-0.8-0.2-1.5-0.4-2.3-0.5c-3.2-0.6-6.6-0.7-10.4-0.8c-1.9-0.1-3.8-0.1-5.8-0.2
					c-1.8-0.1-3.6-0.2-5.4-0.2c-3.5-0.1-7,0-10.3,0.2c-3.5,0.3-7,0.5-10.4,0.8c-1.7,0.1-3.4,0.3-5.1,0.4c-0.9,0.1-1.7,0.1-2.6,0.2
					c-1,0.1-2,0.1-3,0.1c-1.9,0-3.7-0.2-5.3-0.3c-0.8-0.1-1.5-0.1-2.3-0.2l-1.1-0.1c-0.4,0-0.9,0-1.4-0.1c-1.9-0.1-3.8-0.5-5.5-0.9
					c-1.7-0.4-3.1-0.8-4.4-1.2c-0.7-0.2-1.5-0.4-2.2-0.6c-0.8-0.2-1.6-0.5-2.3-0.8c-1.5-0.5-2.9-1.1-4.2-1.7
					c-2.6-1.2-4.8-2.3-6.8-3.2c-2-1-3.8-1.7-5.4-2.3c-1.7-0.6-3.5-1.1-5.1-1.7c-3.3-1-6.1-2.1-8-3c-1-0.5-1.7-0.8-2.2-1.1
					c-0.5-0.3-0.8-0.4-0.8-0.4c-2.6-1.6-4.7-1.9-5.6-0.9c-0.4,0.5-0.5,1.2,0,2.2c0.5,1,1.5,2.1,3,3c0,0,0.3,0.2,0.9,0.5
					c0.6,0.3,1.4,0.8,2.5,1.3c2.2,1,5.3,2.2,8.6,3.3c1.7,0.5,3.4,1.1,5,1.6c0.4,0.1,0.7,0.3,1.1,0.4c0.4,0.2,0.8,0.3,1.2,0.5
					c0.8,0.4,1.7,0.7,2.7,1.2c1.9,0.9,4.2,2,6.9,3.3c1.4,0.6,2.9,1.2,4.5,1.8c0.8,0.3,1.7,0.6,2.6,0.8c0.8,0.2,1.5,0.4,2.3,0.6
					c1.2,0.3,2.7,0.8,4.5,1.2c1.9,0.5,4.1,0.9,6.3,1l0.8,0.1l0.7,0l1,0.1c0.7,0.1,1.5,0.1,2.2,0.2c1.6,0.1,3.5,0.3,5.6,0.3
					c1.1,0,2.2,0,3.4-0.1c0.9-0.1,1.8-0.1,2.7-0.2c1.7-0.1,3.4-0.3,5.1-0.4c3.4-0.3,6.8-0.5,10.3-0.8c3.2-0.2,6.5-0.3,9.9-0.2
					c1.7,0,3.5,0.1,5.3,0.2c2,0.1,4.1,0.2,5.9,0.2c3.7,0.1,6.9,0.2,9.6,0.7c0.7,0.1,1.3,0.3,2,0.4c0.3,0.1,0.6,0.2,0.9,0.3
					c0.2,0,0.3,0.1,0.3,0.1c0.1,0,0.2,0.1,0.2,0.1c0.3,0.1,0.6,0.2,1,0.5c0.4,0.2,1,0.6,1.8,1.1c0.8,0.5,1.8,1.2,2.9,1.9l0.9,0.5
					l0.9,0.5c0.6,0.3,1.2,0.6,1.7,0.8c2.1,1,3.7,1.6,4.4,2l2.2,1.3c0.9,0.5,1.8,1,2.7,1.6c1.8,1,3.7,2,5.5,2.9
					c1.9,0.9,3.8,1.8,5.7,2.6c1,0.4,1.9,0.8,2.9,1.2l1.5,0.6l0.4,0.1c0,0,0.1,0,0.2,0.1c0.5,0.2,1.7,1,3.8,2.2
					c1.1,0.6,2.4,1.3,3.9,1.9c0.4,0.2,0.8,0.3,1.2,0.4l0.6,0.2l0.4,0.1l1.5,0.4c1.9,0.6,3.9,1.1,6,1.6c1,0.2,2.1,0.4,3.3,0.6
					l1.6,0.2l1.4,0.2c3.8,0.4,7.4,0.7,10.7,0.9c3.3,0.2,6.5,0.4,9.5,0.6c3.1,0.2,6.1,0.4,9,0.6c5.6,0.3,10.6,0.8,14.8,1.3
					c0.5,0.1,1,0.1,1.5,0.2c0.5,0.1,0.9,0.2,1.3,0.2c0.9,0.2,1.8,0.3,2.6,0.5c1.7,0.4,3.4,0.8,4.9,1.2c1.5,0.4,2.9,0.8,4.1,1.1
					c1.1,0.3,1.7,0.5,2.2,0.7c0.9,0.4,1,0.5,1.1,0.5c0.3,0.2,0.5,0,0.9-0.3c0.4-0.3,0.8-0.7,1.3-1.2c0.4-0.4,0.8-0.9,0.9-1.5
					C721.7,655.2,721.5,654.6,720.9,654.3z"/>
			</g>
		</g>
	</g>
	<g id="XMLID_10_" class="st2">
		<g id="XMLID_183_">
			<g id="XMLID_188_">
				<path id="XMLID_191_" class="st4" d="M417.1,843.5c0,0,0.9-2.7,2.3-7.4c1.4-4.7,3.4-11.5,5.3-19.9c0.5-2.1,1-4.3,1.4-6.5
					c0.5-2.3,0.9-4.6,1.3-6.9c0.9-4.7,1.8-9.6,2.6-14.9c1.7-10.4,3.1-21.9,3-33.9c0-1.5,0-3-0.1-4.5l-0.1-2.2c0-0.5-0.1-1.1-0.1-1.7
					c-0.1-2.4,0-5.2-0.2-8.5c-0.1-1.7-0.3-3.5-0.6-5.4l-0.3-1.5l-0.4-1.6l-0.5-1.6c-0.2-0.5-0.4-1-0.6-1.4c-0.4-0.9-0.8-1.7-1.1-2.4
					c-0.3-0.6-0.5-1.1-0.7-1.4c-0.1-0.3-0.2-0.5-0.2-0.6c0-0.1-0.1-0.4-0.1-0.5c-0.1-0.3-0.1-1.2-0.2-2.3c-0.1-1.2-0.1-2.6-0.3-4.4
					c-0.1-1.7-0.7-4.3-1.4-6.3c-0.8-2.1-1.7-3.7-2.3-4.9c-0.7-1.2-1.1-1.9-1.3-2.4c-0.2-0.4-0.2-0.5-0.3-0.6c-0.1-0.9-0.3-2-0.2-3.2
					c0.1-2.4,0.9-5,1.9-7.2c0.9-2.3,2.1-4.2,3-5.8c1-1.5,1.9-2.7,2.5-3.4c0.3-0.4,0.5-0.6,0.7-0.8c0.2-0.2,0.2-0.3,0.2-0.3
					c0.9-0.9,0.4-2.2-0.4-3.1c-0.9-0.9-2.2-1.3-3.3-0.2c0,0-0.1,0.1-0.3,0.3c-0.2,0.2-0.5,0.5-0.8,1c-0.7,0.8-1.7,2.1-2.8,3.9
					c-1.1,1.8-2.4,4-3.5,6.6c-1.1,2.6-2,5.7-2.2,8.8c-0.1,1.6,0,3.1,0.3,4.6c0.2,1,0.8,2.2,2.1,4.4c0.6,1.1,1.4,2.5,2,4.2
					c0.6,1.6,1,3.6,1.1,5.1c0.2,1.6,0.2,2.9,0.3,4.1c0.1,1.2,0.1,2.2,0.3,3c0.1,0.8,0.3,1.4,0.7,2.2c0.4,0.8,1,2.1,1.7,3.7
					c0.3,0.8,0.6,1.7,0.9,2.5l0.3,1.3l0.3,1.3c0.3,1.7,0.5,3.3,0.5,4.8c0.2,3,0.1,5.8,0.2,8.3c0,0.6,0,1.2,0.1,1.8l0.1,2.1
					c0.1,1.5,0.1,2.9,0.1,4.3c0.1,11.6-1.3,22.8-3,33.1c-0.8,5.2-1.7,10.1-2.6,14.7c-0.4,2.3-0.9,4.6-1.3,6.8
					c-0.5,2.2-0.9,4.4-1.4,6.4c-1.9,8.2-3.9,14.9-5.3,19.6c-1.4,4.7-2.3,7.3-2.3,7.3C411.2,845.4,416,847,417.1,843.5z"/>
				<path id="XMLID_190_" class="st4" d="M408.2,841.8c0,0,0.9-2.6,2.3-7.3c1.4-4.6,3.4-11.3,5.3-19.4c1-4,1.9-8.5,2.8-13.2
					c0.9-4.7,1.8-9.6,2.6-14.7c1.7-10.2,3.1-21.3,3.1-32.6c0-1.4,0-2.8-0.1-4.2c-0.1-1.4-0.1-2.7-0.2-4.1c-0.1-2.7,0-5.4-0.2-8.2
					c-0.1-2.8-0.5-5.8-1.6-8.7c-0.5-1.4-1.2-2.6-1.7-3.7c-0.5-1.1-0.8-2.1-1-3.2c-0.4-2.1-0.3-4.6-0.6-7.3c-0.1-0.7-0.2-1.4-0.3-2.1
					c-0.1-0.7-0.3-1.4-0.6-2.1c-0.5-1.4-1.1-2.6-1.7-3.7c-1.2-2.2-2.2-3.9-2.6-5.6c-0.4-1.9-0.6-3.8-0.4-5.7
					c0.2-3.7,1.3-7.2,2.5-10.1c1.2-2.9,2.6-5.4,3.8-7.3c1.3-1.9,2.3-3.3,3.1-4.3c0.4-0.5,0.7-0.8,0.9-1.1c0.2-0.2,0.3-0.3,0.3-0.3
					c1.1-1.2,0.9-2.7,0-3.6c-0.8-0.9-2.4-1.2-3.7,0.2c0,0-0.1,0.1-0.4,0.4c-0.2,0.3-0.6,0.7-1,1.2c-0.9,1-2.1,2.6-3.5,4.7
					c-1.4,2.1-2.9,4.8-4.2,8.1c-0.7,1.6-1.3,3.4-1.8,5.4c-0.3,1-0.4,2-0.7,3c-0.1,1.1-0.3,2.1-0.4,3.3c-0.2,2.3,0,4.6,0.5,7.1
					c0.6,2.6,2,5,3.1,6.9c0.6,1,1,1.9,1.3,2.9c0.3,0.9,0.5,1.9,0.6,3c0.2,2.3,0.1,4.9,0.6,7.8c0.3,1.5,0.8,2.9,1.4,4.2
					c0.6,1.3,1.2,2.4,1.6,3.5c0.8,2.1,1.1,4.5,1.3,7.1c0.1,2.6,0.1,5.3,0.1,8.1c0.1,1.4,0.1,2.8,0.2,4.1c0.1,1.3,0.1,2.7,0.1,4
					c0,10.8-1.3,21.6-3,31.8c-0.8,5.1-1.7,10-2.6,14.6c-0.9,4.6-1.8,9-2.7,12.9c-1.9,8-3.8,14.5-5.2,19.1c-1.4,4.6-2.3,7.2-2.3,7.2
					C402.3,843.6,407.1,845.2,408.2,841.8z"/>
				<path id="XMLID_189_" class="st4" d="M398.6,842.1c0,0,0.9-2.6,2.3-7.3c1.5-4.6,3.5-11.3,5.4-19.3c1-4,2-8.4,2.8-13
					c0.9-4.7,1.8-9.7,2.7-14.9c1.7-10.3,3.2-21.2,3.2-31.9c0-1.3,0-2.7,0-4c-0.1-1.4-0.1-2.8-0.2-4.1c-0.1-3.1-0.1-5.9-0.2-8.4
					c-0.1-2.5-0.4-4.7-0.9-6.2c-0.3-0.9-0.7-1.7-1.4-3.2c-0.7-1.4-1.4-3.3-1.8-5.1c-0.4-1.9-0.5-3.6-0.6-5c-0.1-1.4-0.1-2.6-0.2-3.6
					c0-0.5-0.1-0.9-0.2-1.3c-0.1-0.3-0.1-0.6-0.2-0.9c-0.2-0.6-0.6-1.3-1.1-2.3c-0.5-0.9-1.2-2.1-1.9-3.5c-0.7-1.4-1.3-3.1-1.6-4.7
					c-0.6-3-0.7-5.8-0.5-8.4c0.5-5.2,1.9-9.6,3.4-13.2c1.6-3.6,3.3-6.5,4.9-8.9c1.5-2.3,3-4,4-5.2c0.5-0.6,0.9-1,1.2-1.3
					c0.3-0.3,0.4-0.4,0.4-0.4c1.4-1.5,1.5-3.1,0.6-4.1c-0.4-0.5-1-0.7-1.8-0.7c-0.7,0.1-1.7,0.4-2.4,1.3c0,0-0.2,0.2-0.5,0.5
					c-0.3,0.3-0.8,0.8-1.3,1.4c-1.1,1.3-2.7,3.1-4.3,5.7c-1.7,2.5-3.6,5.7-5.3,9.7c-1.7,4-3.3,8.8-3.8,14.8c-0.2,3-0.1,6.3,0.6,9.9
					c0.4,2.1,1.2,4.2,2,5.9c0.8,1.7,1.6,2.9,2,3.8c0.5,0.9,0.7,1.3,0.7,1.5c0,0.1,0,0.1,0.1,0.2c0,0.1,0.1,0.4,0.1,0.8
					c0.1,0.8,0.1,1.9,0.2,3.4c0.1,1.5,0.2,3.4,0.7,5.8c0.5,2.2,1.4,4.6,2.1,6.1c0.8,1.6,1.1,2.2,1.3,2.8c0.3,0.7,0.5,2.4,0.6,4.7
					c0.1,2.3,0,5.1,0.2,8.5c0.1,1.4,0.1,2.7,0.2,4.1c0,1.3,0.1,2.5,0,3.8c0,10.3-1.5,21-3.2,31.1c-0.8,5.1-1.8,10.1-2.7,14.8
					c-0.9,4.5-1.8,8.8-2.8,12.8c-1.9,7.9-3.9,14.4-5.4,19c-1.4,4.6-2.3,7.2-2.3,7.2C392.7,843.9,397.5,845.5,398.6,842.1z"/>
			</g>
		</g>
	</g>
	<g id="XMLID_11_" class="st2">
		<g id="XMLID_171_">
			<g id="XMLID_176_">
				<path id="XMLID_180_" class="st4" d="M545.6,721.7c0,0-0.2-0.3-0.5-0.7c-0.3-0.5-0.9-1.2-1.5-2.2c-0.7-1-1.5-2.3-2.5-3.9
					c-1-1.6-2.2-3.6-3.7-5.9c-1.5-2.3-3.4-4.9-5.9-7.5c-0.6-0.6-1.2-1.3-1.9-1.9c-0.7-0.6-1.4-1.3-2-1.8c-1.2-1-2.4-2.1-3.8-3.1
					c-2.7-2.1-5.8-4.3-9-6.1c-1.6-0.9-3.2-1.7-4.7-2.5c-1.4-0.7-2.9-1.4-4.4-2.1c-5.4-2.6-10.4-5.4-14.6-8.4c-4.3-2.9-7.6-6-10-8.8
					c-4.7-5.6-5.9-9.9-5.9-9.9c-0.5-1.4-5.3,0-4.7,1.7c0,0,0.1,0.3,0.3,0.9c0.2,0.6,0.6,1.4,1.1,2.5c1.1,2.1,2.7,5,5.4,8.1
					c2.7,3.1,6.4,6.5,10.9,9.6c4.5,3.1,9.8,6.1,15.3,8.8c1.4,0.7,2.9,1.4,4.3,2.1c1.5,0.7,3,1.5,4.5,2.4c3,1.7,5.9,3.7,8.4,5.7
					c1.3,1,2.5,2,3.6,3c0.6,0.6,1.2,1.1,1.8,1.7c0.6,0.6,1.1,1.2,1.7,1.7c2.2,2.3,3.9,4.7,5.4,6.8c2.9,4.3,4.7,7.7,6.1,9.8
					c0.7,1.1,1.3,1.9,1.6,2.4c0.4,0.5,0.6,0.8,0.6,0.8C542.8,726.1,546.6,722.9,545.6,721.7z"/>
				<path id="XMLID_179_" class="st4" d="M538.8,727.5c0,0-0.2-0.3-0.7-0.9c-0.4-0.6-1-1.4-1.8-2.5c-1.5-2.2-3.4-5.7-6.1-9.8
					c-1.4-2.1-3-4.3-4.9-6.4c-1-1.1-2.1-2.1-3.2-3.1c-1.1-1-2.3-1.9-3.5-2.9c-2.4-1.9-5.1-3.8-7.9-5.4c-2.8-1.6-5.8-3-8.6-4.4
					c-2.8-1.4-5.6-2.8-8.3-4.3c-2.7-1.5-5.3-3.1-7.6-4.8c-4.8-3.3-8.8-6.9-11.8-10.3c-3-3.4-4.9-6.7-6-9c-0.5-1.2-0.9-2.1-1.2-2.8
					c-0.2-0.7-0.3-1-0.3-1c-0.6-1.8-5.4-0.5-4.7,1.7c0,0,0.1,0.4,0.4,1.2c0.3,0.7,0.8,1.8,1.4,3.2c1.3,2.6,3.5,6.3,6.8,10.1
					c3.3,3.8,7.6,7.7,12.7,11.2c2.5,1.8,5.2,3.4,8,5c2.8,1.5,5.7,3.1,8.6,4.5c2.9,1.4,5.7,2.7,8.3,4.3c2.6,1.5,5,3.2,7.3,5
					c1.1,0.9,2.2,1.8,3.3,2.7c1,0.9,1.9,1.8,2.8,2.8c1.7,1.9,3.2,3.9,4.5,5.8c2.5,3.9,4.5,7.4,6.1,9.8c0.8,1.2,1.5,2.1,1.9,2.8
					c0.5,0.6,0.7,1,0.7,1C536.2,732.3,540,729.1,538.8,727.5z"/>
				<path id="XMLID_177_" class="st4" d="M533.1,734.8c0,0-0.3-0.4-0.8-1c-0.3-0.3-0.6-0.8-1-1.3c-0.4-0.5-0.8-1.1-1.2-1.7
					c-1.8-2.6-4-6.4-6.5-10.3c-1.2-1.9-2.6-3.9-4.1-5.7c-1.6-1.8-3.2-3.3-5.6-5.3c-2.2-1.8-4.5-3.4-6.9-4.9
					c-2.5-1.5-5.2-2.8-8.1-4.2c-6.1-2.9-12.1-6.2-17.5-10c-5.4-3.7-10.2-7.9-13.8-12.2c-3.6-4.2-6-8.4-7.4-11.3
					c-0.7-1.5-1.2-2.7-1.5-3.6c-0.3-0.8-0.4-1.3-0.4-1.3c-0.8-2.2-5.6-1-4.7,1.6c0,0,0.2,0.5,0.5,1.4c0.3,0.9,0.9,2.2,1.7,3.9
					c1.6,3.3,4.2,7.9,8.1,12.5c3.9,4.6,9,9.1,14.8,13c5.7,4,12,7.3,18.2,10.4c2.9,1.4,5.5,2.7,7.8,4c2.2,1.3,4.2,2.8,6.3,4.5
					c2.3,1.9,3.6,3,4.9,4.6c1.3,1.5,2.5,3.3,3.7,5.1c2.3,3.7,4.6,7.7,6.6,10.4c0.5,0.7,1,1.3,1.3,1.9c0.4,0.5,0.8,1,1.1,1.4
					c0.6,0.7,0.9,1.1,0.9,1.1C531,740,534.6,736.5,533.1,734.8z"/>
			</g>
		</g>
	</g>
	<g id="XMLID_12_" class="st2">
		<g id="XMLID_161_">
			<g id="XMLID_166_">
				<path id="XMLID_169_" class="st4" d="M503,845.3c0.6-3.2,1.1-6.2,1.5-9.1c0.4-2.9,0.7-5.7,1.2-8.1c0.1-0.6,0.2-1.2,0.3-1.8
					l0.4-2.2c0.3-1.5,0.5-2.9,0.8-4.4c0.5-3,1-6.1,1.3-9.4c0.3-3.3,0.4-6.9-0.1-10.8l-0.6-4.4l-0.6-4.4c-0.2-1.5-0.5-3.1-0.8-4.7
					c-0.2-0.8-0.3-1.6-0.5-2.5l-0.3-1.3l-0.2-0.7l-0.2-0.8c-0.8-2.7-1.9-5.4-3.5-7.7c-0.8-1.1-1.7-2.2-2.8-3.1
					c-0.5-0.4-1.1-0.8-1.7-1.2c-0.6-0.4-1.2-0.7-1.9-1l-0.8-0.4L494,767l-0.1-0.1c-0.2-0.1-0.3-0.2-0.5-0.3
					c-0.3-0.2-0.6-0.4-0.8-0.5c-0.5-0.4-1-0.8-1.4-1.1c-0.8-0.8-1.4-1.6-1.8-2.6c-0.4-1-0.8-2.1-0.9-3.5c-0.2-1.3-0.1-3.5,0-5.7
					c0.2-4.5,0.7-9.1,1.3-13.6c0.7-4.5,1.5-9,2.7-12.6c0.1-0.5,0-0.9-0.4-1.3c-0.4-0.4-0.9-0.7-1.5-0.9c-1.2-0.4-2.5-0.4-2.9,0.7
					c-1.3,4.1-2.2,8.8-2.9,13.4c-0.7,4.7-1.1,9.5-1.3,14.1c-0.1,2.3-0.2,4.7,0.1,6.5c0.2,1.9,0.6,3.6,1.3,5.1
					c0.7,1.5,1.7,2.9,2.9,4.1c0.6,0.6,1.3,1.2,2,1.7c0.4,0.3,0.8,0.5,1.2,0.7c0.2,0.1,0.4,0.2,0.6,0.3l0.2,0.1l0.4,0.2l0.7,0.3
					c0.5,0.2,1,0.5,1.5,0.8c0.5,0.3,0.9,0.5,1.4,0.9c0.9,0.7,1.6,1.5,2.2,2.4c1.2,1.8,2,3.9,2.6,6.1l0.2,0.7l0.2,0.6l0.3,1.2
					c0.2,0.8,0.3,1.6,0.5,2.3c0.3,1.5,0.5,3,0.8,4.5l0.6,4.3l0.6,4.3c0.4,3.4,0.3,6.7,0.1,9.8c-0.3,3.1-0.7,6.1-1.2,9
					c-0.2,1.5-0.5,2.9-0.8,4.3l-0.4,2.1c-0.1,0.7-0.2,1.3-0.3,1.9c-0.9,5.3-1.4,11-2.6,17.1c-0.3,1.4,0.8,2.4,2,2.7
					C501.3,847.3,502.8,846.7,503,845.3z"/>
				<path id="XMLID_168_" class="st4" d="M494.1,844.3c1.2-5.8,1.7-11.6,2.6-17.2c0.4-2.7,1.1-5.6,1.6-8.5c0.5-2.9,0.9-5.8,1.2-8.8
					c0.3-3,0.3-6,0-9.1c-0.1-0.8-0.2-1.5-0.3-2.2l-0.3-2.1l-0.6-4.3c-0.4-2.9-0.9-5.8-1.8-8.8c-0.5-1.7-1.1-3.3-2-4.8
					c-0.5-0.7-1-1.4-1.7-1.9c-0.7-0.5-1.5-0.8-2.3-1.2l-0.5-0.2l-0.4-0.2c-0.2-0.1-0.5-0.3-0.7-0.4c-0.5-0.3-1-0.6-1.4-0.9
					c-0.9-0.6-1.8-1.3-2.5-2.1c-1.6-1.5-2.8-3.3-3.7-5.3c-0.9-2-1.4-4.1-1.7-6.4c-0.2-2.2-0.2-4.6-0.1-7c0.2-4.8,0.7-9.7,1.4-14.5
					c0.7-4.8,1.6-9.6,3-14.1c0.8-2.3-3.8-4.2-4.8-1.5c-1.6,5-2.5,9.9-3.2,14.9c-0.7,5-1.2,10-1.4,15c-0.1,2.5-0.2,5.1,0.1,7.8
					c0.3,2.7,0.9,5.4,2.1,7.9c1.2,2.5,2.8,4.8,4.8,6.8c1,1,2.1,1.8,3.2,2.6c0.6,0.4,1.1,0.8,1.7,1.1c0.3,0.2,0.6,0.3,0.9,0.5
					l0.4,0.2l0.3,0.2c0.5,0.3,1,0.5,1.5,0.7c0.5,0.3,0.8,0.8,1.1,1.3c0.6,1,0.9,2.1,1.2,3.1c0.7,2.5,1.2,5.4,1.6,8.1l0.6,4.2
					l0.3,2.1c0.1,0.7,0.2,1.4,0.3,2.1c0.3,2.6,0.2,5.4,0,8.1c-0.2,2.8-0.7,5.6-1.2,8.4c-0.5,2.8-1.1,5.5-1.6,8.5
					c-0.9,5.8-1.4,11.5-2.6,17c-0.3,1.2,0.8,2.1,2,2.4C492.4,846,493.8,845.7,494.1,844.3z"/>
				<path id="XMLID_167_" class="st4" d="M484.8,844.5c0.6-2.5,1.1-5.2,1.5-8.1l1.2-8.9c0.2-1.5,0.5-3.1,0.8-4.7l0.8-4.3
					c0.5-2.8,1-5.7,1.3-8.4c0.3-2.7,0.4-5.3,0.2-7.7c0-0.3,0-0.6-0.1-0.9l-0.1-1l-0.3-2.2l-0.6-4.3c-0.4-2.8-0.9-5.6-1.5-8
					c-0.1-0.4-0.2-0.7-0.3-1c-0.1-0.3-0.2-0.6-0.4-0.9c-0.2-0.3-0.4-0.5-0.6-0.7c-0.3-0.2-0.6-0.3-0.9-0.4l-0.2-0.1c0,0,0,0,0,0
					l-0.1-0.1l-0.3-0.1c-0.3-0.2-0.7-0.4-1-0.6c-0.7-0.4-1.3-0.8-2-1.3c-1.3-0.9-2.6-1.9-3.7-3.1c-2.3-2.3-4.3-5.1-5.6-8.1
					c-1.4-3-2.1-6.2-2.4-9.3c-0.3-3.2-0.2-5.8-0.1-8.4c0.3-5.3,0.8-10.4,1.5-15.6c0.8-5.2,1.8-10.4,3.5-15.8c1-2.8-3.6-4.9-4.7-1.6
					c-1.9,5.9-2.9,11.3-3.8,16.7c-0.8,5.4-1.3,10.6-1.6,16.1c-0.1,1.4-0.1,2.8-0.1,4.2c0,0.8,0,1.5,0,2.3c0,0.8,0.1,1.7,0.2,2.6
					c0.3,3.5,1.2,7.3,2.8,10.9c1.6,3.6,3.9,6.9,6.7,9.6c1.4,1.4,2.8,2.6,4.4,3.6c0.8,0.5,1.5,1,2.3,1.5c0.4,0.2,0.8,0.4,1.2,0.7
					l0.3,0.2l0.1,0.1l-0.2-0.1l0,0.1c0.5,2,1,4.7,1.4,7.4l0.6,4.3l0.3,2.3l0.1,0.9c0,0.2,0.1,0.5,0.1,0.7c0.2,1.9,0.1,4.3-0.2,6.8
					c-0.3,2.5-0.7,5.2-1.2,8l-0.8,4.2c-0.3,1.7-0.6,3.4-0.8,5l-1.2,8.9c-0.4,2.8-0.9,5.4-1.4,7.5c-0.2,0.9,0.8,1.7,2,2.1
					C483.1,845.7,484.5,845.6,484.8,844.5z"/>
			</g>
		</g>
	</g>
	<g id="XMLID_13_" class="st2">
		<g id="XMLID_150_">
			<g id="XMLID_156_">
				<path id="XMLID_159_" class="st4" d="M663.7,778.6c0,0-0.1-0.1-0.3-0.3c-0.2-0.2-0.5-0.5-0.9-0.9c-0.8-0.8-1.8-1.9-3.2-3.6
					c-1.4-1.6-3.1-3.8-5.2-6.5c-2.1-2.7-4.6-5.7-7.3-9c-2.7-3.3-5.6-6.9-8.7-10.7c-3.1-3.7-6.3-7.6-9.9-11.8
					c-3.6-4.1-7.6-8.4-11.9-12.5c-2.1-2-4.3-4-6.5-5.9c-1.1-1-2.2-1.9-3.3-2.8c-1.2-1-2.4-2-3.6-2.9c-2.5-1.9-5-3.6-7.4-5.3
					c-2.5-1.6-4.9-3.2-7.3-4.7c-4.7-2.9-9.1-5.6-12.9-8.4c-1.9-1.4-3.7-2.8-5.4-4.2c-0.9-0.7-1.6-1.4-2.4-2.1
					c-0.8-0.8-1.6-1.5-2.4-2.3c-3.2-3.1-6.1-6.2-8.7-9.1c-5.2-5.9-9.1-11.2-11.7-15c-2.7-3.8-4.1-6-4.1-6c-1.9-2.9-6.1-0.3-4.2,2.7
					c0,0,1.5,2.3,4.2,6.2c2.7,3.9,6.8,9.3,12.1,15.4c2.7,3,5.6,6.2,8.9,9.4c0.8,0.8,1.7,1.6,2.5,2.4c0.9,0.7,1.7,1.5,2.6,2.3
					c1.8,1.5,3.7,3,5.7,4.4c4,2.9,8.5,5.6,13.1,8.6c4.7,2.9,9.6,6.1,14.3,9.7c1.2,0.9,2.3,1.9,3.5,2.8c1.1,0.9,2.2,1.8,3.3,2.8
					c2.2,1.9,4.3,3.8,6.4,5.8c4.1,3.9,8,8.1,11.5,12.1c3.5,4.1,6.7,8,9.8,11.7c3.1,3.8,5.9,7.3,8.6,10.6c2.7,3.3,5.1,6.3,7.3,9
					c2.1,2.7,3.8,5,5.3,6.7c1.5,1.7,2.6,3,3.5,3.9c0.4,0.4,0.7,0.7,0.9,1c0.2,0.2,0.3,0.3,0.3,0.3c1.2,1.1,2.6,0.7,3.5-0.2
					C664.5,781,664.8,779.6,663.7,778.6z"/>
				<path id="XMLID_158_" class="st4" d="M658.2,785.8c0,0-0.5-0.5-1.4-1.3c-0.9-0.9-2.2-2.2-3.7-4c-1.6-1.8-3.4-4.1-5.4-6.8
					c-2.1-2.7-4.6-5.7-7.2-9c-2.7-3.3-5.6-6.8-8.6-10.6c-3.1-3.7-6.3-7.7-9.8-11.7c-3.5-4-7.2-8.1-11.3-12c-2-1.9-4.1-3.9-6.2-5.7
					c-2.1-1.9-4.3-3.7-6.6-5.5c-9.1-7.1-19.2-12.3-27.5-18.3c-4.2-3-8-6.2-11.4-9.5c-3.4-3.3-6.5-6.6-9.2-9.7
					c-5.5-6.2-9.6-11.8-12.4-15.8c-2.8-4-4.3-6.3-4.3-6.3c-2-3-6.2-0.4-4.2,2.7c0,0,1.5,2.4,4.4,6.5c2.9,4.1,7.1,9.8,12.7,16.2
					c2.8,3.2,6,6.6,9.5,10c3.5,3.4,7.6,6.8,11.9,9.9c8.8,6.3,18.8,11.5,27.4,18.2c2.1,1.7,4.3,3.5,6.3,5.3c2.1,1.8,4.1,3.7,6.1,5.6
					c3.9,3.8,7.6,7.7,11,11.6c3.4,3.9,6.6,7.9,9.7,11.6c3,3.7,5.9,7.3,8.6,10.5c2.6,3.3,5.1,6.2,7.2,8.9c2.1,2.7,4,5.1,5.6,7
					c1.6,1.9,3,3.4,4,4.3c1,1,1.5,1.5,1.5,1.5c1.4,1.3,3,1,3.8,0C659.4,788.5,659.5,787,658.2,785.8z"/>
				<path id="XMLID_157_" class="st4" d="M654.9,794.9c0,0-0.6-0.5-1.7-1.5c-1.1-1-2.7-2.5-4.6-4.5c-1.9-2-4-4.5-6.2-7.4
					c-1.1-1.4-2.2-2.9-3.4-4.4c-1.2-1.5-2.5-3.1-3.9-4.8c-2.7-3.3-5.6-6.9-8.7-10.7c-3.1-3.8-6.5-7.9-9.9-11.9c-3.4-4-7-8-10.9-11.8
					c-1.9-1.9-4-3.8-6-5.6c-1.1-0.9-2.1-1.8-3.2-2.7l-1.6-1.4l-1.6-1.3c-4.2-3.4-8.8-6.4-13.5-9.3c-4.7-3-9.7-6-14.3-9.3
					c-2.3-1.7-4.6-3.4-6.7-5.2c-1.1-0.9-2.1-1.8-3.1-2.7c-1-0.9-1.9-1.8-2.9-2.7c-3.7-3.6-7-7.1-10-10.5c-5.9-6.7-10.3-12.7-13.3-17
					c-3-4.3-4.6-6.8-4.6-6.8c-2-3.2-6.3-0.5-4.2,2.7c0,0,1.6,2.6,4.7,6.9c3.1,4.3,7.6,10.5,13.6,17.4c3,3.5,6.4,7.1,10.3,10.8
					c1,0.9,1.9,1.8,3,2.8c1.1,0.9,2.1,1.9,3.3,2.9c2.2,1.9,4.6,3.7,7,5.4c4.8,3.4,9.8,6.5,14.5,9.4c4.7,2.9,9.1,5.8,13.1,9l1.5,1.2
					l1.6,1.3c1.1,0.9,2.1,1.8,3.1,2.7c2,1.8,4,3.6,5.9,5.4c3.8,3.7,7.2,7.5,10.6,11.5c1.7,2,3.4,4,5,6c1.7,2,3.3,4,4.8,5.8
					c3.1,3.8,6,7.3,8.7,10.6c1.3,1.6,2.6,3.2,3.8,4.7c1.2,1.6,2.4,3.1,3.4,4.4c2.3,2.9,4.5,5.6,6.5,7.7c2,2.1,3.7,3.8,4.9,4.8
					c1.2,1.1,1.9,1.6,1.9,1.6c1.7,1.4,3.3,1,4.1,0C656.5,797.7,656.5,796.2,654.9,794.9z"/>
			</g>
		</g>
	</g>
	<g id="XMLID_31_" class="st2">
		<g id="XMLID_114_">
			<g id="XMLID_144_">
				<path id="XMLID_148_" class="st4" d="M646,825.8c0,0-0.4-0.3-1-0.8c-0.7-0.5-1.7-1.3-3-2.2c-2.5-1.8-6.2-3.9-10.2-6
					c-1-0.5-1.9-1-3.3-1.7c-1.2-0.6-2.5-1.2-3.7-1.7c-2.4-1.1-4.6-2-6.5-3c-0.9-0.5-1.8-1-2.5-1.5c-0.7-0.5-1.5-1-2.2-1.7
					c-1.6-1.3-3.3-3.1-5.3-5.2l-1.6-1.6l-0.7-0.7c-0.1-0.1-0.3-0.3-0.4-0.5c-0.6-0.7-1.2-1.5-2-2.5c-0.8-1.2-1.6-2.3-2.4-3.5
					c-0.5-0.7-1-1.3-1.5-2l-0.8-1l-0.5-0.6c-1.1-1.4-2.2-3.2-3.3-5.1c-0.5-0.9-1.1-1.9-1.6-2.9c-0.2-0.3-0.2-0.3-0.2-0.4l-0.1-0.2
					l-0.1-0.3c-0.2-0.4-0.4-0.9-0.6-1.3c-0.8-2-1.8-4.2-2.9-6.3c-0.5-1-1.2-2.1-1.8-3.1c-0.4-0.5-0.7-1-1-1.5
					c-0.4-0.5-0.8-1-1.2-1.4c-0.3-0.4-0.8-0.9-1.3-1.3c-0.2-0.2-0.4-0.4-0.6-0.6c-0.1-0.1-0.2-0.2-0.3-0.3c-0.1-0.1-0.2-0.2-0.4-0.3
					c-0.5-0.4-0.9-0.7-1.4-1c-0.2-0.1-0.4-0.3-0.6-0.4c-0.2-0.1-0.3-0.2-0.5-0.3c-0.6-0.3-1.1-0.6-1.4-0.7c-0.3-0.1-0.5-0.2-0.5-0.2
					c-0.9-0.3-1.7-0.4-2.3,0c-0.6,0.3-1,0.9-1.2,1.5c-0.4,1.2,0,2.5,1.3,3c0,0,0.1,0,0.4,0.1c0.2,0.1,0.6,0.3,1.1,0.6
					c0.1,0.1,0.2,0.1,0.4,0.2c0.1,0.1,0.3,0.2,0.5,0.3c0.3,0.2,0.7,0.5,1,0.8c0.4,0.3,0.6,0.6,1,0.9c0.3,0.3,0.7,0.7,1,1
					c2.5,2.9,4.3,6.9,6,10.9c0.2,0.5,0.4,0.9,0.6,1.4c0.2,0.5,0.3,0.7,0.6,1.2c0.5,1,1.1,2,1.6,3c1.1,2,2.4,4,3.7,5.7l0.6,0.7
					l0.7,0.9c0.5,0.6,0.9,1.2,1.4,1.9c0.8,1.1,1.6,2.3,2.4,3.5c0.8,1.1,1.5,2.1,2.3,2.9c0.2,0.2,0.4,0.4,0.6,0.6l0.7,0.7l1.5,1.6
					c2,2.1,3.8,4,5.7,5.6c1.8,1.6,3.6,2.7,5.7,3.8c2.1,1.1,4.4,2.1,6.8,3.1c2.3,1,4.8,2.3,6.6,3.2c3.9,2,7.4,4,9.7,5.7
					c1.2,0.8,2.1,1.5,2.7,2c0.6,0.5,0.9,0.8,0.9,0.8C644.5,831,647.9,827.4,646,825.8z"/>
				<path id="XMLID_147_" class="st4" d="M640.7,833.1c0,0-1.2-1-3.4-2.6c-2.2-1.6-5.4-3.5-9.4-5.5c-1-0.5-2-1-3.1-1.6
					c-1.1-0.6-2.2-1.1-3.4-1.6c-2.3-1-4.7-2.1-7-3.2c-2.3-1.2-4.5-2.5-6.6-4.3c-2.1-1.7-4-3.8-6-5.9l-1.5-1.6l-0.8-0.8
					c-0.2-0.2-0.5-0.5-0.7-0.7c-0.9-1-1.7-2.1-2.5-3.2c-0.8-1.2-1.6-2.3-2.5-3.5c-0.4-0.6-0.8-1.2-1.3-1.8c-0.4-0.6-1-1.2-1.3-1.6
					c-1.6-2-2.9-4.1-4.1-6.3c-0.6-1.1-1.2-2.1-1.7-3.1c-0.3-0.5-0.5-0.9-0.7-1.4c-0.2-0.5-0.4-1-0.6-1.5c-1.7-4-3.4-7.6-5.4-9.9
					c-0.2-0.3-0.5-0.6-0.8-0.8c-0.3-0.2-0.5-0.5-0.7-0.7c-0.5-0.4-1-0.8-1.3-0.9c-0.4-0.2-0.7-0.3-0.8-0.4c-0.2-0.1-0.3-0.1-0.3-0.1
					c-1.1-0.4-2.1,0.8-2.5,2c-0.4,1.2-0.4,2.3,0.3,2.5c0,0,0.3,0.1,0.7,0.3c0.3,0.1,0.4,0.3,0.7,0.5c0.1,0.1,0.3,0.3,0.4,0.4
					c0.2,0.2,0.3,0.3,0.5,0.5c1.4,1.5,2.9,4.6,4.6,8.6c0.2,0.5,0.5,1,0.7,1.6c0.2,0.5,0.6,1.2,0.8,1.7c0.6,1.1,1.1,2.2,1.8,3.3
					c1.3,2.2,2.7,4.6,4.5,6.9c0.5,0.6,0.8,1,1.3,1.6c0.4,0.5,0.8,1.1,1.2,1.6c0.8,1.2,1.6,2.3,2.5,3.5c0.9,1.2,1.8,2.4,2.8,3.6
					c0.3,0.3,0.5,0.6,0.8,0.9l0.8,0.8l1.5,1.6c2,2.1,4.1,4.3,6.4,6.3c2.3,2,5,3.6,7.5,4.9c2.5,1.3,5,2.3,7.3,3.3
					c1.1,0.5,2.2,1,3.2,1.5c1,0.5,2,1,3,1.5c3.8,2,6.8,3.8,8.8,5.2c2,1.4,3,2.3,3,2.3C638.8,838.1,642.3,834.5,640.7,833.1z"/>
				<path id="XMLID_145_" class="st4" d="M636,840.9c0,0-0.2-0.2-0.7-0.6c-0.4-0.4-1.1-0.9-2-1.6c-1.8-1.4-4.5-3.1-8.3-5.1
					c-1-0.5-2-1-3-1.6c-0.5-0.3-1-0.5-1.5-0.8c-0.5-0.2-1-0.5-1.6-0.7c-2.2-1-4.7-2.1-7.5-3.4c-1.4-0.7-2.8-1.4-4.3-2.3
					c-1.5-0.9-2.9-1.9-4.3-3c-2.7-2.2-5-4.6-7.1-6.7c-1.1-1.1-2.1-2.2-3.2-3.3c-1.2-1.4-2.3-2.7-3.3-4c-0.9-1.2-1.7-2.4-2.6-3.6
					c-0.4-0.6-0.8-1.1-1.1-1.6l-0.6-0.7l-0.7-0.8c-2.1-2.7-3.6-5.2-5-7.6c-0.7-1.2-1.3-2.4-1.9-3.5c-0.1-0.2-0.3-0.7-0.5-1
					c-0.2-0.4-0.3-0.7-0.4-1c-0.2-0.6-0.5-1.1-0.7-1.7c-0.9-2.1-1.6-3.7-2.3-5c-0.7-1.3-1.3-2.1-1.7-2.5c-0.1-0.1-0.2-0.2-0.2-0.2
					c-0.1-0.1-0.1,0-0.1-0.1c0,0-0.3-0.2-0.4-0.2c-0.3-0.1-0.4-0.1-0.4-0.1c-1-0.1-1.7,4.6-1.9,4.5c0,0,0.1,0.1-0.2-0.1
					c-0.1,0-0.1-0.1-0.2-0.1l-0.1-0.1l0,0l0,0l0,0c-0.4,0.5,3.4-4,1.8-2.1l-0.2,0.2c-0.5,0.6-1,1.1-1.6,1.7l-0.1,0.1c0,0,0,0,0,0
					c0,0,0,0,0,0l0,0c0,0,0,0,0,0.1c0,0,0.1,0.1,0.2,0.3l0.1,0.2c0.1,0.1,0.1,0.2,0.2,0.3c0.1,0.2,0.2,0.4,0.4,0.7
					c0.6,1,1.2,2.5,2.1,4.6c0.3,0.6,0.5,1.2,0.8,1.8c0.2,0.3,0.3,0.6,0.5,1.1c0.2,0.4,0.5,0.9,0.6,1.2c0.6,1.1,1.2,2.3,2,3.6
					c1.4,2.5,3.1,5.3,5.5,8.3l0.6,0.8l0.5,0.6c0.3,0.5,0.7,1,1.1,1.4c0.9,1.2,1.7,2.4,2.6,3.7c1,1.4,2.2,2.9,3.6,4.5
					c1.1,1.1,2.2,2.3,3.2,3.4c2.1,2.2,4.6,4.8,7.6,7.2c1.5,1.2,3.2,2.4,4.8,3.4c1.6,1,3.2,1.8,4.7,2.5c2.9,1.4,5.5,2.5,7.6,3.5
					c0.5,0.2,1,0.5,1.5,0.7c0.5,0.2,1,0.5,1.4,0.7c1,0.5,2,1.1,3,1.6c3.7,2,6.2,3.5,7.7,4.7c0.8,0.6,1.3,1,1.7,1.4
					c0.4,0.3,0.5,0.5,0.5,0.5C633.5,845.4,637.1,842,636,840.9z"/>
			</g>
		</g>
	</g>
	<g id="XMLID_216_" class="st0">
		<g id="XMLID_42_">
			<path id="XMLID_65_" class="st5" d="M288.7,355"/>
		</g>
	</g>
	<g id="XMLID_6_" class="st2">
		<g id="XMLID_26_">
			<g id="XMLID_133_">
				<g id="XMLID_137_">
					<path id="XMLID_140_" class="st6" d="M380.8,121.1c0,0,0-1.3-0.1-3.5c-0.1-2.1-0.5-5.1-1-8.3c-0.1-0.7-0.2-1.4-0.3-2.2l0-0.4
						c0-0.2,0-0.3,0-0.5c0-0.4-0.1-0.9-0.1-1.4c-0.2-1.9-0.3-4-0.6-6.4c-0.3-2.4-0.6-5-1.1-7.8c-0.5-2.9-1.3-6-2.5-9.4
						c-0.6-1.7-1.4-3.4-2.4-5.2c-0.2-0.4-0.5-0.9-0.7-1.3c-0.3-0.4-0.6-0.9-0.9-1.3c-0.6-1-1.1-1.5-1.6-2.2c-1-1.4-2-2.7-3.1-4
						c-0.5-0.7-1.1-1.3-1.6-2c-0.6-0.6-1.1-1.3-1.7-1.9c-4.7-5.2-9.9-10.1-15.7-14.7c-5.8-4.6-12.1-8.8-18.9-12.7
						c-6.8-3.8-13.9-7.2-21.9-9.7c-8.1-2.6-16.2-3.7-24-4.2c-7.8-0.5-15.3-0.2-22.4,0.2c-7.1,0.5-13.8,1.2-20,1.9
						c-1.5,0.2-3.2,0.4-4.8,0.6c-1.6,0.2-3.2,0.5-4.8,0.7c-3.1,0.6-6.1,1.1-9,1.8c-11.5,2.7-20.9,6.5-27.3,9.9
						c-1.6,0.8-3,1.7-4.2,2.3c-1.2,0.7-2.2,1.4-3.1,1.9c-0.8,0.5-1.5,1-1.9,1.3c-0.4,0.3-0.6,0.5-0.6,0.5c-0.6,0.4-1,0.8-1.4,1.2
						c-0.3,0.4-0.6,0.9-0.7,1.3c-0.3,0.8-0.1,1.5,0.2,2c0.4,0.5,1,0.8,1.9,0.7c0.4,0,0.8-0.1,1.3-0.3c0.5-0.2,1-0.4,1.5-0.8
						c0,0,0.2-0.1,0.6-0.4c0.4-0.3,1-0.7,1.8-1.2c0.8-0.5,1.7-1.1,2.9-1.8c1.2-0.6,2.5-1.5,4-2.2c6.1-3.2,15-6.9,26.1-9.5
						c2.8-0.7,5.7-1.2,8.7-1.8c1.5-0.3,3.1-0.5,4.6-0.7c1.6-0.2,3.2-0.4,4.7-0.6c6.2-0.7,12.8-1.5,19.8-1.9c7-0.4,14.2-0.7,21.8-0.2
						c7.5,0.5,15.2,1.5,22.8,4c7.5,2.4,14.4,5.7,20.9,9.3c6.5,3.7,12.6,7.8,18.2,12.2c5.6,4.4,10.7,9.1,15.1,14.1
						c0.6,0.6,1.1,1.2,1.6,1.8c0.5,0.6,1,1.3,1.6,1.9c1,1.2,2,2.5,2.9,3.8c0.5,0.7,0.9,1.2,1.4,2c0.2,0.4,0.5,0.8,0.7,1.2
						c0.2,0.4,0.4,0.8,0.6,1.2c0.9,1.6,1.5,3.1,2.1,4.6c2.2,6.1,2.8,11.5,3.4,16c0.2,2.3,0.4,4.4,0.6,6.3c0,0.5,0.1,0.9,0.1,1.4
						c0,0.2,0,0.4,0.1,0.6c0,0.2,0,0.4,0.1,0.5c0.1,0.8,0.2,1.6,0.3,2.3c0.5,3.1,0.8,5.9,0.9,7.9c0.1,2,0.1,3.1,0.1,3.1
						c0,1.5,0.2,2.7,0.5,3.6c0.3,0.9,0.8,1.5,1.5,1.7c0.6,0.1,1.3-0.3,1.9-1.2C380.3,124.2,380.8,122.8,380.8,121.1z"/>
					<path id="XMLID_139_" class="st6" d="M371.7,122.6c0,0,0.1-1,0.1-2.9c0-1.8-0.3-4.5-0.8-7.7c-0.2-1.6-0.5-3.3-0.7-5.1
						c-0.2-1.9-0.4-4-0.6-6.2c-0.5-4.5-1-9.6-2.9-15.2c-0.9-2.7-2.2-5.6-4.1-8.3c-0.9-1.2-1.8-2.5-2.8-3.7c-1-1.2-2-2.5-3.1-3.6
						c-4.3-4.8-9.2-9.5-14.6-13.8C337,51.7,331,47.6,324.7,44c-1.6-0.9-3.2-1.8-4.8-2.6l-2.5-1.3l-2.5-1.2c-1.7-0.8-3.4-1.5-5.1-2.2
						l-2.6-1c-0.9-0.3-1.8-0.7-2.7-0.9l-2.7-0.8l-2.7-0.7l-1.4-0.3l-1.4-0.3l-2.8-0.5c-3.7-0.6-7.4-1.1-11-1.3
						c-7.3-0.5-14.5-0.3-21.4,0.2c-6.9,0.4-13.5,1.2-19.7,1.9c-6.3,0.7-12.3,1.7-17.7,3c-10.9,2.5-19.6,6.1-25.4,9.1
						c-1.5,0.7-2.7,1.5-3.8,2.1c-1.1,0.7-2,1.3-2.8,1.7c-0.8,0.5-1.3,0.9-1.7,1.1c-0.4,0.3-0.6,0.4-0.6,0.4
						c-0.5,0.4-0.9,0.7-1.2,1.1c-0.3,0.4-0.5,0.8-0.6,1.2c-0.2,0.8,0,1.4,0.4,1.9c0.4,0.5,1,0.8,1.8,0.8c0.4,0,0.8-0.1,1.2-0.2
						c0.4-0.1,0.9-0.4,1.4-0.7c0,0,0.2-0.1,0.5-0.4c0.4-0.2,0.8-0.6,1.6-1.1c0.7-0.4,1.5-1,2.6-1.6c1.1-0.6,2.2-1.3,3.6-2
						c5.5-2.9,13.8-6.3,24.2-8.7c5.2-1.2,10.9-2.2,17.1-2.9c6.2-0.7,12.7-1.4,19.5-1.9c6.7-0.4,13.7-0.6,20.7-0.2
						c3.5,0.2,7,0.7,10.5,1.2l2.6,0.5l1.3,0.3l1.3,0.3l2.6,0.7l2.5,0.8c0.8,0.2,1.7,0.6,2.5,0.9l2.5,0.9c1.6,0.7,3.3,1.3,4.9,2.1
						l2.4,1.1l2.4,1.2c1.6,0.8,3.1,1.7,4.7,2.5c6.1,3.5,11.8,7.4,17.1,11.6c5.2,4.2,9.9,8.7,14,13.2c1,1.1,1.9,2.3,2.9,3.5
						c0.9,1.1,1.8,2.3,2.6,3.5c1.6,2.2,2.6,4.6,3.4,7c1.6,4.9,2.2,9.8,2.6,14.1c0.2,2.2,0.4,4.3,0.6,6.2c0.2,2.1,0.5,3.8,0.7,5.4
						c0.5,3.1,0.7,5.5,0.7,7.1c0,1.6-0.1,2.4-0.1,2.4c-0.1,1,0.1,1.8,0.4,2.4c0.3,0.6,0.8,1.1,1.4,1.3c0.6,0.2,1.3,0.1,1.9-0.4
						C371.1,124.9,371.6,123.9,371.7,122.6z"/>
					<path id="XMLID_138_" class="st6" d="M362.3,123.9c0,0,0,0,0.1-0.1c0-0.1,0.1-0.4,0.2-0.8c0.2-0.9,0.3-2.9,0-5.8
						c-0.1-1.4-0.4-3.1-0.7-5c-0.1-1-0.3-2-0.5-3.3c0-0.3-0.1-0.6-0.1-1c0-0.3,0-0.5-0.1-0.8c0-0.6-0.1-1.1-0.1-1.7
						c-0.4-4.5-0.8-9.4-2-14.1c-0.6-2.4-1.3-4.7-2.4-6.7l-0.4-0.8l-0.5-0.7c-0.2-0.4-0.7-1.1-1.2-1.6c-0.4-0.6-0.9-1.2-1.3-1.7
						c-0.5-0.6-0.9-1.1-1.4-1.7c-3.8-4.6-8.3-9.1-13.4-13.4c-10.2-8.5-22.6-16.2-35.7-20.9c-6.4-2.2-13.2-3.4-20.1-3.9
						c-6.9-0.5-13.9-0.4-20.7,0.1c-6.8,0.4-13.4,1.2-19.8,1.9c-1.6,0.2-3.1,0.4-4.6,0.6c-1.5,0.2-2.9,0.4-4.3,0.7
						c-2.8,0.5-5.6,1-8.1,1.7c-10.4,2.4-18.5,5.9-23.8,8.8c-2.6,1.5-4.6,2.7-5.9,3.6c-1.3,0.9-2,1.4-2,1.4c-3.4,2.7,0,6.4,3,4
						c0,0,0.6-0.4,1.8-1.3c1.2-0.8,3-2,5.5-3.3c2.5-1.3,5.6-2.8,9.4-4.3c3.8-1.5,8.2-2.9,13.2-4c2.5-0.6,5.1-1.1,7.8-1.6
						c1.4-0.2,2.8-0.4,4.2-0.6c1.4-0.2,2.8-0.4,4.5-0.5c6.3-0.7,12.9-1.4,19.5-1.9c6.7-0.4,13.4-0.6,20-0.1c6.6,0.4,13,1.6,18.9,3.6
						c6.1,2.2,12.3,5.1,18.1,8.6c5.8,3.4,11.2,7.3,16.1,11.4c4.9,4.1,9.2,8.4,12.8,12.7c0.4,0.5,0.9,1.1,1.3,1.6
						c0.4,0.5,0.8,1.1,1.2,1.6c0.4,0.5,0.9,1.2,1,1.4l0.3,0.5l0.3,0.6c0.8,1.5,1.5,3.5,2,5.5c1,4.2,1.5,8.9,1.8,13.4
						c0,0.6,0.1,1.1,0.1,1.7c0,0.3,0,0.6,0.1,0.8c0,0.4,0.1,0.7,0.1,1.1c0.2,1.4,0.3,2.5,0.5,3.5c0.3,1.9,0.5,3.5,0.6,4.8
						c0.3,2.6,0.1,4.1,0.1,4.4c0,0,0,0.1,0,0.1l0,0c0,0,0,0,0,0c0.1,0,0.2,0.1,0.3,0.1c0.4,0.1,0.7,0.2,1,0.3
						c0.2,0.1,0.3,0.1,0.4,0.2c0.1,0,0.2,0.1,0.3,0.1c0.4,0.1,0.8,0.3,1,0.4c0.2,0.1,0.3,0.1,0.3,0.1c1.9,0.9,2.1,1.4,2.2,1.4
						c0.1,0.1,0,0,0,0l0,0l0,0c0,0,0.1,0.1,0,0c0,0-0.2-0.2-0.4-0.4c-0.1-0.1-0.2-0.1-0.3-0.2c-0.1,0-0.1,0-0.2-0.1
						C362.3,124,362.2,123.9,362.3,123.9C362.3,124,362.3,124,362.3,123.9z"/>
				</g>
			</g>
		</g>
		<g id="XMLID_30_">
			<g id="XMLID_122_">
				<g id="XMLID_127_">
					<path id="XMLID_130_" class="st6" d="M356,345.2c0,0,0.3-0.1,0.8-0.4c0.4-0.2,1.1-0.5,1.9-1c1.5-0.8,3.7-1.9,6.5-3.3
						c1.4-0.7,2.8-1.4,4.4-2.2c0.8-0.4,1.6-0.8,2.4-1.2c0.6-0.3,1.2-0.6,1.8-0.8c0.7-0.3,1.4-0.7,2-1.1c2.7-1.5,5.1-3.4,7.1-5
						c1-0.8,1.9-1.5,2.7-2.1l0.6-0.5l0.3-0.2l0.1-0.1l0,0c0.1,0.2-0.1-0.3-0.1-0.2l0.1,0.1c0,0,0,0,0,0l0,0c0,0,0.1-0.1,0.5-0.3
						c0.6-0.3,2-0.9,4.4-2.2c1.2-0.7,2.4-1.5,3.4-2.5c0.5-0.5,1.1-1,1.5-1.4c0.4-0.4,0.8-0.9,1.2-1.3c1.5-1.7,2.5-3.3,3.3-4.5
						c0.8-1.2,1.5-2.1,1.8-2.5c4.4-4.9,8.8-10.4,12.9-16.4c4.1-6,7.9-12.6,11.2-19.7c0.9-1.7,1.5-3.6,2.3-5.4
						c0.7-1.8,1.4-3.7,2.1-5.6c0.6-1.9,1.2-3.8,1.7-5.8c0.5-2,1-3.9,1.4-6l0.6-3c0.2-1,0.3-2,0.4-3.1c0.1-1,0.3-2,0.4-3.1l0.2-3.1
						l0.1-1.5l0-1.8c0-1.2-0.1-2.4-0.2-3.5c-0.2-2.3-0.5-4.6-1-6.7c-0.9-4.3-2.2-8-3.4-11.5c-1.3-3.5-2.5-6.7-3.6-9.6
						c-0.3-0.7-0.5-1.4-0.8-2.1c-0.1-0.4-0.3-1-0.5-1.7c-0.4-1.5-0.9-3.4-1.8-5.8c-0.1-0.3-0.2-0.6-0.4-0.9c-0.1-0.3-0.3-0.6-0.4-1
						c-0.2-0.3-0.3-0.6-0.6-1.1c-0.2-0.4-0.6-1-0.6-1.1l-0.2-0.3l-0.3-0.5l-0.3-0.4c-0.3-0.5-0.7-1-1.1-1.4
						c-0.8-0.9-1.7-1.7-2.3-2.2l-0.9-0.7l0,0l-0.3-0.3l-0.5-0.6c-1.5-1.7-3.1-4.1-5.2-6.8c-1.1-1.3-2.2-2.8-3.6-4.2
						c-0.7-0.7-1.4-1.4-2.2-2c-0.6-0.5-1.1-0.9-1.6-1.4c-4.2-3.6-8.4-7-12.6-9.8c-4.2-2.8-8.3-5-12.1-6.5c-1-0.4-1.8-0.7-2.7-1
						c-0.9-0.3-1.7-0.5-2.5-0.8c-1.6-0.4-3-0.7-4.2-0.9c-1.2-0.1-2.1-0.2-2.7-0.3c-0.6-0.1-0.9-0.1-0.9-0.1c-1.7,0-3,0.2-3.8,0.8
						c-0.8,0.5-1.2,1.2-1.1,1.8c0.1,0.6,0.5,1.2,1.3,1.6c0.8,0.4,1.9,0.8,3.4,0.8c0,0,0.3,0,0.8,0.1c0.5,0.1,1.3,0.2,2.4,0.3
						c1,0.2,2.3,0.4,3.7,0.8c0.7,0.2,1.4,0.4,2.2,0.7c0.8,0.2,1.6,0.6,2.5,0.9c3.4,1.3,7.2,3.4,11.1,6c3.9,2.6,8,5.9,12.1,9.4
						c0.5,0.5,1.1,0.9,1.6,1.4c0.7,0.6,1.3,1.2,1.9,1.8c1.2,1.2,2.3,2.5,3.3,3.8c2,2.5,3.6,5,5.3,7l0.6,0.7l0.5,0.6
						c0.3,0.3,0.3,0.2,1.3,1.1c0.5,0.4,1.1,0.9,1.7,1.6c0.3,0.3,0.6,0.7,0.8,1l0.2,0.3l0.2,0.3l0.2,0.3c0.1,0.1,0.3,0.5,0.5,0.8
						c0.2,0.4,0.3,0.6,0.4,0.9c0.3,0.5,0.5,1.1,0.7,1.6c0.8,2,1.2,3.8,1.6,5.3c0.2,0.8,0.4,1.4,0.6,2c0.3,0.7,0.5,1.5,0.8,2.2
						c2.2,6.1,5.1,12.7,6.8,20.5c0.4,1.9,0.7,4,0.9,6c0.1,1.1,0.2,2.1,0.1,3.2l0,1.6l-0.1,1.5l-0.2,2.9c-0.1,1-0.2,1.9-0.3,2.9
						c-0.1,1-0.2,1.9-0.4,2.9l-0.5,2.9c-0.3,1.9-0.9,3.8-1.3,5.6c-0.5,1.9-1.1,3.7-1.6,5.5c-0.7,1.8-1.3,3.6-2,5.3
						c-0.7,1.7-1.4,3.5-2.2,5.2c-3.1,6.8-6.8,13.1-10.8,18.9c-4,5.8-8.2,11.1-12.5,15.9c-0.6,0.7-1.4,1.7-2.2,3
						c-0.8,1.2-1.8,2.6-3,4.1c-0.3,0.4-0.6,0.7-1,1.1c-0.4,0.4-0.8,0.8-1.2,1.1c-0.8,0.7-1.7,1.4-2.7,1.9c-1.8,1-3.2,1.6-4.1,2
						c-0.4,0.2-0.8,0.4-1,0.6l-0.1,0.1l-0.2,0.1l-0.3,0.2l-0.7,0.5c-0.9,0.7-1.8,1.4-2.8,2.2c-1.9,1.6-4.1,3.2-6.4,4.6
						c-0.6,0.3-1.2,0.7-1.8,1c-0.5,0.3-1.1,0.5-1.6,0.8c-0.9,0.4-1.7,0.8-2.5,1.2c-1.6,0.8-3.1,1.6-4.5,2.3c-2.8,1.4-5,2.6-6.5,3.3
						c-0.8,0.4-1.4,0.7-1.8,0.9c-0.5,0.2-0.7,0.3-0.7,0.3c-1.3,0.6-2.3,1.3-3,2c-0.7,0.7-1.2,1.5-1,2.1c0.1,0.6,0.9,1.1,2.1,1.2
						C353.1,346.1,354.6,345.9,356,345.2z"/>
					<path id="XMLID_129_" class="st6" d="M350.8,337.7c0,0,1-0.4,2.6-1.2c1.5-0.8,3.7-1.9,6.5-3.4c1.4-0.7,2.9-1.5,4.6-2.3
						c0.8-0.4,1.7-0.8,2.6-1.3c0.5-0.2,0.9-0.4,1.4-0.6c0.5-0.2,1-0.5,1.6-0.8c2.1-1.1,4.2-2.6,6.2-4.1c1-0.8,1.9-1.6,3-2.4
						c0.5-0.4,1-0.8,1.5-1.1l0.8-0.5c0.2-0.1,0.4-0.3,0.7-0.4c1-0.6,2.2-1.1,3.5-1.7c0.7-0.3,1.5-0.8,2.2-1.3c0.7-0.5,1.4-1.1,2-1.7
						c2.4-2.4,3.8-5.2,5.6-7.4c0.2-0.3,0.4-0.5,0.7-0.8l0.8-0.9c0.5-0.6,1.1-1.2,1.6-1.8c1.1-1.2,2.1-2.5,3.1-3.8c1-1.3,2-2.6,3.1-4
						c1-1.4,2-2.7,3-4.1c3.9-5.7,7.5-11.8,10.6-18.4c3-6.6,5.6-13.6,7.1-20.9c0.3-1.8,0.7-3.6,0.9-5.5l0.4-2.8
						c0.1-0.9,0.1-1.9,0.2-2.8c0.1-1.8,0.2-3.8,0.1-5.7c0-1-0.2-1.9-0.3-2.8c-0.2-0.9-0.3-1.9-0.5-2.8c-1.5-7.3-4.4-13.9-6.6-20.1
						c-0.3-0.8-0.6-1.6-0.8-2.3c-0.3-0.8-0.5-1.4-0.7-2.2c-0.4-1.5-0.8-3.2-1.4-4.9c-0.3-0.9-0.6-1.7-1.2-2.6
						c-0.1-0.3-0.2-0.4-0.3-0.6l-0.1-0.1l-0.1-0.2c-0.1-0.1-0.2-0.2-0.3-0.3c-0.3-0.5-0.8-0.9-1.2-1.2c-0.4-0.3-0.8-0.6-1.1-0.8
						c-0.3-0.2-0.5-0.4-0.7-0.6c-0.4-0.4-0.9-1-1.4-1.5c-1.9-2.2-3.6-4.7-5.4-7.1c-0.9-1.2-1.9-2.4-3-3.5c-0.5-0.5-1.1-1.1-1.6-1.6
						c-0.6-0.5-1.1-0.9-1.6-1.4c-4.1-3.5-8.1-6.7-11.8-9.2c-3.8-2.5-7.3-4.4-10.4-5.7c-0.8-0.3-1.5-0.6-2.2-0.8
						c-0.7-0.2-1.4-0.4-2-0.6c-1.3-0.3-2.4-0.5-3.3-0.7c-0.9-0.1-1.6-0.2-2.1-0.2c-0.5-0.1-0.7-0.1-0.7-0.1c-1.3,0-2.3,0.2-2.9,0.8
						c-0.6,0.5-0.8,1.2-0.8,1.8c0.1,0.6,0.4,1.2,1,1.6c0.6,0.4,1.4,0.8,2.4,0.8c0,0,0.2,0,0.6,0c0.4,0,1,0.1,1.7,0.2
						c0.8,0.1,1.7,0.3,2.8,0.6c0.5,0.2,1.1,0.3,1.7,0.5c0.6,0.2,1.3,0.5,2,0.7c2.7,1.1,6,2.8,9.5,5.2c3.5,2.4,7.3,5.4,11.4,8.9
						c0.5,0.4,1.1,0.9,1.5,1.3c0.5,0.4,0.9,0.9,1.4,1.3c0.9,0.9,1.8,2,2.6,3.1c1.7,2.2,3.4,4.7,5.6,7.2c0.5,0.6,1.1,1.2,1.8,1.9
						c0.3,0.3,0.7,0.6,1.1,0.9c0.3,0.3,0.6,0.5,0.8,0.6c0.2,0.2,0.3,0.3,0.5,0.5c0,0,0.1,0.1,0.1,0.1l0,0c-0.1-0.1,0,0,0,0l0.1,0.1
						c0.1,0.2,0.2,0.4,0.3,0.5c0.3,0.5,0.6,1.2,0.8,1.8c0.5,1.4,0.9,2.9,1.3,4.5c0.2,0.8,0.5,1.7,0.8,2.5c0.3,0.8,0.6,1.6,0.9,2.4
						c2.4,6.4,5.1,12.8,6.4,19.4c0.2,0.8,0.3,1.6,0.4,2.5c0.1,0.8,0.2,1.7,0.2,2.5c0.1,1.7,0.1,3.3-0.1,5c-0.1,0.9-0.1,1.7-0.2,2.6
						l-0.3,2.6c-0.2,1.7-0.6,3.4-0.9,5.1c-1.4,6.8-3.8,13.5-6.7,19.8c-2.9,6.3-6.4,12.2-10.2,17.6c-1,1.3-1.9,2.7-2.9,4
						c-1,1.3-2,2.6-3,3.8c-1,1.2-2,2.5-3,3.6c-0.5,0.6-1,1.2-1.5,1.7l-0.8,0.9c-0.3,0.3-0.6,0.7-0.8,1c-2.1,2.7-3.5,5.3-5.3,7
						c-0.4,0.4-0.8,0.8-1.3,1.1c-0.5,0.3-0.9,0.6-1.5,0.9c-1.1,0.6-2.5,1.1-3.9,1.9c-0.3,0.2-0.7,0.4-1,0.7l-0.9,0.6
						c-0.6,0.4-1.1,0.8-1.6,1.2c-1,0.8-2,1.6-3,2.4c-1.9,1.5-3.6,2.7-5.4,3.6c-0.5,0.2-0.9,0.4-1.4,0.7c-0.5,0.2-1,0.5-1.4,0.7
						c-0.9,0.5-1.8,0.9-2.7,1.3c-1.7,0.9-3.3,1.7-4.7,2.4c-2.8,1.4-5,2.6-6.5,3.3c-1.4,0.7-2.2,1-2.2,1c-1,0.4-1.5,0.8-1.9,1.4
						c-0.3,0.5-0.6,1.1-0.6,1.8c0,0.6,0.3,1.3,1.1,1.6C348.4,338.2,349.5,338.2,350.8,337.7z"/>
					<path id="XMLID_128_" class="st6" d="M346.3,334.3c0,0,0.1-0.2,0.3-1.2c0-0.5,0.1-1.4-0.1-2.5c0-0.2,0-0.3-0.1-0.5l0-0.2
						c0-0.1,0-0.2,0-0.2l0,0c0,0,0.1,0,0.2,0c0.3-0.1,1-0.3,1.9-0.7c0.8-0.4,2.2-1.1,3.6-1.8c2.8-1.5,6.3-3.3,10.6-5.4
						c1-0.5,2-0.9,3-1.4c0.8-0.4,1.6-0.9,2.5-1.4c1.7-1.1,3.6-2.7,6-4.6c0.6-0.5,1.2-0.9,1.9-1.4c0.3-0.2,0.8-0.6,1.2-0.8
						c0.5-0.3,0.9-0.5,1.3-0.8c1.7-0.9,3.1-1.4,3.8-1.8c0.3-0.2,0.6-0.3,0.8-0.6c0.2-0.2,0.5-0.5,0.9-0.9c0.7-0.8,1.5-2,2.4-3.3
						c0.5-0.7,1-1.4,1.6-2.2c0.3-0.4,0.6-0.8,1-1.2l0.9-1c1-1.2,2.1-2.3,3.1-3.6c1-1.2,2.1-2.4,3-3.7c1-1.3,2-2.6,2.9-3.9
						c3.9-5.3,7.5-11.1,10.5-17.3c3-6.2,5.4-12.7,6.9-19.3c0.4-1.7,0.7-3.3,1-5l0.3-2.5l0.2-1.3l0.1-1.3l0.2-2.5c0-0.4,0-0.8,0-1.2
						c0-0.4,0-0.7,0-1.1c-0.1-1.5-0.2-3-0.5-4.5c-1.1-6.2-3.8-12.5-6.3-19.2c-0.3-0.8-0.6-1.7-0.9-2.5l-0.2-0.6l-0.3-0.8
						c-0.2-0.5-0.3-1-0.4-1.4c-0.5-1.8-0.9-3.3-1.3-4.4c-0.1-0.3-0.2-0.5-0.3-0.8c0-0.1-0.1-0.2-0.1-0.3l-0.1-0.2c0,0,0,0,0-0.1
						l-0.2-0.3l-0.1-0.1l0-0.1c-0.1,0,1-0.2,0.5-0.2c0.1-0.1,0.2-0.2,0.3-0.2l0.1-0.1l-0.1,0.1l-0.4,0.4l-0.2,0.2c0,0,0,0,0,0l0,0
						c0,0-0.2-0.2-0.6-0.5c-0.5-0.3-1-0.8-1.4-1.2c-1-1-1.5-1.6-2.1-2.3c-2.4-2.8-4.1-5.4-5.8-7.5c-0.8-1-1.6-2-2.4-2.8
						c-0.4-0.4-0.8-0.7-1.2-1.1c-0.5-0.5-1.1-0.9-1.6-1.3c-4.1-3.5-7.9-6.5-11.3-8.7c-3.4-2.2-6.5-3.8-9-4.7
						c-0.6-0.3-1.2-0.4-1.8-0.6c-0.3-0.1-0.5-0.2-0.8-0.2c-0.3-0.1-0.5-0.1-0.7-0.2c-0.5-0.1-0.9-0.2-1.3-0.3
						c-0.4,0-0.8-0.1-1.1-0.1c-0.7-0.1-1.1-0.1-1.5-0.1c-0.3,0-0.5,0-0.5,0c-3.6,0.2-2.3,5.1,0,5c0,0,0.1,0,0.4,0
						c0.2,0,0.6,0,1.1,0.1c0.2,0,0.5,0.1,0.8,0.1c0.3,0,0.7,0.1,1,0.2c0.2,0,0.4,0.1,0.6,0.1c0.2,0.1,0.4,0.1,0.7,0.2
						c0.5,0.1,0.9,0.2,1.5,0.5c2.1,0.7,4.8,2.1,7.9,4.1c3.2,2,6.8,4.9,10.8,8.3c0.5,0.4,1,0.9,1.5,1.3l0.5,0.4l0.4,0.4
						c0.6,0.6,1.3,1.4,2,2.3c1.5,1.9,3.3,4.6,5.9,7.7c0.3,0.4,0.7,0.8,1,1.2c0.3,0.3,0.9,1,1.5,1.5c0.6,0.5,1.2,1.1,1.8,1.5l0.4,0.3
						l0,0l0,0l0.6-0.7c0.4-0.5,0.8-1,1.2-1.4l0.7-0.8l0.9-1l0.4-0.4l0.1-0.1l-0.1,0.1c-0.1,0-0.2,0.1-0.3,0.2c2.6-1.4-3.7,2-3.1,1.7
						l-0.1,0.2l-0.2,0.3l-0.4,0.6c0,0.1-0.3,0.1-0.4,0.2l-0.2,0.1c-0.1,0-0.1,0-0.1,0c0,0-0.1-0.1-0.1-0.1c0,0,0,0,0,0
						c0,0,0,0.1,0.1,0.1c0,0.1,0.1,0.3,0.2,0.5c0.3,0.8,0.6,2.2,1.2,4.1l0.2,0.8l0.3,0.8l0.3,0.9l0.2,0.7c0.3,0.9,0.6,1.8,0.9,2.6
						c2.6,6.8,5.1,12.9,6,18.3c0.2,1.3,0.4,2.6,0.4,3.8c0,0.3,0,0.6,0,0.9c0,0.3,0,0.6,0,1l-0.2,2.3l-0.1,1.2l-0.2,1.2l-0.3,2.3
						c-0.3,1.5-0.5,3.1-0.9,4.6c-1.4,6.2-3.7,12.3-6.5,18.2c-2.9,5.9-6.3,11.4-10,16.6c-0.9,1.3-1.9,2.5-2.8,3.8
						c-0.9,1.2-1.9,2.4-2.9,3.6c-1,1.2-2,2.3-3,3.4l-1,1.1c-0.4,0.5-0.8,1-1.1,1.4c-0.7,0.9-1.2,1.7-1.7,2.4c-1,1.4-1.7,2.4-2.1,2.9
						c-0.1,0.1-0.2,0.2-0.3,0.3c-0.1,0.1,0,0,0,0c0,0,0,0,0,0c-0.2,0.2-1.6,0.7-3.6,1.8c-0.5,0.3-1.1,0.6-1.6,0.9
						c-0.5,0.3-1.3,0.8-1.5,1c-0.7,0.5-1.4,1-2,1.5c-2.5,2-4.3,3.5-5.7,4.4c-0.7,0.5-1.3,0.8-1.9,1.1c-1,0.5-2,0.9-3,1.4
						c-4.4,2.1-7.9,4-10.7,5.4c-1.4,0.7-2.8,1.4-3.4,1.7c-0.4,0.2-0.6,0.3-0.8,0.4c-0.1,0-0.1,0-0.2,0.1l0,0l0,0c0,0,0,0,0,0
						l0.1,0.2c0.1,0.3,0.1,0.5,0.2,0.8c1.1,4,1.1,6.2,1,7.3C346.4,334.1,346.3,334.3,346.3,334.3c-0.1,0.3-0.2,0.4-0.2,0.3
						c0.1-0.1,0.3-0.2,0.8-0.3c0.3-0.1,0.9-0.2,1.4-0.2c0.3,0,0.5,0,0.8,0l0.4,0l0.4,0c0.5,0,1,0.1,1.4,0.2c0.5,0.1,0.9,0.1,1.2,0.2
						c0.6,0.1,0.9,0.2,0.9,0.2s-0.3-0.1-0.9-0.2c-0.3-0.1-0.7-0.1-1.2-0.2c-0.4-0.1-0.9-0.1-1.4-0.2l-0.4,0l-0.4,0
						c-0.2,0-0.5,0-0.8,0c-0.5,0-1,0.1-1.4,0.2c-0.4,0.1-0.6,0.2-0.8,0.3C346,334.7,346.2,334.7,346.3,334.3z"/>
				</g>
			</g>
		</g>
		<g id="XMLID_35_">
			<g id="XMLID_112_">
				<g id="XMLID_117_">
					<path id="XMLID_120_" class="st6" d="M123.7,322.3c0,0-0.1,0.1-0.4,0.2c-0.3,0.2-0.7,0.4-1.3,0.7c-1.2,0.6-3.1,1.5-6.2,3.2
						c-0.4,0.2-0.8,0.4-1.2,0.7c-0.4,0.3-0.8,0.5-1.3,0.8c-0.5,0.3-1.1,0.7-1.7,1c-1.2,0.7-2.4,1.3-3.8,1.9
						c-2.8,1.2-5.9,2.1-9.6,2.4c-1.8,0.2-3.9,0.2-5.7,0c-1.9-0.1-3.9-0.5-5.9-1c-4-1.1-8.2-3.2-12.4-6.1c-4.2-2.9-8.3-6.7-12.2-11
						c-1.9-2.2-3.9-4.4-5.8-6.9c-1.9-2.4-3.7-4.9-5.3-7.2c-1.6-2.4-2.9-4.7-4-7c-0.5-1.1-1-2.3-1.3-3.4c-0.2-0.6-0.3-1.1-0.5-1.6
						c-0.1-0.3-0.1-0.5-0.2-0.8l-0.2-1c-0.5-2.2-1-4-1.5-5.5c-0.5-1.5-0.8-2.8-1-3.7c-0.2-0.7-0.3-1.9-0.4-3.1
						c-0.1-1.2-0.1-2.4-0.1-3.7c0.1-2.5,0.3-4.9,0.8-6.7c0.7-3.1,1.3-5.9,1.9-8.4c0.6-2.5,1.3-4.8,2-6.7c0.3-0.9,0.7-1.8,1-2.5
						l0.3-0.5l0.1-0.2l0.2-0.3c0.2-0.4,0.5-0.8,0.7-1.2c2-3.2,4.7-6.3,7.3-9.4c1.3-1.5,2.6-3.1,3.8-4.5c0.6-0.7,1.2-1.5,1.7-2.2
						c0.5-0.6,0.9-1.2,1.3-1.7c1.6-2,2.7-3.2,3.3-3.8c0.7-0.6,1-0.9,1-0.9c0.4-0.3,0.5-0.8,0.5-1.3c0-0.5-0.2-1.1-0.5-1.7
						c-0.6-1.1-1.8-1.9-3-0.9c0,0-0.5,0.3-1.3,1.2c-0.9,0.8-2.1,2.2-3.8,4.3c-0.4,0.6-0.9,1.1-1.4,1.7c-0.5,0.6-1.1,1.4-1.6,2.1
						c-1.2,1.4-2.4,2.9-3.7,4.4c-2.6,3.1-5.4,6.3-7.7,9.9c-0.6,0.9-1.1,1.8-1.5,2.7c-0.4,0.9-0.9,1.9-1.3,3
						c-0.8,2.2-1.5,4.6-2.1,7.2c-0.6,2.6-1.2,5.4-1.9,8.4c-0.5,2.3-0.8,5-0.9,7.7c0,1.4,0,2.7,0.1,4.1c0.1,1.3,0.2,2.7,0.5,3.8
						c0.5,2.4,1.6,5.4,2.5,9.3l0.2,1.1c0.1,0.3,0.1,0.7,0.2,1c0.2,0.6,0.4,1.3,0.6,2c0.4,1.3,0.9,2.6,1.5,3.9
						c1.2,2.6,2.7,5.1,4.4,7.7c1.7,2.5,3.6,5.1,5.5,7.6c1.9,2.5,4,4.8,6,7.1c4.1,4.5,8.5,8.6,13.1,11.8c4.6,3.2,9.3,5.6,13.9,6.9
						c2.3,0.6,4.6,1.1,6.9,1.2c2.2,0.2,4.5,0.2,6.6,0c4.2-0.4,7.9-1.4,11.1-2.8c1.6-0.7,3-1.4,4.3-2.2c0.7-0.4,1.3-0.8,1.9-1.1
						c0.4-0.2,0.8-0.5,1.1-0.7c0.4-0.2,0.8-0.4,1.1-0.7c2.9-1.6,4.8-2.5,6.1-3.2c0.6-0.3,1.1-0.6,1.4-0.8c0.3-0.2,0.5-0.3,0.5-0.3
						c1.6-0.9,1.4-2.4,0.7-3.4c-0.4-0.5-0.8-0.9-1.4-1.1c-0.3-0.1-0.6-0.1-0.8-0.1C124.3,322,124,322.1,123.7,322.3z"/>
					<path id="XMLID_119_" class="st6" d="M129.2,329.4c0,0-0.2,0.1-0.5,0.3c-0.3,0.2-0.8,0.5-1.5,0.8c-1.3,0.7-3.3,1.7-5.9,3.1
						c-0.7,0.4-1.4,0.7-2.1,1.2c-0.7,0.4-1.4,0.9-2.1,1.3c-1.4,0.9-3,1.7-4.7,2.5c-3.5,1.6-7.6,2.9-12.3,3.4
						c-2.3,0.3-4.8,0.4-7.3,0.2c-0.6,0-1.3-0.1-1.9-0.1c-0.6,0-1.3-0.2-1.9-0.3c-0.6-0.1-1.3-0.2-1.9-0.3c-0.6-0.2-1.3-0.3-1.9-0.5
						c-1.3-0.3-2.6-0.8-3.9-1.2c-0.7-0.2-1.3-0.5-1.9-0.8c-0.6-0.3-1.3-0.5-1.9-0.8c-2.5-1.3-5.1-2.6-7.6-4.4
						c-9.9-6.7-18.5-16.8-26-27.4c-3.6-5.3-6.6-11-7.8-17c-0.7-3.4-1.9-6.5-2.5-9.4c-0.6-2.8-0.7-5.9-0.7-8.8c0.1-3,0.3-5.9,0.9-8.6
						c0.7-2.9,1.3-5.8,1.9-8.5c0.7-2.7,1.4-5.3,2.2-7.7c0.4-1.2,0.9-2.3,1.4-3.4c0.5-1,1.1-2.1,1.7-3.1c2.5-4,5.5-7.4,8.1-10.4
						c1.3-1.5,2.5-3,3.7-4.4c1.1-1.4,2.1-2.7,3-3.8c3.5-4.5,5.8-6.2,5.8-6.2c1.5-1.2,1.7-2.6,1.1-3.8c-0.3-0.5-0.9-1-1.6-1.1
						c-0.7-0.1-1.7,0.2-2.6,0.9c0,0-0.7,0.6-2,1.7c-1.2,1.2-2.9,3-4.7,5.3c-0.9,1.2-1.9,2.4-2.9,3.8c-1.1,1.3-2.3,2.8-3.6,4.3
						c-2.6,3.1-5.7,6.6-8.5,11c-0.7,1.1-1.4,2.3-2,3.5c-0.6,1.3-1.1,2.6-1.6,3.9c-1,2.7-1.7,5.4-2.4,8.2c-0.7,2.8-1.3,5.7-2,8.6
						c-0.7,3.2-1,6.3-1.1,9.6c0,3.2,0.1,6.5,0.8,10c0.8,3.4,1.9,6.3,2.5,9.3c1.4,6.9,4.7,13.2,8.6,18.8c1.9,2.8,3.9,5.5,6,8.1
						c2.1,2.6,4.3,5.2,6.5,7.6c4.5,4.9,9.4,9.4,14.8,13c2.6,1.9,5.5,3.4,8.3,4.8c0.7,0.3,1.4,0.6,2.2,0.9c0.7,0.3,1.4,0.6,2.2,0.9
						c1.5,0.5,2.9,1,4.4,1.3c0.7,0.2,1.5,0.4,2.2,0.5c0.7,0.1,1.5,0.2,2.2,0.4c0.7,0.1,1.4,0.3,2.2,0.3c0.7,0,1.4,0.1,2.1,0.1
						c2.8,0.2,5.6,0.1,8.2-0.2c5.2-0.6,9.9-2.1,13.8-3.8c1.9-0.9,3.7-1.8,5.3-2.8c0.7-0.5,1.4-0.9,2.1-1.3c0.6-0.4,1.3-0.7,1.9-1.1
						c2.5-1.3,4.6-2.3,6-3.1c0.7-0.4,1.3-0.7,1.6-0.9c0.4-0.2,0.6-0.3,0.6-0.3c2-1.3,2.1-3.1,1.3-4
						C132.4,328.7,130.9,328.4,129.2,329.4z"/>
					<path id="XMLID_118_" class="st6" d="M138.1,334c0,0-0.2,0.2-0.6,0.6c-0.4,0.4-1.1,0.9-1.9,1.4c-1.6,1.2-4,2.5-6.8,3.9
						c-1.4,0.7-2.8,1.4-4.2,2.2c-0.3,0.2-0.7,0.4-1,0.6c-0.4,0.2-0.7,0.5-1.1,0.7c-0.9,0.6-1.9,1.2-2.9,1.7
						c-4.1,2.3-9.2,4.3-14.9,5.4c-2.9,0.5-5.9,0.9-9,0.9c-3.1,0-6.4-0.3-9.7-0.9c-6.6-1.2-13.2-4-19.2-7.7
						c-5.9-3.8-11.4-8.5-16.3-13.6c-2.5-2.6-4.8-5.3-7-8c-2.2-2.8-4.3-5.5-6.4-8.5c-2.1-3-4.1-6.1-5.8-9.5c-1.7-3.4-3.1-7.1-4-10.9
						c-0.2-0.8-0.4-1.6-0.5-2.4c-0.2-0.7-0.4-1.4-0.6-2.2c-0.4-1.5-1-3.2-1.4-5c-0.2-0.9-0.4-1.9-0.6-3c-0.1-1-0.3-1.9-0.3-2.9
						c-0.1-1.9-0.2-3.7-0.2-5.4c0.1-3.6,0.3-7,1.1-10.6c0.3-1.5,0.7-3,1-4.5c0.3-1.5,0.7-3,1-4.4c0.7-3,1.5-5.9,2.6-8.9
						c0.5-1.5,1.2-2.9,1.9-4.4c0.8-1.5,1.5-2.7,2.3-4c3.2-4.8,6.4-8.5,9.1-11.6c1.3-1.6,2.5-3,3.6-4.3c1.1-1.4,2.1-2.7,3.1-3.9
						c2-2.5,4-4.6,5.5-5.9c0.7-0.7,1.4-1.1,1.8-1.5c0.4-0.3,0.7-0.5,0.7-0.5c2.3-1.6,3.2-3.3,2.7-4.5c-0.3-0.6-0.9-1-1.9-1
						c-1,0-2.3,0.4-3.7,1.3c0,0-0.3,0.2-0.8,0.6c-0.5,0.4-1.2,0.9-2.1,1.7c-1.8,1.5-4,3.8-6.1,6.5c-0.9,1.2-2,2.5-3.1,3.9
						c-1,1.2-2.1,2.6-3.5,4.2c-2.6,3.1-6,6.9-9.5,12.2c-0.9,1.3-1.7,2.7-2.6,4.4c-0.8,1.7-1.5,3.3-2.1,4.9c-1.2,3.2-2,6.4-2.8,9.4
						c-0.3,1.5-0.7,3-1,4.5c-0.3,1.5-0.7,3-1,4.5c-0.9,4.1-1.2,7.8-1.2,11.6c0,1.9,0,3.9,0.2,5.9c0.1,1,0.2,2.1,0.4,3.2
						c0.2,1.2,0.4,2.4,0.7,3.4c0.5,2.1,1,3.8,1.5,5.3c0.2,0.7,0.4,1.4,0.5,2l0.5,2.3c1,4.3,2.6,8.3,4.4,12c1.8,3.7,4,7,6.1,10.1
						c1.1,1.5,2.2,3,3.3,4.5c1.1,1.4,2.2,2.9,3.4,4.3c2.3,2.8,4.7,5.6,7.3,8.3C52,338,57.7,342.9,64.1,347c6.4,4,13.6,7.1,20.9,8.4
						c0.9,0.1,1.8,0.3,2.7,0.4c0.5,0.1,0.9,0.1,1.4,0.2c0.5,0,0.9,0.1,1.4,0.1c1.8,0.1,3.6,0.3,5.3,0.2c3.4,0,6.8-0.4,9.9-1
						c6.4-1.2,11.9-3.5,16.4-5.9c1.1-0.6,2.2-1.2,3.2-1.9c0.4-0.2,0.7-0.4,1.1-0.7c0.2-0.1,0.6-0.3,0.8-0.5c1.2-0.7,2.6-1.4,4-2.1
						c2.8-1.4,5.5-2.9,7.4-4.3c0.5-0.3,0.9-0.6,1.3-0.9c0.4-0.3,0.7-0.6,0.9-0.8c0.5-0.4,0.8-0.7,0.8-0.7c0.7-0.6,1.2-1.2,1.6-1.9
						c0.4-0.6,0.6-1.2,0.8-1.8c0.3-1.1,0-1.8-0.5-2.2C142.3,331.2,140.3,332.1,138.1,334z"/>
				</g>
			</g>
		</g>
		<g id="XMLID_37_">
			<g id="XMLID_102_">
				<g id="XMLID_107_">
					<path id="XMLID_110_" class="st6" d="M191.7,99.8c0,0-1.7-0.2-4.6-0.7c-3-0.4-7.4-1.1-13.5-1.4c-1.5,0-3.1-0.1-4.9,0
						c-0.9,0-1.6,0.1-2.4,0.2c-0.8,0.1-1.6,0.1-2.4,0.2c-3.3,0.3-6.7,0.9-10.2,1.6c-7.1,1.5-14.4,3.9-21.1,6.9
						c-1.7,0.8-3.2,1.4-5.2,2.4c-1.9,1-3.8,2.1-5.6,3.3c-3.7,2.5-7.2,5.9-9.7,9.4c-1.3,1.7-2.4,3.5-3.3,5.2
						c-0.5,0.8-0.9,1.7-1.3,2.5c-0.4,0.8-0.8,1.7-1.1,2.3c-1.2,2.8-2.4,5.4-3.5,7.8c-0.5,1.2-1.1,2.4-1.6,3.5l-0.2,0.4l-0.2,0.6
						c-0.2,0.4-0.3,0.8-0.5,1.2c-0.3,0.8-0.5,1.7-0.7,2.5c-0.4,1.7-0.7,3.3-0.8,4.7c-0.1,1.4-0.1,2.7-0.1,3.7c0.1,2,0.2,3.2,0.2,4
						c0,0.7,0.1,1.1,0.1,1.1c0.1,1,1.3,1.3,2.6,1.3c1.3,0,2.5-0.6,2.4-1.6c0,0,0-0.4-0.1-1.2c0-0.8-0.2-2-0.2-3.7c0-1.8,0-4.3,0.7-7
						c0.2-0.7,0.4-1.4,0.6-2.1c0.1-0.4,0.3-0.7,0.4-1l0.2-0.5l0.2-0.4c0.5-1.1,1-2.2,1.5-3.4c1.1-2.4,2.2-4.9,3.5-7.7
						c1.3-2.8,3-6,5.2-9.1c2.3-3.1,5.3-6,8.5-8.2c1.6-1.1,3.4-2.1,5.1-3c1.8-0.9,3.3-1.6,5-2.3c6.5-2.9,13.5-5.2,20.2-6.6
						c3.3-0.7,6.6-1.2,9.7-1.5c1.6-0.2,3-0.3,4.6-0.4c1.6-0.1,3.1-0.1,4.5,0c5.6,0.2,10,0.9,13,1.3c2.9,0.4,4.6,0.7,4.6,0.7
						C193.2,105.1,193.8,100.1,191.7,99.8z"/>
					<path id="XMLID_109_" class="st6" d="M191.2,108.8c0,0-1.7-0.2-4.6-0.7c-3-0.4-7.2-1.1-12.6-1.3c-2.7-0.1-5.6,0-8.6,0.3
						c-3,0.3-6.2,0.7-9.4,1.4c-6.5,1.3-13.2,3.5-19.5,6.3c-1.6,0.7-3.1,1.4-4.8,2.2c-1.6,0.8-3.2,1.7-4.7,2.7c-3,2-5.7,4.5-7.7,7.3
						c-2.1,2.8-3.6,5.7-4.9,8.4c-1.2,2.7-2.4,5.2-3.4,7.6c-0.5,1.2-1,2.3-1.5,3.4c-0.5,1.1-0.9,2.3-1.2,3.5c-0.6,2.3-0.7,4.4-0.6,6
						c0,1.6,0.1,2.8,0.2,3.6c0.1,0.8,0.1,1.2,0.1,1.2c0.1,2.1,5.1,2,5-0.3c0,0,0-0.4-0.1-1.2c-0.1-0.8-0.2-2-0.2-3.3
						c0-1.4,0-2.9,0.5-4.7c0.2-0.9,0.5-1.7,1-2.8c0.5-1.1,1-2.2,1.5-3.3c1-2.3,2.2-4.8,3.4-7.5c1.2-2.6,2.6-5.2,4.4-7.5
						c1.8-2.4,4-4.4,6.5-6.2c1.3-0.9,2.7-1.7,4.1-2.4c1.4-0.7,3-1.4,4.5-2.1c6.1-2.7,12.5-4.8,18.6-6c3-0.6,6-1.1,8.9-1.3
						c2.9-0.3,5.4-0.4,7.9-0.3c4.9,0.2,9.1,0.9,12,1.3c3,0.4,4.7,0.7,4.7,0.7C192.7,114.1,193.3,109.1,191.2,108.8z"/>
					<path id="XMLID_108_" class="st6" d="M192.1,118c0,0-1.8-0.2-4.9-0.7c-3-0.4-7.3-1.1-12.1-1.5c-1.2-0.1-2.4-0.1-3.6-0.1
						c-1.2,0-2.4,0.1-3.9,0.2c-2.8,0.2-5.7,0.6-8.7,1.2c-6,1.1-12.2,3.1-18.2,5.7l-2.3,1c-0.7,0.3-1.6,0.7-2.2,1
						c-1.4,0.7-2.6,1.4-3.8,2.1c-2.3,1.5-4.2,3.3-5.8,5.4c-0.8,1-1.5,2.1-2.2,3.3c-0.7,1.2-1.3,2.3-1.9,3.6
						c-1.2,2.7-2.4,5.2-3.4,7.6c-0.5,1.2-1,2.3-1.5,3.4c-0.4,0.9-0.6,1.5-0.7,2.2c-0.3,1.3-0.3,2.5-0.3,3.8c0.2,3,0.3,4.7,0.3,4.7
						c0.1,2.4,5.1,2.4,5-0.3c0,0-0.1-1.7-0.3-4.6c0-1.1,0-1.8,0.1-2.5c0.1-0.2,0.1-0.4,0.2-0.6c0-0.1,0.1-0.2,0.1-0.3l0.1-0.2
						c0-0.1,0-0.1,0.1-0.3c0.5-1,1-2.1,1.5-3.3c1-2.3,2.2-4.8,3.4-7.4l0.2-0.5l0.2-0.4c0.1-0.3,0.3-0.5,0.4-0.8
						c0.3-0.5,0.5-1.1,0.8-1.5c0.6-1,1.2-1.9,1.8-2.8c1.3-1.7,2.7-3,4.6-4.2c0.9-0.6,2-1.2,3.2-1.8l0.4-0.2l0.5-0.2l1.1-0.5l2.2-1
						c5.8-2.5,11.6-4.4,17.2-5.4c2.8-0.5,5.5-0.9,8.2-1.1c0.3,0,0.7-0.1,1-0.1l0.5,0l0.4,0c0.5,0,1.1,0,1.6,0c1.1,0,2.2,0,3.3,0.1
						c4.4,0.3,8.6,1,11.7,1.4c1.6,0.2,2.8,0.4,3.7,0.5c0.9,0.1,1.3,0.2,1.3,0.2C193.9,123.3,194.4,118.3,192.1,118z"/>
				</g>
			</g>
		</g>
		<g id="XMLID_38_">
			<g id="XMLID_92_">
				<g id="XMLID_97_">
					<path id="XMLID_100_" class="st6" d="M374.1,243.5c0,0,0-0.2-0.1-0.5c0-0.3-0.1-0.8-0.2-1.3c-0.2-1.2-0.6-2.7-1.1-4.3
						c-0.5-1.7-1.1-3.6-1.7-5.3c-0.1-0.4-0.3-0.8-0.4-1.2c-0.1-0.5-0.3-1-0.4-1.5c-0.5-1.8-1.3-3.7-2.3-5.5c-1-1.8-2-3.2-2.9-4.4
						c-0.4-0.5-0.8-1.1-1.2-1.7c-0.4-0.5-0.7-1-1.1-1.5c-1.5-2.1-3.1-4.5-4.9-7.2c-1.8-2.7-3.9-5.6-6.5-8.6c-1.3-1.5-2.7-3-4.3-4.5
						c-0.8-0.7-1.7-1.5-2.5-2.1l-2-1.6c-2.8-2.1-5.7-4.3-8.8-6.3c-3.1-2-6.4-3.8-9.7-5.3c-1.7-0.8-3.3-1.4-5-2.1
						c-0.4-0.1-0.8-0.3-1.2-0.4c-0.3-0.1-0.6-0.2-0.9-0.3l-0.7-0.3c-0.3-0.1-0.5-0.2-0.8-0.3c-2.2-0.9-4.8-2.1-7.4-3.2
						c-5.2-2.2-10.9-3.8-16.2-3.6c-0.7,0-1.3,0.1-1.9,0.1c-0.3,0-0.6,0.1-0.8,0.1c-0.3,0.1-0.6,0.1-0.8,0.2c-1.1,0.2-2,0.4-2.7,0.6
						c-1.5,0.5-2.3,0.8-2.3,0.8c-1.1,0.4-1.6,1.1-1.8,1.8c-0.2,0.7-0.1,1.3,0.2,1.9c0.3,0.5,0.9,0.9,1.5,1.1
						c0.6,0.2,1.3,0.1,2.1-0.2c0,0,0.6-0.3,1.8-0.7c1.2-0.3,2.9-0.7,5-0.8c4.2-0.2,9.2,1.2,14.1,3.3c2.5,1,5,2.2,7.3,3.2
						c0.3,0.1,0.6,0.2,0.9,0.4c0.3,0.1,0.5,0.2,0.8,0.3c0.7,0.3,1.4,0.5,2.1,0.8c1.5,0.6,3.1,1.2,4.6,1.9c6.2,2.8,12.2,6.9,17.5,11
						l2,1.6c0.7,0.6,1.5,1.2,2.2,1.9c1.4,1.3,2.7,2.7,3.9,4.1c2.4,2.8,4.4,5.5,6.1,8.2c1.8,2.6,3.4,5.1,4.9,7.3
						c0.8,1.1,1.5,2.1,2.4,3.3c0.8,1.1,1.7,2.4,2.5,3.9c0.8,1.5,1.5,3,1.9,4.5c0.2,0.5,0.3,1,0.4,1.5c0.1,0.5,0.3,0.9,0.4,1.3
						c0.6,1.8,1.2,3.6,1.7,5.1c0.5,1.6,0.8,2.9,0.9,3.9c0.1,0.5,0.2,0.9,0.2,1.1c0,0.3,0.1,0.4,0.1,0.4c0.2,1.4,1.4,2.3,2.7,2.3
						c0.6,0,1.3-0.3,1.7-0.8C374,245.2,374.3,244.3,374.1,243.5z"/>
					<path id="XMLID_99_" class="st6" d="M365.3,245.4c0,0-0.1-2-1-4.9c-0.4-1.5-1-3.2-1.6-5.1c-0.3-0.9-0.7-1.9-0.9-2.9
						c-0.3-1.2-0.8-2.5-1.4-3.8c-1.3-2.6-3.1-4.7-4.7-6.9c-1.6-2.3-3.2-4.8-5-7.4c-1.8-2.6-3.7-5.3-5.9-7.9
						c-1.1-1.3-2.3-2.6-3.6-3.8c-0.6-0.6-1.3-1.2-2-1.7l-2-1.6c-5.3-4.1-11-8-16.8-10.7c-1.5-0.7-2.9-1.3-4.4-1.8
						c-0.7-0.3-1.4-0.5-2.1-0.8c-0.6-0.2-1.3-0.5-1.9-0.7c-2.5-1.1-5-2.2-7.3-3.2c-4.7-2-9.2-3.1-12.6-3c-1.7,0-3.1,0.4-4,0.6
						c-0.9,0.3-1.4,0.5-1.4,0.5c-0.6,0.2-0.9,0.8-0.9,1.3c0,0.6,0.2,1.2,0.5,1.7c0.3,0.5,0.8,1,1.2,1.3c0.4,0.3,0.8,0.4,1.2,0.3
						c0,0,0.3-0.1,0.9-0.3c0.6-0.1,1.4-0.4,2.7-0.4c2.4-0.1,6.1,0.8,10.5,2.6c2.2,0.9,4.6,2.1,7.3,3.2c0.7,0.3,1.4,0.6,2.1,0.8
						c0.7,0.2,1.4,0.5,2,0.7c1.3,0.5,2.7,1.1,4,1.7c5.4,2.5,10.7,6.1,15.9,10.1l1.9,1.5c0.6,0.5,1.2,1,1.7,1.5
						c1.1,1,2.2,2.2,3.2,3.4c2,2.4,3.8,4.9,5.5,7.4c1.7,2.5,3.4,5.1,5,7.4c1.7,2.4,3.3,4.4,4.3,6.3c0.5,0.9,0.8,1.9,1.1,2.8
						c0.3,1.2,0.7,2.2,1,3.2c0.7,1.9,1.2,3.5,1.5,4.8c0.7,2.6,0.8,4,0.8,4c0,0.4,0.4,0.8,0.8,1c0.5,0.2,1.1,0.4,1.7,0.4
						s1.3-0.1,1.7-0.4C365.1,246.5,365.3,246,365.3,245.4z"/>
					<path id="XMLID_98_" class="st6" d="M356.3,247.1c0,0,0-0.1,0-0.4c0-0.4-0.1-1.1-0.3-2.2c-0.2-1.1-0.7-2.6-1.3-4.5
						c-0.3-1-0.7-2.1-1.1-3.2c-0.1-0.3-0.2-0.6-0.3-1c-0.1-0.3-0.2-0.7-0.3-1c-0.1-0.4-0.2-0.7-0.4-1.1c-0.3-0.7-0.6-1.4-1.2-2.3
						c-0.6-0.9-1.4-2-2.3-3.2c-1.8-2.5-3.6-5.2-5.3-7.7c-1.7-2.6-3.5-5.1-5.4-7.4c-0.9-1.1-1.9-2.2-2.9-3.2c-1-1-1.9-1.7-3.3-2.8
						c-5.2-4.1-10.3-7.6-15.5-10c-1.3-0.6-2.6-1.1-3.8-1.6c-0.7-0.2-1.4-0.5-2-0.7c-0.4-0.2-0.8-0.3-1.2-0.5
						c-0.4-0.2-0.8-0.3-1.1-0.5c-2.9-1.2-5.3-2.4-7.5-3.3c-4.3-1.8-7.5-2.4-9-2.2c-0.2,0-0.4,0-0.5,0c-0.1,0-0.3,0.1-0.4,0.1
						c-0.1,0-0.3,0-0.3,0.1c-0.1,0-0.2,0.1-0.2,0.1c-0.3,0.1-0.5,0.1-0.5,0.2c-0.4,0.3,0.1,1.4,0.8,2.4c0.7,1,1.5,2.1,1.4,2.1
						c0,0,0,0-0.1,0c0,0,0,0-0.1,0l0,0l0,0c0-0.2,0.1,0.4-0.1-0.4l0,0l0,0.1l0.1,0.2c0,0.2,0,0.1,0,0.1c0,0,0,0,0,0c0,0,0.1,0,0.2,0
						c0.4-0.1,2.8,0.2,6.8,1.8c2,0.8,4.3,1.9,7.5,3.3c0.4,0.2,0.8,0.3,1.2,0.5c0.5,0.2,0.9,0.3,1.4,0.5c0.6,0.2,1.3,0.5,1.9,0.7
						c1.2,0.5,2.3,0.9,3.5,1.5c4.7,2.2,9.5,5.4,14.5,9.4l0.9,0.7l0.2,0.2l0.2,0.1l0.3,0.3c0.4,0.3,0.8,0.7,1.3,1.1
						c0.8,0.8,1.7,1.8,2.5,2.8c1.7,2.1,3.4,4.5,5.1,7c1.7,2.5,3.5,5.2,5.4,7.9c0.9,1.3,1.7,2.3,2.1,3c0.5,0.7,0.6,1,0.8,1.4
						c0.1,0.2,0.1,0.4,0.2,0.6c0.1,0.4,0.2,0.8,0.3,1.2c0.1,0.4,0.2,0.7,0.3,1c0.4,1.1,0.7,2.2,1.1,3.2c0.6,1.8,1,3.1,1.2,4
						c0.2,0.9,0.2,1.2,0.2,1.3c0,0,0,0,0,0c0.2,0,0.5,0,0.7,0c0.4,0,0.8,0,1.1,0.1c0.3,0,0.5,0,0.6,0c0.1,0,0.2,0,0.2,0
						c0.6,0,1.1,0.1,1.6,0.2c0.4,0,0.6,0.1,0.8,0.1c0.4,0.1,0.7,0.2,0.7,0.2s-0.2-0.1-0.7-0.2c-0.1,0-0.2-0.1-0.4-0.1
						c-0.1,0,0,0,0,0c0,0,0.1,0,0.1,0C356.3,247.2,356.3,247.1,356.3,247.1z"/>
				</g>
			</g>
		</g>
		<g id="XMLID_41_">
			<g id="XMLID_81_">
				<g id="XMLID_85_">
					<path id="XMLID_90_" class="st6" d="M187.5,300.1c0,0-0.3,0-0.8,0.1c-0.5,0.1-1.3,0.2-2.3,0.3c-2,0.3-4.7,0.5-7.8,0.3
						c-0.4,0-0.8,0-1.1-0.1c-0.4-0.1-0.7-0.1-1.1-0.2c-0.8-0.1-1.5-0.3-2.2-0.4c-0.4-0.1-0.7-0.2-1.1-0.3c-0.3-0.1-0.7-0.2-1-0.3
						c-0.3-0.2-0.6-0.3-0.9-0.5l-0.5-0.2l-0.4-0.3c-0.3-0.2-0.6-0.4-0.9-0.5c-0.2-0.2-0.5-0.4-0.8-0.6l-0.4-0.3l-0.3-0.4
						c-0.2-0.3-0.5-0.5-0.7-0.7c-0.2-0.3-0.4-0.6-0.6-0.9l-0.3-0.4l-0.3-0.5c-0.2-0.3-0.4-0.7-0.6-1c-0.2-0.4-0.3-0.8-0.5-1.2
						c-0.2-0.4-0.3-0.7-0.5-1.3l-0.6-1.7c-0.4-1.1-0.7-2.3-1-3.4c-0.6-2.3-1.1-4.6-1.5-6.8c-0.4-2.2-0.7-4.4-0.8-6.4
						c0-0.5-0.1-1-0.1-1.5c0-0.2,0-0.5,0-0.7c0-0.3,0-0.3,0-0.5c0-0.6,0-1.3,0.1-1.9c0.2-2.6,1-5.8,1.6-8.3c0.3-1.2,0.5-2.3,0.6-3
						c0.1-0.7,0.2-1.1,0.2-1.1c0.4-2.2-4.6-2.9-4.9-0.9c0,0-0.3,1.5-0.8,4c-0.5,2.4-1.4,5.7-1.7,8.9c-0.1,0.8-0.1,1.7-0.1,2.5
						c0,0.4,0,0.9,0.1,1.4c0,0.5,0.1,1.1,0.1,1.6c0.2,2.2,0.5,4.5,0.9,6.8c0.4,2.4,0.9,4.8,1.6,7.2c0.3,1.2,0.7,2.4,1.1,3.6l0.6,1.8
						c0.2,0.6,0.4,1,0.6,1.5c0.2,0.5,0.4,1,0.6,1.5l0.8,1.4l0.4,0.7l0.5,0.6l0.9,1.2l1,1l0.5,0.5l0.6,0.4c0.4,0.3,0.7,0.6,1.1,0.9
						c0.4,0.2,0.8,0.5,1.2,0.7l0.6,0.4l0.7,0.3c0.4,0.2,0.9,0.4,1.3,0.6c0.5,0.2,0.9,0.3,1.3,0.5c0.4,0.2,0.9,0.3,1.3,0.4
						c0.9,0.2,1.8,0.5,2.7,0.6c0.5,0.1,0.9,0.1,1.3,0.2c0.4,0.1,0.9,0.1,1.3,0.1c3.5,0.2,6.6,0,8.7-0.3c1.1-0.1,1.9-0.3,2.5-0.4
						c0.6-0.1,0.9-0.1,0.9-0.1C190,304.7,189,299.8,187.5,300.1z"/>
					<path id="XMLID_89_" class="st6" d="M189.6,308.9c0,0-1.3,0.2-3.6,0.6c-2.3,0.3-5.6,0.6-9.6,0.4c-1-0.1-2-0.1-3-0.3
						c-0.5-0.1-1-0.2-1.6-0.2c-0.5-0.1-1-0.2-1.6-0.4c-1.1-0.2-2.1-0.6-3.2-1c-0.5-0.2-1-0.5-1.6-0.7c-0.5-0.3-1.1-0.4-1.6-0.8
						c-0.5-0.3-1-0.6-1.5-0.9c-0.5-0.3-0.9-0.7-1.4-1.1c-1-0.7-1.7-1.6-2.6-2.5c-1.5-1.9-2.9-4-3.8-6.4l-0.7-1.8
						c-0.2-0.6-0.4-1.3-0.6-1.9c-0.4-1.3-0.8-2.6-1.1-3.8c-0.7-2.6-1.2-5.1-1.7-7.6c-0.4-2.5-0.8-4.9-1-7.2
						c-0.1-1.1-0.2-2.3-0.2-3.3c0-1,0-2,0.1-3c0.4-3.8,1.3-7.1,1.8-9.5c0.5-2.4,0.8-3.8,0.8-3.8c0.3-1.9-4.6-2.6-4.9-0.9
						c0,0-0.2,1.3-0.8,3.6c-0.5,2.3-1.5,5.7-1.9,10.2c-0.1,1.1-0.1,2.3-0.1,3.5c0,1.2,0.1,2.4,0.2,3.6c0.2,2.4,0.6,5,1,7.6
						c0.5,2.6,1.1,5.3,1.8,8c0.4,1.4,0.8,2.7,1.2,4.1c0.2,0.7,0.4,1.4,0.7,2l0.8,2.1c1.1,2.8,2.8,5.4,4.7,7.7c1.1,1.1,2,2.2,3.2,3.1
						c0.6,0.4,1.1,1,1.8,1.3c0.6,0.4,1.2,0.8,1.8,1.1c0.6,0.4,1.3,0.6,1.9,1c0.6,0.3,1.3,0.6,1.9,0.8c1.3,0.4,2.5,0.9,3.8,1.2
						c0.6,0.1,1.2,0.3,1.8,0.4c0.6,0.1,1.2,0.2,1.8,0.3c1.2,0.2,2.3,0.3,3.4,0.3c4.4,0.2,8-0.1,10.5-0.4c2.5-0.4,3.9-0.6,3.9-0.6
						C192.4,313.4,191.3,308.5,189.6,308.9z"/>
					<path id="XMLID_88_" class="st6" d="M193.1,317.3c0,0-0.4,0.1-1.1,0.2c-0.7,0.2-1.8,0.3-3.1,0.5c-2.7,0.4-6.6,0.9-11.5,0.8
						c-4.8-0.1-10.8-1-16.9-4c-6-3-11.5-8.8-14-15.2l-1-2.4l-0.2-0.6l-0.2-0.5l-0.4-1.1c-0.5-1.5-0.9-2.9-1.3-4.4
						c-0.8-2.9-1.4-5.8-1.9-8.6c-0.5-2.8-0.9-5.6-1.1-8.2c0-0.7-0.1-1.3-0.1-1.9c0-0.6-0.1-1.3-0.1-2c0-1.4,0-2.8,0.1-4.1
						c0.2-2.5,0.7-4.7,1.1-6.5c0.4-1.7,0.7-3.2,1-4.4c0.3-1.2,0.4-2,0.6-2.6c0.1-0.6,0.2-0.9,0.2-0.9c0.3-1.6-4.7-2.2-4.9-0.9
						c0,0-0.1,0.3-0.2,0.8c-0.1,0.5-0.3,1.4-0.5,2.5c-0.3,1.2-0.6,2.7-1,4.5c-0.4,1.9-0.9,4.2-1.1,7.1c-0.1,1.4-0.2,3-0.2,4.7
						c0,0.4,0,0.9,0,1.2c0,0.3,0,0.7,0.1,1c0,0.7,0.1,1.4,0.2,2.1c0.2,2.8,0.6,5.7,1.1,8.6c0.5,3,1.2,6,2,9c0.4,1.5,0.9,3.1,1.4,4.6
						l0.4,1.1l0.2,0.6l0.3,0.7l1.1,2.7c0.2,0.4,0.4,0.9,0.6,1.3l0.7,1.3c0.5,0.9,1,1.8,1.5,2.6c0.6,0.9,1.2,1.7,1.8,2.5l0.9,1.2
						l1.1,1.2c0.7,0.8,1.4,1.5,2.2,2.2c0.8,0.7,1.6,1.3,2.4,2c0.8,0.7,1.7,1.2,2.5,1.7c0.9,0.5,1.7,1.1,2.6,1.5
						c1.7,0.8,3.5,1.7,5.2,2.2c0.8,0.3,1.7,0.6,2.5,0.8c0.8,0.2,1.6,0.4,2.5,0.6c0.8,0.2,1.6,0.3,2.4,0.4c0.8,0.1,1.5,0.2,2.3,0.3
						c1.5,0.1,2.9,0.2,4.2,0.3c5.3,0.1,9.5-0.4,12.4-0.9c1.4-0.2,2.6-0.4,3.3-0.6c0.7-0.2,1.1-0.2,1.1-0.2
						C196.2,321.8,195,316.9,193.1,317.3z"/>
				</g>
			</g>
		</g>
		<g id="XMLID_55_">
			<g id="XMLID_86_">
				<g id="XMLID_163_">
					<path id="XMLID_192_" class="st6" d="M254.3,385.9c0,0-0.2,0.1-0.5,0.3c-0.3,0.2-0.9,0.5-1.5,0.9c-1.3,0.8-3,1.9-4.8,3.3
						c-1.8,1.3-3.8,3-5.6,4.3c-0.9,0.7-1.7,1.2-2.2,1.4l-0.2,0.1l-0.1,0l-0.3,0.1c-0.4,0.2-0.8,0.4-1.2,0.5
						c-0.8,0.4-1.6,0.7-2.4,1.1c-3.3,1.5-6.6,3.1-9.9,4.6c-1.7,0.7-3.3,1.4-5,2c-0.4,0.2-0.8,0.3-1.2,0.4l-0.6,0.2l-0.3,0.1
						c-0.4,0.1-0.9,0.2-1.5,0.3c-1.2,0.2-2.8,0.2-4.8,0.1c-0.6,0-1.3,0-1.9,0c-0.6,0-1.3,0-1.9,0c-1.2,0-2.4,0.1-3.6,0.1
						c-2.3,0.1-4.4,0.1-6.2,0.1c-1.8,0-3.5-0.2-4.5-0.5c-0.5-0.1-1-0.3-1.6-0.5c-0.7-0.3-1.4-0.6-2.2-1c-1.6-0.8-3.4-1.9-5.4-3
						c-1-0.6-2.1-1.2-3.3-1.8c-0.9-0.5-1.8-1-2.6-1.4c-1.7-1-3.3-2-4.8-3c-1.5-1-3-2.1-4.3-3.2c-0.3-0.3-0.7-0.6-1-0.8l-0.7-0.6
						l-0.8-0.6c-0.8-0.6-1.6-1.3-2.5-1.9c-0.6-0.5-1.1-0.9-1.4-1.1c-0.3-0.3-0.2-0.2-0.5-0.5c-0.2-0.3-0.6-0.9-1.2-1.8
						c-0.6-0.9-1.4-2.1-2.4-3.3c-2.2-2.6-4.1-3.9-5.5-5c-1.4-1-2.3-1.8-2.8-2.2c-0.1-0.1-0.2-0.2-0.3-0.3c-0.1-0.1,0,0,0,0l0,0.1
						c0,0,0,0,0,0l-0.1-0.1l-0.3-0.4c0,0,0,0-0.1,0c0.1-0.2-1.3,1.8-0.7,0.9l0.1-0.1l0.3-0.2l0.5-0.4c0.1-0.1,0,0,0,0l0-0.1
						c-0.1-0.2-0.4-0.7-0.6-1.3c-0.5-1.2-0.9-2.5-1.2-3.5c-0.3-1-0.5-1.5-0.5-1.5c-0.5-1.5-1.9-2-3.1-1.6c-1.2,0.4-2.1,1.6-1.6,3.1
						c0,0,0.2,0.5,0.5,1.5c0.3,1,0.8,2.4,1.4,3.9c0.3,0.7,0.7,1.5,1,2c0.1,0.1,0.2,0.3,0.3,0.4l0.1,0.1l0,0l0,0
						c0.1,0.1-0.1-0.2-0.1-0.1l0,0l0.3,0.4c0.2,0.2,0.1,0.1,0.3,0.3c0.1,0.1,0.3,0.3,0.5,0.5c0.7,0.6,1.8,1.4,3.1,2.4
						c1.3,1,3,2.2,4.7,4.3c1.7,2,2.6,3.9,3.4,4.8c0.4,0.5,0.6,0.8,1.1,1.2c0.4,0.4,1,0.9,1.7,1.5c0.8,0.6,1.6,1.2,2.4,1.9l0.7,0.6
						l0.7,0.6c0.4,0.3,0.7,0.6,1.1,0.9c1.5,1.2,3,2.3,4.6,3.5c1.6,1.1,3.4,2.2,5.1,3.2c0.9,0.5,1.8,1,2.8,1.5
						c1.1,0.6,2.1,1.2,3.1,1.8c2,1.2,3.9,2.3,5.7,3.2c1.8,0.9,3.5,1.6,5,1.9c1.6,0.4,3.5,0.5,5.5,0.6c2,0.1,4.2,0,6.5-0.1
						c1.2,0,2.3-0.1,3.5-0.1l1.8,0c0.6,0,1.2,0,1.8,0c2.1,0.1,4,0,5.6-0.2c0.8-0.1,1.5-0.2,2.2-0.4l0.5-0.1l0.7-0.2
						c0.4-0.1,0.9-0.3,1.3-0.5c1.8-0.6,3.5-1.4,5.3-2.1c3.5-1.5,6.8-3.2,10-4.6c0.8-0.4,1.6-0.7,2.4-1.1c0.4-0.2,0.8-0.3,1.2-0.5
						l0.3-0.1l0.2-0.1l0.3-0.2c0.9-0.5,1.9-1.1,2.9-1.8c2-1.4,3.9-3,5.7-4.3c1.7-1.3,3.3-2.3,4.4-3c0.6-0.3,1-0.6,1.3-0.8
						c0.3-0.2,0.5-0.3,0.5-0.3c0.9-0.4,1.5-1,1.8-1.7c0.3-0.6,0.4-1.3,0.2-1.9c-0.2-0.6-0.7-1.1-1.5-1.3
						C256.4,385.3,255.4,385.4,254.3,385.9z"/>
					<path id="XMLID_182_" class="st6" d="M259.4,393.5c0,0-0.1,0.1-0.4,0.2c-0.3,0.1-0.7,0.4-1.2,0.6c-1.1,0.6-2.5,1.5-4.2,2.7
						c-1.7,1.2-3.6,2.8-5.8,4.4c-1.1,0.8-2.3,1.6-3.5,2.3c-0.3,0.2-0.6,0.3-0.9,0.5l-0.5,0.2l-0.6,0.3c-0.8,0.3-1.6,0.7-2.4,1.1
						c-3.2,1.5-6.6,3.1-10.2,4.7c-1.8,0.8-3.6,1.6-5.5,2.3c-0.9,0.4-1.9,0.7-2.9,1c-0.9,0.3-1.8,0.5-2.8,0.6c-1.9,0.3-4,0.3-6.2,0.3
						c-1.1,0-2.3-0.1-3.4-0.1c-1.1,0-2.3,0-3.5,0.1c-4.6,0.1-9.1,0.3-13.2-0.5c-4-0.8-7.8-3.2-11.8-5.4c-1-0.6-2-1.2-3-1.7
						c-1-0.5-2-1-2.9-1.6c-1.9-1.1-3.7-2.2-5.5-3.4c-1.7-1.2-3.4-2.4-5-3.7c-0.8-0.7-1.6-1.3-2.4-2c-0.8-0.6-1.6-1.3-2.4-1.9
						c-0.8-0.6-1.5-1.2-2.1-1.7c-0.6-0.6-1.1-1.1-1.6-1.8c-1-1.3-1.8-3-3.2-4.6c-1.4-1.6-2.8-2.7-4.1-3.7c-1.3-1-2.5-1.8-3.4-2.7
						c-1.8-1.5-2.7-3.3-3.5-5.1c-0.7-1.7-1.2-3.2-1.5-4.2c-0.3-1-0.5-1.6-0.5-1.6c-0.9-2.9-5.7-1.3-4.8,1.5c0,0,0.2,0.6,0.5,1.6
						c0.3,1.1,0.8,2.6,1.7,4.6c0.4,1,0.9,2.1,1.7,3.4c0.2,0.3,0.4,0.6,0.6,0.9l0.2,0.2l0.1,0.2l0.1,0.1l0.3,0.4
						c0.6,0.6,1.1,1.2,1.7,1.7c2.3,2.1,5.2,3.7,7,5.8c0.9,1.1,1.7,2.6,3,4.4c0.6,0.9,1.4,1.7,2.2,2.5c0.8,0.7,1.6,1.4,2.4,2
						c0.8,0.6,1.6,1.2,2.4,1.8c0.8,0.7,1.6,1.3,2.4,2c1.7,1.4,3.5,2.7,5.3,3.9c1.9,1.3,3.8,2.5,5.8,3.6c1,0.6,2,1.1,3,1.7
						c1,0.5,1.9,1.1,2.9,1.6c2,1.1,4,2.3,6.2,3.4c2.2,1.1,4.5,2.1,7.1,2.6c5,1,9.8,0.7,14.4,0.6c1.1,0,2.2,0,3.4-0.1
						c1.1,0,2.1,0,3.3,0.1c2.3,0.1,4.7,0,7-0.3c1.2-0.2,2.4-0.4,3.5-0.8c1.1-0.3,2.1-0.7,3.1-1.1c2-0.8,3.9-1.6,5.8-2.4
						c3.7-1.7,7.1-3.3,10.2-4.7c0.8-0.4,1.5-0.7,2.3-1l0.6-0.2l0.6-0.3c0.4-0.2,0.9-0.4,1.2-0.6c1.6-0.9,2.8-1.8,4-2.7
						c2.3-1.7,4.2-3.3,5.8-4.4c3.1-2.3,5-3.1,5-3.1c0.6-0.3,0.9-0.7,1.1-1.3c0.2-0.6,0.2-1.2,0-1.8c-0.2-0.6-0.5-1.1-1.1-1.4
						C260.9,393.2,260.2,393.1,259.4,393.5z"/>
					<path id="XMLID_172_" class="st6" d="M264.7,401.1c0,0-0.1,0-0.2,0c-0.1,0-0.4,0.1-0.7,0.2c-0.6,0.2-1.6,0.7-3,1.6
						c-1.4,0.9-3.3,2.3-5.6,4.2c-1.2,0.9-2.5,1.9-4,3c-0.4,0.3-0.8,0.5-1.2,0.8c-0.5,0.3-0.9,0.5-1.4,0.8c-0.5,0.3-1.1,0.5-1.6,0.8
						l-0.4,0.2l-0.3,0.1l-0.6,0.3c-3.1,1.4-6.5,3-10.4,4.8c-1.9,0.9-3.9,1.8-6,2.6c-1.1,0.4-2.2,0.8-3.3,1.3
						c-0.6,0.2-1.2,0.4-1.8,0.6c-0.7,0.2-1.4,0.4-2.1,0.6c-2.9,0.7-5.6,0.8-8.2,0.8c-2.7,0-4.5-0.1-6.8,0c-2.3,0.1-4.7,0.1-7.2,0.1
						c-2.6,0-5.2-0.1-8.2-0.6c-1.4-0.2-3-0.6-4.5-1.1c-1.4-0.5-2.7-1.1-4-1.6c-2.5-1.2-4.6-2.4-6.7-3.6c-1-0.6-1.9-1.1-2.9-1.7
						c-1-0.6-2.1-1.1-3.1-1.7c-2.1-1.2-4.2-2.5-6.2-3.8c-2-1.3-3.9-2.8-5.7-4.2c-0.8-0.7-1.6-1.4-2.4-2c-0.8-0.6-1.6-1.2-2.4-1.8
						c-0.9-0.7-1.8-1.4-2.8-2.4c-1-0.9-2-2.1-2.7-3.1c-0.7-1-1.3-1.9-1.7-2.6c-0.4-0.7-0.8-1.1-1.1-1.5c-0.5-0.6-1.6-1.5-2.9-2.4
						c-1.2-0.9-2.7-2-4.1-3.3c-0.4-0.4-0.7-0.7-1.1-1.1c-0.2-0.2-0.4-0.5-0.5-0.6l-0.4-0.5c-0.7-0.9-1.2-1.7-1.6-2.4
						c-0.9-1.5-1.4-2.8-1.9-4c-0.9-2.3-1.4-3.9-1.7-5c-0.3-1.1-0.5-1.6-0.5-1.6c-0.4-1.4-1.8-1.5-3-1.1c-1.2,0.4-2.2,1.3-1.8,2.6
						c0,0,0.2,0.6,0.5,1.6c0.4,1.1,0.8,2.8,1.8,5.3c0.5,1.3,1.1,2.8,2.2,4.6c0.5,0.9,1.2,2,2,3.1c0.2,0.2,0.4,0.4,0.5,0.7l0.2,0.3
						l0.4,0.4c0.6,0.7,1,1,1.4,1.5c1.7,1.6,3.4,2.8,4.6,3.7c1.2,0.9,2,1.6,2.1,1.7c0,0.1,0.2,0.3,0.6,0.9c0.4,0.6,1,1.6,1.9,2.8
						c0.8,1.2,2.2,2.8,3.3,3.9c1.2,1.1,2.2,2,3.2,2.7c0.8,0.6,1.5,1.2,2.3,1.8c0.8,0.7,1.6,1.3,2.4,2c1.9,1.6,4,3.1,6.1,4.5
						c2.1,1.4,4.3,2.8,6.5,4c1,0.6,2.1,1.1,3.1,1.7c0.9,0.5,1.9,1.1,2.8,1.6c2,1.2,4.3,2.5,7,3.8c1.4,0.6,2.8,1.3,4.5,1.9
						c0.8,0.3,1.7,0.5,2.6,0.8c0.9,0.2,1.8,0.4,2.6,0.5c3.4,0.6,6.3,0.6,9,0.7c2.7,0,5.1-0.1,7.3-0.1c2.3-0.1,3.7,0,6.7,0
						c2.7,0,5.9-0.1,9.3-0.9c0.8-0.2,1.7-0.4,2.5-0.7c0.6-0.2,1.3-0.4,1.9-0.6c1.2-0.4,2.4-0.9,3.5-1.3c2.2-0.9,4.3-1.8,6.3-2.7
						c3.9-1.8,7.3-3.5,10.3-4.8l0.6-0.2l0.3-0.1l0.5-0.2c0.7-0.3,1.4-0.7,1.9-1c0.6-0.3,1.1-0.6,1.6-1c0.5-0.3,0.9-0.6,1.4-0.9
						c1.7-1.2,3.1-2.3,4.3-3.2c2.4-1.9,4.1-3.1,5.3-3.9c0.3-0.2,0.6-0.3,0.8-0.5c0.2-0.1,0.4-0.2,0.6-0.3c0.2-0.1,0.3-0.1,0.4-0.2
						c0.1-0.1,0.2-0.1,0.3-0.1c0.1,0,0.2-0.1,0.2-0.1c0,0,0,0,0,0c0,0,0,0,0-0.1c0-0.3-0.1-0.6-0.1-0.7c-0.1-0.3-0.1-0.5-0.1-0.7
						c0-0.2,0-0.4,0-0.5l0-0.1l0-0.5c0-0.6-0.1-1.2-0.2-1.7c-0.1-0.2-0.2-0.4-0.3-0.5C265,401.1,264.8,401.1,264.7,401.1z"/>
				</g>
			</g>
		</g>
		<g id="XMLID_146_">
			<g id="XMLID_71_">
				<g id="XMLID_75_">
					<path id="XMLID_79_" class="st6" d="M213.7,166.4c0,0-0.1-0.2-0.4-0.6c-0.1-0.2-0.3-0.5-0.5-0.8c-0.2-0.3-0.4-0.7-0.6-1.2
						c-0.1-0.2-0.3-0.5-0.4-0.8l-0.1-0.2l0,0l0,0l-0.1,0c-0.1,0-0.2,0.1-0.4,0.1c-0.4,0.1-1,0.4-1.8,0.6c-1,0.3-2.2,0.6-3.4,1
						c-0.4,0.1-0.8,0.2-1.2,0.4c-0.3,0.1-0.6,0.2-0.9,0.3c-0.3,0.1-0.7,0.2-1,0.4c-1.3,0.5-2.9,1.5-3.5,1.8c-1.6,0.9-3.3,2-5,3.2
						c-3.4,2.4-7.1,5.5-10.3,9.5c-0.8,1-1.5,2.1-2.2,3.2l-1,1.7c-0.3,0.6-0.6,1.1-0.9,1.7c-1.1,2.2-1.9,4.4-2.6,6.5
						c-1.3,4.2-2,8.1-2.3,11.6c-0.7,6.9,0.6,12.3,0.6,12.3c0.4,1.8,5.2,0.5,4.9-1c0,0-0.3-1.1-0.5-3.1c-0.2-1.9-0.3-4.7,0-7.8
						c0.3-3.2,0.9-6.8,2.1-10.5c0.6-1.9,1.4-3.8,2.3-5.8c0.3-0.5,0.5-1,0.8-1.5l0.9-1.5c0.6-1,1.3-1.9,2-2.8c2.8-3.5,6-6.3,9.2-8.5
						c1.6-1.1,3.1-2.1,4.6-3c0.6-0.3,1.8-1.1,2.9-1.5c0.3-0.1,0.5-0.2,0.8-0.3c0.2-0.1,0.5-0.2,0.7-0.2c0.4-0.1,0.8-0.2,1.1-0.3
						c2.8-0.8,4.7-1.3,5.7-1.7c0.5-0.2,0.8-0.4,1-0.4c0.1-0.1,0.1-0.1,0.1-0.1c0,0,0,0,0-0.1c0.1,0.1,0.1,0.2,0.2,0.3
						c0.1,0.1,0.1,0.2,0.2,0.2c0.2,0.3,0.4,0.6,0.6,0.8c0.3,0.4,0.4,0.5,0.4,0.5s-0.1-0.1-0.4-0.5
						C214.8,168,214.4,167.4,213.7,166.4z"/>
					<path id="XMLID_77_" class="st6" d="M216.5,170.4c0,0-0.1,0.1-0.4,0.2c-0.3,0.2-0.7,0.4-1.3,0.7c-1.3,0.5-3.4,1.1-6.1,1.9
						c-0.7,0.2-1.3,0.4-2.2,0.7c-0.4,0.1-0.9,0.3-1.3,0.5c-0.4,0.2-0.8,0.4-1.2,0.6c-1.4,0.8-2.9,1.7-4.4,2.8c-3,2.1-6,4.6-8.4,7.7
						c-1.2,1.5-2.3,3.3-3.2,5c-0.9,1.8-1.6,3.5-2.1,5.3c-1.1,3.5-1.7,6.8-2,9.7c-0.3,2.9-0.2,5.4,0,7.1c0.2,1.7,0.4,2.7,0.4,2.7
						c0.3,1.3,5.1,0,4.9-1c0,0-0.2-0.8-0.3-2.3c-0.2-1.5-0.3-3.6,0-6.2c0.2-2.6,0.7-5.6,1.7-8.6c0.5-1.5,1.1-3.1,1.8-4.5
						c0.7-1.5,1.6-2.9,2.7-4.2c2.1-2.6,4.7-4.9,7.4-6.7c1.3-0.9,2.7-1.8,4-2.5c0.3-0.2,0.6-0.3,0.9-0.5c0.3-0.1,0.5-0.2,0.8-0.3
						c0.5-0.2,1.2-0.4,1.9-0.6c2.6-0.7,4.9-1.4,6.6-2.1c1.7-0.7,2.7-1.5,2.7-1.5c0.3-0.2,0.4-0.7,0.2-1.2c-0.2-0.5-0.6-1-1-1.4
						c-0.5-0.4-1-0.8-1.3-1.1C216.9,170.5,216.7,170.3,216.5,170.4z"/>
					<path id="XMLID_76_" class="st6" d="M223.9,175.7c0,0-0.1,0.2-0.3,0.4c-0.1,0.1-0.3,0.3-0.4,0.5c-0.2,0.2-0.3,0.3-0.5,0.5
						c-0.8,0.7-1.9,1.4-3,1.9c-2.2,1.1-4.8,1.8-7.6,2.6c-0.6,0.2-1.3,0.4-1.9,0.6l-0.3,0.1l-0.2,0.1c-0.2,0.1-0.3,0.1-0.5,0.2
						c-0.3,0.2-0.6,0.3-0.8,0.5c-0.3,0.2-0.6,0.4-1,0.6c-0.6,0.4-1.3,0.8-1.9,1.2c-2.5,1.7-5,3.8-6.8,6c-3.5,4.2-5.2,10.9-5.6,15.6
						c-0.2,2.4-0.1,4.3,0,5.5c0.1,0.6,0.2,1.1,0.2,1.4c0.1,0.3,0.1,0.5,0.1,0.5c0.2,0.9,5-0.5,4.9-1.1c0,0,0-0.1-0.1-0.3
						c0-0.2-0.1-0.6-0.2-1.1c-0.1-1-0.2-2.5,0-4.5c0.2-2,0.6-4.5,1.4-6.8c0.4-1.2,0.9-2.3,1.3-3.3c0.3-0.5,0.5-0.9,0.8-1.3
						c0.3-0.4,0.6-0.9,1-1.3c1.4-1.8,3.5-3.5,5.8-5.1c0.6-0.4,1.1-0.8,1.7-1.1c0.3-0.2,0.6-0.4,0.9-0.5c0.2-0.1,0.5-0.3,0.7-0.4l0,0
						l0,0l0,0l0.2,0c0.6-0.2,1.2-0.4,1.8-0.5c2.8-0.8,5.7-1.6,8.4-2.9c1.4-0.7,2.9-1.6,4-2.6c0.3-0.3,0.6-0.5,0.8-0.7
						c0.3-0.3,0.5-0.5,0.6-0.7c0.3-0.4,0.5-0.6,0.5-0.6c0.5-0.6,0.8-1.2,1-1.9c0.2-0.7,0.3-1.3,0.3-1.9c-0.1-1.1-0.6-1.7-1.2-1.9
						c-0.6-0.2-1.3,0.1-2,0.6C225.2,174.3,224.5,174.9,223.9,175.7z"/>
				</g>
			</g>
		</g>
		<g id="XMLID_236_">
			<g id="XMLID_59_">
				<g id="XMLID_66_">
					<path id="XMLID_69_" class="st6" d="M316.5,119.1c0,0-0.2-0.2-0.4-0.6c-0.3-0.4-0.7-1-1.3-1.7c-1.1-1.4-2.8-3.4-4.9-5.4
						c-2.1-2.1-4.7-4.2-7.5-6.2c-1.4-1-2.9-2-4.4-3c-1.5-1-3.1-1.9-4.7-2.8c-3.3-1.8-7.1-3.5-11.2-4.5c-4.1-1.1-8.4-1.4-12.1-1
						c-3.7,0.4-6.5,1.3-8.4,1.9c-1.9,0.7-2.9,1.2-2.9,1.2c-1.3,0.6,1,5.1,2.1,4.5c0,0,0.9-0.4,2.5-1c1.6-0.6,4-1.4,7.1-1.7
						c3.1-0.3,6.8-0.1,10.3,0.9c3.6,0.9,6.9,2.4,10,4.1c3.1,1.7,5.9,3.5,8.6,5.4c2.6,1.9,5,3.9,6.9,5.8c1.9,1.9,3.4,3.6,4.4,4.9
						c0.5,0.6,0.9,1.2,1.1,1.5c0.3,0.4,0.4,0.6,0.4,0.6c0.1,0.1,0.3,0.2,0.5,0.2l-7.3-2.8c0.3-1-0.4-3.6-1.1-4.3l12.1,4.6
						C316.7,119.5,316.6,119.3,316.5,119.1z"/>
					<path id="XMLID_68_" class="st6" d="M309.3,124.5c0,0-0.1-0.2-0.4-0.5c-0.2-0.3-0.6-0.8-1-1.4c-0.9-1.2-2.3-2.8-4.1-4.6
						c-3.6-3.6-8.9-7.5-14.7-10.6c-2.9-1.6-6-3-9.2-3.8c-3.2-0.8-6.3-1-9-0.8c-2.7,0.3-4.8,0.9-6.2,1.4c-1.4,0.5-2.2,0.9-2.2,0.9
						c-1.1,0.5,1.2,4.9,2.1,4.5c0,0,0.7-0.3,1.8-0.8c1.2-0.4,2.9-1,5-1.2c2.1-0.2,4.6,0,7.2,0.6c2.6,0.7,5.4,1.9,8.1,3.3
						c5.4,2.9,10.4,6.6,13.6,9.8c1.6,1.6,2.8,3,3.6,4c0.4,0.5,0.7,0.9,0.9,1.2c0.2,0.3,0.3,0.4,0.3,0.4l0,0l1.3,1.6l1.3-0.6
						c0.9-0.4-0.2-4.9-1.2-4.8L309.3,124.5L309.3,124.5z"/>
					<path id="XMLID_67_" class="st6" d="M309.8,132l-0.9,0.2l-4.4,1.1l-2.6-3.8c-3.9-5.7-10.3-10.6-17.1-14.3
						c-3.4-1.8-6.7-3.1-9.7-3.4c-3-0.3-5.9,0.2-9,1.7c-0.8,0.3,1.6,4.8,2.1,4.5c1.2-0.6,2.3-0.9,3.3-1.1c1-0.2,2-0.2,3-0.1
						c2.1,0.2,4.8,1.2,7.9,2.9c6.3,3.4,12.2,8,15.3,12.7l4.5,6.7l7.9-2l0.9-0.2C312,136.6,310.8,131.8,309.8,132z"/>
				</g>
			</g>
		</g>
		<g id="XMLID_9_">
			<g id="XMLID_46_">
				<g id="XMLID_50_">
					<path id="XMLID_57_" class="st6" d="M150.8,40.6c0,0-0.2,0-0.6,0c-0.4,0-1,0-1.8,0.1c-0.8,0.1-1.7,0.1-2.9,0.2
						c-1.1,0.2-2.3,0.3-3.7,0.6c-2.7,0.5-5.9,1.4-9.3,2.6c-3.4,1.2-7,2.8-10.7,4.7c-1.9,0.9-3.8,2-5.7,3.1c-0.9,0.6-1.9,1.1-2.9,1.7
						c-0.9,0.6-2,1.2-2.8,1.7c-1.8,1-3.6,2.1-5.5,3.2c-0.5,0.3-0.9,0.5-1.4,0.8l-0.9,0.5c-0.3,0.2-0.7,0.4-1,0.6
						c-1.4,0.9-2.7,1.9-3.9,2.9c-2.4,2-4.3,4-5.9,5.5c-0.8,0.8-1.5,1.4-2.2,2c-0.3,0.3-0.7,0.6-0.9,0.7c-0.2,0.2-0.5,0.4-0.8,0.6
						c-0.7,0.4-1.6,1-2.8,1.7c-1.2,0.7-2.7,1.7-4.3,2.9c-1.6,1.2-3.2,2.8-4.5,4.5c-1.4,1.7-2.4,3.3-3.1,4.7c-0.8,1.4-1.3,2.4-1.7,3
						c-0.2,0.3-0.4,0.6-0.5,0.8l-0.2,0.2l-0.3,0.3c-1.8,2-3.5,4.1-5.2,6.2c-3.3,4.2-6.4,8.6-9.1,12.9c-2.7,4.4-5.1,8.8-7.1,13
						c-1,2.1-1.9,4.2-2.8,6.3l-0.3,0.8l-0.2,0.4l-0.1,0.2l-0.1,0.3c-0.3,0.8-0.6,1.6-0.8,2.3c-0.4,1.5-0.7,2.8-0.9,4.1
						c-0.4,2.5-0.6,4.7-0.7,6.6c-0.1,1.7-0.2,3.4-0.3,4.9c-0.1,1.4-0.2,2.5-0.3,3.3c-0.1,0.7-0.2,1.3-0.3,1.9
						c-0.1,0.4-0.1,0.8-0.2,1.2c-0.1,0.5-0.1,1.1-0.2,1.7c-0.4,4.4,0.6,7.8,1.6,9.9c0.5,1.1,0.9,1.8,1.2,2.4
						c0.3,0.5,0.5,0.8,0.5,0.8c0.1,0.2,0.2,0.4,0.3,0.5c0,0.1,0.1,0.1,0.1,0.1c0.1,0,0.2,0.1,0.2,0.1c0.2,0,0.3-0.2,0.5-0.3
						c0.5-0.2,1.1-0.4,1.6-0.6c0.6-0.2,1.1-0.5,1.5-0.9c0.2-0.2,0.3-0.3,0.4-0.5c0-0.1,0-0.2,0-0.3c0-0.1-0.1-0.1-0.1-0.2
						c-0.1-0.1-0.1-0.3-0.2-0.4c0,0-0.1-0.2-0.4-0.6c-0.2-0.4-0.6-1-1-1.8c-0.8-1.6-1.5-4.3-1.2-7.8c0-0.4,0.1-0.9,0.1-1.3
						c0-0.3,0.1-0.7,0.1-1c0.1-0.6,0.2-1.2,0.3-1.9c0.2-1,0.3-2.3,0.4-3.7c0.2-2.9,0.2-6.5,1-10.9c0.2-1.1,0.4-2.3,0.8-3.5
						c0.2-0.6,0.4-1.3,0.6-1.9c0.1-0.4,0.2-0.5,0.3-0.8l0.3-0.7c0.8-2,1.7-4,2.7-6c1.9-4.1,4.2-8.3,6.8-12.5
						c2.6-4.2,5.6-8.4,8.8-12.5c1.6-2,3.3-4,5-6l0.4-0.5c0.1-0.2,0.2-0.3,0.3-0.5c0.2-0.3,0.5-0.7,0.7-1.1c0.5-0.8,1.1-1.9,1.8-3.1
						c0.7-1.2,1.6-2.6,2.7-4c1.1-1.4,2.4-2.6,3.7-3.7c2.7-2.1,5.2-3.3,6.8-4.3c0.9-0.6,1.4-1,2.2-1.7c0.8-0.7,1.6-1.4,2.4-2.2
						c1.6-1.6,3.4-3.5,5.6-5.2c1.1-0.9,2.2-1.7,3.4-2.5c0.3-0.2,0.6-0.4,0.9-0.6l0.8-0.5c0.5-0.3,1-0.6,1.4-0.8
						c1.9-1.1,3.8-2.2,5.6-3.3c0.9-0.5,1.9-1.1,2.8-1.7c0.9-0.6,1.9-1.1,2.8-1.6c1.9-1.1,3.7-2.1,5.5-3c3.6-1.8,7-3.3,10.2-4.4
						c3.2-1.1,6.1-1.9,8.6-2.4c1.2-0.2,2.4-0.4,3.4-0.5c1-0.1,1.9-0.2,2.6-0.2c0.7-0.1,1.2-0.1,1.6-0.1c0.4,0,0.6,0,0.6,0
						c2,0,3.1-1.1,3.2-2.4C154.1,42,153,40.5,150.8,40.6z"/>
					<path id="XMLID_56_" class="st6" d="M151.9,49.6c0,0-0.7,0-2,0c-1.3,0-3.1,0.2-5.4,0.6c-4.6,0.7-11,2.8-17.9,6.3
						c-3.5,1.7-7.1,3.8-10.9,6.1c-1.9,1.1-3.8,2.2-5.7,3.3c-1,0.6-2,1.2-3,1.8c-1.1,0.7-2.1,1.4-3.1,2.2c-4,3.2-7.1,7.1-10.7,9.6
						c-1.8,1.3-4.1,2.4-6.4,4.1c-1.1,0.8-2.2,1.8-3.2,2.9c-1,1.1-1.7,2.3-2.4,3.5c-1.3,2.3-2.3,4.5-3.7,6c-1.6,1.9-3.3,3.8-4.9,5.8
						c-3.2,3.9-6,8-8.6,12.1c-2.5,4.1-4.8,8.2-6.7,12.2c-0.9,2-1.8,4-2.6,5.9c-0.2,0.5-0.4,1-0.6,1.4c-0.2,0.5-0.4,1.1-0.6,1.6
						c-0.3,1.1-0.5,2.1-0.7,3.1c-0.7,4-0.7,7.6-0.9,10.6c-0.1,1.5-0.2,2.9-0.4,4.1c-0.1,0.7-0.2,1.3-0.3,1.9c0,0.3-0.1,0.6-0.1,0.9
						c0,0.3-0.1,0.7-0.1,1c-0.3,2.7,0.2,4.8,0.9,6.1c0.3,0.6,0.6,1.1,0.8,1.4c0.2,0.3,0.3,0.5,0.3,0.5c0.1,0.2,0.3,0.4,0.4,0.5
						c0.1,0.1,0.2,0.2,0.4,0.3c0.3,0.2,0.5,0.2,0.8,0.3c0.6,0.1,1.2,0.1,1.8-0.2c0.6-0.2,1.1-0.7,1.3-1.3c0.1-0.3,0.1-0.7,0.1-1.1
						c0-0.2-0.1-0.4-0.2-0.6c-0.1-0.2-0.2-0.4-0.2-0.5c0,0-0.1-0.1-0.2-0.3c-0.1-0.2-0.3-0.5-0.5-0.9c-0.4-0.8-0.8-2.2-0.6-3.9
						c0-0.2,0-0.4,0.1-0.7c0-0.3,0.1-0.5,0.1-0.8c0.1-0.6,0.2-1.2,0.3-1.9c0.2-1.4,0.3-2.9,0.4-4.5c0.2-3.1,0.3-6.6,0.9-10
						c0.2-0.8,0.3-1.7,0.6-2.5c0.1-0.4,0.3-0.8,0.4-1.2c0.2-0.5,0.4-0.9,0.6-1.4c0.8-1.9,1.6-3.7,2.5-5.7c1.8-3.8,4-7.8,6.4-11.7
						c2.5-3.9,5.2-7.9,8.3-11.7c1.5-1.9,3.1-3.7,4.8-5.7c1.9-2.2,3.1-4.8,4.3-6.8c1.2-2,2.5-3.6,4.3-4.9c1.8-1.3,4-2.4,6.3-3.9
						c4.5-3.2,7.6-7.1,11-9.8c0.9-0.7,1.7-1.3,2.6-1.8c1-0.6,2-1.2,3-1.7c2-1.2,3.9-2.3,5.8-3.4c3.7-2.3,7.1-4.2,10.4-5.9
						c6.6-3.3,12.4-5.2,16.5-5.8c2-0.4,3.7-0.5,4.7-0.5c1.1,0,1.7,0,1.7,0c1.5,0.1,2.4-1.1,2.5-2.3C154.5,51,153.7,49.7,151.9,49.6z
						"/>
					<path id="XMLID_54_" class="st6" d="M154,58.7c0,0-0.1,0-0.4,0c-0.2,0-0.6,0-1.1-0.1c-0.5-0.1-1-0.1-1.7-0.1
						c-0.4,0-0.7,0-1.1,0c-0.4,0-0.8,0.1-1.3,0.1c-3.7,0.3-9.2,1.7-15.8,4.8c-3.3,1.5-6.8,3.4-10.4,5.6c-0.5,0.3-0.9,0.6-1.4,0.8
						c-0.5,0.3-1,0.6-1.5,0.9c-1,0.6-2,1.2-3.1,1.8c-2,1.2-4.5,2.5-5.7,3.4c-1.5,1.1-3,2.4-4.8,4.1c-1.8,1.7-3.7,3.7-6.2,5.6
						c-1.3,1-2.7,1.9-3.8,2.6c-1.2,0.7-2.2,1.3-3,1.8c-0.8,0.5-1.4,1-2,1.6c-0.5,0.5-1,1.1-1.5,1.9c-0.5,0.8-1.1,1.8-1.7,3.1
						c-0.7,1.2-1.5,2.7-2.6,4.1c-0.3,0.4-0.6,0.7-0.9,1.1l-0.6,0.7l-1.2,1.4c-0.8,0.9-1.6,1.9-2.3,2.8c-3.1,3.8-5.8,7.7-8.3,11.5
						c-2.4,3.9-4.6,7.8-6.4,11.6c-0.9,1.9-1.7,3.8-2.5,5.6l-0.3,0.7c-0.1,0.2-0.2,0.5-0.2,0.6c-0.1,0.3-0.2,0.6-0.3,0.9
						c-0.2,0.7-0.4,1.4-0.5,2.2c-0.5,3.1-0.6,6.6-0.8,10c-0.1,0.8-0.1,1.7-0.2,2.5c0,0.4-0.1,0.9-0.2,1.3c-0.1,0.4-0.1,0.8-0.2,1.1
						c-0.1,0.6-0.2,1.2-0.3,1.8c0,0.4-0.1,0.6-0.1,0.8c-0.1,1,0.3,1.7,0.5,2.2c0.2,0.3,0.3,0.5,0.4,0.7c0.2,0.4,0.3,0.6,0.3,0.6
						c0.7,1.1,1.3,1.9,2,2.4c0.7,0.5,1.3,0.6,1.9,0.4c0.6-0.2,1.1-0.7,1.3-1.7c0.1-0.5,0.1-1,0-1.6c-0.1-0.3-0.1-0.6-0.3-1
						c-0.1-0.2-0.2-0.4-0.3-0.6c-0.1-0.2-0.2-0.3-0.3-0.5c0,0-0.1-0.2-0.4-0.7c-0.1-0.1-0.1-0.2-0.2-0.3c0,0,0,0,0,0l0,0
						c0,0,0,0,0,0l0,0c0,0,0,0,0-0.1c0.1-0.5,0.2-1.1,0.2-1.6c0.1-0.4,0.1-0.8,0.2-1.2c0.1-0.4,0.1-1,0.2-1.5
						c0.1-0.9,0.2-1.9,0.2-2.7c0.1-1.6,0.2-3.3,0.3-5.1c0.1-1.6,0.2-3.1,0.4-4.4c0.1-0.6,0.2-1.2,0.3-1.6l0.1-0.3
						c0-0.1,0.1-0.1,0.1-0.2c0,0,0.1-0.3,0.2-0.5l0.3-0.7c0.7-1.8,1.5-3.6,2.4-5.4c1.7-3.6,3.8-7.4,6.1-11.1c2.3-3.7,5-7.4,7.9-11.1
						c0.7-0.9,1.5-1.8,2.2-2.7l1.2-1.3l0.6-0.7c0.4-0.4,0.7-0.9,1.1-1.3c1.4-1.7,2.3-3.4,3-4.7c0.7-1.3,1.2-2.3,1.6-2.8
						c0.4-0.6,0.6-0.8,0.8-1.1c0.3-0.3,0.6-0.5,1.2-0.9c0.6-0.4,1.6-1,2.8-1.7c1.2-0.7,2.8-1.7,4.3-2.9l0.6-0.5l0.5-0.4l0.9-0.8
						c0.6-0.5,1.2-1,1.7-1.6c1.1-1,2-2,2.9-2.8c1.7-1.7,3-2.8,4.1-3.6c0.3-0.2,0.6-0.4,0.9-0.6l0.6-0.3l0.8-0.5
						c1.1-0.6,2.1-1.2,3.2-1.9c1-0.6,2.1-1.2,3.1-1.8c0.5-0.3,1-0.6,1.5-0.9c0.4-0.3,0.9-0.5,1.3-0.8c3.5-2.1,6.9-3.9,9.9-5.4
						c6.1-2.9,11.1-4.1,14.1-4.3c0.4,0,0.7-0.1,1.1-0.1c0.3,0,0.6,0,0.9,0c0.3,0,0.5,0,0.8,0c0.2,0,0.4,0,0.6,0.1
						c0.7,0.1,1.1,0.1,1.1,0.1c0.9,0.2,1.6-1,1.9-2.2C155.6,60.3,155.3,59,154,58.7z"/>
				</g>
			</g>
		</g>
	</g>
	<path id="XMLID_x5F_5_x5F_" class="st7" d="M438.4,650.7c41-83.7,13.3-147.3-44.5-201.1l0,0c-56.7-52.8-109.1-140.8-68.1-224.5"/>
	<text id="XMLID_15_">	<textPath  xlink:href="#XMLID_x5F_5_x5F_" startOffset="0%">
<tspan  style="fill:#432918;stroke:#432918;stroke-width:3;stroke-miterlimit:10; font-family:'IntroCondBlackFree'; font-size:62.1961px; letter-spacing:300;"></tspan>	</textPath>
</text>
</g>
<g id="Layer_2">
</g>
</svg>
