<?xml version="1.0" encoding="utf-8"?>
<!-- Generator: Adobe Illustrator 19.0.0, SVG Export Plug-In . SVG Version: 6.00 Build 0)  -->
<svg version="1.1" id="Layer_1" xmlns="http://www.w3.org/2000/svg" xmlns:xlink="http://www.w3.org/1999/xlink" x="0px" y="0px"
	 viewBox="0 0 595.3 841.9" style="enable-background:new 0 0 595.3 841.9;" xml:space="preserve">
<style type="text/css">
	.st0{fill:none;stroke:#683C11;stroke-miterlimit:10;}
	.st1{opacity:0.8;}
	.st2{fill:#432918;}
	.st3{fill:#683C11;}
	.st4{fill:none;stroke:#397545;stroke-miterlimit:10;}
	.st5{fill:#006633;}
	.st6{fill:none;}
</style>
<g id="XMLID_72_">
	<g id="XMLID_154_">
		<path id="XMLID_158_" class="st0" d="M218,378.5"/>
	</g>
</g>
<g id="XMLID_9_">
	<g id="XMLID_139_">
		<path id="XMLID_152_" class="st0" d="M215.9,470.7"/>
	</g>
</g>
<g id="XMLID_8_" class="st1">
	<path id="XMLID_6_" class="st2" d="M324.4,613.1c-0.1-0.5-0.2-1-0.3-1.4c0-0.2-0.1-0.4-0.1-0.6l-0.1-0.9c-0.3-3.3-0.6-6.6-1-9.8
		c-0.9-6.4-2-12.6-3-18.6l-0.7-4.4l-0.3-2.2l-0.1-0.5l-0.1-0.5l-0.1-0.9c-0.3-2.4-0.4-5-0.4-7.7c0-5.4,0.6-11.4,1-17.9
		c0.1-1.1,0-2.1-0.1-3.2c-0.1-1-0.2-1.9-0.4-2.6l-0.2-1.3c0,0,0,0,0,0l0,0h0c0,0,0,0.1,0,0l0.1-0.7l0.2-1c0.1-0.4,0.2-0.8,0.3-1.4
		c0.2-1.1,0.3-2.3,0.3-3.5l0-1.4l-0.1-1.2c-0.1-0.8-0.1-1.5-0.2-2.2c-0.2-1.4-0.4-2.8-0.6-4c-0.5-2.5-1-4.8-1.4-6.7l-0.7-3.4
		c-0.3-1.2-0.5-2.4-0.8-3.6c-0.6-2.4-1.3-4.8-2.1-7.2l-0.5-1.4c-0.1-0.3-0.2-0.7-0.3-1.1l-0.8-3.1c-0.3-1.2-0.7-2.7-1.3-4.3
		c-0.5-1.6-1.3-3.3-2.2-4.8c-2-3.5-3.9-7.3-5.8-11.3c-3.8-7.9-7.8-16.4-13.5-24.9c-0.7-1.1-1.4-2.1-2.2-3.1l-1.2-1.6l-1.3-1.5
		l-1.3-1.5l-1.4-1.5c-0.5-0.5-0.9-1-1.4-1.4l-1.3-1.3c-1.7-1.7-3.3-3.2-4.6-4.5c-1.3-1.3-2.3-2.4-3.2-3.7c-0.5-0.7-1.1-1.4-1.7-2.1
		c-0.6-0.7-1.3-1.3-1.8-1.8c-1.2-1.1-2.3-1.8-3-2.4c-0.8-0.6-1.3-0.9-1.5-1.1c-0.2-0.2-0.2-0.1-0.3-0.3
		c-0.3-0.3-12.4-10.7-13.5-11.5c-1.1-0.9-1.1,2.7-1.6,3.1c-0.5,0.3,0.4-0.6,0.7,0.7c0.2,1.3,9.8,9.9,10.5,10.8c0.3,0.4,0.5,0.6,1,1
		c0.4,0.3,1,0.8,1.8,1.3c0.8,0.5,1.7,1.2,2.6,2c1,0.8,2,1.9,2.8,3c1.1,1.5,2.3,2.9,3.7,4.3c1.4,1.4,3,2.9,4.7,4.5
		c0.8,0.8,1.7,1.7,2.5,2.6l1.3,1.4l1.2,1.4l1.2,1.4l1.1,1.5c0.8,1,1.4,2,2.1,2.9c5.4,8,9.3,16.3,13.1,24.3c1.9,4,3.9,7.8,5.9,11.5
		c0.7,1.2,1.4,2.7,1.8,4c0.5,1.4,0.8,2.6,1.1,3.8l0.8,3.1c0.1,0.5,0.3,0.9,0.4,1.3l0.5,1.5c0.7,2.3,1.4,4.5,2,6.8
		c0.3,1.1,0.6,2.3,0.8,3.4l0.7,3.3c0.4,2,1,4.3,1.4,6.6c0.2,1.2,0.4,2.4,0.6,3.7c0.1,0.6,0.1,1.3,0.2,2l0.1,1l0,1.2
		c0,0.9-0.1,1.8-0.2,2.7c-0.2,0.9-0.3,1.5-0.4,2.1l-0.2,0.7l-0.1,0.4c0,0.2-0.1,0.5-0.1,0.8c0,0.2,0,0.5,0.1,0.7l0.2,1.4
		c0.2,1.2,0.5,3,0.3,4.7c-0.3,6.3-0.9,12.3-1,18.1c0,2.9,0.1,5.7,0.4,8.4c0.2,1.3,0.4,2.8,0.6,4.3l0.7,4.5c1,6,2.1,12.1,3,18.4
		c0.4,3.1,0.8,6.3,1,9.5l0.1,1c0,0.3,0.1,0.6,0.1,0.8c0.1,0.6,0.2,1.2,0.3,1.8"/>
	<path id="XMLID_5_" class="st2" d="M315,611.4c-0.2-3.1-0.6-6.3-1-9.4c-0.8-6.2-1.9-12.3-2.9-18.4c-0.5-3-1-6.1-1.4-9.1
		c-0.4-2.9-0.5-5.9-0.5-8.9c0-6,0.6-12.2,1-18.4c0.1-1.3-0.1-2.7-0.3-3.8l-0.3-1.5c-0.1-0.4-0.1-0.8-0.1-1.3c0-0.5,0-0.9,0.1-1.4
		c0-0.2,0.1-0.4,0.1-0.7l0.2-0.8c0.3-1.1,0.6-2.6,0.6-4c0-2.6-0.4-4.8-0.8-7.1c-0.4-2.3-0.9-4.4-1.4-6.6c-0.9-4.4-2-8.9-3.4-13.2
		l-0.5-1.5c-0.2-0.5-0.3-1-0.4-1.5l-0.8-3.2c-0.5-2.2-1.3-4.7-2.6-6.8c-2.1-3.8-4.1-7.7-6-11.7c-3.9-8-7.7-16.2-12.8-23.8
		c-2.6-3.8-5.6-7.4-8.9-10.6c-1.6-1.6-3.3-3.1-4.8-4.6c-1.5-1.5-2.9-3.1-4.1-4.8c-0.6-0.9-1.4-1.7-2.2-2.4c-0.8-0.7-1.6-1.3-2.3-1.8
		c-1.5-1.1-5.6-3.9-6.5-5c-4.3-6.7-9.1-4.8-3.9,3.1c1.3,1.7,6.1,5,7.5,6c1.5,1,2.5,1.9,3.4,3c1.4,1.9,3,3.7,4.6,5.4
		c1.6,1.6,3.3,3.2,4.8,4.7c3.1,3,5.8,6.2,8.2,9.8c4.9,7.1,8.6,15.1,12.5,23.1c1.9,4,3.9,8,6.2,12c1,1.7,1.6,3.5,2.1,5.6l0.8,3.3
		c0.2,0.6,0.3,1.1,0.5,1.7l0.5,1.6c1.4,4.1,2.4,8.3,3.2,12.6c0.5,2.2,1,4.4,1.4,6.5c0.4,2.1,0.7,4.2,0.7,6.1c0,0.9-0.2,1.7-0.5,2.9
		l-0.2,0.9c-0.1,0.3-0.1,0.7-0.2,1c-0.1,0.7-0.2,1.4-0.1,2.1c0,0.6,0.1,1.3,0.2,1.9c0.1,0.6,0.2,1.1,0.3,1.6c0.2,1,0.3,1.8,0.2,2.6
		c-0.3,6.1-0.9,12.3-1,18.7c0,3.2,0.1,6.4,0.5,9.6c0.4,3.2,1,6.2,1.5,9.3c1,6.1,2.1,12.2,2.9,18.2c0.4,3,0.7,6.1,0.9,9.1"/>
	<path id="XMLID_4_" class="st2" d="M306.2,613.8c-0.1-0.5-0.1-1-0.2-1.5l-0.1-1.2c-0.1-0.8-0.1-1.5-0.2-2.3c-0.1-1.5-0.3-3-0.5-4.5
		c-0.8-6.1-1.8-12.2-2.9-18.5l-0.8-4.7l-0.4-2.4c-0.1-0.8-0.3-1.6-0.4-2.5c-0.5-3.5-0.6-7-0.6-10.4c0-6.8,0.7-13.2,1-19.3
		c0-0.5,0-0.8-0.2-1.7c-0.1-0.5-0.2-1-0.3-1.8c-0.1-0.8-0.2-1.7-0.2-2.5c0-0.9,0-1.8,0.2-2.7l0.1-0.7l0.1-0.6l0.2-1
		c0.1-0.6,0.2-1.1,0.3-1.3c0-0.2,0.1-0.5,0.1-0.8l0-0.5l0-0.6c0-0.4-0.1-0.9-0.1-1.3c-0.1-0.9-0.3-1.9-0.5-2.9
		c-0.4-2-0.9-4.1-1.4-6.4l-0.7-3.2c-0.2-1-0.5-2-0.7-3.1c-0.5-2-1.1-4-1.7-6l-0.5-1.7c-0.2-0.6-0.4-1.3-0.5-1.9
		c-0.3-1.2-0.6-2.3-0.8-3.3c-0.5-2-0.9-3.3-1.7-4.6c-2.3-4.1-4.3-8.2-6.3-12.2c-3.9-8-7.6-15.9-12.2-22.6c-0.6-0.8-1.1-1.7-1.8-2.5
		l-0.9-1.2l-1-1.1l-1-1.1l-1-1.1c-0.7-0.7-1.4-1.4-2.1-2.2c-1.5-1.5-3.2-3-4.9-4.7c-1.7-1.7-3.5-3.7-5-5.8c-0.3-0.4-0.6-0.7-1.1-1.2
		c-0.6-0.5-1.4-1-2.5-1.8c-1.1-0.8-2.4-1.8-3.5-3.1c-1.1-1.3-2-2.5-2.6-3.6c-2.5-4.2-3.6-3.1-4.5-2.3c-0.4,0.5-0.9,0.9-1.1,1.4
		c-0.2,0.5-0.1,1.2,1.3,3.5c0.7,1.2,1.7,2.7,3.1,4.3c1.5,1.7,3.1,3,4.3,3.9c1.2,0.9,2,1.4,2.3,1.7c0.4,0.3,0.2,0.2,0.2,0.2
		c1.7,2.3,3.6,4.6,5.5,6.4c1.8,1.9,3.5,3.4,5,4.8l1,1c0.3,0.3,0.6,0.7,0.9,1l0.9,1l0.9,1l0.9,1l0.8,1.1c0.6,0.7,1.1,1.5,1.6,2.3
		c4.3,6.3,7.9,13.9,11.8,22c2,4.1,4,8.2,6.4,12.4c0.3,0.5,0.4,0.8,0.6,1.3c0.2,0.5,0.4,1.2,0.6,2.1c0.2,0.9,0.5,2.1,0.8,3.4
		c0.2,0.7,0.4,1.4,0.6,2.1l0.6,1.7c0.6,1.9,1.1,3.7,1.6,5.6c0.2,1,0.5,1.9,0.7,2.9l0.7,3.1c0.5,2.4,1,4.5,1.3,6.3
		c0.2,0.9,0.3,1.8,0.4,2.5c0,0.4,0.1,0.7,0.1,1.1l0,0.5c0,0.1,0,0.1,0,0.2c0,0.1,0,0,0,0l0,0l-0.1,0.3l-0.2,0.7l-0.2,1l-0.2,0.8
		l-0.1,0.9c-0.2,1.1-0.3,2.3-0.2,3.5c0,1.1,0.1,2.2,0.3,3.2c0.1,0.8,0.3,1.5,0.3,1.9c0.1,0.8,0.1,0.5,0.1,0.6c-0.3,6-1,12.4-1,19.5
		c0,3.5,0.2,7.2,0.7,11c0.1,1,0.3,1.8,0.4,2.6l0.4,2.4l0.8,4.8c1.1,6.3,2.1,12.3,2.9,18.2c0.2,1.5,0.4,2.9,0.5,4.4
		c0.1,0.7,0.1,1.5,0.2,2.2l0.1,1.2c0.1,0.6,0.1,1.2,0.2,1.7c0.3,2.3,0.8,4.4,1.3,6.2"/>
</g>
<g id="XMLID_2_" class="st1">
	<g id="XMLID_144_">
		<g id="XMLID_149_">
			<path id="XMLID_161_" class="st3" d="M439.5,555.8c0,0-0.3-0.5-0.8-1.4c-0.5-0.9-1.2-2.3-2.2-4.1c-0.9-1.8-2-4-3.3-6.7
				c-0.3-0.7-0.6-1.4-1-2.1c-0.4-0.8-0.8-1.6-1.2-2.5c-0.8-1.7-1.7-3.3-2.6-5c-1.8-3.3-3.6-6.6-4.9-9.7c-1.1-2.6-2.5-5.1-3.8-7.2
				c-0.6-1-1.2-2-1.8-2.9l-0.2-0.3l0-0.1l0,0l0,0c0,0,0,0,0,0c0,0,0-0.1-0.1-0.2c0-0.1-0.1-0.4-0.2-0.7l-0.3-1.3
				c-0.2-1.1-0.5-2.7-1.1-4.6c-0.3-0.9-0.7-1.9-1-2.9c-0.4-0.9-0.8-1.8-1.2-2.6c-0.4-0.8-0.9-1.5-1.3-2.3c-0.4-0.7-0.9-1.4-1.3-2
				c-1.8-2.5-3.6-4.6-5.1-6.5c-0.8-0.9-1.5-1.8-2.2-2.6c-0.3-0.4-0.6-0.8-0.9-1.1l-0.4-0.5l-0.4-0.6c-2.2-3.3-4.4-7.4-6.9-11.9
				c-0.6-1.1-1.3-2.3-2-3.4c-0.7-1.1-1.3-2.1-2-3.1c-1.2-1.9-2.3-3.8-3.5-5.7c-2.3-3.8-4.4-7.7-6.6-11.4c-0.2-0.4-0.5-0.8-0.7-1.2
				c-0.2-0.4-0.4-0.8-0.6-1.2c-0.4-0.8-0.8-1.6-1.2-2.4c-0.8-1.6-1.6-3.3-2.4-5c-0.8-1.7-1.6-3.4-2.4-5c-0.4-0.8-0.8-1.6-1.3-2.4
				c-0.2-0.4-0.5-0.8-0.7-1.2c-0.3-0.5-0.6-1-0.8-1.4c-1-1.6-1.9-2.8-2.6-3.9c-0.7-1-1.3-1.9-1.8-2.7c-1-1.5-1.5-2.5-1.7-3
				c-0.1-0.2-0.2-0.4-0.2-0.5c0-0.1,0-0.1,0-0.1c0,0,0,0,0-0.1l0,0c-0.1,0,0.1,0-0.5,0.1c-0.2,0-0.4,0.1-0.7,0.1l-0.3,0.1l0,0l0,0
				l0,0c0.6-0.1-1.2,0.3,1.2-0.3l0,0l0,0l0,0c-0.1,0.1-0.2,0.1-0.3,0.2c-0.4,0.2-1.1,0.3-1.7,0.3c-0.6,0.1-1.2,0.1-1.7,0.2
				c-0.2,0.1-0.4,0.1-0.5,0.3c-0.1,0.2-0.2,0.3-0.1,0.5c0,0,0.1,0.3,0.4,1c0.3,0.7,1,1.9,2,3.6c0.5,0.8,1.1,1.8,1.9,2.8
				c0.7,1.1,1.5,2.2,2.5,3.7c0.2,0.3,0.5,0.8,0.7,1.2c0.2,0.4,0.4,0.8,0.6,1.1c0.4,0.8,0.8,1.5,1.2,2.3c0.8,1.6,1.6,3.2,2.4,4.9
				c1.6,3.4,3.2,6.8,5.1,10.2c2.1,3.7,4.3,7.6,6.6,11.5c1.1,2,2.3,3.9,3.5,5.9c0.6,1,1.3,2.1,1.9,3.1c0.7,1.1,1.3,2.2,1.9,3.3
				c2.5,4.4,4.7,8.6,7.1,12.2c2.3,3.4,5.8,6.9,9,11.4c1.6,2.3,3.2,5,4.2,8.2c0.5,1.6,0.7,3,1,4.1c0.2,1.1,0.4,2,0.6,2.6
				c0.1,0.3,0.2,0.6,0.3,0.8c0.1,0.1,0.1,0.2,0.2,0.4c0,0.1,0,0.1,0.1,0.2l0.2,0.4c0.6,1,1.2,2,1.8,2.9c1.2,2,2.5,4.2,3.4,6.6
				c1.5,3.5,3.3,6.8,5.1,10.1c0.9,1.6,1.7,3.3,2.5,4.8c0.4,0.8,0.8,1.6,1.1,2.4c0.3,0.7,0.7,1.4,1,2.1c1.3,2.7,2.4,5,3.3,6.8
				c1.9,3.7,3.1,5.7,3.1,5.7C436.7,560.9,440.9,558.3,439.5,555.8z"/>
			<path id="XMLID_160_" class="st3" d="M432.2,561.1c0,0-1.2-2.1-3.2-5.9c-1-1.9-2.1-4.2-3.4-6.9c-0.7-1.4-1.4-2.8-2.1-4.4
				c-0.8-1.6-1.6-3.2-2.5-4.8c-1.8-3.3-3.7-6.8-5.4-10.5c-0.2-0.5-0.4-1-0.7-1.5c-0.2-0.5-0.5-1-0.8-1.6c-0.5-1-1.1-2-1.7-3
				c-0.6-1-1.2-1.9-1.8-2.9c-0.6-1-1.1-1.7-1.4-2.6c-0.7-1.7-0.9-4-1.6-6.6c-0.3-1.3-0.9-2.6-1.5-3.8c-0.6-1.2-1.3-2.3-2-3.4
				c-3-4.3-6.5-7.8-9.2-11.6c-2.7-3.9-5-8.2-7.4-12.5c-0.6-1.1-1.2-2.1-1.9-3.2c-0.6-1.1-1.3-2.1-1.9-3.1c-1.3-2-2.5-4-3.6-6
				c-2.3-4-4.5-7.9-6.7-11.6c-2.1-3.6-3.7-7.2-5.3-10.5c-0.8-1.7-1.6-3.3-2.3-4.9c-0.8-1.6-1.5-3-2.4-4.4c-1.7-2.7-3.2-4.8-4.3-6.6
				c-1.1-1.8-1.9-3.1-2.3-4.1c-0.2-0.5-0.4-0.8-0.4-1.1c-0.1-0.2-0.1-0.4-0.1-0.4c-0.2-0.6-0.6-1-1.1-1.2c-0.5-0.2-1.2-0.4-1.8-0.3
				s-1.2,0.3-1.6,0.9c-0.4,0.6-0.5,1.4-0.2,2.3c0,0,0.1,0.2,0.2,0.5c0.1,0.3,0.3,0.8,0.6,1.4c0.5,1.2,1.4,2.8,2.6,4.7
				c1.2,1.9,2.8,4.1,4.3,6.5c0.7,1.1,1.4,2.6,2.2,4c0.7,1.5,1.5,3.1,2.3,4.7c1.6,3.3,3.3,7.1,5.5,10.9c2.1,3.7,4.3,7.6,6.7,11.6
				c1.2,2,2.4,4.1,3.7,6.1c0.7,1,1.3,2,1.9,3c0.6,1,1.2,2,1.8,3.1c2.4,4.2,4.7,8.7,7.6,12.9c3,4.3,6.6,7.8,9.2,11.6
				c0.6,0.9,1.2,1.9,1.7,2.8c0.5,1,0.8,1.9,1.1,2.9c0.6,2,0.8,4.5,1.8,7.1c0.2,0.6,0.5,1.3,0.9,1.9c0.4,0.7,0.6,1.1,0.9,1.6
				c0.6,1,1.2,1.9,1.7,2.9c0.5,0.9,1.1,1.8,1.5,2.8c0.2,0.5,0.5,0.9,0.7,1.4c0.2,0.5,0.4,1,0.6,1.4c1.8,4,3.8,7.6,5.5,10.9
				c1.8,3.3,3.2,6.2,4.5,9c1.3,2.7,2.5,5.1,3.5,7.1c2,3.9,3.3,6.1,3.3,6.1C429.6,566.5,433.8,563.8,432.2,561.1z"/>
			<path id="XMLID_159_" class="st3" d="M426.1,568.4c0,0-1.5-2.3-3.7-6.4c-1.1-2-2.4-4.5-3.8-7.4c-0.7-1.4-1.4-2.9-2.2-4.5
				c-0.4-0.7-0.7-1.5-1.1-2.3c-0.4-0.8-0.8-1.6-1.2-2.4c-1.7-3.3-3.8-6.9-5.8-11.1c-0.2-0.5-0.5-1.1-0.8-1.6c-0.2-0.5-0.5-1-0.7-1.6
				c-0.4-0.8-0.8-1.7-1.3-2.5c-0.5-0.9-1-1.8-1.6-2.7c-0.3-0.5-0.6-1-0.9-1.5l-0.5-0.8l-0.2-0.4l-0.3-0.6c-0.9-1.6-1.5-3.3-1.9-4.9
				c-0.4-1.5-0.6-2.8-0.8-3.9c-0.2-1-0.4-1.8-0.7-2.4c-0.3-0.7-0.7-1.5-1.2-2.3c-1-1.7-2.5-3.4-4-5.3c-1.6-1.9-3.3-3.8-5.1-6.2
				c-3.4-4.7-5.8-9.4-8.2-13.6c-0.6-1.1-1.2-2.1-1.8-3.1l-0.9-1.5l-1-1.5c-1.4-2.1-2.6-4.3-3.9-6.4c-2.5-4.2-4.7-8.2-6.9-12
				c-2.4-4.1-4.2-8-5.8-11.4c-0.8-1.7-1.6-3.3-2.3-4.8c-0.4-0.7-0.7-1.4-1.1-2.1l-0.3-0.5l-0.2-0.4c-0.1-0.2-0.3-0.5-0.5-0.8
				c-1.5-2.3-3.2-4.7-4.5-6.8c-1.3-2.1-2.3-4.1-2.9-5.6c-0.3-0.8-0.5-1.4-0.6-1.9c-0.1-0.5-0.2-0.7-0.2-0.7
				c-0.2-0.6-0.3-1.2-0.6-1.7c-0.1-0.3-0.2-0.5-0.3-0.7c-0.1-0.2-0.2-0.4-0.3-0.5c-0.5-0.6-1.1-1-1.7-1c-0.6,0-1.3,0.4-1.7,1.2
				c-0.1,0.2-0.2,0.4-0.3,0.7c-0.1,0.3-0.1,0.6-0.1,1c0,0.7,0,1.6,0.2,2.3c0,0,0.1,0.3,0.2,0.9c0,0.1,0.1,0.3,0.1,0.5
				c0.1,0.2,0.1,0.3,0.2,0.5c0.1,0.4,0.3,0.8,0.5,1.3c0.7,1.8,1.9,4.1,3.3,6.3c0.7,1.1,1.5,2.3,2.3,3.5c0.8,1.2,1.6,2.3,2.2,3.4
				c0.1,0.2,0.3,0.5,0.4,0.7l0.2,0.3l0.2,0.4c0.3,0.6,0.7,1.3,1,2c0.7,1.4,1.4,2.9,2.3,4.6c0.8,1.7,1.7,3.5,2.6,5.5
				c0.5,1,1,2,1.6,3.1c0.3,0.5,0.6,1.1,0.9,1.6c0.3,0.5,0.6,1,0.9,1.6c2.1,3.7,4.4,7.8,6.9,12c1.3,2.1,2.6,4.3,4,6.5l1,1.5l0.8,1.4
				c0.6,0.9,1.1,1.9,1.7,3c2.4,4.2,4.8,9,8.5,14.2c1,1.3,1.9,2.5,2.8,3.5l2.5,3c1.5,1.8,2.8,3.5,3.6,4.8c0.4,0.6,0.7,1.2,0.8,1.5
				c0.1,0.3,0.2,0.7,0.4,1.6c0.1,0.6,0.2,1.1,0.3,1.7c0.1,0.7,0.3,1.5,0.5,2.4c0.5,1.8,1.2,4,2.4,6.1l0.4,0.8l0.3,0.4l0.5,0.8
				c0.3,0.5,0.6,1,0.9,1.5c0.6,0.9,1.1,1.8,1.5,2.5c0.4,0.8,0.8,1.5,1.1,2.2c0.2,0.5,0.5,1.1,0.7,1.6c0.3,0.6,0.5,1.2,0.8,1.7
				c2.1,4.5,4.2,8.1,5.9,11.3c0.4,0.8,0.8,1.5,1.2,2.3c0.4,0.8,0.7,1.5,1.1,2.2c0.8,1.6,1.5,3.1,2.2,4.6c1.4,2.9,2.7,5.5,3.9,7.6
				c2.3,4.2,3.9,6.7,3.9,6.7C423.9,574.2,427.9,571.3,426.1,568.4z"/>
		</g>
	</g>
</g>
<path id="XMLID_59_" d="M246.2,403.4"/>
<g id="XMLID_7_" class="st1">
	<g id="XMLID_60_">
		<g id="XMLID_119_">
			<path id="XMLID_153_" class="st4" d="M189.2,347.8"/>
		</g>
	</g>
	<g id="XMLID_58_">
		<g id="XMLID_129_">
			<g id="XMLID_133_">
				<path id="XMLID_136_" class="st5" d="M397.2,132.4c0,0,0.2-1.3,0.5-3.5c0.2-2.1,0.3-5.2,0.3-8.3c0-0.7,0-1.4,0-2.2l0-0.4
					c0-0.2,0-0.3,0-0.5c0-0.4,0.1-0.9,0.1-1.4c0.1-1.9,0.3-4,0.4-6.4c0.1-2.4,0.2-5,0.1-7.9c-0.1-2.9-0.3-6.1-1-9.7
					c-0.4-1.8-0.8-3.6-1.5-5.5c-0.2-0.5-0.3-1-0.5-1.4c-0.2-0.5-0.4-1-0.6-1.5c-0.5-1.1-0.8-1.7-1.2-2.5c-0.8-1.5-1.6-3-2.4-4.5
					c-0.4-0.7-0.9-1.5-1.3-2.2c-0.5-0.7-0.9-1.4-1.4-2.2c-3.8-5.8-8.2-11.5-13.2-16.9c-5-5.4-10.6-10.6-16.6-15.5
					c-6.1-4.8-12.6-9.3-20.1-13.1c-7.6-3.8-15.5-6.2-23.1-7.9c-7.6-1.7-15.1-2.6-22.1-3.3c-7.1-0.6-13.8-0.9-20.1-1.2
					c-1.5-0.1-3.2-0.1-4.9-0.2c-1.6,0-3.3,0-4.8,0c-3.2,0.1-6.2,0.2-9.2,0.4c-11.8,0.9-21.7,3.2-28.5,5.5c-1.7,0.5-3.2,1.2-4.6,1.6
					c-1.3,0.5-2.4,1-3.3,1.4c-0.9,0.4-1.6,0.7-2.1,1c-0.5,0.2-0.7,0.3-0.7,0.3c-0.6,0.3-1.1,0.6-1.5,1c-0.4,0.4-0.7,0.8-0.9,1.1
					c-0.4,0.8-0.4,1.5-0.1,2c0.3,0.5,0.9,0.9,1.7,1c0.4,0,0.9,0,1.4-0.1c0.5-0.1,1.1-0.3,1.6-0.6c0,0,0.2-0.1,0.7-0.3
					c0.4-0.2,1.1-0.5,1.9-0.9c0.9-0.4,1.9-0.8,3.1-1.3c1.3-0.4,2.7-1,4.3-1.6c6.5-2.2,15.9-4.4,27.3-5.2c2.8-0.2,5.8-0.3,8.9-0.4
					c1.5,0,3.1,0,4.7,0c1.6,0,3.2,0.1,4.7,0.2c6.2,0.3,12.9,0.6,19.8,1.2c6.9,0.6,14.2,1.5,21.5,3.2c7.3,1.6,14.8,3.9,21.9,7.5
					c7.1,3.5,13.3,7.9,19.2,12.5c5.9,4.7,11.3,9.7,16.1,14.9c4.8,5.2,9.1,10.7,12.7,16.3c0.4,0.7,0.9,1.4,1.3,2.1
					c0.4,0.7,0.8,1.4,1.2,2.1c0.8,1.4,1.6,2.8,2.3,4.2c0.4,0.7,0.7,1.3,1.1,2.2c0.2,0.4,0.4,0.8,0.5,1.3c0.2,0.4,0.3,0.8,0.4,1.3
					c0.6,1.7,1,3.3,1.3,4.9c1.2,6.3,1,11.8,0.8,16.4c-0.1,2.3-0.3,4.4-0.4,6.3c0,0.5-0.1,0.9-0.1,1.4c0,0.2,0,0.4,0,0.6
					c0,0.2,0,0.4,0,0.5c0,0.8,0,1.6,0,2.3c0,3.2-0.1,6-0.3,7.9c-0.2,2-0.4,3.1-0.4,3.1c-0.3,1.5-0.2,2.7-0.1,3.6
					c0.2,1,0.6,1.7,1.2,1.9c0.6,0.2,1.4,0,2.1-0.8C396.3,135.4,396.9,134.1,397.2,132.4z"/>
				<path id="XMLID_135_" class="st5" d="M388,132.5c0,0,0.3-1,0.5-2.8c0.3-1.8,0.4-4.5,0.4-7.7c0-1.6,0-3.4,0.1-5.1
					c0.1-1.9,0.3-4,0.4-6.2c0.2-4.5,0.5-9.7-0.4-15.4c-0.5-2.9-1.3-5.9-2.7-8.8c-0.7-1.3-1.4-2.7-2.2-4.1c-0.8-1.3-1.6-2.8-2.4-4.1
					c-3.4-5.4-7.6-10.8-12.2-16c-4.7-5.2-9.9-10.1-15.6-14.7c-1.4-1.1-2.9-2.3-4.4-3.4l-2.2-1.6L345,41c-1.5-1.1-3.1-2-4.7-3
					l-2.4-1.4c-0.8-0.5-1.6-0.9-2.5-1.3l-2.5-1.3l-2.6-1.1l-1.3-0.6l-1.3-0.5l-2.6-1c-3.5-1.1-7.1-2.2-10.7-3
					c-7.1-1.6-14.3-2.5-21.1-3.2c-6.9-0.6-13.5-1-19.8-1.2c-6.3-0.3-12.4-0.3-17.9,0.2c-11.1,0.8-20.3,2.9-26.5,5.1
					c-1.6,0.5-2.9,1.1-4.1,1.5c-1.2,0.5-2.2,0.9-3,1.3c-0.8,0.3-1.4,0.7-1.8,0.9c-0.4,0.2-0.6,0.3-0.6,0.3c-0.6,0.3-1,0.6-1.4,0.9
					c-0.3,0.3-0.6,0.7-0.7,1.1c-0.3,0.7-0.3,1.4,0,1.9c0.3,0.5,0.9,0.9,1.6,1.1c0.4,0.1,0.8,0.1,1.2,0c0.5-0.1,0.9-0.2,1.4-0.5
					c0,0,0.2-0.1,0.6-0.3c0.4-0.2,0.9-0.5,1.7-0.8c0.8-0.3,1.7-0.7,2.8-1.2c1.1-0.4,2.4-0.9,3.9-1.4c5.9-2,14.6-4,25.3-4.8
					c5.4-0.4,11.1-0.5,17.4-0.2c6.2,0.3,12.8,0.6,19.5,1.2c6.7,0.6,13.7,1.5,20.5,3.1c3.4,0.7,6.8,1.7,10.2,2.8l2.5,0.9l1.2,0.5
					l1.2,0.5l2.4,1l2.4,1.2c0.8,0.4,1.6,0.8,2.3,1.3l2.3,1.3c1.5,1,3,1.8,4.5,2.9l2.2,1.5l2.1,1.6c1.4,1,2.8,2.1,4.2,3.2
					c5.5,4.4,10.5,9.2,15,14.2c4.5,5,8.5,10.1,11.7,15.3c0.9,1.3,1.5,2.6,2.3,3.9c0.7,1.3,1.4,2.6,2,3.8c1.2,2.4,1.9,4.9,2.3,7.4
					c0.8,5.1,0.6,10,0.4,14.3c-0.2,2.2-0.3,4.3-0.4,6.2c-0.1,2.1-0.1,3.9-0.1,5.4c0,3.1-0.2,5.5-0.4,7.1c-0.2,1.6-0.4,2.3-0.4,2.3
					c-0.2,1-0.2,1.8,0,2.4c0.2,0.6,0.6,1.2,1.2,1.5c0.5,0.3,1.3,0.3,2-0.1C387.1,134.7,387.7,133.8,388,132.5z"/>
				<path id="XMLID_134_" class="st5" d="M378.6,132.4c0,0,0,0,0.1-0.1c0.1-0.1,0.2-0.3,0.3-0.8c0.3-0.9,0.7-2.8,0.9-5.7
					c0.1-1.5,0.1-3.1,0.1-5.1c0-1,0-2,0.1-3.3c0-0.3,0-0.6,0.1-1c0-0.3,0-0.5,0.1-0.8c0-0.6,0.1-1.1,0.1-1.7
					c0.3-4.5,0.7-9.4,0.3-14.3c-0.2-2.4-0.6-4.8-1.3-7l-0.3-0.8l-0.3-0.8c-0.2-0.5-0.6-1.2-0.9-1.8c-0.3-0.6-0.7-1.3-1-1.9
					c-0.4-0.6-0.7-1.3-1.1-1.9c-3-5.1-6.8-10.3-11.2-15.3c-8.8-10-19.8-19.5-32-26.2c-6-3.2-12.5-5.5-19.3-7
					c-6.8-1.6-13.7-2.5-20.5-3.2c-6.8-0.6-13.5-1-19.8-1.2c-1.6-0.1-3.1-0.1-4.6-0.2c-1.5,0-3,0-4.4,0c-2.9,0.1-5.7,0.1-8.3,0.4
					c-10.6,0.8-19.2,3-24.9,4.9c-2.8,1-5,1.9-6.4,2.6c-1.4,0.7-2.2,1.1-2.2,1.1c-3.8,2.1-1,6.3,2.3,4.4c0,0,0.7-0.3,2-1
					c1.3-0.6,3.3-1.5,5.9-2.4c2.7-0.9,6-1.9,9.9-2.7c4-0.8,8.6-1.5,13.6-1.9c2.5-0.2,5.2-0.3,8-0.4c1.4,0,2.8,0,4.2,0
					c1.4,0,2.8,0.1,4.5,0.2c6.4,0.3,13,0.6,19.6,1.2c6.6,0.6,13.3,1.5,19.8,3.1c6.5,1.5,12.6,3.6,18,6.5c5.7,3.2,11.3,7,16.5,11.3
					c5.2,4.3,9.9,9,14.1,13.8c4.2,4.8,7.8,9.8,10.6,14.6c0.4,0.6,0.7,1.2,1,1.8c0.3,0.6,0.6,1.2,0.9,1.8c0.3,0.6,0.7,1.3,0.8,1.6
					l0.2,0.5l0.2,0.6c0.6,1.6,0.9,3.6,1.1,5.8c0.4,4.3,0,9-0.3,13.5c0,0.6-0.1,1.1-0.1,1.7c0,0.3,0,0.6-0.1,0.8c0,0.4,0,0.7-0.1,1.1
					c-0.1,1.4-0.1,2.5-0.1,3.5c0,2,0,3.5-0.1,4.8c-0.1,2.6-0.5,4-0.6,4.3c0,0,0,0.1,0,0.1l0,0c0,0,0,0,0,0c0.1,0,0.2,0.1,0.3,0.1
					c0.4,0.1,0.7,0.3,1,0.5c0.1,0.1,0.3,0.2,0.4,0.2c0.1,0.1,0.2,0.1,0.3,0.2c0.4,0.2,0.7,0.4,0.9,0.5c0.2,0.1,0.2,0.1,0.2,0.1
					c1.7,1.2,1.9,1.7,2,1.8c0.1,0.1,0,0,0,0l0,0l0,0c0,0,0,0.1,0,0c0,0-0.1-0.2-0.4-0.5c-0.1-0.1-0.2-0.2-0.2-0.2
					c0,0-0.1-0.1-0.1-0.1C378.6,132.5,378.4,132.4,378.6,132.4C378.5,132.4,378.5,132.4,378.6,132.4z"/>
			</g>
		</g>
	</g>
	<g id="XMLID_57_">
		<g id="XMLID_120_">
			<g id="XMLID_124_">
				<path id="XMLID_127_" class="st5" d="M337.6,349.9c0,0,0.3-0.1,0.8-0.2c0.5-0.1,1.1-0.4,2-0.7c1.6-0.5,3.9-1.3,6.9-2.3
					c1.4-0.5,3-1,4.7-1.5c0.8-0.2,1.7-0.5,2.6-0.8c0.6-0.2,1.2-0.4,1.9-0.6c0.7-0.2,1.4-0.5,2.2-0.8c2.9-1.1,5.6-2.6,7.8-3.8
					c1.1-0.6,2.1-1.2,3-1.7l0.7-0.4l0.3-0.2l0.1,0l0,0c0.1,0.2-0.1-0.3,0-0.2l0.1,0.1c0,0,0,0,0,0l0,0c0,0,0.2-0.1,0.5-0.2
					c0.7-0.2,2.1-0.5,4.6-1.5c1.3-0.5,2.6-1.1,3.8-1.9c0.6-0.4,1.2-0.8,1.7-1.2c0.5-0.4,1-0.8,1.4-1.1c1.7-1.5,3-2.8,4-3.9
					c1-1.1,1.8-1.8,2.2-2.1c5.1-4.1,10.4-8.9,15.4-14.2c5-5.3,9.8-11.2,14.1-17.7c1.1-1.6,2.1-3.3,3.1-5c1-1.7,1.9-3.5,2.9-5.2
					c0.9-1.8,1.8-3.6,2.6-5.5c0.8-1.9,1.6-3.7,2.3-5.7l1-2.9c0.3-1,0.6-2,0.9-3c0.3-1,0.6-2,0.8-3l0.7-3l0.3-1.5l0.3-1.8
					c0.2-1.2,0.3-2.4,0.4-3.5c0.1-2.3,0.2-4.6,0-6.7c-0.2-4.3-0.9-8.3-1.6-11.9c-0.7-3.7-1.5-7-2.1-10.1c-0.1-0.7-0.3-1.5-0.4-2.2
					c-0.1-0.4-0.1-1-0.2-1.7c-0.2-1.5-0.3-3.5-0.8-6c-0.1-0.3-0.1-0.6-0.2-1c-0.1-0.3-0.2-0.7-0.3-1c-0.1-0.4-0.2-0.7-0.4-1.2
					c-0.1-0.4-0.4-1.1-0.4-1.2l-0.1-0.3l-0.2-0.5l-0.2-0.4c-0.3-0.5-0.6-1.1-0.9-1.6c-0.6-1-1.4-2-1.9-2.5l-0.8-0.8l0,0l-0.3-0.4
					l-0.4-0.7c-1.2-1.9-2.4-4.6-4.1-7.6c-0.8-1.5-1.8-3.1-2.9-4.7c-0.6-0.8-1.2-1.6-1.8-2.4c-0.5-0.6-0.9-1.1-1.4-1.7
					c-3.6-4.2-7.2-8.2-10.9-11.7c-3.7-3.4-7.4-6.3-10.9-8.3c-0.9-0.5-1.7-1-2.5-1.4c-0.8-0.4-1.6-0.8-2.4-1.1
					c-1.5-0.6-2.9-1.2-4-1.5c-1.2-0.3-2-0.6-2.6-0.7c-0.6-0.2-0.9-0.2-0.9-0.2c-1.7-0.3-3-0.2-3.9,0.2c-0.9,0.4-1.3,1-1.4,1.6
					c0,0.6,0.3,1.3,1,1.8c0.7,0.5,1.7,1.1,3.2,1.3c0,0,0.3,0,0.8,0.2c0.5,0.1,1.3,0.4,2.3,0.6c1,0.3,2.2,0.8,3.5,1.3
					c0.7,0.3,1.4,0.7,2.1,1c0.8,0.4,1.5,0.8,2.3,1.3c3.1,1.9,6.6,4.5,10.1,7.7c3.5,3.2,7,7.1,10.5,11.2c0.4,0.5,0.9,1.1,1.4,1.6
					c0.6,0.7,1.1,1.4,1.6,2c1,1.4,1.8,2.8,2.6,4.2c1.6,2.8,2.8,5.5,4.1,7.7l0.5,0.8l0.4,0.6c0.3,0.3,0.2,0.3,1.1,1.2
					c0.4,0.5,1,1.1,1.4,1.8c0.2,0.4,0.4,0.8,0.6,1.1l0.1,0.3l0.1,0.3l0.1,0.3c0.1,0.1,0.2,0.6,0.3,0.9c0.1,0.4,0.2,0.6,0.3,0.9
					c0.2,0.6,0.3,1.1,0.4,1.6c0.4,2.1,0.6,3.9,0.8,5.5c0.1,0.8,0.2,1.5,0.3,2.1c0.1,0.8,0.3,1.5,0.4,2.3c1.2,6.3,3.1,13.3,3.5,21.3
					c0.1,2,0.1,4,0,6.1c-0.1,1-0.2,2.1-0.4,3.1l-0.3,1.6l-0.3,1.4l-0.6,2.8c-0.2,1-0.5,1.9-0.8,2.8c-0.3,0.9-0.5,1.9-0.8,2.8l-1,2.7
					c-0.6,1.8-1.4,3.6-2.2,5.4c-0.8,1.8-1.7,3.5-2.5,5.2c-0.9,1.7-1.8,3.4-2.8,5c-1,1.6-1.9,3.2-3,4.8c-4.1,6.2-8.8,11.9-13.6,17
					c-4.8,5.1-9.9,9.7-14.9,13.7c-0.7,0.6-1.6,1.5-2.7,2.6c-1,1.1-2.2,2.3-3.6,3.5c-0.4,0.3-0.7,0.6-1.2,0.9
					c-0.4,0.3-0.9,0.6-1.4,0.9c-0.9,0.6-1.9,1.1-3,1.5c-2,0.7-3.4,1-4.3,1.4c-0.5,0.1-0.8,0.3-1.1,0.4l-0.1,0l-0.2,0.1l-0.4,0.2
					l-0.8,0.4c-1,0.5-2,1.1-3.1,1.7c-2.1,1.2-4.6,2.5-7.1,3.5c-0.6,0.2-1.3,0.5-1.9,0.7c-0.6,0.2-1.1,0.3-1.7,0.5
					c-0.9,0.3-1.8,0.5-2.7,0.8c-1.7,0.5-3.3,1-4.8,1.5c-3,1-5.3,1.8-6.9,2.3c-0.9,0.3-1.5,0.5-1.9,0.6c-0.5,0.1-0.7,0.2-0.7,0.2
					c-1.4,0.4-2.4,0.9-3.3,1.5c-0.8,0.6-1.4,1.2-1.4,1.9c0,0.6,0.7,1.2,1.9,1.5C334.6,350.4,336.1,350.4,337.6,349.9z"/>
				<path id="XMLID_126_" class="st5" d="M333.6,341.7c0,0,1-0.2,2.7-0.8c1.6-0.5,4-1.3,7-2.3c1.5-0.5,3.1-1,4.9-1.6
					c0.9-0.3,1.8-0.6,2.8-0.8c0.5-0.1,1-0.3,1.5-0.4c0.5-0.1,1.1-0.3,1.7-0.5c2.3-0.7,4.6-1.9,6.8-3.1c1.1-0.6,2.2-1.2,3.3-1.9
					c0.5-0.3,1.1-0.6,1.7-0.9l0.8-0.4c0.2-0.1,0.5-0.2,0.7-0.3c1-0.4,2.3-0.7,3.8-1.2c0.7-0.2,1.6-0.5,2.3-0.9
					c0.8-0.4,1.5-0.9,2.2-1.4c2.7-2,4.6-4.5,6.7-6.4c0.3-0.2,0.5-0.4,0.8-0.7l0.9-0.8c0.6-0.5,1.2-1,1.9-1.5c1.2-1,2.4-2.1,3.7-3.2
					c1.2-1.1,2.4-2.3,3.7-3.4c1.2-1.2,2.4-2.4,3.6-3.6c4.8-5,9.3-10.5,13.4-16.5c4-6,7.7-12.5,10.2-19.5c0.6-1.8,1.3-3.5,1.8-5.3
					l0.8-2.7c0.2-0.9,0.4-1.8,0.6-2.7c0.4-1.8,0.8-3.7,1-5.6c0.1-1,0.1-1.9,0.2-2.8c0-0.9,0-1.9,0-2.8c-0.3-7.5-2.1-14.4-3.4-20.9
					c-0.2-0.8-0.3-1.6-0.5-2.4c-0.1-0.8-0.2-1.5-0.3-2.3c-0.2-1.6-0.3-3.3-0.6-5.1c-0.2-0.9-0.4-1.7-0.7-2.8
					c-0.1-0.3-0.2-0.4-0.2-0.6l-0.1-0.1l-0.1-0.2c-0.1-0.1-0.1-0.3-0.2-0.4c-0.3-0.5-0.6-1-1-1.4c-0.3-0.4-0.7-0.7-0.9-1
					c-0.2-0.2-0.4-0.5-0.6-0.7c-0.3-0.5-0.8-1.1-1.1-1.7c-1.5-2.5-2.8-5.2-4.2-7.8c-0.7-1.3-1.5-2.6-2.4-3.9
					c-0.4-0.6-0.9-1.2-1.4-1.8c-0.5-0.6-0.9-1.1-1.4-1.6c-3.5-4.1-6.9-7.9-10.2-11c-3.3-3.1-6.5-5.5-9.4-7.2
					c-0.7-0.4-1.4-0.8-2.1-1.2c-0.7-0.3-1.3-0.6-1.9-0.9c-1.2-0.5-2.3-0.9-3.1-1.2c-0.9-0.2-1.6-0.4-2-0.6c-0.5-0.1-0.7-0.2-0.7-0.2
					c-1.3-0.2-2.3-0.1-2.9,0.3c-0.7,0.4-1,1-1.1,1.6c0,0.6,0.2,1.3,0.7,1.8c0.5,0.5,1.2,1,2.3,1.2c0,0,0.2,0,0.6,0.1
					c0.4,0.1,0.9,0.3,1.7,0.5c0.7,0.3,1.6,0.6,2.7,1c0.5,0.2,1.1,0.5,1.6,0.8c0.6,0.3,1.2,0.7,1.8,1c2.5,1.5,5.5,3.7,8.6,6.6
					c3.1,2.9,6.4,6.5,9.8,10.6c0.4,0.5,0.9,1.1,1.3,1.5c0.4,0.5,0.8,1,1.1,1.5c0.7,1.1,1.4,2.2,2.1,3.4c1.4,2.5,2.6,5.2,4.4,8
					c0.4,0.7,0.8,1.4,1.4,2.2c0.3,0.4,0.6,0.7,0.9,1.1c0.3,0.3,0.5,0.5,0.7,0.8c0.2,0.2,0.3,0.4,0.4,0.6c0,0,0,0.1,0.1,0.2l0,0
					c-0.1-0.1,0,0,0,0l0.1,0.1c0.1,0.2,0.2,0.4,0.2,0.5c0.2,0.5,0.4,1.2,0.5,1.9c0.3,1.4,0.4,3,0.6,4.7c0.1,0.8,0.2,1.8,0.4,2.6
					c0.2,0.8,0.3,1.7,0.5,2.5c1.3,6.7,3,13.4,3.3,20.1c0.1,0.8,0,1.7,0,2.5c-0.1,0.8,0,1.7-0.1,2.5c-0.1,1.7-0.5,3.3-0.9,5
					c-0.2,0.8-0.4,1.7-0.6,2.5l-0.7,2.5c-0.4,1.7-1.1,3.3-1.7,4.9c-2.4,6.5-5.9,12.7-9.7,18.5c-3.9,5.7-8.2,11-12.8,15.8
					c-1.2,1.2-2.3,2.3-3.5,3.5c-1.2,1.1-2.3,2.2-3.5,3.3c-1.2,1-2.4,2.1-3.6,3.1c-0.6,0.5-1.2,1-1.8,1.5l-0.9,0.7
					c-0.3,0.3-0.7,0.6-1,0.9c-2.5,2.3-4.3,4.6-6.3,6.1c-0.5,0.3-0.9,0.7-1.4,0.9c-0.5,0.2-1,0.4-1.6,0.6c-1.2,0.4-2.6,0.7-4.1,1.3
					c-0.4,0.1-0.7,0.3-1.1,0.5c-0.3,0.2-0.6,0.3-0.9,0.5c-0.6,0.3-1.2,0.6-1.8,1c-1.1,0.6-2.2,1.3-3.3,1.9c-2.1,1.2-4,2.1-5.9,2.7
					c-0.5,0.2-0.9,0.3-1.4,0.4c-0.5,0.1-1,0.3-1.5,0.4c-1,0.3-2,0.6-2.9,0.9c-1.8,0.6-3.5,1.1-5,1.6c-3,1-5.3,1.8-6.9,2.3
					c-1.5,0.5-2.3,0.6-2.3,0.6c-1,0.2-1.6,0.6-2,1.1c-0.4,0.5-0.8,1-0.9,1.6c-0.1,0.6,0.1,1.3,0.9,1.8
					C331.1,341.8,332.3,342,333.6,341.7z"/>
				<path id="XMLID_125_" class="st5" d="M329.7,337.6c0,0,0.2-0.1,0.5-1.2c0.1-0.5,0.3-1.3,0.3-2.5c0-0.2,0-0.3,0-0.5l0-0.2
					c0-0.1,0-0.2,0-0.2l0,0c0,0,0.1,0,0.2,0c0.3,0,1-0.2,2-0.4c0.9-0.3,2.3-0.7,3.8-1.2c3-1,6.8-2.3,11.3-3.7c1-0.3,2.1-0.6,3.2-0.9
					c0.9-0.3,1.7-0.6,2.7-1c1.8-0.8,4-2.1,6.6-3.6c0.7-0.4,1.3-0.7,2.1-1.1c0.3-0.2,0.9-0.4,1.4-0.6c0.5-0.2,1-0.4,1.4-0.5
					c1.8-0.6,3.3-0.9,4-1.2c0.3-0.1,0.6-0.3,0.9-0.4c0.2-0.1,0.6-0.4,1-0.8c0.8-0.7,1.8-1.7,2.9-2.9c0.6-0.6,1.2-1.2,1.9-1.9
					c0.4-0.3,0.7-0.7,1.1-1l1.1-0.9c1.2-1,2.4-2,3.6-3c1.2-1.1,2.4-2.1,3.6-3.2c1.2-1.1,2.4-2.2,3.5-3.4c4.6-4.7,9.1-9.8,13-15.4
					c3.9-5.6,7.3-11.6,9.9-18c0.6-1.6,1.2-3.2,1.7-4.8l0.7-2.4l0.4-1.2l0.3-1.2l0.6-2.4c0.1-0.4,0.1-0.8,0.2-1.1
					c0.1-0.4,0.1-0.7,0.2-1.1c0.2-1.5,0.2-3,0.2-4.5c-0.1-6.3-1.8-12.9-3.2-19.9c-0.2-0.9-0.3-1.8-0.5-2.6l-0.1-0.7l-0.1-0.8
					c-0.1-0.5-0.1-1-0.2-1.5c-0.2-1.9-0.3-3.4-0.6-4.6c-0.1-0.3-0.1-0.6-0.2-0.8c0-0.1-0.1-0.2-0.1-0.3l-0.1-0.2c0,0,0,0,0-0.1
					l-0.1-0.3l-0.1-0.1l0-0.1c-0.1,0,1-0.1,0.6-0.1c0.1,0,0.3-0.1,0.3-0.2l0.1-0.1l-0.1,0.1l-0.5,0.3l-0.2,0.1c0,0,0,0,0,0l0,0
					c0,0-0.2-0.2-0.5-0.6c-0.4-0.4-0.8-0.9-1.2-1.4c-0.8-1.1-1.2-1.8-1.7-2.6c-1.9-3.1-3.2-6-4.5-8.3c-0.6-1.2-1.3-2.2-1.9-3.1
					c-0.3-0.5-0.6-0.9-1-1.3c-0.5-0.5-0.9-1.1-1.3-1.6c-3.5-4.1-6.8-7.7-9.8-10.4c-3-2.8-5.8-4.7-8.1-6c-0.6-0.4-1.1-0.6-1.7-0.8
					c-0.3-0.1-0.5-0.2-0.8-0.4c-0.2-0.1-0.5-0.2-0.7-0.3c-0.5-0.2-0.9-0.4-1.3-0.5c-0.4-0.1-0.7-0.2-1.1-0.3
					c-0.6-0.2-1.1-0.3-1.4-0.3c-0.3-0.1-0.5-0.1-0.5-0.1c-3.6-0.4-3.1,4.7-0.8,4.9c0,0,0.1,0,0.4,0.1c0.2,0,0.6,0.1,1.1,0.2
					c0.2,0.1,0.5,0.1,0.8,0.2c0.3,0.1,0.6,0.2,1,0.4c0.2,0.1,0.4,0.1,0.6,0.2c0.2,0.1,0.4,0.2,0.6,0.3c0.4,0.2,0.9,0.4,1.4,0.7
					c1.9,1.1,4.4,2.8,7.2,5.3c2.8,2.5,5.9,5.9,9.4,9.9c0.4,0.5,0.9,1,1.3,1.6l0.4,0.5l0.4,0.5c0.5,0.7,1,1.6,1.6,2.6
					c1.2,2.1,2.5,5,4.6,8.5c0.3,0.4,0.5,0.9,0.8,1.3c0.2,0.4,0.7,1.1,1.2,1.7c0.5,0.6,1.1,1.3,1.5,1.8l0.4,0.4l0,0l0,0l0.7-0.6
					c0.5-0.4,0.9-0.8,1.4-1.2l0.8-0.7l1.1-0.8l0.5-0.3l0.1-0.1l-0.1,0.1c-0.1,0-0.2,0.1-0.3,0.2c2.8-1-4,1.4-3.3,1.2l-0.1,0.1
					l-0.3,0.3l-0.5,0.6c-0.1,0.1-0.3,0.1-0.4,0.1l-0.2,0c-0.1,0-0.1,0-0.1,0c0-0.1,0-0.1-0.1-0.2c0,0,0,0,0,0c0,0,0,0.1,0,0.1
					c0,0.1,0.1,0.3,0.1,0.5c0.2,0.8,0.3,2.3,0.5,4.3l0.1,0.8l0.1,0.9l0.2,0.9l0.1,0.7c0.2,0.9,0.3,1.8,0.5,2.7
					c1.5,7.1,3,13.6,3.1,19c0,1.4,0,2.6-0.2,3.8c0,0.3-0.1,0.6-0.1,0.9c-0.1,0.3-0.1,0.6-0.2,1l-0.5,2.2l-0.3,1.1l-0.3,1.1l-0.7,2.2
					c-0.5,1.5-1,3-1.6,4.4c-2.4,5.9-5.6,11.6-9.3,16.9c-3.7,5.3-8,10.3-12.5,14.8c-1.1,1.1-2.2,2.2-3.4,3.3
					c-1.1,1.1-2.3,2.1-3.4,3.1c-1.1,1-2.3,2-3.5,2.9l-1.2,1c-0.5,0.4-0.9,0.8-1.3,1.2c-0.8,0.8-1.5,1.5-2.1,2.1
					c-1.2,1.2-2,2.1-2.6,2.6c-0.1,0.1-0.2,0.2-0.3,0.3c-0.1,0.1,0,0-0.1,0c0,0,0,0,0,0c-0.2,0.1-1.7,0.5-3.9,1.2
					c-0.5,0.2-1.1,0.4-1.7,0.7c-0.6,0.2-1.4,0.6-1.7,0.8c-0.8,0.4-1.5,0.8-2.2,1.2c-2.8,1.6-4.8,2.8-6.3,3.4
					c-0.8,0.4-1.4,0.6-2.1,0.8c-1.1,0.3-2.1,0.6-3.2,0.9c-4.6,1.4-8.4,2.7-11.4,3.7c-1.5,0.5-3,1-3.6,1.2c-0.4,0.1-0.7,0.2-0.9,0.2
					c-0.1,0-0.1,0-0.2,0l0,0l0,0c0,0,0,0,0,0l0,0.2c0,0.3,0.1,0.5,0.1,0.8c0.4,4.2,0.1,6.3-0.1,7.3
					C329.9,337.5,329.7,337.6,329.7,337.6c-0.2,0.3-0.3,0.3-0.2,0.3c0.1-0.1,0.4-0.1,0.8-0.2c0.4,0,0.9,0,1.4,0.1
					c0.3,0,0.5,0.1,0.8,0.1l0.4,0.1l0.4,0.1c0.5,0.1,0.9,0.3,1.4,0.4c0.5,0.1,0.8,0.2,1.1,0.4c0.6,0.2,0.9,0.3,0.9,0.3
					s-0.3-0.1-0.9-0.3c-0.3-0.1-0.7-0.2-1.1-0.4c-0.4-0.1-0.8-0.3-1.4-0.4l-0.4-0.1l-0.4-0.1c-0.2-0.1-0.5-0.1-0.8-0.1
					c-0.5-0.1-1-0.1-1.4-0.1c-0.4,0.1-0.7,0.1-0.8,0.2C329.4,338,329.5,337.9,329.7,337.6z"/>
			</g>
		</g>
	</g>
	<g id="XMLID_56_">
		<g id="XMLID_111_">
			<g id="XMLID_115_">
				<path id="XMLID_118_" class="st5" d="M111.7,290.8c0,0-0.1,0.1-0.4,0.2c-0.3,0.1-0.8,0.3-1.4,0.5c-1.3,0.5-3.3,1-6.7,2.2
					c-0.4,0.2-0.9,0.3-1.3,0.5c-0.4,0.2-0.9,0.4-1.4,0.6c-0.6,0.2-1.2,0.5-1.8,0.7c-1.2,0.5-2.6,0.9-4,1.3c-2.9,0.7-6.2,1.1-9.8,0.9
					c-1.8-0.1-3.8-0.4-5.7-0.9c-1.9-0.4-3.8-1.1-5.7-2c-3.8-1.7-7.6-4.5-11.3-8c-3.7-3.5-7.1-8-10.3-12.8c-1.6-2.5-3.1-5-4.6-7.7
					c-1.5-2.7-2.9-5.4-4.1-8c-1.2-2.6-2.2-5.1-2.8-7.5c-0.3-1.2-0.6-2.4-0.8-3.5c-0.1-0.6-0.2-1.1-0.2-1.7c0-0.3,0-0.6-0.1-0.8
					l-0.1-1.1c-0.1-2.2-0.4-4.1-0.6-5.7c-0.2-1.6-0.4-2.9-0.4-3.8c0-0.7,0-1.9,0.1-3.1c0.1-1.2,0.3-2.4,0.5-3.6
					c0.5-2.4,1.1-4.8,1.8-6.5c1.2-2.9,2.2-5.6,3.2-8c1-2.4,2-4.5,3-6.3c0.5-0.9,1-1.6,1.4-2.3l0.3-0.4l0.2-0.2l0.2-0.3
					c0.3-0.4,0.6-0.7,0.9-1.1c2.5-2.8,5.7-5.5,8.7-8.1c1.5-1.3,3-2.6,4.5-3.9c0.7-0.6,1.4-1.3,2-1.9c0.6-0.5,1.1-1,1.6-1.5
					c1.9-1.8,3.1-2.7,3.9-3.3c0.8-0.5,1.1-0.7,1.1-0.7c0.5-0.3,0.6-0.7,0.7-1.2c0-0.5-0.1-1.1-0.3-1.7c-0.4-1.2-1.5-2.2-2.9-1.4
					c0,0-0.5,0.3-1.5,0.9c-1,0.7-2.4,1.8-4.4,3.7c-0.5,0.5-1,1-1.6,1.5c-0.6,0.5-1.3,1.2-1.9,1.8c-1.4,1.2-2.8,2.5-4.4,3.8
					c-3,2.6-6.4,5.4-9.2,8.6c-0.7,0.8-1.4,1.6-1.9,2.4c-0.6,0.8-1.1,1.7-1.7,2.7c-1.1,2-2.2,4.3-3.2,6.8c-1,2.5-2.1,5.2-3.2,8
					c-0.9,2.2-1.6,4.8-2.1,7.5c-0.3,1.3-0.5,2.7-0.6,4.1c-0.1,1.3-0.2,2.7-0.1,3.8c0.1,2.5,0.8,5.6,1,9.6l0.1,1.1c0,0.3,0,0.7,0.1,1
					c0.1,0.7,0.1,1.3,0.3,2c0.2,1.4,0.5,2.7,0.9,4.1c0.8,2.7,1.8,5.5,3.1,8.3c1.3,2.8,2.7,5.6,4.3,8.3c1.5,2.8,3.1,5.4,4.8,8
					c3.4,5.1,7,9.8,11,13.7c4,3.8,8.3,6.9,12.7,9c2.2,1,4.4,1.8,6.6,2.3c2.2,0.6,4.4,0.9,6.5,1c4.2,0.3,8.1-0.2,11.4-1
					c1.7-0.4,3.2-0.9,4.6-1.4c0.7-0.3,1.4-0.5,2-0.8c0.4-0.2,0.8-0.3,1.2-0.5c0.4-0.2,0.8-0.3,1.2-0.5c3.1-1.1,5.2-1.7,6.5-2.2
					c0.7-0.2,1.2-0.4,1.5-0.5c0.3-0.1,0.5-0.2,0.5-0.2c1.8-0.7,1.8-2.2,1.2-3.3c-0.3-0.6-0.7-1-1.2-1.3c-0.3-0.1-0.5-0.2-0.8-0.3
					C112.4,290.6,112.1,290.7,111.7,290.8z"/>
				<path id="XMLID_117_" class="st5" d="M116.1,298.7c0,0-0.2,0.1-0.5,0.2c-0.3,0.1-0.9,0.3-1.6,0.6c-1.4,0.5-3.5,1.2-6.4,2.1
					c-0.7,0.2-1.5,0.5-2.3,0.8c-0.7,0.3-1.5,0.6-2.3,1c-1.5,0.6-3.2,1.2-5.1,1.7c-3.7,1-8,1.7-12.7,1.4c-2.3-0.1-4.8-0.4-7.3-1
					c-0.6-0.1-1.2-0.3-1.9-0.4c-0.6-0.1-1.2-0.4-1.8-0.6c-0.6-0.2-1.2-0.4-1.9-0.6c-0.6-0.3-1.2-0.5-1.8-0.8
					c-1.3-0.5-2.4-1.2-3.7-1.8c-0.6-0.3-1.2-0.7-1.8-1.1c-0.6-0.4-1.2-0.7-1.8-1.1c-2.3-1.7-4.7-3.4-6.8-5.5
					c-8.7-8.2-15.7-19.5-21.4-31.2c-2.7-5.8-4.8-11.9-5-18c-0.1-3.5-0.8-6.7-1-9.7c-0.2-2.8,0.2-5.9,0.7-8.8
					c0.5-2.9,1.3-5.8,2.3-8.3c1.1-2.8,2.2-5.5,3.3-8.1c1.1-2.6,2.2-5,3.4-7.3c0.6-1.1,1.3-2.2,1.9-3.1c0.7-1,1.4-1.9,2.2-2.8
					c3.1-3.5,6.6-6.4,9.6-9c1.5-1.3,3-2.6,4.3-3.8c1.3-1.2,2.5-2.3,3.5-3.3c4.1-3.9,6.7-5.2,6.7-5.2c1.6-0.9,2.1-2.3,1.7-3.5
					c-0.2-0.6-0.7-1.1-1.4-1.3c-0.7-0.2-1.7-0.1-2.7,0.5c0,0-0.8,0.4-2.2,1.4c-1.4,1-3.3,2.5-5.4,4.5c-1.1,1-2.2,2.1-3.5,3.2
					c-1.3,1.1-2.7,2.4-4.2,3.7c-3,2.6-6.6,5.6-10.1,9.5c-0.9,1-1.7,2-2.5,3.2c-0.8,1.1-1.5,2.4-2.2,3.6c-1.4,2.5-2.5,5.1-3.7,7.7
					c-1.1,2.7-2.2,5.4-3.3,8.2c-1.2,3-2,6.1-2.5,9.3c-0.6,3.2-1,6.5-0.8,10c0.2,3.4,0.9,6.6,1,9.6c0.3,7,2.6,13.7,5.5,19.9
					c1.5,3.1,3,6,4.7,9c1.6,2.9,3.4,5.8,5.2,8.6c3.7,5.5,7.8,10.8,12.6,15.2c2.3,2.3,4.9,4.2,7.4,6c0.7,0.4,1.3,0.8,2,1.2
					c0.7,0.4,1.3,0.8,2,1.2c1.4,0.7,2.7,1.5,4.1,2c0.7,0.3,1.4,0.6,2.1,0.9c0.7,0.3,1.4,0.5,2.1,0.7c0.7,0.2,1.4,0.5,2.1,0.6
					c0.7,0.2,1.4,0.3,2.1,0.5c2.8,0.7,5.5,0.9,8.1,1.1c5.3,0.2,10.1-0.5,14.2-1.6c2.1-0.6,3.9-1.2,5.6-1.9c0.8-0.3,1.6-0.7,2.3-1
					c0.7-0.3,1.4-0.5,2-0.7c2.7-0.9,4.9-1.6,6.4-2.1c0.8-0.3,1.4-0.5,1.7-0.7c0.4-0.2,0.6-0.2,0.6-0.2c2.2-0.9,2.6-2.7,1.9-3.7
					C119.3,298.5,117.9,298,116.1,298.7z"/>
				<path id="XMLID_116_" class="st5" d="M124.1,304.7c0,0-0.2,0.2-0.7,0.4c-0.5,0.3-1.2,0.7-2.1,1.1c-1.8,0.9-4.4,1.9-7.3,2.8
					c-1.5,0.5-3,0.9-4.4,1.5c-0.3,0.1-0.7,0.3-1.1,0.4c-0.4,0.2-0.8,0.3-1.2,0.5c-1,0.4-2.1,0.8-3.2,1.2c-4.4,1.6-9.7,2.8-15.6,3
					c-2.9,0.1-6-0.1-9.1-0.5c-3.1-0.5-6.3-1.3-9.5-2.4c-6.4-2.2-12.4-6-17.7-10.7c-5.3-4.7-9.9-10.1-13.9-16c-2-2.9-3.9-5.9-5.7-9
					c-1.8-3.1-3.4-6.1-5-9.4c-1.6-3.3-3-6.7-4.2-10.3c-1.1-3.6-2-7.5-2.2-11.4c-0.1-0.8-0.1-1.6-0.2-2.4c-0.1-0.7-0.1-1.4-0.2-2.2
					c-0.2-1.6-0.4-3.3-0.6-5.2c-0.1-1-0.1-2-0.1-3c0-1,0.1-1.9,0.1-2.9c0.1-1.9,0.4-3.6,0.7-5.4c0.6-3.5,1.4-6.8,2.8-10.3
					c0.6-1.4,1.1-2.8,1.7-4.2c0.6-1.4,1.1-2.8,1.7-4.2c1.2-2.8,2.5-5.6,4-8.4c0.8-1.4,1.6-2.7,2.6-4c1-1.4,1.9-2.5,2.9-3.6
					c3.9-4.3,7.7-7.4,10.8-10.1c1.6-1.3,3-2.6,4.2-3.7c1.3-1.2,2.5-2.4,3.6-3.4c2.4-2.2,4.6-3.9,6.3-4.9c0.8-0.5,1.5-0.9,2-1.2
					c0.5-0.2,0.7-0.4,0.7-0.4c2.5-1.2,3.7-2.7,3.4-4c-0.2-0.6-0.7-1.1-1.7-1.3c-1-0.2-2.3,0-3.9,0.7c0,0-0.3,0.1-0.9,0.4
					c-0.6,0.3-1.4,0.7-2.3,1.4c-2,1.2-4.5,3.2-7,5.5c-1.1,1-2.3,2.2-3.7,3.4c-1.2,1.1-2.5,2.2-4.1,3.6c-3.1,2.7-7,5.9-11.2,10.5
					c-1.1,1.2-2.1,2.4-3.2,4c-1.1,1.5-2,3-2.9,4.5c-1.7,3-3,6-4.2,8.9c-0.6,1.4-1.2,2.9-1.7,4.3c-0.6,1.4-1.1,2.8-1.7,4.3
					c-1.5,3.9-2.4,7.5-3.1,11.3c-0.3,1.9-0.6,3.8-0.7,5.9c-0.1,1-0.1,2.1-0.1,3.2c0,1.2,0,2.4,0.1,3.5c0.2,2.1,0.4,3.9,0.6,5.4
					c0.1,0.8,0.2,1.4,0.2,2c0,0.8,0.1,1.6,0.1,2.3c0.3,4.4,1.2,8.6,2.5,12.6c1.2,3.9,2.8,7.6,4.5,11c0.8,1.7,1.7,3.3,2.5,4.9
					c0.8,1.6,1.7,3.2,2.6,4.8c1.9,3.2,3.7,6.3,5.9,9.3c4.2,6.1,9.1,11.9,14.7,16.9c5.7,5,12.3,9.1,19.3,11.6
					c0.9,0.3,1.8,0.6,2.6,0.9c0.4,0.1,0.9,0.3,1.3,0.4l1.3,0.3c1.8,0.4,3.5,0.8,5.2,1c3.4,0.5,6.7,0.7,10,0.6
					c6.5-0.2,12.3-1.6,17.1-3.3c1.2-0.4,2.4-0.9,3.4-1.4c0.4-0.2,0.8-0.3,1.1-0.5c0.2-0.1,0.6-0.2,0.9-0.3c1.3-0.5,2.8-0.9,4.3-1.4
					c3-1,5.9-2,7.9-3.1c0.5-0.3,1-0.5,1.4-0.7c0.4-0.2,0.8-0.4,1-0.6c0.6-0.3,0.9-0.5,0.9-0.5c0.8-0.5,1.4-1,1.9-1.6
					c0.5-0.6,0.8-1.1,1-1.6c0.4-1,0.3-1.8-0.1-2.2C128.7,302.5,126.6,303.1,124.1,304.7z"/>
			</g>
		</g>
	</g>
	<g id="XMLID_43_">
		<g id="XMLID_102_">
			<g id="XMLID_106_">
				<path id="XMLID_109_" class="st5" d="M213.9,81.8c0,0-1.6-0.5-4.4-1.4c-2.9-0.9-7.2-2.3-13.1-3.5c-1.5-0.3-3.1-0.5-4.8-0.7
					c-0.9-0.1-1.6-0.1-2.4-0.2c-0.8-0.1-1.6-0.1-2.4-0.2c-3.3-0.2-6.8-0.2-10.4,0c-7.2,0.3-14.8,1.6-22,3.5
					c-1.8,0.5-3.4,0.9-5.5,1.6c-2,0.7-4.1,1.5-6.1,2.4c-4.1,1.9-8,4.7-11.1,7.7c-1.5,1.5-2.9,3.1-4.1,4.6c-0.6,0.8-1.2,1.5-1.7,2.3
					c-0.5,0.7-1.1,1.5-1.4,2.1c-1.7,2.5-3.2,4.9-4.7,7.1c-0.7,1.1-1.4,2.2-2.1,3.2l-0.2,0.4l-0.3,0.6c-0.2,0.4-0.4,0.7-0.6,1.1
					c-0.4,0.8-0.8,1.6-1.1,2.3c-0.7,1.6-1.2,3.1-1.5,4.5c-0.3,1.4-0.5,2.6-0.7,3.6c-0.3,2-0.3,3.2-0.4,4c-0.1,0.7-0.1,1.1-0.1,1.1
					c-0.1,1,1.1,1.5,2.3,1.7c1.2,0.2,2.5-0.2,2.6-1.2c0,0,0-0.4,0.1-1.2c0.1-0.8,0.1-2,0.4-3.7c0.2-1.7,0.7-4.2,1.8-6.8
					c0.3-0.7,0.6-1.3,0.9-2c0.2-0.3,0.4-0.6,0.5-1l0.3-0.5l0.2-0.4c0.7-1,1.3-2,2-3.1c1.4-2.2,3-4.5,4.6-7c1.7-2.6,3.9-5.5,6.6-8.1
					c2.7-2.7,6.1-5.1,9.7-6.8c1.8-0.9,3.6-1.6,5.5-2.2c1.9-0.6,3.5-1,5.3-1.5c6.9-1.8,14.1-3,21-3.4c3.4-0.2,6.7-0.1,9.8,0
					c1.6,0.1,3,0.2,4.6,0.4c1.6,0.2,3,0.4,4.4,0.7c5.5,1.1,9.7,2.5,12.6,3.3c2.8,0.9,4.4,1.4,4.4,1.4
					C214.5,87.2,215.9,82.4,213.9,81.8z"/>
				<path id="XMLID_108_" class="st5" d="M211.9,90.6c0,0-1.6-0.5-4.5-1.4c-2.9-0.9-7-2.2-12.2-3.3c-2.6-0.6-5.6-0.9-8.5-1
					c-3-0.2-6.2-0.2-9.5-0.1c-6.6,0.3-13.6,1.4-20.3,3.2c-1.7,0.4-3.3,0.9-5.1,1.4c-1.7,0.5-3.4,1.2-5,1.9c-3.3,1.5-6.3,3.6-8.8,6
					c-2.5,2.4-4.5,5-6.2,7.5c-1.6,2.5-3.2,4.8-4.6,7c-0.7,1.1-1.4,2.1-2,3.1c-0.7,1-1.3,2.2-1.7,3.2c-1,2.2-1.3,4.3-1.6,5.8
					c-0.2,1.6-0.3,2.8-0.4,3.6c-0.1,0.8-0.1,1.2-0.1,1.2c-0.2,2.1,4.7,2.8,5,0.5c0,0,0-0.4,0.1-1.2c0.1-0.8,0.2-2,0.3-3.3
					c0.2-1.4,0.5-2.9,1.2-4.5c0.4-0.8,0.8-1.6,1.4-2.6c0.6-1,1.3-2,2-3c1.4-2.1,2.9-4.4,4.5-6.8c1.6-2.4,3.3-4.7,5.5-6.7
					c2.1-2.1,4.6-3.8,7.4-5.1c1.4-0.7,2.9-1.2,4.4-1.7c1.5-0.5,3.2-0.9,4.8-1.3c6.5-1.7,13.1-2.8,19.3-3c3.1-0.1,6.1-0.1,9,0.1
					c2.9,0.2,5.4,0.4,7.9,1c4.8,1,8.8,2.3,11.7,3.2c2.9,0.9,4.5,1.4,4.5,1.4C212.6,96,214,91.2,211.9,90.6z"/>
				<path id="XMLID_107_" class="st5" d="M211.4,99.8c0,0-1.8-0.5-4.7-1.4c-2.9-0.9-7-2.3-11.7-3.3c-1.2-0.3-2.4-0.5-3.6-0.7
					c-1.2-0.2-2.4-0.3-3.9-0.4c-2.8-0.2-5.7-0.3-8.8-0.2c-6.1,0.2-12.5,1.2-18.9,2.8l-2.4,0.6c-0.8,0.2-1.7,0.5-2.3,0.7
					c-1.5,0.4-2.8,0.9-4.1,1.5c-2.5,1.1-4.7,2.6-6.6,4.4c-0.9,0.9-1.8,1.9-2.7,2.9c-0.9,1.1-1.6,2.1-2.4,3.3
					c-1.6,2.5-3.1,4.8-4.6,6.9c-0.7,1.1-1.4,2.1-2,3.1c-0.5,0.8-0.8,1.4-1.1,2c-0.5,1.2-0.7,2.4-0.9,3.7c-0.3,3-0.5,4.7-0.5,4.7
					c-0.3,2.4,4.7,3.2,5,0.5c0,0,0.2-1.7,0.4-4.6c0.1-1.1,0.3-1.8,0.5-2.4c0.1-0.2,0.1-0.3,0.3-0.5c0-0.1,0.1-0.2,0.2-0.3l0.1-0.2
					c0-0.1,0.1-0.1,0.2-0.2c0.6-1,1.3-2,2-3c1.4-2.1,2.9-4.4,4.5-6.8l0.3-0.5l0.3-0.4l0.5-0.7c0.4-0.5,0.7-1,1.1-1.4
					c0.7-0.9,1.5-1.7,2.2-2.4c1.5-1.4,3.1-2.5,5.2-3.5c1-0.5,2.2-0.9,3.5-1.3l0.5-0.1l0.6-0.2l1.2-0.3l2.3-0.6
					c6.2-1.6,12.2-2.5,17.8-2.6c2.8-0.1,5.6,0,8.2,0.2c0.3,0,0.7,0.1,1,0.1l0.5,0l0.4,0c0.5,0.1,1.1,0.1,1.6,0.2
					c1.1,0.2,2.2,0.4,3.2,0.6c4.3,1,8.4,2.3,11.3,3.2c1.5,0.5,2.7,0.8,3.5,1.1c0.8,0.2,1.3,0.4,1.3,0.4
					C212.3,105.3,213.6,100.4,211.4,99.8z"/>
			</g>
		</g>
	</g>
	<g id="XMLID_22_">
		<g id="XMLID_92_">
			<g id="XMLID_96_">
				<path id="XMLID_100_" class="st5" d="M371.5,252.3c0,0,0-0.2,0-0.5c0-0.3,0-0.8,0-1.4c0-1.2-0.1-2.7-0.4-4.5
					c-0.2-1.7-0.6-3.7-0.9-5.5c-0.1-0.4-0.1-0.8-0.2-1.3c-0.1-0.5-0.1-1-0.2-1.6c-0.2-1.8-0.7-3.9-1.4-5.7c-0.7-1.9-1.5-3.5-2.1-4.8
					c-0.3-0.6-0.6-1.2-0.9-1.8c-0.3-0.6-0.6-1.1-0.8-1.7c-1.1-2.3-2.3-5-3.7-7.9c-1.4-2.9-3-6.2-5.1-9.5c-1.1-1.7-2.2-3.4-3.6-5.1
					c-0.6-0.8-1.5-1.7-2.1-2.5l-1.8-1.9c-2.4-2.5-5-5.1-7.7-7.6c-2.8-2.5-5.7-4.8-8.8-6.8c-1.5-1-3.1-2-4.6-2.8
					c-0.4-0.2-0.8-0.4-1.1-0.6c-0.3-0.2-0.6-0.3-0.9-0.5l-0.6-0.4l-0.7-0.5c-2-1.2-4.4-2.9-6.8-4.3c-4.8-2.9-10.2-5.5-15.4-6.1
					c-0.7-0.1-1.3-0.1-1.9-0.2c-0.3,0-0.6,0-0.9-0.1c-0.3,0-0.6,0-0.9,0c-1.1,0-2,0.1-2.8,0.2c-1.6,0.3-2.4,0.5-2.4,0.5
					c-1.1,0.2-1.7,0.9-2.1,1.5c-0.3,0.6-0.3,1.3-0.1,1.9c0.2,0.6,0.7,1.1,1.3,1.4c0.6,0.3,1.2,0.3,2.1,0.2c0,0,0.6-0.2,1.9-0.4
					c1.2-0.1,3-0.3,5,0c4.2,0.5,8.9,2.6,13.4,5.4c2.3,1.4,4.6,2.9,6.7,4.3c0.3,0.2,0.5,0.3,0.8,0.5l0.8,0.4c0.6,0.4,1.3,0.7,2,1.1
					c1.4,0.8,2.9,1.7,4.3,2.6c5.7,3.8,11,8.7,15.6,13.6l1.7,1.9c0.6,0.7,1.3,1.5,1.9,2.2c1.2,1.5,2.3,3.1,3.2,4.6
					c1.9,3.1,3.4,6.2,4.8,9c1.4,2.9,2.6,5.6,3.7,8c0.6,1.2,1.2,2.3,1.8,3.6c0.6,1.3,1.3,2.7,1.9,4.3c0.6,1.6,1,3.2,1.2,4.7
					c0.1,0.5,0.1,1.1,0.2,1.6c0.1,0.5,0.1,0.9,0.2,1.4c0.3,1.9,0.6,3.7,0.8,5.3c0.2,1.6,0.3,3,0.3,4c0,0.5,0,0.9,0,1.1
					c0,0.3,0,0.4,0,0.4c0,1.5,1.1,2.5,2.3,2.7c0.6,0.1,1.3-0.1,1.8-0.5C371,253.9,371.4,253.2,371.5,252.3z"/>
				<path id="XMLID_99_" class="st5" d="M362.4,252.8c0,0,0.2-2-0.2-5c-0.2-1.5-0.5-3.3-0.8-5.3c-0.2-1-0.3-2-0.4-3
					c-0.1-1.3-0.4-2.6-0.8-4c-0.9-2.7-2.3-5.1-3.5-7.6c-1.2-2.5-2.4-5.2-3.8-8c-1.3-2.8-2.8-5.8-4.6-8.7c-0.9-1.5-1.9-2.9-2.9-4.3
					c-0.5-0.7-1.1-1.4-1.7-2L342,203c-4.6-4.9-9.6-9.6-14.9-13.2c-1.3-0.9-2.7-1.7-4-2.5c-0.7-0.4-1.3-0.7-2-1.1
					c-0.6-0.3-1.2-0.7-1.7-1c-2.3-1.4-4.6-3-6.7-4.3c-4.3-2.7-8.6-4.5-11.9-4.9c-1.7-0.2-3.1-0.1-4,0c-0.9,0.2-1.4,0.3-1.4,0.3
					c-0.7,0.1-1,0.6-1.1,1.2c-0.1,0.6,0,1.2,0.2,1.8c0.2,0.6,0.6,1.1,1,1.5c0.4,0.4,0.8,0.5,1.2,0.4c0,0,0.3-0.1,0.9-0.2
					c0.6,0,1.5-0.1,2.7,0c2.4,0.3,5.9,1.7,10,4.2c2.1,1.3,4.2,2.8,6.7,4.3c0.6,0.4,1.3,0.8,2,1.2c0.6,0.3,1.3,0.7,1.9,1
					c1.2,0.7,2.5,1.5,3.7,2.3c5,3.3,9.6,7.7,14.1,12.5l1.7,1.8c0.5,0.6,1,1.1,1.5,1.8c0.9,1.2,1.8,2.5,2.6,3.8
					c1.6,2.6,3,5.5,4.3,8.2c1.3,2.8,2.5,5.5,3.8,8.1c1.3,2.6,2.6,4.9,3.2,6.9c0.3,1,0.5,2,0.6,3c0.1,1.2,0.3,2.3,0.5,3.3
					c0.3,2,0.6,3.7,0.8,5c0.3,2.7,0.2,4.1,0.2,4.1c0,0.4,0.2,0.8,0.7,1.1c0.4,0.3,1,0.6,1.6,0.7c0.6,0.1,1.2,0.1,1.8-0.1
					C362,253.9,362.4,253.4,362.4,252.8z"/>
				<path id="XMLID_97_" class="st5" d="M353.3,253c0,0,0-0.1,0.1-0.4c0-0.4,0.1-1.1,0-2.2c-0.1-1.1-0.3-2.7-0.6-4.6
					c-0.2-1-0.4-2.2-0.5-3.3c0-0.3-0.1-0.7-0.1-1c0-0.3-0.1-0.7-0.1-1.1c0-0.4-0.1-0.8-0.2-1.1c-0.2-0.7-0.4-1.5-0.9-2.5
					c-0.4-1-1.1-2.2-1.8-3.5c-1.4-2.8-2.7-5.7-4-8.5c-1.3-2.8-2.7-5.6-4.2-8.2c-0.8-1.3-1.5-2.5-2.4-3.6c-0.9-1.2-1.6-2-2.8-3.3
					c-4.5-4.8-9-9.1-13.7-12.3c-1.2-0.8-2.4-1.5-3.5-2.2c-0.6-0.4-1.3-0.7-1.9-1c-0.4-0.2-0.8-0.4-1.2-0.7c-0.3-0.2-0.7-0.4-1-0.6
					c-2.7-1.7-4.9-3.2-6.9-4.4c-4-2.5-7-3.5-8.5-3.6c-0.2,0-0.4-0.1-0.5-0.1c-0.1,0-0.3,0-0.4,0c-0.1,0-0.3,0-0.4,0
					c-0.1,0-0.2,0.1-0.3,0.1c-0.3,0.1-0.5,0.1-0.5,0.1c-0.5,0.2-0.1,1.4,0.4,2.5c0.6,1.1,1.1,2.3,1.1,2.3c0,0,0,0-0.1,0
					c0,0,0,0-0.1,0l0,0l0,0c0-0.2,0,0.4,0-0.4l0,0l0,0.1l0,0.2c0,0.2,0,0.1,0,0.1c0,0,0,0,0,0c0,0,0.1,0,0.2,0
					c0.4-0.1,2.7,0.6,6.4,2.9c1.9,1.1,4,2.6,6.9,4.4c0.4,0.2,0.7,0.5,1.1,0.7c0.4,0.2,0.9,0.5,1.3,0.7c0.6,0.3,1.2,0.7,1.8,1
					c1.1,0.6,2.2,1.3,3.2,2c4.3,2.9,8.5,6.8,12.9,11.5l0.8,0.9l0.2,0.2l0.1,0.2l0.3,0.3c0.4,0.4,0.7,0.9,1.1,1.3
					c0.7,0.9,1.4,2,2.1,3.2c1.4,2.3,2.6,5,3.9,7.8c1.3,2.8,2.6,5.7,4.1,8.6c0.7,1.4,1.3,2.5,1.6,3.3c0.3,0.8,0.4,1.1,0.5,1.5
					c0,0.2,0.1,0.4,0.1,0.6c0,0.4,0.1,0.8,0.1,1.2c0.1,0.4,0.1,0.7,0.2,1.1c0.2,1.2,0.4,2.3,0.6,3.4c0.3,1.9,0.5,3.2,0.5,4.1
					c0.1,0.9,0,1.2,0,1.3c0,0,0,0,0,0c0.2,0,0.5,0.1,0.7,0.1c0.4,0.1,0.8,0.2,1.1,0.2c0.3,0.1,0.5,0.1,0.6,0.1c0.1,0,0.2,0,0.2,0
					c0.6,0.1,1.1,0.3,1.5,0.5c0.3,0.1,0.6,0.2,0.8,0.3c0.4,0.2,0.6,0.3,0.6,0.3s-0.2-0.1-0.6-0.3c-0.1,0-0.2-0.1-0.4-0.1
					c-0.1,0,0,0,0,0c0,0,0.1,0,0.1,0C353.2,253.1,353.3,253.1,353.3,253z"/>
			</g>
		</g>
	</g>
	<g id="XMLID_41_">
		<g id="XMLID_80_">
			<g id="XMLID_85_">
				<path id="XMLID_89_" class="st5" d="M178.3,278.9c0,0-0.3,0-0.8,0c-0.5,0-1.3,0-2.3,0c-2,0-4.8-0.3-7.7-1
					c-0.4-0.1-0.8-0.2-1.1-0.3c-0.4-0.1-0.7-0.2-1.1-0.3c-0.8-0.2-1.4-0.5-2.1-0.8c-0.4-0.1-0.7-0.3-1-0.5c-0.3-0.2-0.6-0.3-1-0.5
					c-0.3-0.2-0.6-0.4-0.9-0.6l-0.4-0.3l-0.4-0.3c-0.2-0.2-0.5-0.4-0.8-0.6c-0.2-0.3-0.4-0.5-0.6-0.7l-0.3-0.4l-0.3-0.4
					c-0.2-0.3-0.4-0.6-0.6-0.8c-0.1-0.3-0.3-0.7-0.5-1l-0.3-0.5l-0.2-0.6c-0.1-0.4-0.3-0.7-0.4-1.1c-0.1-0.4-0.2-0.8-0.3-1.3
					c-0.1-0.5-0.2-0.8-0.3-1.3l-0.3-1.8c-0.2-1.2-0.3-2.4-0.4-3.5c-0.2-2.4-0.4-4.7-0.4-7c0-2.3,0-4.4,0.2-6.5c0-0.5,0.1-1,0.1-1.5
					c0-0.2,0-0.5,0.1-0.7c0-0.3,0-0.3,0.1-0.5c0.1-0.6,0.2-1.2,0.4-1.9c0.6-2.6,1.9-5.6,2.9-7.9c0.5-1.2,0.9-2.2,1.1-2.9
					c0.3-0.7,0.4-1.1,0.4-1.1c0.7-2.1-4.1-3.5-4.7-1.7c0,0-0.5,1.5-1.4,3.8c-0.9,2.3-2.3,5.4-3.1,8.6c-0.2,0.8-0.4,1.6-0.5,2.4
					c-0.1,0.4-0.1,0.9-0.2,1.4c-0.1,0.5-0.1,1.1-0.1,1.6c-0.2,2.2-0.2,4.5-0.2,6.9c0,2.4,0.2,4.9,0.4,7.4c0.1,1.3,0.3,2.5,0.5,3.8
					l0.3,1.9c0.1,0.6,0.3,1.1,0.4,1.6c0.1,0.5,0.2,1.1,0.4,1.6l0.5,1.5l0.3,0.7l0.4,0.7l0.7,1.3c0.3,0.4,0.6,0.8,0.8,1.2l0.4,0.6
					l0.5,0.5c0.3,0.4,0.6,0.7,0.9,1.1c0.4,0.3,0.7,0.6,1.1,0.9l0.5,0.5l0.6,0.4c0.4,0.3,0.8,0.5,1.2,0.8c0.4,0.2,0.8,0.4,1.3,0.7
					c0.4,0.2,0.8,0.5,1.3,0.6c0.9,0.3,1.7,0.7,2.6,1c0.4,0.1,0.9,0.3,1.3,0.4c0.4,0.1,0.9,0.2,1.3,0.3c3.4,0.8,6.5,1,8.7,1.1
					c1.1,0.1,1.9,0,2.5,0c0.6,0,0.9,0,0.9,0C180,283.9,179.8,278.9,178.3,278.9z"/>
				<path id="XMLID_87_" class="st5" d="M179,287.9c0,0-1.3,0-3.7,0c-2.3-0.1-5.7-0.3-9.5-1.1c-1-0.2-2-0.4-2.9-0.8
					c-0.5-0.2-1-0.3-1.5-0.5c-0.5-0.2-1-0.4-1.5-0.6c-1-0.4-2-1-3-1.5c-0.5-0.3-1-0.6-1.4-0.9c-0.5-0.3-1-0.6-1.4-1
					c-0.4-0.4-0.9-0.8-1.3-1.1c-0.5-0.4-0.8-0.9-1.2-1.3c-0.9-0.8-1.5-1.9-2.2-2.9c-1.2-2.1-2.3-4.4-2.8-6.9l-0.4-1.9
					c-0.1-0.7-0.2-1.3-0.3-2c-0.2-1.3-0.4-2.7-0.5-4c-0.3-2.6-0.4-5.3-0.5-7.8c0-2.5,0-5,0.2-7.3c0.1-1.1,0.2-2.3,0.3-3.3
					c0.1-1,0.3-2,0.5-2.9c1-3.7,2.4-6.9,3.3-9.1c0.9-2.3,1.4-3.7,1.4-3.7c0.6-1.8-4.2-3.3-4.7-1.7c0,0-0.4,1.2-1.3,3.5
					c-0.9,2.2-2.3,5.4-3.5,9.8c-0.3,1.1-0.5,2.2-0.7,3.5c-0.2,1.2-0.2,2.4-0.3,3.6c-0.2,2.5-0.2,5-0.2,7.7c0,2.7,0.2,5.4,0.5,8.2
					c0.2,1.4,0.3,2.8,0.5,4.2c0.1,0.7,0.2,1.4,0.3,2.1l0.5,2.2c0.6,2.9,1.9,5.8,3.4,8.4c0.9,1.2,1.7,2.5,2.7,3.6
					c0.5,0.5,1,1.1,1.5,1.6c0.6,0.5,1.1,0.9,1.6,1.4c0.5,0.5,1.1,0.8,1.7,1.2c0.6,0.4,1.1,0.8,1.7,1.1c1.2,0.6,2.4,1.3,3.6,1.7
					c0.6,0.2,1.2,0.5,1.8,0.7c0.6,0.2,1.2,0.4,1.7,0.5c1.1,0.4,2.3,0.6,3.3,0.9c4.3,0.9,7.9,1.1,10.4,1.2c2.5,0,4,0,4,0
					C181,292.8,180.7,287.8,179,287.9z"/>
				<path id="XMLID_86_" class="st5" d="M181.1,296.8c0,0-0.4,0-1.1,0.1c-0.7,0.1-1.8,0-3.1,0.1c-2.7,0-6.6-0.1-11.4-1
					c-4.8-0.9-10.5-2.7-16-6.6c-5.5-3.9-9.9-10.5-11.5-17.2l-0.6-2.5l-0.1-0.6l-0.1-0.6l-0.2-1.1c-0.2-1.5-0.4-3-0.6-4.5
					c-0.3-3-0.5-5.9-0.5-8.8c0-2.9,0-5.6,0.2-8.3c0.1-0.7,0.1-1.3,0.2-1.9c0.1-0.6,0.1-1.2,0.2-2c0.2-1.4,0.5-2.8,0.8-4
					c0.6-2.5,1.4-4.6,2.1-6.3c0.6-1.6,1.2-3,1.7-4.2c0.4-1.1,0.8-1.9,1-2.5c0.2-0.6,0.3-0.9,0.3-0.9c0.5-1.5-4.3-2.9-4.7-1.6
					c0,0-0.1,0.3-0.3,0.8c-0.2,0.5-0.5,1.3-0.9,2.4c-0.5,1.2-1,2.6-1.7,4.3c-0.7,1.8-1.5,4.1-2.2,6.8c-0.4,1.4-0.7,2.9-0.9,4.6
					c0,0.4-0.1,0.9-0.1,1.2c0,0.3-0.1,0.7-0.1,1c-0.1,0.7-0.1,1.4-0.2,2.1c-0.2,2.8-0.3,5.7-0.2,8.7c0.1,3,0.2,6.1,0.6,9.2
					c0.2,1.6,0.4,3.2,0.6,4.7l0.2,1.2l0.1,0.6l0.2,0.7l0.7,2.8c0.1,0.5,0.2,0.9,0.4,1.4l0.5,1.4c0.3,1,0.7,1.9,1.1,2.8
					c0.5,0.9,0.9,1.9,1.4,2.8l0.7,1.4l0.9,1.3c0.6,0.9,1.2,1.7,1.8,2.5c0.7,0.8,1.4,1.6,2.1,2.3c0.7,0.8,1.5,1.4,2.2,2.1
					c0.8,0.6,1.5,1.3,2.3,1.9c1.6,1.1,3.2,2.2,4.8,3c0.8,0.4,1.6,0.9,2.4,1.2c0.8,0.3,1.6,0.6,2.3,1c0.8,0.3,1.5,0.6,2.3,0.8
					c0.7,0.2,1.5,0.5,2.2,0.7c1.4,0.4,2.8,0.7,4.1,0.9c5.3,1,9.4,1.1,12.3,1.1c1.4,0,2.6,0,3.3-0.1c0.8,0,1.2-0.1,1.2-0.1
					C183.4,301.7,183,296.7,181.1,296.8z"/>
			</g>
		</g>
	</g>
	<g id="XMLID_15_">
		<g id="XMLID_69_">
			<g id="XMLID_74_">
				<path id="XMLID_77_" class="st5" d="M230.8,374.2c0,0-0.2,0.1-0.6,0.2c-0.4,0.1-1,0.3-1.7,0.6c-1.4,0.6-3.3,1.4-5.3,2.5
					c-2,1-4.2,2.3-6.2,3.3c-1,0.5-1.9,0.9-2.4,1.1l-0.2,0.1l-0.1,0l-0.3,0.1c-0.4,0.1-0.9,0.2-1.3,0.3c-0.8,0.2-1.7,0.5-2.6,0.7
					c-3.5,1-7,2.1-10.5,3c-1.8,0.5-3.5,0.9-5.2,1.2c-0.4,0.1-0.9,0.2-1.3,0.2l-0.6,0.1l-0.3,0c-0.4,0-0.9,0.1-1.5,0
					c-1.2,0-2.8-0.3-4.8-0.6c-0.6-0.1-1.2-0.2-1.9-0.3c-0.6-0.1-1.3-0.2-1.9-0.3c-1.2-0.2-2.4-0.3-3.5-0.5c-2.2-0.3-4.3-0.6-6.2-0.9
					c-1.8-0.3-3.4-0.8-4.4-1.2c-0.5-0.2-0.9-0.4-1.5-0.8c-0.6-0.4-1.3-0.8-2-1.3c-1.5-1.1-3.1-2.4-4.9-3.9c-0.9-0.7-1.9-1.5-3-2.3
					c-0.8-0.6-1.6-1.2-2.4-1.8c-1.5-1.2-2.9-2.5-4.3-3.7c-1.3-1.3-2.6-2.5-3.7-3.8c-0.3-0.3-0.6-0.7-0.8-1l-0.6-0.7l-0.7-0.7
					c-0.7-0.8-1.4-1.5-2.1-2.3c-0.6-0.6-1-1.1-1.2-1.3c-0.2-0.3-0.2-0.2-0.4-0.6c-0.2-0.3-0.5-1-0.9-2c-0.4-1-1-2.3-1.9-3.7
					c-1.8-2.9-3.5-4.5-4.7-5.9c-1.2-1.2-2-2.1-2.4-2.6c-0.1-0.1-0.2-0.2-0.2-0.3c-0.1-0.1,0,0,0,0l0,0.1c0,0,0,0,0,0l-0.1-0.1
					l-0.3-0.4c0,0,0,0-0.1,0c0.1-0.2-1.6,1.6-0.8,0.8l0.1,0l0.3-0.2l0.6-0.3c0.1,0,0,0,0,0c0,0,0,0,0-0.1c-0.1-0.2-0.3-0.8-0.4-1.4
					c-0.3-1.2-0.5-2.7-0.7-3.6c-0.2-1-0.2-1.6-0.2-1.6c-0.2-1.5-1.6-2.3-2.8-2c-1.2,0.2-2.3,1.3-2.1,2.8c0,0,0.1,0.6,0.2,1.6
					c0.2,1,0.4,2.5,0.8,4c0.2,0.8,0.4,1.6,0.7,2.2c0.1,0.2,0.1,0.3,0.2,0.4l0,0.1l0,0l0,0c0.1,0.1-0.1-0.2-0.1-0.1l0,0.1l0.3,0.4
					c0.2,0.3,0.1,0.1,0.2,0.3c0.1,0.2,0.2,0.3,0.4,0.5c0.6,0.7,1.5,1.7,2.7,2.9c1.2,1.2,2.6,2.7,4,5c1.3,2.3,2,4.2,2.6,5.3
					c0.3,0.6,0.5,0.9,0.9,1.4c0.4,0.5,0.9,1.1,1.5,1.7c0.7,0.7,1.4,1.5,2.1,2.2l0.6,0.7l0.6,0.7c0.3,0.4,0.6,0.7,0.9,1.1
					c1.2,1.4,2.6,2.8,4,4.2c1.4,1.4,3,2.7,4.6,4c0.8,0.7,1.6,1.3,2.5,1.9c1,0.8,1.9,1.5,2.8,2.2c1.8,1.5,3.5,2.8,5.1,4
					c1.6,1.2,3.2,2.1,4.6,2.7c1.5,0.6,3.4,1.1,5.4,1.5c2,0.4,4.2,0.7,6.4,1c1.2,0.2,2.3,0.3,3.5,0.5l1.8,0.3
					c0.6,0.1,1.2,0.2,1.8,0.3c2.1,0.4,3.9,0.7,5.5,0.7c0.8,0,1.6,0,2.3-0.1l0.5-0.1l0.7-0.1c0.5-0.1,0.9-0.2,1.4-0.3
					c1.8-0.4,3.7-0.8,5.5-1.3c3.7-1,7.2-2.1,10.6-3c0.9-0.2,1.7-0.5,2.5-0.7c0.4-0.1,0.8-0.2,1.2-0.3l0.3-0.1l0.2-0.1l0.3-0.1
					c0.9-0.3,2-0.8,3.2-1.4c2.2-1.1,4.4-2.4,6.3-3.4c1.9-1,3.6-1.8,4.8-2.3c0.6-0.3,1.1-0.4,1.4-0.5c0.3-0.1,0.5-0.2,0.5-0.2
					c0.9-0.3,1.6-0.8,2-1.4c0.4-0.6,0.6-1.2,0.5-1.9c-0.1-0.6-0.5-1.2-1.3-1.5C232.9,373.9,231.9,373.8,230.8,374.2z"/>
				<path id="XMLID_76_" class="st5" d="M234.6,382.4c0,0-0.2,0-0.5,0.1c-0.3,0.1-0.7,0.2-1.3,0.4c-1.1,0.4-2.7,1.1-4.6,2.1
					c-1.9,1-4,2.2-6.5,3.5c-1.2,0.6-2.5,1.3-3.8,1.7c-0.3,0.1-0.7,0.2-1,0.3l-0.5,0.2l-0.6,0.2c-0.8,0.2-1.6,0.4-2.5,0.7
					c-3.4,0.9-7,2-10.8,3.1c-1.9,0.5-3.8,1-5.8,1.4c-1,0.2-2,0.4-3,0.5c-0.9,0.1-1.9,0.2-2.8,0.2c-1.9,0-4-0.3-6.1-0.7
					c-1-0.2-2.3-0.4-3.4-0.6c-1.1-0.2-2.3-0.3-3.4-0.5c-4.5-0.6-9.1-1.1-13-2.6c-3.8-1.4-7.2-4.4-10.8-7.2c-0.9-0.7-1.8-1.4-2.7-2.2
					c-0.9-0.7-1.8-1.3-2.6-2c-1.7-1.4-3.3-2.8-4.9-4.2c-1.5-1.4-3-2.9-4.3-4.4c-0.7-0.8-1.4-1.6-2.1-2.3c-0.7-0.8-1.4-1.5-2.1-2.2
					c-0.7-0.7-1.3-1.4-1.8-2c-0.5-0.7-0.9-1.3-1.3-2c-0.7-1.4-1.3-3.2-2.4-5c-1.1-1.8-2.4-3.2-3.5-4.3c-1.1-1.2-2.1-2.2-2.9-3.2
					c-1.5-1.7-2.2-3.7-2.6-5.5c-0.4-1.8-0.7-3.4-0.8-4.4c-0.2-1.1-0.2-1.6-0.2-1.6c-0.5-3-5.4-2.2-4.9,0.7c0,0,0.1,0.6,0.3,1.7
					c0.2,1.1,0.4,2.7,0.9,4.8c0.3,1.1,0.6,2.3,1.2,3.6c0.1,0.3,0.3,0.7,0.5,1l0.1,0.3l0.1,0.2l0.1,0.1l0.3,0.4
					c0.5,0.7,0.9,1.4,1.4,2c2,2.4,4.5,4.5,6,6.8c0.7,1.2,1.3,2.9,2.3,4.8c0.5,0.9,1.1,1.9,1.8,2.8c0.7,0.9,1.4,1.6,2.1,2.4
					c0.7,0.7,1.4,1.4,2,2.2c0.7,0.8,1.3,1.5,2,2.3c1.4,1.6,3,3.2,4.6,4.7c1.6,1.5,3.4,3,5.1,4.5c0.9,0.7,1.8,1.4,2.7,2.1
					c0.9,0.7,1.7,1.4,2.6,2.1c1.8,1.4,3.6,2.9,5.6,4.3c2,1.4,4.1,2.8,6.6,3.7c4.8,1.8,9.6,2.3,14.1,2.9c1.1,0.2,2.2,0.3,3.3,0.5
					c1.1,0.2,2.1,0.4,3.3,0.6c2.3,0.4,4.6,0.8,7,0.8c1.2,0,2.4-0.1,3.6-0.2c1.1-0.2,2.2-0.4,3.3-0.6c2.1-0.4,4.1-0.9,6.1-1.5
					c3.9-1.1,7.5-2.2,10.8-3.1c0.8-0.2,1.6-0.4,2.4-0.7l0.6-0.2l0.7-0.2c0.4-0.1,0.9-0.3,1.3-0.4c1.7-0.6,3.1-1.3,4.4-2
					c2.6-1.4,4.7-2.6,6.4-3.5c3.5-1.8,5.4-2.3,5.4-2.3c0.6-0.2,1-0.6,1.3-1.1c0.2-0.5,0.3-1.2,0.3-1.8c-0.1-0.6-0.4-1.2-0.8-1.6
					C236.2,382.4,235.4,382.2,234.6,382.4z"/>
				<path id="XMLID_75_" class="st5" d="M238.6,390.8c0,0-0.1,0-0.2,0c-0.1,0-0.4,0.1-0.7,0.1c-0.6,0.1-1.7,0.4-3.3,1.1
					c-1.6,0.7-3.6,1.8-6.2,3.2c-1.3,0.7-2.8,1.5-4.5,2.3c-0.4,0.2-0.9,0.4-1.3,0.6c-0.5,0.2-1,0.4-1.5,0.6c-0.5,0.2-1.1,0.4-1.7,0.5
					l-0.4,0.1l-0.3,0.1l-0.6,0.2c-3.3,0.9-6.9,2-11,3.1c-2,0.6-4.1,1.1-6.4,1.6c-1.1,0.3-2.3,0.5-3.5,0.7c-0.6,0.1-1.2,0.2-1.8,0.3
					c-0.7,0.1-1.5,0.2-2.2,0.2c-2.9,0.2-5.7-0.1-8.2-0.5c-2.7-0.5-4.4-0.8-6.7-1.1c-2.2-0.3-4.6-0.6-7.2-1c-2.5-0.4-5.2-0.9-8-1.9
					c-1.4-0.5-2.9-1.1-4.2-1.8c-1.3-0.7-2.5-1.5-3.7-2.2c-2.2-1.5-4.2-3.1-6-4.6c-0.9-0.7-1.7-1.4-2.6-2.1c-0.9-0.7-1.9-1.4-2.8-2.2
					c-1.9-1.5-3.8-3.1-5.5-4.7c-1.8-1.6-3.4-3.3-5-5.1c-0.7-0.8-1.4-1.6-2.1-2.4c-0.7-0.7-1.4-1.5-2.1-2.2c-0.8-0.8-1.6-1.7-2.4-2.8
					c-0.8-1-1.7-2.4-2.2-3.5c-0.6-1.1-1-2.1-1.3-2.9c-0.3-0.8-0.6-1.2-0.8-1.6c-0.4-0.7-1.4-1.7-2.4-2.8c-1.1-1.1-2.4-2.4-3.6-3.9
					c-0.3-0.4-0.6-0.8-0.9-1.3c-0.2-0.3-0.3-0.5-0.4-0.6c-0.1-0.2-0.2-0.4-0.4-0.6c-0.5-0.9-0.9-1.9-1.2-2.7c-0.6-1.6-0.9-3-1.2-4.2
					c-0.5-2.4-0.7-4.1-0.9-5.2c-0.2-1.1-0.3-1.7-0.3-1.7c-0.2-1.4-1.6-1.8-2.8-1.6c-1.2,0.3-2.4,1-2.1,2.3c0,0,0.1,0.6,0.2,1.7
					c0.2,1.1,0.4,2.9,1,5.5c0.3,1.3,0.7,2.9,1.4,4.9c0.4,1,0.9,2.1,1.5,3.3c0.1,0.2,0.3,0.5,0.4,0.7l0.2,0.3l0.3,0.5
					c0.5,0.7,0.8,1.2,1.2,1.7c1.4,1.9,2.9,3.3,3.9,4.4c1.1,1.1,1.8,1.9,1.8,2c0,0.1,0.2,0.3,0.5,1c0.3,0.7,0.7,1.7,1.4,3.1
					c0.6,1.3,1.7,3.1,2.7,4.3c1,1.3,1.9,2.3,2.7,3.2c0.7,0.7,1.3,1.4,2,2.1c0.7,0.8,1.4,1.6,2.1,2.4c1.7,1.9,3.5,3.7,5.3,5.4
					c1.9,1.7,3.8,3.4,5.8,5c0.9,0.7,1.9,1.5,2.8,2.2c0.8,0.7,1.7,1.3,2.5,2c1.8,1.5,3.9,3.2,6.3,4.9c1.2,0.9,2.6,1.7,4.1,2.5
					c0.8,0.4,1.6,0.8,2.5,1.2c0.8,0.3,1.7,0.7,2.5,0.9c3.3,1.1,6.1,1.6,8.8,2.1c2.6,0.4,5.1,0.7,7.3,1c2.3,0.3,3.6,0.6,6.6,1.1
					c2.7,0.4,5.9,0.8,9.3,0.6c0.9-0.1,1.7-0.2,2.6-0.3c0.7-0.1,1.3-0.2,2-0.3c1.3-0.2,2.5-0.5,3.7-0.8c2.4-0.5,4.6-1.1,6.6-1.7
					c4.1-1.2,7.8-2.3,10.9-3.1l0.6-0.2l0.3-0.1l0.5-0.1c0.7-0.2,1.5-0.4,2.1-0.7c0.6-0.2,1.2-0.5,1.8-0.7c0.5-0.2,1-0.5,1.5-0.7
					c1.9-0.9,3.5-1.7,4.7-2.5c2.6-1.5,4.5-2.5,5.8-3c0.3-0.1,0.6-0.3,0.9-0.4c0.2-0.1,0.5-0.2,0.7-0.2c0.2-0.1,0.3-0.1,0.4-0.1
					c0.1,0,0.3-0.1,0.3-0.1c0.1,0,0.2-0.1,0.3-0.1c0,0,0,0,0,0c0,0,0,0,0-0.1c0-0.3,0-0.6,0-0.7c0-0.3,0-0.5,0-0.7
					c0-0.2,0-0.4,0.1-0.5l0-0.1l0.1-0.5c0.1-0.6,0.1-1.2,0.1-1.7c0-0.2-0.1-0.4-0.2-0.6C239,390.8,238.8,390.8,238.6,390.8z"/>
			</g>
		</g>
	</g>
	<g id="XMLID_146_">
		<g id="XMLID_55_">
			<g id="XMLID_64_">
				<path id="XMLID_67_" class="st5" d="M225.1,150.9c0,0-0.1-0.2-0.3-0.6c-0.1-0.2-0.2-0.5-0.4-0.9c-0.1-0.4-0.3-0.8-0.5-1.3
					c-0.1-0.3-0.2-0.5-0.3-0.8l-0.1-0.2l0,0l0,0c0,0,0,0-0.1,0c-0.1,0-0.2,0.1-0.4,0.1c-0.4,0.1-1,0.2-1.9,0.3
					c-1.1,0.1-2.2,0.3-3.5,0.4c-0.4,0.1-0.8,0.1-1.3,0.2c-0.3,0-0.6,0.1-0.9,0.1c-0.4,0.1-0.7,0.1-1.1,0.2c-1.4,0.3-3.1,1-3.7,1.2
					c-1.7,0.7-3.6,1.4-5.4,2.4c-3.8,1.9-7.9,4.3-11.6,7.8c-0.9,0.9-1.8,1.8-2.7,2.8l-1.3,1.5c-0.4,0.5-0.8,1-1.1,1.5
					c-1.4,2-2.6,4-3.6,6c-2,3.9-3.2,7.7-4.1,11.1c-1.7,6.7-1.4,12.3-1.4,12.3c0.1,1.9,5.1,1.3,5-0.2c0,0-0.1-1.2,0-3.1
					c0.1-2,0.4-4.7,1.2-7.7c0.8-3.1,1.9-6.5,3.7-10.1c0.9-1.8,1.9-3.6,3.2-5.4l1-1.3l1.1-1.3c0.8-0.9,1.5-1.7,2.4-2.4
					c3.3-3,7-5.3,10.4-7c1.7-0.9,3.4-1.6,5-2.2c0.7-0.2,2-0.8,3-1c0.3-0.1,0.6-0.1,0.8-0.2c0.3,0,0.5-0.1,0.8-0.1
					c0.4-0.1,0.8-0.1,1.2-0.2c2.9-0.3,4.8-0.6,5.9-0.8c0.5-0.1,0.9-0.2,1-0.3c0.1-0.1,0.2-0.1,0.2-0.1c0,0,0,0,0-0.1
					c0,0.1,0.1,0.2,0.1,0.3c0,0.1,0.1,0.2,0.1,0.3c0.2,0.3,0.3,0.6,0.5,0.8c0.2,0.4,0.3,0.6,0.3,0.6s-0.1-0.2-0.3-0.6
					C225.9,152.7,225.6,152.1,225.1,150.9z"/>
				<path id="XMLID_66_" class="st5" d="M227.3,155.4c0,0-0.1,0.1-0.4,0.2c-0.3,0.1-0.8,0.3-1.4,0.4c-1.4,0.3-3.5,0.6-6.3,0.9
					c-0.7,0.1-1.4,0.2-2.3,0.3c-0.4,0.1-0.9,0.2-1.3,0.3c-0.4,0.1-0.8,0.3-1.3,0.5c-1.5,0.6-3.1,1.3-4.8,2c-3.2,1.6-6.6,3.6-9.6,6.3
					c-1.5,1.3-2.8,2.9-4,4.5c-1.1,1.6-2.1,3.2-2.9,4.9c-1.6,3.3-2.7,6.5-3.5,9.3c-0.7,2.8-1,5.3-1.1,7c-0.1,1.7,0,2.8,0,2.8
					c0.1,1.4,5.1,0.8,5-0.2c0,0,0-0.8,0-2.3c0.1-1.5,0.3-3.6,0.9-6.1c0.6-2.5,1.6-5.4,3.1-8.3c0.7-1.4,1.6-2.9,2.5-4.2
					c0.9-1.3,2-2.6,3.3-3.7c2.5-2.3,5.4-4.1,8.4-5.5c1.5-0.7,2.9-1.3,4.3-1.9c0.3-0.1,0.6-0.2,0.9-0.3c0.3-0.1,0.6-0.2,0.9-0.2
					c0.5-0.1,1.3-0.2,1.9-0.3c2.7-0.3,5.1-0.6,6.9-1c1.8-0.4,2.9-1,2.9-1c0.4-0.2,0.5-0.7,0.4-1.2c-0.1-0.5-0.4-1.1-0.8-1.5
					c-0.4-0.5-0.8-0.9-1.2-1.3C227.7,155.5,227.4,155.3,227.3,155.4z"/>
				<path id="XMLID_65_" class="st5" d="M233.7,161.8c0,0-0.2,0.2-0.4,0.4c-0.1,0.1-0.3,0.2-0.5,0.4c-0.2,0.1-0.4,0.3-0.6,0.4
					c-0.9,0.6-2.1,1.1-3.3,1.4c-2.4,0.7-5.1,1.1-7.9,1.4c-0.6,0.1-1.3,0.2-2,0.2l-0.3,0.1l-0.2,0c-0.2,0-0.3,0.1-0.5,0.1
					c-0.3,0.1-0.6,0.2-0.9,0.3c-0.3,0.1-0.7,0.3-1,0.4c-0.7,0.3-1.4,0.6-2.1,0.9c-2.8,1.3-5.5,2.9-7.7,4.9
					c-4.2,3.6-6.8,9.9-7.9,14.5c-0.6,2.3-0.8,4.2-0.8,5.5c0,0.6,0,1.1,0,1.4c0,0.3,0,0.5,0,0.5c0.1,0.9,5,0.2,5-0.3c0,0,0-0.1,0-0.3
					c0-0.2,0-0.6,0-1.1c0-1,0.2-2.5,0.7-4.5c0.5-1.9,1.3-4.3,2.4-6.5c0.6-1.1,1.2-2.2,1.9-3.1c0.3-0.5,0.6-0.8,1-1.2
					c0.4-0.4,0.7-0.8,1.2-1.1c1.7-1.5,4-2.9,6.5-4.1c0.6-0.3,1.2-0.6,1.9-0.8c0.3-0.1,0.6-0.3,0.9-0.4c0.2-0.1,0.5-0.2,0.7-0.3l0,0
					l0,0l0,0l0.2,0c0.6-0.1,1.3-0.2,1.9-0.2c2.8-0.3,5.8-0.7,8.8-1.6c1.5-0.4,3.1-1.1,4.4-2c0.4-0.2,0.6-0.4,0.9-0.6
					c0.3-0.2,0.5-0.4,0.7-0.6c0.4-0.3,0.6-0.5,0.6-0.5c0.6-0.6,1-1.1,1.3-1.8c0.3-0.6,0.5-1.2,0.5-1.8c0.1-1.1-0.3-1.8-0.9-2.1
					c-0.6-0.2-1.3-0.1-2.1,0.3C235.3,160.6,234.5,161.1,233.7,161.8z"/>
			</g>
		</g>
	</g>
	<g id="XMLID_216_">
		<g id="XMLID_24_">
			<path id="XMLID_50_" class="st4" d="M309.3,370.6"/>
		</g>
	</g>
	<g id="XMLID_236_">
		<g id="XMLID_38_">
			<g id="XMLID_44_">
				<path id="XMLID_47_" class="st5" d="M334.1,120.5c0,0-0.1-0.2-0.3-0.7c-0.2-0.5-0.6-1.1-1-1.9c-0.9-1.6-2.2-3.8-4-6.1
					c-1.8-2.4-4-4.9-6.4-7.3c-1.2-1.2-2.5-2.4-3.9-3.6c-1.3-1.2-2.8-2.3-4.2-3.5c-3-2.3-6.4-4.5-10.3-6.2c-3.9-1.7-8.1-2.7-11.7-2.9
					c-3.7-0.2-6.6,0.2-8.6,0.6c-2,0.4-3,0.7-3,0.7c-1.4,0.4,0.1,5.2,1.3,4.8c0,0,0.9-0.3,2.6-0.6c1.7-0.3,4.2-0.7,7.3-0.5
					c3.1,0.2,6.7,1,10,2.5c3.4,1.5,6.5,3.5,9.3,5.6c2.8,2.1,5.3,4.4,7.6,6.7c2.3,2.3,4.3,4.6,6,6.8c1.6,2.2,2.8,4.1,3.6,5.5
					c0.4,0.7,0.7,1.3,0.9,1.7c0.2,0.4,0.3,0.6,0.3,0.6c0.1,0.2,0.2,0.2,0.4,0.3l-6.7-3.9c0.5-0.9,0.2-3.7-0.4-4.5l11.2,6.5
					C334.2,120.8,334.2,120.6,334.1,120.5z"/>
				<path id="XMLID_46_" class="st5" d="M326.1,124.6c0,0-0.1-0.2-0.3-0.6c-0.2-0.4-0.4-0.9-0.8-1.5c-0.7-1.3-1.8-3.1-3.3-5.1
					c-3-4.1-7.6-8.8-12.9-12.8c-2.6-2-5.5-3.9-8.5-5.2c-3-1.3-6.1-2-8.7-2.2c-2.7-0.2-4.9,0.2-6.4,0.5c-1.5,0.3-2.3,0.6-2.3,0.6
					c-1.1,0.3,0.5,5.1,1.3,4.8c0,0,0.7-0.2,1.9-0.5c1.2-0.2,3-0.5,5.1-0.4c2.1,0.1,4.5,0.7,7,1.8c2.5,1.1,5,2.7,7.4,4.6
					c4.9,3.7,9.2,8.2,11.9,11.8c1.4,1.8,2.3,3.4,2.9,4.6c0.3,0.6,0.5,1,0.7,1.3c0.2,0.3,0.2,0.5,0.2,0.5l0,0l1.1,1.8l1.4-0.4
					c1-0.2,0.5-4.9-0.5-5L326.1,124.6L326.1,124.6z"/>
				<path id="XMLID_45_" class="st5" d="M325.4,132.1l-0.9,0.1l-4.5,0.4l-1.9-4.2c-2.9-6.2-8.5-12.1-14.7-16.8c-3-2.3-6.1-4.1-9-4.9
					c-2.9-0.8-5.9-0.7-9.1,0.2c-0.8,0.2,0.8,5,1.4,4.8c1.3-0.4,2.4-0.6,3.4-0.6c1,0,2,0.1,3,0.4c2,0.5,4.6,2,7.3,4.1
					c5.7,4.4,10.8,9.9,13.2,14.9l3.4,7.4l8.1-0.7l0.9-0.1C326.9,137,326.4,132,325.4,132.1z"/>
			</g>
		</g>
	</g>
	<g id="XMLID_3_">
		<g id="XMLID_26_">
			<g id="XMLID_33_">
				<path id="XMLID_36_" class="st5" d="M182.7,16.8c0,0-0.2,0-0.6-0.1c-0.4-0.1-1-0.2-1.8-0.2c-0.8-0.1-1.7-0.1-2.9-0.2
					c-1.1,0-2.4,0-3.8,0c-2.8,0.1-6,0.4-9.6,1.1c-3.5,0.7-7.4,1.7-11.3,3c-2,0.6-4,1.4-6.1,2.1c-1,0.4-2.1,0.8-3.1,1.2
					c-1,0.4-2.1,0.9-3.1,1.2c-1.9,0.7-3.9,1.5-5.9,2.3c-0.5,0.2-1,0.4-1.5,0.6l-1,0.4c-0.4,0.2-0.8,0.3-1.1,0.5
					c-1.5,0.7-3,1.4-4.3,2.2c-2.7,1.6-4.9,3.3-6.7,4.5c-0.9,0.6-1.7,1.2-2.5,1.7c-0.4,0.2-0.8,0.5-1,0.6c-0.2,0.1-0.6,0.3-0.9,0.4
					c-0.7,0.3-1.7,0.7-3,1.2c-1.3,0.5-3,1.2-4.7,2.2c-1.8,1-3.6,2.3-5.2,3.7c-1.6,1.4-2.8,2.9-3.8,4.1c-1,1.2-1.6,2.1-2.1,2.7
					c-0.2,0.3-0.4,0.5-0.6,0.7L95.8,53l-0.3,0.3c-2.1,1.7-4.1,3.5-6.1,5.3c-4,3.6-7.7,7.4-11,11.3c-3.4,3.9-6.4,7.9-9.1,11.8
					c-1.3,1.9-2.6,3.9-3.7,5.8l-0.4,0.7l-0.2,0.4l-0.1,0.2L64.7,89c-0.4,0.7-0.8,1.5-1.1,2.2c-0.7,1.4-1.2,2.7-1.6,3.9
					c-0.8,2.4-1.3,4.5-1.8,6.4c-0.4,1.7-0.7,3.3-1.1,4.8c-0.3,1.4-0.6,2.4-0.8,3.2c-0.2,0.6-0.4,1.3-0.6,1.8
					c-0.1,0.4-0.2,0.8-0.3,1.1c-0.2,0.5-0.3,1.1-0.4,1.6c-1,4.3-0.6,7.8,0,10c0.3,1.1,0.6,2,0.9,2.5c0.2,0.6,0.4,0.8,0.4,0.8
					c0.1,0.2,0.2,0.4,0.2,0.5c0,0.1,0.1,0.1,0.1,0.2c0.1,0.1,0.2,0.1,0.2,0.1c0.2,0,0.3-0.2,0.5-0.2c0.6-0.1,1.1-0.2,1.7-0.4
					c0.6-0.1,1.2-0.4,1.6-0.6c0.2-0.1,0.4-0.2,0.4-0.4c0-0.1,0-0.2,0-0.3c0-0.1,0-0.1-0.1-0.2c0-0.1-0.1-0.3-0.2-0.4
					c0,0-0.1-0.2-0.3-0.7c-0.2-0.4-0.4-1.1-0.7-2c-0.5-1.7-0.8-4.5,0-7.8c0.1-0.4,0.2-0.9,0.3-1.3c0.1-0.3,0.2-0.7,0.3-1
					c0.2-0.6,0.4-1.2,0.6-1.8c0.3-1,0.6-2.2,0.9-3.6c0.7-2.8,1.2-6.4,2.7-10.6c0.4-1.1,0.8-2.2,1.4-3.4c0.3-0.6,0.6-1.2,0.9-1.8
					c0.2-0.3,0.3-0.5,0.4-0.7l0.4-0.7c1.1-1.8,2.3-3.7,3.6-5.6c2.6-3.8,5.5-7.6,8.7-11.3c3.2-3.8,6.8-7.4,10.6-10.9
					c1.9-1.8,3.9-3.5,5.9-5.1l0.5-0.4c0.1-0.1,0.3-0.3,0.4-0.4c0.3-0.3,0.6-0.6,0.9-1c0.6-0.8,1.3-1.7,2.2-2.8
					c0.9-1.1,1.9-2.4,3.3-3.5c1.3-1.2,2.8-2.2,4.2-3c3-1.6,5.6-2.4,7.4-3.2c0.9-0.4,1.5-0.7,2.5-1.3c0.9-0.5,1.8-1.2,2.7-1.8
					c1.9-1.3,3.9-2.9,6.4-4.3c1.2-0.7,2.5-1.4,3.8-2c0.3-0.2,0.7-0.3,1-0.4l0.9-0.4c0.5-0.2,1-0.4,1.6-0.6c2.1-0.8,4.1-1.6,6.1-2.3
					c1-0.4,2-0.8,3-1.2c1-0.4,2-0.8,3-1.2c2-0.8,3.9-1.5,5.8-2.1c3.8-1.2,7.4-2.2,10.7-2.8c3.3-0.6,6.3-0.9,8.8-1c1.3,0,2.4,0,3.4,0
					c1,0.1,1.9,0.1,2.6,0.2c0.7,0,1.2,0.1,1.6,0.2c0.4,0.1,0.6,0.1,0.6,0.1c1.9,0.3,3.2-0.6,3.5-1.9
					C185.8,18.7,184.9,17.1,182.7,16.8z"/>
				<path id="XMLID_35_" class="st5" d="M182.4,25.9c0,0-0.7-0.1-1.9-0.3c-1.3-0.2-3.1-0.3-5.5-0.3c-4.7,0-11.3,1-18.7,3.4
					c-3.7,1.2-7.6,2.6-11.7,4.3c-2,0.8-4.1,1.6-6.2,2.4c-1.1,0.4-2.2,0.8-3.2,1.3c-1.2,0.5-2.3,1-3.4,1.7c-4.5,2.5-8.1,5.9-12.1,7.8
					c-2,1-4.5,1.7-7,3c-1.3,0.7-2.5,1.5-3.6,2.4c-1.1,0.9-2.1,2-2.9,3.1c-1.7,2.1-3,4-4.6,5.4c-1.9,1.6-3.9,3.3-5.7,5
					c-3.8,3.4-7.2,7-10.4,10.6c-3.2,3.7-6,7.4-8.5,11c-1.2,1.8-2.4,3.6-3.5,5.4c-0.3,0.4-0.5,0.9-0.8,1.3c-0.3,0.5-0.6,1-0.8,1.5
					c-0.5,1-0.9,2-1.2,3c-1.3,3.9-1.9,7.4-2.6,10.3c-0.3,1.5-0.7,2.8-1,4c-0.2,0.6-0.4,1.2-0.6,1.8c-0.1,0.3-0.2,0.6-0.3,0.9
					c-0.1,0.3-0.2,0.7-0.3,1c-0.7,2.6-0.5,4.8-0.1,6.1c0.2,0.7,0.4,1.2,0.6,1.5c0.1,0.3,0.2,0.5,0.2,0.5c0.1,0.2,0.2,0.4,0.3,0.5
					c0.1,0.1,0.2,0.3,0.3,0.3c0.2,0.2,0.5,0.3,0.7,0.4c0.6,0.2,1.2,0.2,1.8,0.1c0.6-0.1,1.2-0.5,1.5-1.1c0.2-0.3,0.2-0.7,0.2-1.1
					c0-0.2,0-0.4-0.1-0.6c0-0.2-0.1-0.4-0.2-0.5c0,0,0-0.1-0.1-0.3c-0.1-0.2-0.2-0.5-0.4-1c-0.3-0.9-0.4-2.3,0.1-4
					c0.1-0.2,0.1-0.4,0.2-0.6c0.1-0.3,0.2-0.5,0.2-0.8c0.2-0.6,0.4-1.2,0.6-1.8c0.4-1.4,0.8-2.8,1.1-4.4c0.7-3.1,1.3-6.4,2.4-9.8
					c0.3-0.8,0.6-1.6,1-2.4c0.2-0.4,0.4-0.7,0.6-1.1c0.3-0.4,0.5-0.8,0.8-1.3c1-1.7,2.2-3.4,3.4-5.2c2.4-3.5,5.1-7.1,8.2-10.6
					c3.1-3.5,6.4-6.9,10-10.2c1.8-1.7,3.6-3.2,5.6-4.9c2.3-1.9,3.8-4.2,5.3-6c1.5-1.8,3-3.2,5-4.2c1.9-1,4.3-1.7,6.8-2.9
					c5-2.4,8.6-5.9,12.4-8c0.9-0.5,1.9-1,2.9-1.4c1.1-0.4,2.1-0.8,3.2-1.2c2.1-0.8,4.2-1.6,6.3-2.4c4-1.7,7.7-3.1,11.2-4.2
					c7-2.2,13.1-3.1,17.2-3.1c2.1,0,3.7,0.1,4.8,0.3c1.1,0.2,1.7,0.3,1.7,0.3c1.4,0.3,2.5-0.7,2.9-1.9
					C184.7,27.7,184.2,26.3,182.4,25.9z"/>
				<path id="XMLID_34_" class="st5" d="M183.1,35.3c0,0-0.1,0-0.3-0.1c-0.2-0.1-0.6-0.1-1-0.3c-0.4-0.1-1-0.2-1.7-0.3
					c-0.3,0-0.7-0.1-1.1-0.2c-0.4,0-0.8-0.1-1.3-0.1c-3.7-0.3-9.4,0.3-16.3,2.3c-3.5,1-7.2,2.3-11.2,3.9c-0.5,0.2-1,0.4-1.5,0.6
					c-0.5,0.2-1.1,0.4-1.6,0.6c-1.1,0.4-2.2,0.8-3.3,1.3c-2.1,0.9-4.8,1.8-6.2,2.5c-1.7,0.8-3.4,1.9-5.4,3.3c-2,1.4-4.2,3-7,4.6
					c-1.5,0.8-2.9,1.4-4.2,1.9c-1.3,0.5-2.4,0.9-3.3,1.3c-0.9,0.4-1.6,0.8-2.2,1.3c-0.6,0.5-1.2,0.9-1.8,1.7
					c-0.6,0.7-1.3,1.7-2.2,2.8c-0.9,1.1-1.9,2.4-3.2,3.6c-0.3,0.3-0.7,0.6-1,0.9l-0.7,0.6l-1.4,1.2c-0.9,0.8-1.9,1.6-2.7,2.4
					c-3.6,3.2-6.9,6.7-10,10.1c-3,3.5-5.7,7-8.1,10.5c-1.2,1.7-2.3,3.5-3.3,5.2l-0.4,0.6c-0.1,0.2-0.3,0.4-0.3,0.6
					c-0.2,0.3-0.3,0.6-0.4,0.9c-0.3,0.6-0.6,1.3-0.8,2.1c-1,3-1.6,6.4-2.4,9.7c-0.2,0.8-0.4,1.6-0.6,2.5c-0.1,0.4-0.2,0.9-0.4,1.2
					c-0.1,0.4-0.2,0.7-0.3,1.1c-0.2,0.6-0.4,1.2-0.5,1.7c-0.1,0.4-0.2,0.5-0.2,0.8c-0.2,1,0,1.8,0.2,2.2c0.1,0.3,0.2,0.6,0.3,0.7
					c0.2,0.4,0.2,0.6,0.2,0.6c0.5,1.2,1,2.1,1.6,2.6c0.6,0.6,1.2,0.8,1.8,0.7c0.6-0.1,1.2-0.6,1.5-1.4c0.2-0.4,0.2-1,0.2-1.6
					c0-0.3,0-0.6-0.1-1c0-0.2-0.1-0.4-0.2-0.6c-0.1-0.2-0.1-0.4-0.2-0.5c0,0-0.1-0.2-0.3-0.7c0-0.1-0.1-0.2-0.1-0.3c0,0,0,0,0,0l0,0
					c0,0,0,0,0,0l0,0c0,0,0,0,0-0.1c0.2-0.5,0.3-1,0.5-1.6c0.1-0.4,0.2-0.8,0.4-1.2c0.1-0.4,0.3-1,0.4-1.4c0.3-0.9,0.5-1.8,0.7-2.7
					c0.3-1.6,0.7-3.2,1.1-5c0.4-1.6,0.7-3.1,1.1-4.3c0.2-0.6,0.4-1.1,0.6-1.5l0.1-0.3c0-0.1,0.1-0.1,0.1-0.2c0,0,0.2-0.3,0.3-0.5
					l0.4-0.6c1-1.6,2.1-3.3,3.2-4.9c2.3-3.3,4.9-6.7,7.8-10c2.9-3.3,6.1-6.6,9.6-9.7c0.9-0.8,1.8-1.5,2.6-2.3l1.4-1.1l0.7-0.6
					c0.4-0.4,0.9-0.7,1.3-1.1c1.6-1.5,2.8-3,3.7-4.2c0.9-1.2,1.6-2,2-2.5c0.5-0.5,0.7-0.7,1-0.9c0.3-0.2,0.6-0.4,1.3-0.7
					c0.7-0.3,1.7-0.7,3-1.2c1.3-0.5,3-1.2,4.7-2.2l0.6-0.4l0.5-0.3l1-0.6c0.7-0.4,1.3-0.8,1.9-1.3c1.2-0.8,2.3-1.6,3.3-2.3
					c1.9-1.4,3.4-2.3,4.6-2.9c0.3-0.1,0.6-0.3,1-0.4l0.6-0.3l0.9-0.3c1.2-0.4,2.3-0.9,3.4-1.3c1.1-0.4,2.2-0.9,3.4-1.3
					c0.5-0.2,1.1-0.4,1.6-0.6c0.5-0.2,1-0.4,1.4-0.6c3.8-1.6,7.4-2.8,10.6-3.7c6.5-1.9,11.6-2.3,14.6-2.1c0.4,0,0.7,0.1,1.1,0.1
					c0.3,0,0.6,0.1,0.9,0.1c0.3,0,0.5,0.1,0.8,0.1c0.2,0,0.4,0.1,0.6,0.1c0.7,0.2,1.1,0.2,1.1,0.3c0.8,0.3,1.7-0.7,2.2-1.9
					C184.4,37.1,184.2,35.7,183.1,35.3z"/>
			</g>
		</g>
	</g>
</g>
<path id="XMLID_x5F_10_x5F_" class="st6" d="M359.4,722.1c10.4,6.1,23.8,2.7,29.9-7.7c7.7-13,3.4-29.7-9.6-37.4
	c-16.2-9.6-37.1-4.3-46.8,12c-12,20.3-5.3,46.4,14.9,58.4c25.3,15,58,6.6,73.1-18.7c18.8-31.7,8.3-72.6-23.4-91.3
	c-39.6-23.5-90.7-10.4-114.2,29.2c-29.3,49.5-13,113.4,36.5,142.7c61.9,36.7,141.7,16.2,178.4-45.6c45.8-77.3,24-140.7-27.4-196.8"
	/>
<text id="XMLID_90_"><textPath  xlink:href="#XMLID_x5F_10_x5F_" startOffset="0%">
<tspan  class="st2" style="font-family:'IntroCondBlackFree'; font-size:114px;"></tspan><tspan  class="st2" style="font-family:'IntroCondBlackFree'; font-size:110px;"></tspan><tspan  class="st2" style="font-family:'IntroCondBlackFree'; font-size:100px;"></tspan><tspan  class="st2" style="font-family:'IntroCondBlackFree'; font-size:90px;"></tspan><tspan  class="st2" style="font-family:'IntroCondBlackFree'; font-size:80px;"></tspan><tspan  class="st2" style="font-family:'IntroCondBlackFree'; font-size:70px;"></tspan><tspan  class="st2" style="font-family:'IntroCondBlackFree'; font-size:60px;"></tspan><tspan  class="st2" style="font-family:'IntroCondBlackFree'; font-size:50px;"></tspan><tspan  class="st2" style="font-family:'IntroCondBlackFree'; font-size:40px;"></tspan><tspan  class="st2" style="font-family:'IntroCondBlackFree'; font-size:30px;"></tspan></textPath>
</text>
</svg>
