<?xml version="1.0" encoding="utf-8"?>
<!-- Generator: Adobe Illustrator 19.0.0, SVG Export Plug-In . SVG Version: 6.00 Build 0)  -->
<svg version="1.1" id="Layer_1" xmlns="http://www.w3.org/2000/svg" xmlns:xlink="http://www.w3.org/1999/xlink" x="0px" y="0px"
	 viewBox="0 0 595.3 841.9" style="enable-background:new 0 0 595.3 841.9;" xml:space="preserve">
<g id="XMLID_12_">
	<g id="XMLID_20_">
		<path id="XMLID_32_" d="M332.3,287.1c0,0,0.7,0,2-0.1c0.7,0,1.5-0.2,2.5-0.3c1-0.2,2.2-0.3,3.4-0.6c0.6-0.2,1.3-0.3,2.1-0.5
			c0.4-0.1,0.7-0.2,1.1-0.3c0.4-0.1,0.8-0.3,1.1-0.4c0.8-0.3,1.6-0.6,2.5-0.9c0.9-0.3,1.7-0.7,2.6-1.1c1.8-0.8,3.7-1.9,5.7-3.1
			c1.9-1.3,4-2.8,5.9-4.6c4-3.6,7.9-8.4,10.9-14.5c0.4-0.8,0.7-1.5,1.1-2.3c0.3-0.8,0.6-1.6,0.9-2.5c0.3-0.8,0.6-1.7,0.9-2.6
			c0.2-0.9,0.5-1.8,0.7-2.7c0.5-1.9,0.7-3.6,1-5.4c0.1-0.9,0.3-1.8,0.4-2.8c0.1-0.9,0.1-1.9,0.2-2.9c0.4-7.7-0.8-16.3-4.2-24.9
			c-0.4-1.1-0.9-2.1-1.4-3.2c-0.5-1.1-1-2.1-1.6-3.2c-0.6-1-1.2-2.1-1.8-3.1c-0.3-0.5-0.6-1-1-1.6c-0.3-0.5-0.7-1-1.1-1.5
			c-0.7-1-1.5-2-2.2-3c-0.8-1-1.7-1.9-2.5-2.9c-1.7-2-3.6-3.7-5.6-5.5c-1-0.9-2.1-1.7-3.2-2.5c-1.1-0.8-2.2-1.7-3.4-2.4
			c-2.4-1.5-4.7-3-7.4-4.1c-0.7-0.3-1.3-0.6-2-0.9c-0.7-0.3-1.3-0.6-2-0.8c-1.4-0.5-2.7-1-4.1-1.5l-1.1-0.4l-1.1-0.3
			c-0.7-0.2-1.4-0.4-2.2-0.5c-0.7-0.2-1.5-0.4-2.2-0.5l-1.1-0.3l-1-0.2c-11.1-2-23.6-1.7-35.9,2c-1.6,0.4-3,1-4.6,1.5
			c-1.5,0.6-3.1,1.1-4.6,1.8c-3,1.4-6,2.8-8.9,4.6c-1.4,0.9-2.9,1.7-4.3,2.7c-1.4,1-2.8,2-4.2,3.1c-0.7,0.5-1.4,1-2.1,1.6l-2,1.8
			c-1.3,1.2-2.6,2.4-3.9,3.7c-2.4,2.6-4.9,5.3-7,8.3l-1.6,2.2c-0.5,0.7-1.1,1.5-1.6,2.3c-1,1.6-1.9,3.2-2.9,4.8
			c-3.5,6.6-6.6,13.9-8.2,21.6c-0.2,1-0.4,1.9-0.6,2.9c-0.2,1-0.3,1.8-0.5,2.8c-0.1,0.9-0.3,1.8-0.4,2.7c-0.1,0.9-0.2,1.9-0.2,2.8
			c-0.3,3.7-0.3,7.5,0,11.3c0.5,7.6,2.3,15.2,4.8,22.6c2.5,7.4,5.9,14.6,10.1,21.4c4.1,6.8,9.3,13.2,15.1,18.9
			c5.9,5.7,12.6,10.8,19.9,15c7.3,4.1,15.3,7.5,23.7,9.6c4.2,1.1,8.4,1.9,12.7,2.4c2,0.2,4,0.4,6.1,0.6c2,0.1,4.1,0.2,6.2,0.3
			c8.2,0.1,16.6-0.6,24.9-2.4c8.3-1.7,16.5-4.3,24.3-7.9c7.8-3.6,15.3-8.1,22.3-13.4c13.9-10.7,25.6-24.8,33.4-41.3
			c2-4.1,3.7-8.4,5.2-12.7c1.4-4.4,2.7-8.8,3.6-13.3l0.7-3.4l0.5-3.4c0.4-2.3,0.6-4.5,0.8-6.7c0.2-2.2,0.4-4.4,0.4-6.6
			c0-1.1,0.1-2.2,0.1-3.3l0-3.3c-0.1-17.8-3.7-35.8-11-52.6c-7.2-16.8-18-32.3-31.7-45.1c-13.7-12.8-30.2-23-48.4-29.2
			c-9.1-3.1-18.6-5.3-28.1-6.4c-9.2-1.1-18.5-1.4-27.8-0.9c-9.3,0.5-18.7,1.8-27.9,3.9c-9.2,2.1-18.2,5.1-27,8.9
			C227.2,120,211,130.7,197,144c-14,13.3-25.7,29.3-34.1,47c-4.2,8.8-7.7,18.1-10.2,27.6c-0.6,2.4-1.3,4.8-1.8,7.2
			c-0.5,2.4-1,4.8-1.4,7.2l-1.1,7.3c-0.3,2.4-0.5,4.8-0.7,7.3c-0.8,9.7-0.9,19.6,0,29.4c0.1,1.2,0.2,2.5,0.3,3.7l0.5,3.7l0.5,3.7
			l0.3,1.8l0.4,1.8l1.5,7.3l1.8,7.2c2.7,9.5,6.1,18.8,10.2,27.6c4.2,8.8,9,17.2,14.3,25.2c5.3,8,11.1,15.5,17.3,22.5
			c6.2,7.1,12.7,13.7,19.5,19.9c6.8,6.2,13.9,12.1,21.2,17.5c7.3,5.5,14.8,10.6,22.5,15.4c7.7,4.8,15.5,9.2,23.5,13.4c2,1,4,2.1,6,3
			c2,1,4,2,6.1,2.9l11.1,5.1c13.3,6.3,25.7,13.4,36.6,21.6c10.9,8.2,20.1,17.5,27.1,27.8c7,10.3,11.9,21.7,14.7,34.1
			c1.4,6.2,2.3,12.6,2.8,19.2c0.5,6.6,0.4,13.4,0,20.2c-0.1,1.7-0.2,3.4-0.4,5.2l-0.6,5.2l-0.1,1.3l-0.2,1.1l-0.3,2.3
			c-0.2,1.5-0.5,3-0.8,4.5c-1.2,6-3,11.9-5.3,17.5c-2.3,5.6-5.1,11-8.4,16.1c-3.3,5.1-7,9.8-11.2,14.2
			c-16.6,17.6-39.3,28.7-62.6,30.8c-5.8,0.6-11.7,0.6-17.5,0.1l-4.3-0.4l-4-0.6c-1.3-0.3-2.6-0.5-3.9-0.8c-1.3-0.4-2.6-0.6-3.8-1
			c-10.1-3-19.5-8.2-27.3-15c-7.8-6.9-14.1-15.3-18.3-24.5c-4.3-9.2-6.5-19.1-6.7-29c0-1.2,0-2.5,0-3.7c0.1-1.2,0.1-2.5,0.2-3.7
			c0.1-1.2,0.2-2.5,0.4-3.6c0.2-1.1,0.3-2.2,0.5-3.3c0.9-4.3,2.2-8.4,4-12.3c1.8-3.9,4.1-7.5,6.8-10.7c2.7-3.3,5.7-6.2,9.1-8.7
			c6.7-5,14.4-8.3,22.3-9.7c3.9-0.7,7.9-0.9,11.9-0.7c1,0,2,0.2,3,0.2l0.7,0.1l0.6,0.1l1.2,0.2c1.6,0.3,3.3,0.7,4.8,1.2
			c6.2,2,11.7,5.7,15.8,10.5c1,1.2,2,2.4,2.8,3.8c0.5,0.6,0.8,1.3,1.2,2c0.3,0.7,0.7,1.4,1,2.1c0.7,1.4,1.1,2.9,1.5,4.3
			c0.3,1.5,0.7,2.9,0.8,4.4c0.4,2.9,0.4,5.7,0.5,8.6c0,0.7,0,1.4,0,2.2c0,0.4,0,0.6,0,0.9c0,0.3,0,0.6,0,0.9c0,0.3,0,0.6,0.1,0.9
			c0,0.3-0.1,0.6-0.1,0.8c-0.1,0.6,0,1.2-0.1,1.7c-0.3,2.3-0.9,4.5-1.8,6.7c-1,2.2-2.4,4.2-3.9,6.1c-1.6,1.8-3.6,3.5-5.6,4.9
			c-0.5,0.3-1.1,0.6-1.6,0.9l-0.8,0.5l-0.9,0.4c-0.6,0.2-1.1,0.5-1.7,0.8c-0.6,0.2-1.2,0.4-1.8,0.6l-0.9,0.3l-0.9,0.2
			c-0.6,0.1-1.2,0.3-1.9,0.4c-0.6,0.1-1.3,0.1-1.9,0.2l-1,0.1l-0.2,0l-0.2,0l-0.4,0c-2.2,0.2-4.2-0.1-6.3-0.6l-0.8-0.2
			c-0.3-0.1-0.5-0.1-0.8-0.2c-0.5-0.2-1-0.4-1.5-0.6c-0.5-0.2-1-0.5-1.5-0.7c-0.5-0.2-1-0.5-1.4-0.8c-1-0.5-1.8-1.3-2.7-1.9
			c-0.4-0.4-0.8-0.8-1.2-1.1c-0.2-0.2-0.4-0.4-0.6-0.6l-0.5-0.6c-3-3.3-4.8-7.5-5.7-11.8c-0.1-0.3-0.1-0.5-0.1-0.8l-0.1-0.8
			c0-0.5-0.1-1.1-0.2-1.6c0-0.5,0-0.9,0-1.4c-0.1-0.5,0.1-0.9,0.1-1.4l0-0.7c0-0.2,0.1-0.5,0.1-0.7c0.1-0.5,0.1-0.9,0.2-1.4
			c0.3-0.9,0.5-1.8,0.9-2.7c0.3-0.9,0.8-1.7,1.2-2.5c0.2-0.4,0.5-0.8,0.8-1.2l0.4-0.6l0.4-0.5c0.3-0.4,0.6-0.7,0.9-1.1
			c0.3-0.3,0.6-0.7,1-1l0.5-0.5l0.5-0.4c0.3-0.3,0.7-0.6,1-0.9c5.7-4.4,13.4-5.3,18.1-4.1c2.5,0.6,4.7,1.7,6.5,3
			c0.5,0.3,0.8,0.6,1.2,0.9c0.4,0.3,0.8,0.6,1.1,1c0.3,0.3,0.6,0.6,0.9,0.9c0.3,0.3,0.5,0.6,0.8,0.9c0.5,0.6,0.9,1.1,1.2,1.6
			c0.3,0.5,0.6,0.9,0.8,1.2c0.4,0.7,0.6,1.1,0.6,1.1c0.3,0.5,0.4,1,0.6,1.4c0.2,0.5,0.4,1,0.5,1.4c0.1,0.5,0.3,1,0.4,1.4
			c0.1,0.5,0.2,1,0.3,1.4c0.2,1,0.2,1.9,0.3,2.8c0.1,0.5,0,0.9,0,1.3c0,0.4,0,0.9,0,1.3c-0.3,3.3-1.4,6.1-2.6,8.1
			c-1.3,2-2.6,3.4-3.5,4.2c-0.9,0.8-1.4,1.2-1.4,1.3c0,0,0.1,0,0.4-0.2c0.3-0.2,0.7-0.4,1.2-0.8c1-0.8,2.5-2,4-3.9
			c1.5-2,3-4.7,3.6-8.3c0.1-0.4,0.1-0.9,0.2-1.4c0-0.5,0.1-0.9,0.1-1.4c0-1,0.1-2-0.1-3.1c-0.1-0.5-0.1-1.1-0.2-1.6
			c-0.1-0.5-0.2-1.1-0.3-1.6c-0.1-0.6-0.3-1.1-0.4-1.6c-0.2-0.5-0.3-1.1-0.6-1.7c0,0-0.2-0.4-0.5-1.2c-0.2-0.4-0.4-0.9-0.7-1.5
			c-0.3-0.6-0.7-1.2-1.2-1.9c-0.2-0.4-0.5-0.7-0.8-1.1c-0.3-0.4-0.6-0.7-1-1.2c-0.3-0.4-0.7-0.8-1.1-1.2c-0.4-0.4-0.8-0.8-1.3-1.2
			c-1.9-1.6-4.3-3.2-7.3-4.2c-5.7-2-14.6-1.7-22.2,2.9c-0.5,0.3-0.9,0.6-1.4,1l-0.7,0.5l-0.7,0.6c-0.4,0.4-0.9,0.7-1.3,1.1
			c-0.4,0.4-0.8,0.8-1.2,1.2l-0.6,0.6l-0.6,0.7c-0.4,0.5-0.8,0.9-1.1,1.4c-0.6,1-1.4,2-1.9,3.1c-0.6,1-1,2.2-1.5,3.3
			c-0.2,0.6-0.4,1.2-0.5,1.8c-0.1,0.3-0.2,0.6-0.3,0.9l-0.2,0.9c-0.1,0.6-0.3,1.2-0.3,1.9c-0.1,0.6-0.1,1.3-0.2,1.9
			c0,0.7,0,1.4,0,2.1l0,1c0,0.3,0,0.7,0.1,1c0.5,5.6,2.2,11.2,5.7,16.1l0.6,0.9c0.2,0.3,0.5,0.6,0.7,0.9c0.5,0.6,1,1.1,1.4,1.7
			c1.1,1,2.1,2.2,3.3,3.1c0.6,0.5,1.2,1,1.8,1.4c0.6,0.4,1.3,0.9,1.9,1.3c0.7,0.3,1.4,0.7,2,1.1c0.3,0.2,0.7,0.3,1,0.5l1.1,0.4
			c2.9,1.1,5.9,1.9,9,2.1c0.7,0.1,1.6,0.1,2.5,0.1c0.9,0,1.7,0,2.6,0c0.9-0.1,1.7-0.2,2.6-0.3l1.3-0.1l1.3-0.3
			c0.8-0.2,1.7-0.4,2.5-0.5c0.8-0.3,1.6-0.5,2.5-0.8l1.2-0.4l1.2-0.5c0.8-0.4,1.6-0.7,2.4-1c1.5-0.9,3.1-1.6,4.5-2.7l1.1-0.7
			l0.5-0.4l0.5-0.4c0.7-0.6,1.4-1.1,2-1.7c2.6-2.5,5-5.1,6.8-8.2c1.8-3.1,3.3-6.3,4.2-9.8c0.3-0.9,0.3-1.8,0.5-2.6l0.3-1.3l0.1-1.4
			l0.2-1.3c0.1-0.5,0.1-0.9,0.1-1.4c0.1-1,0.1-2,0.1-3c0.1-4-0.1-8-0.8-12c-0.3-2-0.8-4-1.4-6c-0.7-2-1.3-4-2.3-5.9
			c-0.4-1-1-1.9-1.4-2.8c-0.6-0.9-1.1-1.9-1.7-2.7c-1.1-1.8-2.5-3.5-3.9-5.2c-5.7-6.6-13.3-11.7-21.9-14.5c-2.1-0.7-4.4-1.2-6.6-1.7
			l-1.7-0.3l-0.9-0.1l-0.9-0.1c-1.2-0.1-2.5-0.3-3.7-0.3c-5-0.3-10,0-14.9,0.9c-9.9,1.8-19.6,5.9-28,12.2c-4.2,3.1-8,6.8-11.4,10.9
			c-3.4,4.1-6.3,8.7-8.6,13.5c-2.3,4.9-4,10.1-5.1,15.5c-0.3,1.3-0.5,2.7-0.7,4.1c-0.2,1.4-0.3,2.9-0.5,4.3
			c-0.1,1.5-0.1,2.9-0.2,4.4c-0.1,1.5,0,2.9,0,4.4c0.2,11.7,2.9,23.5,7.9,34.4c5.1,10.9,12.5,20.9,21.7,29
			c9.3,8.1,20.4,14.2,32.4,17.8c1.5,0.5,3,0.8,4.6,1.2c1.5,0.4,3.1,0.6,4.6,1c1.6,0.2,3.1,0.5,4.7,0.7c1.6,0.2,3.3,0.3,4.9,0.5
			c6.6,0.5,13.2,0.5,19.8-0.2c26.5-2.4,52.3-15,71.1-34.9c4.7-5,9-10.4,12.7-16.2c3.7-5.8,6.9-11.9,9.5-18.3
			c2.6-6.4,4.6-13.1,6-19.9c0.3-1.7,0.7-3.4,0.9-5.1l0.4-2.6l0.2-1.3l0.1-1.4l0.6-5.5c0.2-1.8,0.3-3.7,0.4-5.5
			c0.4-7.4,0.5-14.7,0-22c-0.5-7.2-1.5-14.4-3.1-21.3c-3.2-13.9-8.7-26.9-16.7-38.6c-8-11.7-18.3-22-30.1-31
			c-11.8-9-25.1-16.5-39-23.1l-11.1-5.1c-2-0.9-3.9-1.9-5.9-2.8c-2-0.9-3.9-1.9-5.8-2.9c-7.7-4-15.3-8.2-22.6-12.8
			c-7.4-4.6-14.5-9.5-21.5-14.7c-7-5.2-13.7-10.8-20.2-16.7c-6.5-5.9-12.7-12.2-18.5-18.9c-5.8-6.7-11.3-13.7-16.3-21.1
			c-4.9-7.5-9.4-15.3-13.3-23.4c-3.8-8.2-7-16.7-9.4-25.5l-1.7-6.6l-1.3-6.7l-0.3-1.7l-0.2-1.7l-0.5-3.4l-0.5-3.4
			c-0.1-1.1-0.2-2.3-0.3-3.4c-0.9-9-0.8-18.1,0-27.1c0.7-8.9,2.3-17.9,4.6-26.6c2.4-8.7,5.5-17.2,9.4-25.3
			c7.8-16.2,18.4-30.9,31.3-43c12.8-12.2,27.7-22,43.8-28.9c8-3.4,16.3-6.2,24.7-8.1c8.4-1.9,17-3.1,25.5-3.6
			c8.6-0.4,17.1-0.2,25.5,0.8c8.6,1,17.2,3,25.3,5.8c16.4,5.6,31.3,14.8,43.6,26.3c12.3,11.5,22,25.5,28.5,40.6
			c6.5,15.1,9.8,31.4,9.9,47.4l0,3c0,1-0.1,2-0.1,3c-0.1,2-0.2,4-0.4,5.9c-0.2,2-0.4,3.9-0.7,6l-0.5,3l-0.6,3
			c-0.8,4-1.9,7.9-3.2,11.8c-1.3,3.8-2.8,7.6-4.6,11.2c-6.9,14.5-17.3,27-29.5,36.4c-6.1,4.7-12.7,8.7-19.6,11.8
			c-6.9,3.2-14.1,5.5-21.4,7c-7.3,1.5-14.7,2.2-22,2.1c-1.8,0-3.6-0.1-5.4-0.2c-1.8-0.1-3.6-0.3-5.4-0.5c-3.7-0.5-7.4-1.1-11-2.1
			c-7.2-1.8-14.1-4.7-20.4-8.3c-6.3-3.6-12.1-8-17.1-12.9c-10.2-9.9-17.4-22-21.6-34.8c-2.1-6.4-3.6-12.9-4-19.5
			c-0.2-3.3-0.3-6.5,0-9.7l0.2-2.4l0.3-2.4c0.1-0.8,0.2-1.6,0.3-2.4l0.5-2.4c1.2-6.5,3.7-12.6,6.5-18.3c0.8-1.4,1.6-2.8,2.3-4.1
			c0.4-0.7,0.8-1.3,1.3-2l1.3-1.9c1.7-2.6,3.8-4.9,5.8-7.2c1-1.1,2.2-2.1,3.2-3.2l1.6-1.5c0.5-0.5,1.1-0.9,1.7-1.4
			c1.2-0.9,2.3-1.8,3.5-2.7c1.2-0.9,2.4-1.6,3.6-2.4c2.4-1.6,5-2.8,7.5-4.1c1.3-0.6,2.6-1.1,3.9-1.6c1.3-0.5,2.6-1.1,3.9-1.4
			c10.5-3.4,21.2-4,30.9-2.4l0.9,0.1l0.9,0.2c0.6,0.1,1.2,0.3,1.9,0.4c0.6,0.1,1.2,0.3,1.9,0.4l0.9,0.2l0.9,0.3
			c1.2,0.4,2.4,0.8,3.6,1.2c0.6,0.2,1.2,0.4,1.7,0.7c0.6,0.2,1.1,0.5,1.7,0.7c2.3,0.9,4.3,2.2,6.4,3.4c1,0.6,1.9,1.3,2.9,2
			c0.9,0.7,1.9,1.3,2.8,2.1c7,5.8,12.2,12.9,15.3,20.2c3.1,7.3,4.4,14.8,4.3,21.6c0,0.8,0,1.7-0.1,2.5c0,0.8-0.2,1.6-0.3,2.5
			c-0.2,1.6-0.3,3.2-0.8,4.8c-0.2,0.8-0.4,1.6-0.5,2.3c-0.2,0.8-0.5,1.5-0.7,2.2c-0.2,0.7-0.5,1.5-0.7,2.2c-0.3,0.7-0.6,1.4-0.9,2
			c-2.4,5.4-5.7,9.6-9.1,12.9c-1.7,1.7-3.4,3-5.1,4.2c-1.7,1.1-3.3,2.2-4.9,2.9c-0.8,0.4-1.5,0.8-2.3,1.1c-0.8,0.3-1.5,0.6-2.2,0.8
			c-0.3,0.1-0.7,0.3-1,0.4c-0.3,0.1-0.7,0.2-1,0.3c-0.6,0.2-1.2,0.3-1.8,0.5c-1.1,0.3-2.2,0.5-3,0.6c-0.9,0.1-1.6,0.3-2.2,0.3
			c-1.2,0.1-1.8,0.1-1.8,0.1c-0.8,0-1.6,0.1-2.3,0.1c-0.8,0-1.5,0-2.3,0c-1.5,0-2.9-0.2-4.2-0.4c-1.3-0.1-2.7-0.5-4-0.8
			c-1.3-0.3-2.5-0.8-3.6-1.1c-4.5-1.7-7.8-4-10.2-6.1c-0.6-0.5-1.1-1-1.6-1.5c-0.5-0.5-1-0.9-1.4-1.4c-0.8-0.9-1.5-1.6-2-2.2
			c-1-1.3-1.5-1.8-1.7-1.7c-0.2,0.1,0.1,0.9,0.8,2.4c0.4,0.8,0.9,1.6,1.6,2.7c0.3,0.6,0.8,1.1,1.2,1.7c0.5,0.6,0.9,1.2,1.5,1.8
			c2.3,2.6,5.7,5.4,10.6,7.8c1.2,0.5,2.5,1.1,3.9,1.5c0.7,0.2,1.4,0.4,2.2,0.6c0.4,0.1,0.8,0.2,1.1,0.3c0.4,0.1,0.7,0.1,1.1,0.2
			c1.5,0.2,3,0.6,4.7,0.7c0.8,0.1,1.7,0.1,2.5,0.2C330.5,287.2,331.4,287.2,332.3,287.1z"/>
		<path id="XMLID_22_" d="M317.1,277.5c0,0,0.5,0.2,1.6,0.5c0.5,0.2,1.2,0.3,2,0.5c0.4,0.1,0.8,0.2,1.3,0.3c0.5,0.1,1,0.1,1.5,0.2
			c1.1,0.1,2.2,0.3,3.6,0.2c0.7,0,1.4,0,2.1,0c0.7,0,1.5-0.1,2.3-0.2c1.6-0.1,3.2-0.5,5-0.9c1.7-0.5,3.6-1,5.5-1.9
			c3.8-1.6,7.8-4.2,11.5-7.8c0.4-0.5,0.9-0.9,1.4-1.4c0.4-0.5,0.8-1,1.3-1.5c0.9-1,1.6-2.2,2.4-3.4c0.4-0.6,0.7-1.2,1.1-1.8
			c0.3-0.6,0.7-1.3,1-1.9c0.3-0.7,0.6-1.4,0.9-2.1c0.3-0.7,0.6-1.4,0.8-2.1c0.4-1.5,1-3,1.2-4.5c0.1-0.8,0.3-1.6,0.4-2.4
			c0.1-0.8,0.2-1.6,0.2-2.4c0.1-0.8,0.2-1.6,0.2-2.5c0-0.8,0-1.7,0-2.5c0.1-1.7-0.2-3.4-0.4-5.1c-0.8-6.9-3.5-14.1-8.1-20.6
			c-0.3-0.4-0.5-0.8-0.8-1.2l-1-1.2c-0.6-0.8-1.3-1.6-1.9-2.3c-1.5-1.4-2.8-3-4.5-4.3c-3.2-2.8-6.9-5-10.9-6.9
			c-1-0.4-2.1-0.9-3.1-1.3c-1.1-0.4-2.1-0.7-3.2-1l-1.6-0.5l-1.7-0.3c-1.1-0.2-2.3-0.5-3.4-0.6c-1.1-0.1-2.3-0.2-3.4-0.3
			c-1.1-0.1-2.3-0.2-3.5-0.2c-2.3,0-4.7,0-7.1,0.3c-1.2,0.1-2.4,0.2-3.6,0.4c-1.2,0.2-2.4,0.5-3.6,0.7l-1.8,0.4l-1.8,0.6
			c-1.2,0.4-2.4,0.8-3.6,1.1c-1.2,0.5-2.3,1-3.5,1.5l-1.7,0.8c-0.6,0.3-1.1,0.6-1.7,0.9c-1.1,0.6-2.2,1.2-3.4,1.8
			c-1.1,0.7-2.1,1.4-3.2,2.2c-0.5,0.4-1.1,0.7-1.6,1.1l-1.5,1.2c-1,0.8-2.1,1.7-3,2.6c-1.9,1.9-3.9,3.7-5.5,5.9l-1.3,1.6
			c-0.2,0.3-0.4,0.5-0.6,0.8l-0.6,0.8c-0.8,1.1-1.5,2.3-2.3,3.4c-0.7,1.2-1.3,2.4-2,3.6l-1,1.9c-0.3,0.6-0.6,1.3-0.8,1.9
			c-2.4,5.1-3.7,10.8-4.5,16.5c-0.7,5.7-0.7,11.5,0.1,17.4c0.8,5.8,2.3,11.7,4.6,17.3c2.3,5.6,5.2,11.1,8.8,16.1
			c7.2,10.1,17.3,18.6,29.1,24c3,1.3,6,2.5,9.2,3.5c1.6,0.5,3.2,0.9,4.8,1.3c1.6,0.3,3.2,0.7,4.9,0.9c6.6,1,13.1,1.3,19.8,0.9
			c13.4-0.9,26.8-4.9,38.8-11.8c6-3.5,11.7-7.7,16.9-12.5c5.1-4.9,9.7-10.4,13.7-16.4c3.9-6,7.1-12.6,9.6-19.6
			c2.4-6.9,3.9-14.3,4.6-21.6c1.4-14.6-0.1-29.7-4.7-44.1c-4.6-14.4-12.2-28-22.4-39.6c-10.2-11.6-23-21.2-37.5-27.8
			c-7.2-3.3-14.8-5.8-22.7-7.4c-2-0.4-3.9-0.8-5.9-1.1l-3-0.4c-1-0.2-2-0.2-3-0.3l-3-0.3c-1-0.1-2-0.2-3-0.2c-2-0.1-4-0.2-6-0.3
			c-16-0.3-32.2,2.2-47.5,7.6c-15.4,5.3-29.9,13.5-42.6,24.1c-12.7,10.6-23.6,23.5-31.8,38.1c-4.1,7.3-7.6,15-10.3,23
			c-2.7,8-4.7,16.2-5.9,24.6c-0.1,1-0.3,2.1-0.4,3.1l-0.3,3.1l-0.3,3.1c-0.1,1.1-0.2,2.1-0.2,3.2l-0.2,6.3c-0.1,2.1,0.1,4.2,0.1,6.4
			c0.3,8.5,1.2,17,3,25.3c1.8,8.3,4.3,16.5,7.5,24.4c3.2,7.9,7.1,15.5,11.5,22.8c4.4,7.3,9.3,14.2,14.7,20.8
			c5.3,6.6,11,12.9,17.1,18.7c6.1,5.9,12.4,11.5,19,16.7c6.6,5.2,13.5,10.2,20.5,14.8c14.1,9.3,29,17.3,44.3,24.2
			c14.7,6.6,29,14.2,42,23.4c13,9.2,24.7,20,34.1,32.5c4.7,6.2,8.8,12.9,12.2,19.9c3.4,7,6.1,14.3,8.2,21.8c2,7.5,3.4,15.2,4.2,23
			c0.4,3.9,0.6,7.8,0.8,11.7l0.1,5.9c0,2-0.1,3.9-0.1,5.9l-0.1,2.9l-0.2,2.9c-0.2,2-0.2,3.9-0.4,5.9l-0.6,5.9
			c-0.2,1.9-0.6,3.8-0.8,5.7c-1.3,7.6-3.2,15-5.8,22.2c-5.2,14.3-13.1,27.6-23,39c-9.9,11.4-21.9,20.8-35.1,27.8
			c-13.1,7-27.4,11.5-42,13.5c-7.3,0.9-14.6,1.2-21.8,0.8l-2.7-0.1c-0.9-0.1-1.8-0.2-2.7-0.3c-1.8-0.2-3.6-0.3-5.4-0.6
			c-1.8-0.3-3.5-0.5-5.3-0.9l-2.6-0.5c-0.9-0.2-1.7-0.4-2.6-0.6c-13.8-3.5-26.6-9.9-37.4-18.8c-10.8-8.8-19.6-19.8-25.7-32
			c-6.1-12.2-9.5-25.4-10.2-38.7c-0.3-6.6,0-13.3,1-19.6c1-6.4,2.8-12.5,5.3-18.3c5-11.6,12.9-21.7,22.5-29.4
			c9.6-7.7,20.8-12.9,32.4-15.2c5.8-1.2,11.7-1.7,17.5-1.5c2.9,0.1,5.8,0.3,8.6,0.7c2.8,0.4,5.5,1,8.2,1.8
			c10.7,3.1,20.2,9.2,27.3,17c1.8,1.9,3.4,4.1,5,6.2c1.5,2.2,2.9,4.4,4.1,6.7c2.4,4.6,4.1,9.5,5.2,14.4c1,4.9,1.5,9.9,1.4,14.9
			c-0.1,1.2-0.1,2.5-0.2,3.7l-0.2,1.8c-0.1,0.6-0.2,1.2-0.3,1.8c-0.2,1.2-0.3,2.3-0.6,3.5c-0.3,1.1-0.6,2.3-0.9,3.4
			c-0.1,0.3-0.1,0.6-0.2,0.8l-0.3,0.8l-0.6,1.6l-0.6,1.6c-0.2,0.5-0.5,1-0.7,1.6c-0.5,1-1,2.1-1.5,3.1c-0.6,1-1.2,2-1.8,2.9
			c-0.3,0.5-0.6,0.9-1,1.4l-1,1.4l-1,1.4c-0.4,0.4-0.8,0.8-1.1,1.3c-0.8,0.8-1.5,1.7-2.3,2.5c-0.8,0.8-1.7,1.5-2.5,2.2
			c-6.8,5.7-15.1,9.5-23.4,10.6l-1.6,0.2l-0.8,0.1c-0.3,0-0.5,0-0.8,0c-1,0.1-2.1,0.1-3.1,0.2c-1,0.1-2.1,0-3.1-0.1
			c-1-0.1-2.1-0.1-3.1-0.2c-4-0.4-7.8-1.5-11.3-3c-7.1-3.1-12.9-8.3-16.7-14.4c-0.5-0.8-0.9-1.5-1.4-2.3c-0.4-0.8-0.8-1.6-1.2-2.4
			c-0.2-0.4-0.4-0.8-0.6-1.2l-0.4-1.2c-0.3-0.8-0.6-1.6-0.9-2.5c-0.4-1.7-0.9-3.3-1.1-5c-0.1-0.8-0.3-1.7-0.4-2.5
			c0-0.8-0.1-1.7-0.1-2.5c0-0.4-0.1-0.8-0.1-1.2l0.1-1.2c0-0.8,0.1-1.6,0.1-2.4c0.1-0.8,0.2-1.6,0.3-2.3c0.1-0.4,0.1-0.8,0.2-1.2
			l0.3-1.1c0.2-0.7,0.3-1.5,0.6-2.2c0.3-0.7,0.5-1.4,0.8-2.1c0.3-0.7,0.6-1.3,0.9-2l0.5-1l0.6-0.9c2.9-5.1,7.2-8.9,11.7-11.4
			c4.5-2.5,9.3-3.7,13.7-3.9c0.6,0,1.1-0.1,1.6-0.1c0.5,0,1.1,0.1,1.6,0.1c0.5,0,1.1,0.1,1.6,0.1c0.5,0.1,1,0.1,1.5,0.2
			c2,0.3,3.8,0.9,5.5,1.5c3.3,1.3,6,3.2,8,5.1c2,1.9,3.4,3.8,4.4,5.4c0.2,0.4,0.5,0.8,0.7,1.1c0.2,0.4,0.3,0.7,0.5,1
			c0.3,0.6,0.6,1.2,0.7,1.6c0.3,0.9,0.5,1.4,0.5,1.4c0.2,0.6,0.3,1.2,0.5,1.8c0.2,0.6,0.3,1.2,0.4,1.8c0.1,0.6,0.2,1.2,0.3,1.8
			c0,0.6,0.1,1.2,0.1,1.7c0.1,1.1,0,2.2,0,3.3c0,0.5-0.1,1-0.2,1.5c-0.1,0.5-0.1,1-0.2,1.5c-0.8,3.8-2.5,6.7-4.1,8.8
			c-1.7,2.1-3.2,3.3-4.3,4.1c-1.1,0.8-1.7,1.1-1.6,1.2c0,0,0.2,0,0.5-0.2c0.3-0.2,0.8-0.3,1.3-0.7c1.1-0.7,2.9-1.8,4.8-3.8
			c1.9-2,3.9-4.9,5.1-8.9c0.2-0.5,0.3-1,0.4-1.6c0.1-0.5,0.3-1.1,0.3-1.6c0.1-1.1,0.3-2.3,0.3-3.5c0-0.6,0-1.2,0-1.9
			c-0.1-0.6-0.1-1.3-0.2-1.9c0-0.7-0.2-1.3-0.3-2c-0.2-0.7-0.2-1.4-0.5-2c0,0-0.2-0.5-0.5-1.5c-0.1-0.5-0.4-1.1-0.7-1.9
			c-0.2-0.4-0.3-0.8-0.5-1.2c-0.2-0.4-0.4-0.8-0.7-1.3c-0.9-1.9-2.4-4.1-4.6-6.4c-2.1-2.3-5-4.6-8.8-6.3c-1.9-0.8-4-1.6-6.2-2.1
			c-0.6-0.1-1.1-0.2-1.7-0.3c-0.6-0.1-1.2-0.1-1.8-0.2c-0.6-0.1-1.2-0.1-1.8-0.2c-0.6,0-1.2,0-1.9,0c-5.1,0-10.7,1.1-16.1,3.7
			c-5.4,2.7-10.7,6.9-14.5,12.8l-0.7,1.1l-0.6,1.2c-0.4,0.8-0.9,1.6-1.3,2.4c-0.4,0.8-0.7,1.7-1.1,2.5c-0.4,0.8-0.6,1.8-0.9,2.6
			l-0.4,1.4c-0.1,0.5-0.2,0.9-0.3,1.4c-0.2,0.9-0.4,1.9-0.5,2.8c-0.1,0.9-0.2,1.9-0.3,2.9l-0.1,1.4c0,0.5,0,1,0,1.5c0,1,0,2,0,3
			c0,1,0.2,2,0.3,3c0.1,2,0.7,4,1.1,6c0.2,1,0.6,2,0.9,3l0.5,1.5c0.2,0.5,0.4,1,0.6,1.5c0.4,1,0.8,2,1.3,3c0.5,1,1,1.9,1.6,2.9
			c4.3,7.6,11.1,14.4,19.8,18.7c4.3,2.1,9.1,3.7,14.1,4.5c1.2,0.2,2.5,0.3,3.7,0.4c1.2,0.1,2.5,0.3,3.8,0.2c1.3,0,2.5,0,3.8,0
			c0.3,0,0.6,0,1,0l1-0.1l1.9-0.2c10.3-1,20.7-5.2,29.6-11.9c1.1-0.9,2.2-1.8,3.2-2.7c1.1-0.9,2-2,3-3c0.5-0.5,1-1,1.5-1.5l1.4-1.7
			l1.4-1.7c0.5-0.6,0.9-1.1,1.3-1.7c0.8-1.2,1.6-2.4,2.4-3.6c0.8-1.2,1.4-2.6,2.1-3.9c0.3-0.7,0.7-1.3,1-2l0.9-2.1l0.9-2.1l0.4-1
			c0.1-0.3,0.2-0.7,0.3-1.1c0.4-1.4,0.9-2.9,1.3-4.3c0.4-1.5,0.6-3,0.9-4.5c0.1-0.7,0.3-1.5,0.4-2.3l0.2-2.2c0.2-1.5,0.2-3,0.3-4.5
			c0.2-6.1-0.4-12.2-1.8-18.3c-2.9-12.1-8.8-23.8-17.6-33.4c-8.8-9.6-20.4-17.1-33.5-20.9c-3.3-0.9-6.6-1.7-10-2.2
			c-3.4-0.5-6.7-0.7-10.2-0.9c-6.8-0.2-13.7,0.4-20.5,1.8c-13.6,2.8-26.9,8.9-38.1,17.9c-11.3,9-20.6,20.9-26.4,34.6
			c-2.9,6.8-5.1,14.1-6.3,21.5c-1.1,7.4-1.5,14.9-1.2,22.4c0.7,15.1,4.7,30.2,11.6,44.1c6.9,13.8,16.9,26.3,29.2,36.4
			c12.3,10.1,26.9,17.4,42.6,21.4c1,0.2,2,0.5,2.9,0.7l3,0.6c2,0.4,4,0.7,6,1c2,0.3,4,0.5,6,0.7c1,0.1,2,0.2,3,0.3l3,0.1
			c8,0.4,16.2,0.1,24.2-0.9c16.1-2.1,32-7.2,46.6-14.9c14.6-7.8,27.9-18.2,38.9-30.8c11-12.6,19.8-27.3,25.5-43.3
			c2.9-8,5-16.2,6.4-24.6c0.3-2.1,0.7-4.2,0.9-6.3l0.7-6.2c0.2-2.1,0.3-4.2,0.5-6.3l0.2-3.1c0.1-1,0.1-2.1,0.1-3.1
			c0-2.1,0.2-4.2,0.1-6.3l-0.1-6.3c-0.2-4.2-0.4-8.4-0.9-12.7c-0.9-8.4-2.4-16.9-4.6-25.1c-2.3-8.3-5.3-16.4-9.1-24.1
			c-3.8-7.8-8.3-15.1-13.5-22c-10.4-13.8-23.2-25.6-37.1-35.4c-13.9-9.8-28.9-17.9-44.3-24.7c-14.7-6.6-29-14.3-42.4-23.1
			c-6.7-4.4-13.2-9.1-19.5-14.1c-6.3-5-12.3-10.3-18-15.8c-5.7-5.5-11.1-11.4-16.1-17.6c-5-6.1-9.6-12.5-13.6-19.3
			c-4-6.7-7.6-13.7-10.5-20.9c-2.9-7.2-5.2-14.6-6.8-22.2c-1.7-7.5-2.5-15.2-2.7-22.9c0-1.9-0.1-3.8-0.1-5.8l0.2-5.8
			c0-1,0.1-1.9,0.2-2.9l0.3-2.9l0.3-2.9c0.1-1,0.3-1.9,0.4-2.8c1.1-7.6,2.9-15,5.3-22.2c2.4-7.2,5.6-14.1,9.3-20.7
			c7.4-13.1,17.2-24.8,28.7-34.3c11.4-9.5,24.5-16.9,38.4-21.7c13.8-4.8,28.4-7.1,42.8-6.8c1.8,0.1,3.6,0.2,5.4,0.2
			c0.9,0,1.8,0.1,2.7,0.2l2.7,0.3c0.9,0.1,1.8,0.1,2.7,0.3l2.6,0.4c1.8,0.2,3.5,0.6,5.2,1c6.9,1.5,13.6,3.6,19.9,6.5
			c12.7,5.8,23.9,14.2,32.9,24.4c9,10.2,15.7,22.2,19.7,34.8c4,12.6,5.3,25.9,4.1,38.7c-0.6,6.4-1.9,12.5-3.9,18.4
			c-2.1,5.9-4.8,11.5-8.1,16.6c-3.4,5.1-7.3,9.8-11.7,14c-4.4,4.1-9.2,7.7-14.3,10.7c-10.3,5.9-21.6,9.3-33,10.1
			c-5.6,0.4-11.4,0.1-16.8-0.7c-1.4-0.2-2.7-0.5-4-0.8c-1.3-0.4-2.6-0.6-3.9-1.1c-2.6-0.7-5.1-1.8-7.5-2.8
			c-9.7-4.4-17.9-11.3-23.8-19.6c-3-4.1-5.3-8.6-7.1-13.2c-1.7-4.6-2.9-9.4-3.5-14.1c-0.6-4.8-0.6-9.5-0.2-14.1c0.6-4.5,1.3-9,3-13
			c0.2-0.5,0.4-1,0.6-1.5l0.7-1.5c0.5-1,0.9-2,1.5-2.9c0.6-0.9,1.1-1.9,1.7-2.8l0.4-0.7c0.2-0.2,0.3-0.4,0.5-0.6l1-1.3
			c1.2-1.8,2.8-3.3,4.2-4.9c0.7-0.8,1.6-1.4,2.3-2.1l1.2-1.1c0.4-0.3,0.8-0.6,1.3-0.9c0.8-0.6,1.7-1.2,2.5-1.9
			c0.9-0.5,1.8-1.1,2.7-1.6l1.3-0.8l1.4-0.7c0.9-0.4,1.8-0.9,2.8-1.3c1-0.3,1.9-0.7,2.8-1l1.4-0.5l1.4-0.4c1-0.2,1.9-0.5,2.9-0.7
			c1-0.2,1.9-0.3,2.9-0.5c3.9-0.7,7.7-0.6,11.5-0.4c0.9,0.1,1.8,0.3,2.7,0.4l1.4,0.2l1.3,0.3c0.9,0.2,1.8,0.4,2.6,0.7
			c0.8,0.3,1.7,0.6,2.5,0.9c3.3,1.3,6.4,3,9,5.1c1.4,1,2.6,2.2,3.8,3.3c0.6,0.6,1.1,1.2,1.7,1.8l0.8,0.9c0.3,0.3,0.5,0.7,0.7,1
			c4,5.2,6.5,11,7.5,16.8c0.2,1.4,0.5,2.9,0.5,4.3c0,0.7,0.1,1.4,0.1,2.1c0,0.7,0,1.4-0.1,2.1c0,0.7-0.1,1.4-0.1,2.1
			c-0.1,0.7-0.2,1.3-0.3,2c-0.1,1.3-0.5,2.5-0.8,3.8c-0.1,0.6-0.4,1.2-0.6,1.8c-0.2,0.6-0.4,1.2-0.6,1.7c-0.3,0.6-0.5,1.1-0.8,1.6
			c-0.3,0.5-0.5,1.1-0.8,1.6c-0.6,1-1.2,2-1.9,2.9c-0.3,0.5-0.7,0.9-1,1.3c-0.3,0.4-0.7,0.8-1.1,1.2c-2.9,3.2-6.2,5.5-9.4,7.1
			c-1.6,0.8-3.2,1.4-4.7,1.9c-1.5,0.4-3,0.8-4.3,1c-0.7,0.1-1.3,0.2-2,0.3c-0.6,0-1.2,0.1-1.8,0.1c-1.2,0.1-2.2,0-3.1,0
			c-0.5,0-0.9,0-1.3-0.1c-0.4-0.1-0.8-0.1-1.1-0.2c-0.7-0.1-1.3-0.2-1.7-0.3c-0.9-0.2-1.4-0.3-1.4-0.3c-2.4-0.7-4.6-1.6-6.4-2.8
			c-1-0.5-1.8-1.2-2.6-1.8c-0.8-0.6-1.5-1.3-2.3-1.9c-2.7-2.7-4.5-5.4-5.6-7.8c-2.2-4.7-2.4-7.5-2.7-7.5c-0.1,0-0.2,0.7-0.2,2.1
			c0.1,1.4,0.4,3.4,1.2,6.1c0.9,2.6,2.4,5.9,5.2,9.1c0.7,0.8,1.5,1.6,2.3,2.4c0.9,0.7,1.8,1.6,2.8,2.3
			C312,275.3,314.4,276.5,317.1,277.5z"/>
		<path id="XMLID_21_" d="M301.4,244.7c0,0,0,0.5-0.1,1.4c-0.1,0.4,0,1.1,0,1.8c0,0.3,0,0.7,0,1.1c0,0.4,0.1,0.8,0.1,1.3
			c0.1,1.8,0.7,4.1,1.6,6.5c1,2.5,2.6,5.1,4.9,7.6c0.3,0.3,0.6,0.6,0.9,0.9c0.3,0.3,0.7,0.6,1,0.8c0.4,0.3,0.7,0.6,1.1,0.8
			c0.4,0.3,0.8,0.5,1.1,0.8c0.4,0.3,0.8,0.5,1.2,0.7c0.4,0.2,0.8,0.4,1.3,0.7c0.4,0.2,0.9,0.4,1.4,0.6l0.7,0.3l0.7,0.2
			c0.5,0.1,1,0.3,1.4,0.4c0.5,0.1,1,0.2,1.5,0.3c0.5,0.1,1,0.2,1.5,0.2c0.5,0,1,0.1,1.6,0.1c2.2,0,4.6-0.1,6.9-0.6
			c2.3-0.4,4.6-1.3,6.9-2.4c2.2-1.1,4.3-2.7,6.3-4.4c1.9-1.8,3.5-3.9,4.9-6.2c0.3-0.6,0.6-1.2,1-1.8c0.3-0.6,0.5-1.3,0.8-1.9
			l0.2-0.5l0.1-0.5l0.3-1l0.3-1l0.2-1c0.3-1.3,0.4-2.8,0.5-4.2c0-0.8,0-1.5,0-2.3c0-0.4,0-0.8,0-1.1l-0.1-1.1
			c-0.1-0.8-0.1-1.5-0.3-2.3c-0.2-0.7-0.3-1.5-0.5-2.3c-0.1-0.8-0.4-1.5-0.6-2.2c-0.3-0.7-0.4-1.5-0.8-2.2
			c-2.3-5.8-6.4-11.2-11.8-14.8c-2.7-1.8-5.7-3.3-8.9-4.1c-0.8-0.3-1.6-0.4-2.4-0.6l-1.2-0.2c-0.4-0.1-0.8-0.1-1.2-0.1l-1.2-0.1
			c-0.4-0.1-0.8-0.1-1.3-0.1c-0.9,0-1.8,0-2.7,0c-0.9-0.1-1.8,0.1-2.7,0.2l-1.4,0.1l-0.7,0.1c-0.2,0-0.4,0.1-0.7,0.1
			c-0.9,0.2-1.8,0.4-2.7,0.6c-0.5,0.1-0.9,0.2-1.3,0.4l-1.3,0.4l-1.3,0.4c-0.4,0.1-0.9,0.4-1.3,0.5c-0.8,0.4-1.7,0.7-2.5,1.1
			c-1.6,0.9-3.3,1.7-4.8,2.8c-1.6,1-3,2.3-4.4,3.4c-0.7,0.7-1.3,1.3-2,2L291,225l-0.4,0.6l-0.9,1.1c-2.3,2.9-4.4,6.1-5.6,9.7
			c-0.4,0.8-0.6,1.8-0.9,2.7c-0.3,0.9-0.6,1.8-0.7,2.7c-0.2,0.9-0.4,1.8-0.5,2.8c-0.1,1-0.2,1.9-0.3,2.8c0,0.2-0.1,0.5-0.1,0.7
			l0,0.8l-0.1,1.6c0,1,0,2.1,0,3.1c0,1,0,2.1,0.1,3.1c0,1,0.2,2.1,0.2,3.1c0.2,2.1,0.5,4.2,1,6.3c0.4,2.1,1.1,4.2,1.8,6.2
			c0.8,2,1.7,4,2.8,6c1.1,1.9,2.3,3.8,3.7,5.6c5.4,7.1,13,12.9,21.7,16.1c2.2,0.9,4.4,1.5,6.7,2c2.3,0.5,4.6,0.8,7.3,1
			c5.1,0.5,10.3,0.2,15.4-0.5c5.1-0.8,10.2-2.2,15.1-4.2c2.5-1,4.8-2.2,7.2-3.5c2.3-1.4,4.6-2.8,6.8-4.4
			c8.7-6.4,15.9-15.2,20.6-25.2c2.3-5,4-10.4,5-16l0.3-2.1c0.1-0.7,0.2-1.4,0.3-2.2c0.1-1.5,0.3-3,0.4-4.5c0.2-3,0.2-6,0.1-9
			c-0.5-12.1-3.6-24.2-9.1-35.3c-5.6-11.1-13.7-21.1-23.6-29c-10-7.9-21.7-13.6-34.3-16.5c-1.6-0.3-3.2-0.7-4.8-0.9l-2.4-0.4
			c-0.8-0.1-1.6-0.3-2.5-0.3c-1.7-0.2-3.4-0.3-5.1-0.5c-1.7-0.1-3.4-0.2-5.1-0.2c-6.8-0.2-13.6,0.3-20.4,1.3
			c-13.5,2.1-26.8,6.8-38.8,13.8c-12.1,7-22.9,16.3-31.7,27.3c-8.8,11-15.5,23.8-19.6,37.5c-2.1,6.8-3.5,13.9-4.2,21.1
			c-0.9,7.2-0.9,14.5-0.4,21.7l0.2,2.7l0.1,1.4c0,0.4,0.1,0.9,0.2,1.3l0.7,5.4l1.1,5.3l0.3,1.3l0.3,1.3l0.7,2.6
			c1.9,7,4.4,14,7.5,20.7c3.2,6.7,6.9,13.2,11.1,19.5c1.1,1.6,2.1,3.1,3.2,4.7l3.4,4.6l3.6,4.5c1.2,1.5,2.5,2.9,3.8,4.4
			c5.1,5.8,10.6,11.3,16.4,16.5c5.8,5.2,12,10.2,18.3,14.8c6.4,4.7,13,9.1,19.8,13.2c6.8,4.1,13.8,8,20.9,11.5l5.4,2.6l5.4,2.5
			l6,2.7c2,0.9,4,1.9,6.1,2.9c8,4,16,8.3,23.7,13.1c15.5,9.6,30.2,21.3,42.7,35.5c6.2,7.1,11.9,14.8,16.8,23
			c4.9,8.2,8.9,16.9,12.1,25.9c3.2,9,5.4,18.1,6.9,27.3c1.5,9.2,2.1,18.4,2.2,27.5c0.1,9.1-0.4,18.1-1.5,27
			c-0.1,1.1-0.2,2.2-0.4,3.4l-0.5,3.5l-0.5,3.5l-0.7,3.4l-0.7,3.4c-0.2,1.1-0.6,2.3-0.8,3.4c-0.6,2.3-1.1,4.5-1.9,6.8
			c-5.4,17.9-14.3,34.7-25.8,49.2c-11.5,14.5-25.7,26.7-41.5,35.8c-15.8,9.2-33.2,15.3-51,18.1c-8.9,1.4-17.9,2-26.8,1.8
			c-2.2-0.1-4.4-0.2-6.7-0.3c-2.2-0.2-4.4-0.4-6.6-0.6c-1.1-0.1-2.2-0.3-3.4-0.4l-3.4-0.5c-2.2-0.4-4.5-0.9-6.7-1.3
			c-17.7-4.1-34.4-12.2-48.3-23.2c-13.9-11.1-25.3-25.1-33.1-40.7c-7.8-15.6-12.2-32.6-12.9-49.6c-0.2-4.2-0.1-8.5,0.1-12.7
			c0.1-2.1,0.4-4.2,0.6-6.3c0.1-1,0.3-2.1,0.4-3.2l0.5-3.2c1.6-8.5,4.1-16.8,7.7-24.6c7.2-15.5,18.2-28.9,31.5-38.7
			c3.3-2.5,6.8-4.7,10.3-6.7c3.6-2,7.2-3.8,11-5.4c7.5-3.2,15.3-5.3,23.2-6.5c7.9-1.2,15.9-1.5,23.7-0.8c3.8,0.3,7.9,0.9,11.9,1.7
			c3.9,0.9,7.8,2,11.6,3.4c15.1,5.6,28,15.5,37.3,27.7c2.3,3,4.4,6.2,6.3,9.5c1.8,3.3,3.6,6.7,5,10.1c2.9,6.9,4.9,14.1,5.9,21.4
			c0.2,1.8,0.4,3.6,0.5,5.5c0.1,1.8,0.1,3.6,0.1,5.5c0,1.8-0.2,3.6-0.3,5.4l-0.3,2.7l-0.2,1.3c-0.1,0.4-0.2,0.9-0.3,1.4
			c-0.4,1.8-0.7,3.7-1.2,5.5c-0.5,1.8-1.1,3.6-1.7,5.3c-0.5,1.8-1.3,3.4-2,5.1c-0.7,1.7-1.4,3.3-2.4,4.9c-3.4,6.4-7.8,12-12.8,16.9
			l-1.9,1.8l-0.9,0.9l-1,0.8c-1.3,1.1-2.7,2.1-4,3.1c-2.8,1.9-5.6,3.8-8.6,5.2c-2.9,1.6-6,2.7-9,3.9c-1.5,0.5-3.1,0.9-4.6,1.4
			c-0.8,0.2-1.5,0.5-2.3,0.6l-2.3,0.4l-2.3,0.4c-0.8,0.1-1.5,0.3-2.3,0.3c-1.6,0.1-3.1,0.3-4.7,0.4c-0.4,0-0.8,0.1-1.2,0.1l-1.2,0
			c-0.8,0-1.5,0-2.3,0c-1.5-0.1-3,0-4.5-0.2c-1.5-0.2-3-0.4-4.5-0.5c-0.7-0.1-1.5-0.2-2.2-0.4c-0.8-0.2-1.5-0.3-2.3-0.5
			c-0.7-0.2-1.5-0.3-2.2-0.5c-0.7-0.2-1.5-0.5-2.2-0.7c-1.4-0.5-2.9-0.9-4.3-1.6c-5.6-2.3-10.6-5.5-14.8-9.3
			c-8.6-7.5-14.1-17.3-16.6-27.1c-0.4-1.2-0.5-2.5-0.8-3.7c-0.2-1.2-0.5-2.4-0.5-3.7c-0.1-1.2-0.2-2.4-0.3-3.7c0-1.2,0-2.4,0-3.6
			c0-0.6,0-1.2,0.1-1.8c0.1-0.6,0.1-1.2,0.2-1.8c0.1-1.2,0.3-2.3,0.4-3.5c0.5-2.3,1-4.7,1.8-6.9c0.2-0.5,0.4-1.1,0.6-1.6
			c0.2-0.5,0.5-1.1,0.7-1.6c0.2-0.5,0.5-1,0.7-1.6l0.4-0.8l0.4-0.7c0.6-1,1.1-1.9,1.7-2.9c0.6-0.9,1.3-1.8,1.9-2.7
			c2.7-3.4,5.7-6.3,9-8.7c3.3-2.3,6.7-4.1,10.3-5.3c3.5-1.2,7-2,10.4-2.1c3.4-0.3,6.7,0,9.7,0.5c0.8,0.1,1.6,0.3,2.3,0.5
			c0.8,0.2,1.5,0.4,2.2,0.6c0.7,0.2,1.4,0.5,2.1,0.7c0.7,0.3,1.4,0.6,2,0.9c0.3,0.2,0.7,0.3,1,0.5c0.3,0.2,0.6,0.4,0.9,0.5
			c0.6,0.4,1.2,0.7,1.8,1.1c0.6,0.4,1.1,0.8,1.6,1.2c0.5,0.4,1.1,0.8,1.5,1.2c0.5,0.4,1,0.9,1.4,1.3c0.5,0.4,0.9,0.9,1.3,1.3
			c0.4,0.5,0.8,0.9,1.2,1.3c0.4,0.5,0.7,0.9,1.1,1.4c2.7,3.7,4.2,7.5,5.1,10.8c0.8,3.3,1,6.2,0.9,8.4c0,0.6,0,1.1-0.1,1.6
			c-0.1,0.5-0.1,0.9-0.2,1.4c-0.1,0.8-0.2,1.5-0.4,2.1c-0.3,1.1-0.4,1.7-0.4,1.7c-0.8,2.9-2.1,5.4-3.6,7.4c-0.7,1.1-1.6,2-2.4,2.8
			c-0.9,0.8-1.7,1.6-2.6,2.2c-3.5,2.6-6.9,3.7-9.6,4.2c-1.4,0.3-2.6,0.3-3.6,0.3c-1,0-1.9-0.1-2.6-0.2c-1.2-0.2-1.7-0.3-2-0.3
			c0.3,0.1,0.8,0.2,2,0.4c0.7,0.1,1.5,0.2,2.6,0.3c1,0,2.3,0,3.7-0.2c2.8-0.3,6.4-1.2,10.2-3.7c1-0.6,1.9-1.4,2.8-2.2
			c0.9-0.9,1.8-1.8,2.7-2.9c1.7-2.1,3.3-4.7,4.3-7.8c0,0,0.2-0.6,0.5-1.8c0.2-0.6,0.3-1.3,0.5-2.3c0.1-0.5,0.2-0.9,0.3-1.5
			c0.1-0.5,0.1-1.1,0.2-1.7c0.3-2.4,0.1-5.5-0.6-9.2c-0.8-3.6-2.3-7.8-5.1-12c-0.4-0.5-0.7-1-1.1-1.6c-0.4-0.5-0.8-1-1.3-1.5
			c-0.4-0.5-0.9-1.1-1.4-1.5c-0.5-0.5-1-1-1.5-1.5c-0.5-0.5-1.1-1-1.7-1.4c-0.6-0.5-1.2-0.9-1.8-1.4c-0.6-0.4-1.3-0.8-2-1.3
			c-0.3-0.2-0.7-0.4-1-0.6c-0.4-0.2-0.7-0.4-1.1-0.6c-0.7-0.4-1.5-0.7-2.2-1.1c-0.8-0.3-1.6-0.6-2.4-0.9c-0.8-0.3-1.6-0.6-2.5-0.8
			c-0.8-0.2-1.7-0.5-2.6-0.6c-3.4-0.6-7-1.1-10.8-0.9c-3.8,0.1-7.8,0.8-11.8,2c-4,1.2-8,3.2-11.8,5.6c-3.8,2.5-7.4,5.8-10.6,9.6
			c-3.2,3.8-5.8,8.4-7.7,13.5c-1,2.5-1.7,5.2-2.3,7.9c-0.2,1.3-0.4,2.6-0.6,3.9c-0.1,0.7-0.2,1.3-0.3,2c0,0.7-0.1,1.4-0.1,2
			c-0.1,1.4-0.2,2.7-0.2,4.1c0.1,1.4,0.1,2.8,0.2,4.2c0,1.4,0.3,2.8,0.5,4.2c0.2,1.4,0.4,2.9,0.8,4.3c2.5,11.4,8.7,22.9,18.5,31.9
			c4.9,4.5,10.6,8.5,17.2,11.3c1.6,0.8,3.3,1.4,5,2c0.9,0.3,1.7,0.6,2.6,0.9c0.9,0.3,1.7,0.5,2.6,0.7c0.9,0.2,1.8,0.4,2.7,0.6
			l1.3,0.3c0.4,0.1,0.8,0.1,1.3,0.2c1.7,0.3,3.4,0.5,5.1,0.8c1.7,0.3,3.5,0.3,5.3,0.4c0.9,0,1.8,0.1,2.7,0.1l1.3,0
			c0.4,0,0.9,0,1.3,0c1.8-0.1,3.6-0.2,5.4-0.3c0.9,0,1.8-0.2,2.7-0.3c0.9-0.1,1.8-0.3,2.7-0.4c0.9-0.2,1.8-0.3,2.7-0.5
			c0.9-0.1,1.8-0.4,2.7-0.6c1.8-0.5,3.6-0.9,5.5-1.5c3.6-1.3,7.2-2.5,10.6-4.3c3.5-1.6,6.8-3.7,10.2-5.9c1.6-1.2,3.2-2.4,4.8-3.6
			l1.2-0.9l1.1-1l2.3-2.1c5.9-5.6,11.4-12.1,15.5-19.6c1.1-1.8,2-3.8,3-5.8c0.9-2,1.9-4,2.5-6c0.7-2.1,1.5-4.2,2.1-6.3
			c0.5-2.1,1-4.3,1.5-6.5c0.1-0.5,0.2-1.1,0.3-1.6l0.2-1.5c0.1-1,0.3-2.1,0.4-3.1c0.1-1,0.2-2.1,0.2-3.1c0.1-1,0.2-2.1,0.1-3.1
			c0-2.1,0-4.2-0.1-6.3c-0.1-2.1-0.3-4.2-0.6-6.4c-1.2-8.5-3.6-16.9-7-24.9c-1.7-4-3.7-7.9-5.8-11.7c-2.2-3.8-4.6-7.5-7.3-11
			c-10.8-14.1-25.8-25.6-43.3-32.1c-4.4-1.7-8.9-2.9-13.4-4l-3.4-0.7c-1.2-0.2-2.3-0.4-3.5-0.6l-1.7-0.3c-0.6-0.1-1.1-0.1-1.7-0.2
			l-3.3-0.3c-8.8-0.8-17.9-0.4-26.8,1c-9,1.4-17.9,3.8-26.4,7.4c-4.3,1.7-8.4,3.8-12.5,6.1c-4,2.3-8,4.8-11.7,7.6
			c-15.1,11.1-27.6,26.3-35.8,43.9c-4.1,8.8-7,18.2-8.8,27.9c-0.2,1.2-0.4,2.4-0.6,3.6c-0.2,1.2-0.4,2.4-0.5,3.6
			c-0.2,2.3-0.5,4.6-0.6,7c-0.3,4.7-0.4,9.4-0.2,14.1c0.8,18.9,5.6,37.9,14.3,55.1c8.7,17.3,21.3,32.8,36.8,45.2
			c15.5,12.3,34,21.3,53.7,25.8c2.5,0.5,4.9,1,7.4,1.5l3.7,0.6c1.2,0.2,2.5,0.4,3.7,0.5c2.4,0.2,4.8,0.5,7.2,0.7
			c2.4,0.1,4.8,0.2,7.3,0.3c9.7,0.2,19.5-0.4,29.2-1.9c19.4-3,38.4-9.7,55.7-19.7c17.2-10,32.7-23.2,45.3-39.1
			c12.6-15.8,22.3-34.1,28.2-53.7c0.8-2.4,1.4-4.9,2-7.4c0.3-1.2,0.6-2.5,0.9-3.7l0.8-3.8l0.8-3.8l0.6-3.8l0.6-3.8
			c0.2-1.3,0.3-2.4,0.4-3.6c1.1-9.3,1.6-18.9,1.5-28.6c-0.1-9.7-0.8-19.6-2.4-29.6c-1.6-9.9-4.1-19.9-7.5-29.7
			c-3.4-9.8-7.9-19.3-13.2-28.2c-5.3-9-11.5-17.4-18.2-25.1c-13.6-15.4-29.4-27.9-45.7-38.1c-8.2-5.1-16.5-9.6-24.9-13.8
			c-2.1-1-4.2-2.1-6.3-3l-6.2-2.8l-5.2-2.4l-5.1-2.5c-6.8-3.4-13.5-7.1-20-11c-6.5-3.9-12.8-8.1-18.8-12.5c-6-4.4-11.8-9.1-17.3-14
			c-5.4-4.9-10.6-10.1-15.3-15.4c-1.2-1.4-2.4-2.7-3.5-4l-3.3-4.1l-3.1-4.2c-1.1-1.4-2-2.9-3-4.3c-3.8-5.7-7.2-11.6-10-17.7
			c-2.8-6-5-12.2-6.7-18.4l-0.6-2.3l-0.3-1.2l-0.2-1.2l-0.9-4.7l-0.7-4.8c-0.1-0.4-0.1-0.8-0.2-1.2l-0.1-1.2l-0.2-2.4
			c-0.4-6.4-0.5-12.8,0.3-19.3c0.7-6.4,1.9-12.6,3.7-18.6c3.6-12,9.5-23.2,17.3-32.9c7.7-9.7,17.3-17.9,27.9-24.1
			c10.6-6.2,22.3-10.3,34.2-12.1c5.9-0.9,12-1.3,17.9-1.2c1.5,0.1,3,0.1,4.5,0.2c1.5,0.1,3,0.3,4.5,0.4c0.8,0.1,1.4,0.2,2.1,0.3
			l2,0.3c1.4,0.2,2.7,0.5,4,0.8c10.7,2.5,20.6,7.3,29,13.9c8.4,6.7,15.2,15.1,19.9,24.5c4.7,9.4,7.3,19.6,7.7,29.7
			c0.1,2.5,0.1,5.1-0.1,7.6c0,1.3-0.2,2.5-0.3,3.8c0,0.7-0.1,1.2-0.2,1.8l-0.2,1.7c-0.8,4.4-2.1,8.7-4,12.7c-3.7,8-9.4,15-16.4,20.1
			c-1.7,1.3-3.5,2.4-5.4,3.5c-1.9,1-3.7,2-5.7,2.8c-3.9,1.6-7.9,2.8-12,3.4c-4.1,0.6-8.2,0.8-12.3,0.4l-1.5-0.2
			c-0.2,0-0.5,0-0.8-0.1l-0.6-0.1c-0.4-0.1-0.9-0.1-1.3-0.2l-1.3-0.3c-1.7-0.4-3.3-0.8-4.9-1.4c-6.3-2.4-11.8-6.5-15.7-11.7
			c-1-1.3-1.9-2.7-2.7-4c-0.8-1.4-1.5-2.8-2-4.3c-0.5-1.5-0.9-3-1.1-4.5c-0.3-1.5-0.4-3-0.6-4.5c0-0.8-0.1-1.5-0.1-2.2
			c-0.1-0.7-0.1-1.5-0.1-2.2c0-0.8-0.1-1.5-0.1-2.3l0-1.1c0-0.2,0-0.4,0-0.6c0-0.2,0-0.3,0-0.5c0-0.6,0-1.2-0.1-1.8
			c0-0.6,0.1-1.2,0.1-1.8c0-0.6,0.1-1.2,0.2-1.8c0.1-0.6,0.1-1.2,0.3-1.8c0.5-2.4,1.6-4.7,2.9-6.9l0.5-0.8l0.2-0.4l0.3-0.4
			c0.4-0.5,0.8-1,1.2-1.6c0.9-0.9,1.8-2,2.8-2.8c1-1,2.1-1.6,3.2-2.4c0.6-0.3,1.2-0.6,1.7-1c0.3-0.2,0.6-0.4,0.9-0.5l0.9-0.4
			l0.9-0.4c0.3-0.1,0.6-0.3,0.9-0.4c0.6-0.2,1.3-0.4,1.9-0.6c0.2-0.1,0.3-0.1,0.5-0.2l0.5-0.1l1-0.2c0.7-0.1,1.3-0.4,2-0.4
			c0.7-0.1,1.4-0.1,2.1-0.2c0.2,0,0.4-0.1,0.5-0.1l0.4,0l0.9,0c0.3,0,0.6-0.1,0.9,0l0.8,0.1c0.6,0,1.2,0,1.7,0.2
			c2.3,0.3,4.5,1,6.6,2.1c4.3,2.1,7.8,5.8,10,10c0.4,0.5,0.5,1.1,0.8,1.6c0.2,0.6,0.5,1.1,0.7,1.7c0.2,0.6,0.4,1.2,0.6,1.7
			c0.1,0.6,0.2,1.2,0.4,1.8l0.2,0.9c0,0.3,0.1,0.6,0.1,0.9c0.1,0.6,0.1,1.2,0.2,1.8c0,1.1,0.1,2.1,0,3.2c-0.3,4.2-2.2,8.1-4.9,11.4
			c-1.4,1.5-3,3-4.7,4c-1.7,1.1-3.6,2-5.5,2.5c-1.9,0.6-3.9,0.9-5.8,1c-0.5,0-0.9,0-1.3,0c-0.4,0-0.9,0-1.3-0.1
			c-0.4,0-0.9-0.1-1.3-0.1c-0.4-0.1-0.8-0.2-1.2-0.3l-0.6-0.1l-0.6-0.2c-0.4-0.1-0.8-0.2-1.2-0.4c-0.4-0.2-0.7-0.3-1.1-0.5
			c-0.4-0.1-0.7-0.3-1.1-0.5c-0.4-0.2-0.7-0.4-1-0.6c-0.3-0.2-0.6-0.4-1-0.6c-0.3-0.2-0.7-0.4-0.9-0.7c-0.3-0.2-0.6-0.5-0.9-0.7
			c-2.3-1.9-3.8-4.2-4.9-6.3c-1-2.1-1.7-4.2-1.9-5.8c-0.1-0.4-0.1-0.8-0.2-1.2c0-0.4-0.1-0.7-0.1-1c0-0.6-0.1-1.2-0.1-1.6
			c0-0.8,0-1.3,0-1.3c0.1-2.2,0.7-4.3,1.5-6.1c0.4-0.9,0.9-1.8,1.4-2.6c0.6-0.8,1.1-1.6,1.7-2.2c2.4-2.8,5.2-4.4,7.6-5.4
			c1.2-0.5,2.3-0.8,3.3-1c1-0.2,1.8-0.3,2.5-0.4c1.2-0.1,1.8-0.1,2-0.1c-0.3,0-0.8,0-2,0c-0.7,0-1.5,0.2-2.5,0.3
			c-1,0.2-2.1,0.4-3.3,0.8c-2.5,0.8-5.4,2.3-8.1,5c-0.7,0.6-1.3,1.4-2,2.2c-0.6,0.8-1.2,1.7-1.7,2.7
			C302.5,240.1,301.7,242.3,301.4,244.7z"/>
	</g>
</g>
</svg>
