<?xml version="1.0" encoding="utf-8"?>
<!-- Generator: Adobe Illustrator 19.0.0, SVG Export Plug-In . SVG Version: 6.00 Build 0)  -->
<svg version="1.1" xmlns="http://www.w3.org/2000/svg" xmlns:xlink="http://www.w3.org/1999/xlink" x="0px" y="0px"
	 viewBox="0 0 595.3 841.9" style="enable-background:new 0 0 595.3 841.9;" xml:space="preserve">
<style type="text/css">
	.st0{fill:none;stroke:#683C11;stroke-miterlimit:10;}
	.st1{opacity:0.8;}
	.st2{fill:#432918;}
	.st3{fill:none;}
</style>
<g id="Layer_1">
	<g id="XMLID_2_">
		<g id="XMLID_100_">
			<path id="XMLID_104_" class="st0" d="M217.1,389.6"/>
		</g>
	</g>
	<g id="XMLID_53_">
		<g id="XMLID_94_">
			<path id="XMLID_98_" class="st0" d="M231,497.8"/>
		</g>
	</g>
	<g id="XMLID_51_">
		<g id="XMLID_72_">
			<path id="XMLID_92_" class="st0" d="M385,878"/>
		</g>
	</g>
	<g id="XMLID_5_">
		<g id="XMLID_8_" class="st1">
			<path id="XMLID_40_" class="st2" d="M326.7,844.3c-0.8-2.4-1.2-4.6-1.5-6.9c-0.1-1.2-0.2-2.4-0.3-3.6c0-1.3-0.1-2.7-0.1-4.2
				c0-2.9,0.1-6.2-0.1-9.7c-0.1-1.8-0.2-3.6-0.4-5.4l-0.5-4.4c-0.3-2.8-0.5-5.6-0.6-8.2c0-1.3,0-2.6,0-3.9l0-1l0.1-0.8
				c0.1-0.6,0.1-1.2,0.2-1.8c0.3-2.6,0.9-5.7,1.3-9.3c0.2-1.8,0.4-3.7,0.3-6c0-2.6-0.4-4.7-0.8-6.7c-0.8-3.8-1.7-6.8-2.2-9l-0.8-4.3
				c-0.3-1.5-0.5-2.8-0.6-3.8c-0.1-1.1-0.2-2-0.2-2.8l0-0.3l0-0.5l0.1-1l0.2-2c0.3-2.7,0.7-5.4,1.2-8.2l0.8-4.5
				c0.3-1.5,0.5-3,0.8-4.3c0.3-1.3,0.5-2.5,0.9-3.7c0.2-0.6,0.3-1.2,0.5-1.8l0.7-2l5.9-17.5c2-6,4-12.5,5.2-19.5
				c0.2-0.9,0.3-1.8,0.4-2.6l0.3-2.3l0.6-4.6l1.2-9.2c0.2-1.3,0.5-3.5,0.5-5.6c0.1-2.1,0-4.4-0.3-6.4c-0.2-2-0.5-3.6-0.7-5l-0.3-2
				c-0.1-0.6-0.1-1.2-0.2-1.8c-0.2-2.6-0.3-5.7-0.7-9.4c-0.1-0.9-0.2-1.9-0.4-2.9c-0.2-1-0.4-2.1-0.6-3c-0.4-2-1-3.7-1.4-5.1
				c-0.4-1.5-0.8-2.7-1-3.7c-0.1-0.5-0.2-1-0.3-1.4c0-0.2-0.1-0.4-0.1-0.6l-0.1-0.9c-0.3-3.3-0.6-6.6-1-9.8c-0.9-6.4-2-12.6-3-18.6
				l-0.7-4.4l-0.3-2.2l-0.1-0.5l-0.1-0.5l-0.1-0.9c-0.3-2.4-0.4-5-0.4-7.7c0-5.4,0.6-11.4,1-17.9c0.1-1.1,0-2.1-0.1-3.2
				c-0.1-1-0.2-1.9-0.4-2.6l-0.2-1.3c0,0,0,0,0,0l0,0h0c0,0,0,0.1,0,0l0.1-0.7l0.2-1c0.1-0.4,0.2-0.8,0.3-1.4
				c0.2-1.1,0.3-2.3,0.3-3.5l0-1.4l-0.1-1.2c-0.1-0.8-0.1-1.5-0.2-2.2c-0.2-1.4-0.4-2.8-0.6-4c-0.5-2.5-1-4.8-1.4-6.7l-0.7-3.4
				c-0.3-1.2-0.5-2.4-0.8-3.6c-0.6-2.4-1.3-4.8-2.1-7.2l-0.5-1.4c-0.1-0.3-0.2-0.7-0.3-1.1l-0.8-3.1c-0.3-1.2-0.7-2.7-1.3-4.3
				c-0.5-1.6-1.3-3.3-2.2-4.8c-2-3.5-3.9-7.3-5.8-11.3c-3.8-7.9-7.8-16.4-13.5-24.9c-0.7-1.1-1.4-2.1-2.2-3.1l-1.2-1.6l-1.3-1.5
				l-1.3-1.5l-1.4-1.5c-0.5-0.5-0.9-1-1.4-1.4l-1.3-1.3c-1.7-1.7-3.3-3.2-4.6-4.5c-1.3-1.3-2.3-2.4-3.2-3.7
				c-0.5-0.7-1.1-1.4-1.7-2.1c-0.6-0.7-1.3-1.3-1.8-1.8c-1.2-1.1-2.3-1.8-3-2.4c-0.8-0.6-1.3-0.9-1.5-1.1c-0.2-0.2-0.2-0.1-0.3-0.3
				c-0.3-0.3-12.4-10.7-13.5-11.5c-1.1-0.9-1.1,2.7-1.6,3.1c-0.5,0.3,0.4-0.6,0.7,0.7c0.2,1.3,9.8,9.9,10.5,10.8
				c0.3,0.4,0.5,0.6,1,1c0.4,0.3,1,0.8,1.8,1.3c0.8,0.5,1.7,1.2,2.6,2c1,0.8,2,1.9,2.8,3c1.1,1.5,2.3,2.9,3.7,4.3
				c1.4,1.4,3,2.9,4.7,4.5c0.8,0.8,1.7,1.7,2.5,2.6l1.3,1.4l1.2,1.4l1.2,1.4l1.1,1.5c0.8,1,1.4,2,2.1,2.9c5.4,8,9.3,16.3,13.1,24.3
				c1.9,4,3.9,7.8,5.9,11.5c0.7,1.2,1.4,2.7,1.8,4c0.5,1.4,0.8,2.6,1.1,3.8l0.8,3.1c0.1,0.5,0.3,0.9,0.4,1.3l0.5,1.5
				c0.7,2.3,1.4,4.5,2,6.8c0.3,1.1,0.6,2.3,0.8,3.4l0.7,3.3c0.4,2,1,4.3,1.4,6.6c0.2,1.2,0.4,2.4,0.6,3.7c0.1,0.6,0.1,1.3,0.2,2
				l0.1,1l0,1.2c0,0.9-0.1,1.8-0.2,2.7c-0.2,0.9-0.3,1.5-0.4,2.1l-0.2,0.7l-0.1,0.4c0,0.2-0.1,0.5-0.1,0.8c0,0.2,0,0.5,0.1,0.7
				l0.2,1.4c0.2,1.2,0.5,3,0.3,4.7c-0.3,6.3-0.9,12.3-1,18.1c0,2.9,0.1,5.7,0.4,8.4c0.2,1.3,0.4,2.8,0.6,4.3l0.7,4.5
				c1,6,2.1,12.1,3,18.4c0.4,3.1,0.8,6.3,1,9.5l0.1,1c0,0.3,0.1,0.6,0.1,0.8c0.1,0.6,0.2,1.2,0.3,1.8c0.3,1.2,0.6,2.5,1.1,4
				c0.4,1.5,0.9,3.1,1.3,4.8c0.4,1.8,0.7,3.6,0.8,5.3c0.3,3.4,0.4,6.5,0.7,9.3c0.2,2.7,0.8,5.4,1.2,8.9c0.2,1.8,0.3,3.7,0.2,5.6
				c-0.1,1.9-0.3,3.7-0.5,5.1l-1.2,9.2l-0.6,4.6l-0.3,2.3c-0.1,0.8-0.2,1.7-0.4,2.5c-1.1,6.6-3,12.8-5,18.7l-5.9,17.5l-0.7,2.1
				c-0.2,0.7-0.4,1.3-0.6,2c-0.4,1.3-0.7,2.6-1,4c-0.3,1.4-0.5,2.9-0.8,4.4l-0.8,4.5c-0.5,2.9-1,5.7-1.2,8.6
				c-0.1,0.7-0.1,1.4-0.2,2.1l-0.1,1.1l0,0.5l0,0.4c0,1.1,0,2.3,0.2,3.6c0.2,1.3,0.4,2.7,0.7,4.1l0.8,4.4c0.5,2.6,1.5,5.6,2.2,9
				c0.3,1.7,0.6,3.6,0.7,5.7c0,2-0.1,3.7-0.3,5.4c-0.4,3.4-0.9,6.4-1.3,9.2c-0.1,0.7-0.2,1.4-0.2,2l-0.1,1l-0.1,1
				c-0.1,1.4-0.1,2.8,0,4.2c0.1,2.8,0.3,5.7,0.6,8.6l0.5,4.5c0.2,1.7,0.3,3.4,0.4,5.1c0.1,3.3,0.1,6.5,0.1,9.5c0,1.5,0,3,0.1,4.4
				c0.1,1.4,0.2,2.7,0.3,4c0.3,2.6,0.9,5.2,1.7,7.8c0.1,0.5,0.3,0.9,0.5,1.3c0.3,0.7,0.5,1.3,0.7,1.9c0.4,1.1,0.7,1.8,1,2.4
				c0.6,1.1,1.3,1.4,1.9,1.3c0.6-0.1,1.2-0.6,1.5-1.8c0.1-0.7,0.2-1.5,0-2.9c-0.1-0.7-0.3-1.5-0.5-2.4
				C327,845.1,326.8,844.7,326.7,844.3z"/>
			<path id="XMLID_38_" class="st2" d="M319,849.7c-0.1-0.4-0.2-0.9-0.4-1.3l-0.4-1.1c-0.2-0.7-0.4-1.4-0.6-2.1
				c-0.4-1.4-0.7-2.9-1-4.3c-0.5-2.9-0.7-5.8-0.8-8.8l0-9.3c0-1.6-0.1-3.2-0.2-4.8c-0.1-1.6-0.3-3.2-0.5-4.7
				c-0.7-6.1-1.2-12.1-0.7-18c0.3-2.9,0.8-5.9,1.2-9.1c0.2-1.6,0.4-3.2,0.5-4.8c0.1-1.6,0.1-3.4-0.2-5.1c-0.5-3.3-1.4-6.4-2.1-9.3
				c-0.2-0.7-0.3-1.4-0.5-2.2l-0.4-2.2c-0.3-1.6-0.6-3.1-0.8-4.5c-0.2-1.5-0.4-2.9-0.5-4.3c0-0.7,0-1.4,0-2.1c0-0.7,0.1-1.5,0.2-2.2
				c0.2-3,0.6-6,1.1-9l1.7-9.1c0.6-3,1.2-5.8,2.2-8.7l5.9-17.6c2-5.9,3.9-11.9,5.1-18.2c0.6-3.2,0.9-6.2,1.4-9.3l1.2-9.2l0.3-2.3
				c0.1-0.8,0.2-1.6,0.2-2.4c0.1-1.7,0.1-3.4,0-5c-0.3-3.3-1-6.3-1.3-9.2c-0.3-2.9-0.4-6-0.6-9.2c-0.1-1.6-0.3-3.2-0.7-4.9
				c-0.3-1.6-0.8-3.2-1.2-4.7c-0.9-3-1.7-5.8-1.9-8.5c-0.2-3.1-0.6-6.3-1-9.4c-0.8-6.2-1.9-12.3-2.9-18.4c-0.5-3-1-6.1-1.4-9.1
				c-0.4-2.9-0.5-5.9-0.5-8.9c0-6,0.6-12.2,1-18.4c0.1-1.3-0.1-2.7-0.3-3.8l-0.3-1.5c-0.1-0.4-0.1-0.8-0.1-1.3c0-0.5,0-0.9,0.1-1.4
				c0-0.2,0.1-0.4,0.1-0.7l0.2-0.8c0.3-1.1,0.6-2.6,0.6-4c0-2.6-0.4-4.8-0.8-7.1c-0.4-2.3-0.9-4.4-1.4-6.6c-0.9-4.4-2-8.9-3.4-13.2
				l-0.5-1.5c-0.2-0.5-0.3-1-0.4-1.5l-0.8-3.2c-0.5-2.2-1.3-4.7-2.6-6.8c-2.1-3.8-4.1-7.7-6-11.7c-3.9-8-7.7-16.2-12.8-23.8
				c-2.6-3.8-5.6-7.4-8.9-10.6c-1.6-1.6-3.3-3.1-4.8-4.6c-1.5-1.5-2.9-3.1-4.1-4.8c-0.6-0.9-1.4-1.7-2.2-2.4
				c-0.8-0.7-1.6-1.3-2.3-1.8c-1.5-1.1-5.6-3.9-6.5-5c-4.3-6.7-9.1-4.8-3.9,3.1c1.3,1.7,6.1,5,7.5,6c1.5,1,2.5,1.9,3.4,3
				c1.4,1.9,3,3.7,4.6,5.4c1.6,1.6,3.3,3.2,4.8,4.7c3.1,3,5.8,6.2,8.2,9.8c4.9,7.1,8.6,15.1,12.5,23.1c1.9,4,3.9,8,6.2,12
				c1,1.7,1.6,3.5,2.1,5.6l0.8,3.3c0.2,0.6,0.3,1.1,0.5,1.7l0.5,1.6c1.4,4.1,2.4,8.3,3.2,12.6c0.5,2.2,1,4.4,1.4,6.5
				c0.4,2.1,0.7,4.2,0.7,6.1c0,0.9-0.2,1.7-0.5,2.9l-0.2,0.9c-0.1,0.3-0.1,0.7-0.2,1c-0.1,0.7-0.2,1.4-0.1,2.1
				c0,0.6,0.1,1.3,0.2,1.9c0.1,0.6,0.2,1.1,0.3,1.6c0.2,1,0.3,1.8,0.2,2.6c-0.3,6.1-0.9,12.3-1,18.7c0,3.2,0.1,6.4,0.5,9.6
				c0.4,3.2,1,6.2,1.5,9.3c1,6.1,2.1,12.2,2.9,18.2c0.4,3,0.7,6.1,0.9,9.1c0.2,3.4,1.2,6.6,2.1,9.6c0.9,3,1.5,5.6,1.7,8.6
				c0.3,3,0.3,6.1,0.7,9.3c0.3,3.2,1,6.4,1.3,9.2c0.1,1.4,0.1,2.8,0,4.2c-0.1,0.7-0.1,1.4-0.2,2.2l-0.3,2.3l-1.2,9.2
				c-0.4,3.1-0.8,6.2-1.3,9.1c-1.1,5.9-2.9,11.7-4.9,17.5l-5.9,17.6c-1,3-1.8,6.2-2.4,9.3l-1.7,9.2c-0.5,3.1-0.9,6.3-1.2,9.4
				c-0.1,0.8-0.1,1.6-0.2,2.4c0,0.9,0,1.7,0,2.6c0.1,1.7,0.3,3.3,0.5,4.9c0.3,1.6,0.6,3.1,0.8,4.6l0.4,2.3c0.2,0.8,0.3,1.6,0.5,2.4
				c0.8,3.1,1.6,6,2,8.8c0.4,2.7,0.1,5.6-0.3,8.6c-0.4,3-1,6.1-1.3,9.3c-0.5,6.5,0,12.8,0.7,19c0.2,1.6,0.4,3,0.5,4.5
				c0.1,1.5,0.2,3,0.2,4.5l0,9.3c0,3.2,0.3,6.5,0.8,9.6c0.3,1.6,0.7,3.2,1.1,4.8c0.2,0.8,0.5,1.6,0.7,2.3l0.4,1.1
				c0.1,0.3,0.2,0.6,0.3,0.9c0.4,1.7,0.8,3.3,1.5,4.3c0.6,1.1,1.4,1.6,2,1.5c0.2,0,0.4,0,0.5-0.2c0.5-0.3,0.9-1,1.1-2
				C319.4,853.5,319.5,852,319,849.7z"/>
			<path id="XMLID_37_" class="st2" d="M312.6,861.1c-0.4-0.8-0.7-1.6-1-2.4c-0.7-2.4-0.9-4.2-1.1-5.6c-0.1-0.7-0.2-1.2-0.3-1.6
				l-0.7-2.2c-1.1-3.4-1.8-6.9-2.2-10.5c-0.2-1.8-0.3-3.6-0.4-5.3c0-1.7,0-3.3,0-4.9c0-3.2,0-6.2-0.1-9.1c0-0.7-0.1-1.4-0.2-2.1
				l-0.3-2.2c-0.2-1.6-0.4-3.2-0.5-4.9c-0.3-3.3-0.5-6.7-0.5-10.1c0-1.7,0.1-3.4,0.2-5.2c0.1-1.8,0.4-3.5,0.6-5.2
				c0.5-3.2,1-6.2,1.2-8.9c0-0.6,0.1-1.3,0-1.8c0-0.5-0.1-1-0.1-1.6c-0.2-1.2-0.4-2.5-0.8-4l-1.2-4.6c-0.4-1.6-0.8-3.7-1-5
				c-0.5-3-1.3-6.4-1.4-10.4c0-0.5,0-1,0-1.5c0-0.5,0-1.1,0.1-1.4l0.2-2.5c0.1-1.7,0.3-3.4,0.6-5c0.2-1.7,0.5-3.3,0.8-4.9l0.9-4.7
				c0.6-3,1.1-6.4,2-9.8c0.2-0.8,0.5-1.7,0.7-2.5c0.3-0.8,0.5-1.7,0.8-2.4l1.5-4.5l3-9c2-6,4-11.8,5.3-17.5c0.7-2.9,1-5.6,1.5-8.8
				l1.3-9.4l0.6-4.7c0.2-1.4,0.3-2.6,0.3-3.8c0-1.2-0.1-2.4-0.4-3.8c-0.2-1.4-0.5-3.1-0.7-4.8c-0.5-3.5-0.6-6.9-0.8-9.9
				c-0.1-1.5-0.2-2.9-0.4-4.2c-0.2-1.3-0.5-2.5-0.9-3.9c-0.8-2.8-1.9-6.1-2.5-10.1c-0.1-0.5-0.1-1-0.2-1.5l-0.1-1.2
				c-0.1-0.8-0.1-1.5-0.2-2.3c-0.1-1.5-0.3-3-0.5-4.5c-0.8-6.1-1.8-12.2-2.9-18.5l-0.8-4.7l-0.4-2.4c-0.1-0.8-0.3-1.6-0.4-2.5
				c-0.5-3.5-0.6-7-0.6-10.4c0-6.8,0.7-13.2,1-19.3c0-0.5,0-0.8-0.2-1.7c-0.1-0.5-0.2-1-0.3-1.8c-0.1-0.8-0.2-1.7-0.2-2.5
				c0-0.9,0-1.8,0.2-2.7l0.1-0.7l0.1-0.6l0.2-1c0.1-0.6,0.2-1.1,0.3-1.3c0-0.2,0.1-0.5,0.1-0.8l0-0.5l0-0.6c0-0.4-0.1-0.9-0.1-1.3
				c-0.1-0.9-0.3-1.9-0.5-2.9c-0.4-2-0.9-4.1-1.4-6.4l-0.7-3.2c-0.2-1-0.5-2-0.7-3.1c-0.5-2-1.1-4-1.7-6l-0.5-1.7
				c-0.2-0.6-0.4-1.3-0.5-1.9c-0.3-1.2-0.6-2.3-0.8-3.3c-0.5-2-0.9-3.3-1.7-4.6c-2.3-4.1-4.3-8.2-6.3-12.2
				c-3.9-8-7.6-15.9-12.2-22.6c-0.6-0.8-1.1-1.7-1.8-2.5l-0.9-1.2l-1-1.1l-1-1.1l-1-1.1c-0.7-0.7-1.4-1.4-2.1-2.2
				c-1.5-1.5-3.2-3-4.9-4.7c-1.7-1.7-3.5-3.7-5-5.8c-0.3-0.4-0.6-0.7-1.1-1.2c-0.6-0.5-1.4-1-2.5-1.8c-1.1-0.8-2.4-1.8-3.5-3.1
				c-1.1-1.3-2-2.5-2.6-3.6c-2.5-4.2-3.6-3.1-4.5-2.3c-0.4,0.5-0.9,0.9-1.1,1.4c-0.2,0.5-0.1,1.2,1.3,3.5c0.7,1.2,1.7,2.7,3.1,4.3
				c1.5,1.7,3.1,3,4.3,3.9c1.2,0.9,2,1.4,2.3,1.7c0.4,0.3,0.2,0.2,0.2,0.2c1.7,2.3,3.6,4.6,5.5,6.4c1.8,1.9,3.5,3.4,5,4.8l1,1
				c0.3,0.3,0.6,0.7,0.9,1l0.9,1l0.9,1l0.9,1l0.8,1.1c0.6,0.7,1.1,1.5,1.6,2.3c4.3,6.3,7.9,13.9,11.8,22c2,4.1,4,8.2,6.4,12.4
				c0.3,0.5,0.4,0.8,0.6,1.3c0.2,0.5,0.4,1.2,0.6,2.1c0.2,0.9,0.5,2.1,0.8,3.4c0.2,0.7,0.4,1.4,0.6,2.1l0.6,1.7
				c0.6,1.9,1.1,3.7,1.6,5.6c0.2,1,0.5,1.9,0.7,2.9l0.7,3.1c0.5,2.4,1,4.5,1.3,6.3c0.2,0.9,0.3,1.8,0.4,2.5c0,0.4,0.1,0.7,0.1,1.1
				l0,0.5c0,0.1,0,0.1,0,0.2c0,0.1,0,0,0,0l0,0l-0.1,0.3l-0.2,0.7l-0.2,1l-0.2,0.8l-0.1,0.9c-0.2,1.1-0.3,2.3-0.2,3.5
				c0,1.1,0.1,2.2,0.3,3.2c0.1,0.8,0.3,1.5,0.3,1.9c0.1,0.8,0.1,0.5,0.1,0.6c-0.3,6-1,12.4-1,19.5c0,3.5,0.2,7.2,0.7,11
				c0.1,1,0.3,1.8,0.4,2.6l0.4,2.4l0.8,4.8c1.1,6.3,2.1,12.3,2.9,18.2c0.2,1.5,0.4,2.9,0.5,4.4c0.1,0.7,0.1,1.5,0.2,2.2l0.1,1.2
				c0.1,0.6,0.1,1.2,0.2,1.7c0.3,2.3,0.8,4.4,1.3,6.2l1.3,4.6c0.2,0.6,0.3,1.2,0.4,1.7c0.1,0.5,0.2,1,0.3,1.5
				c0.2,1.1,0.3,2.4,0.4,3.8l0.3,4.7c0.1,0.9,0.1,1.7,0.2,2.7c0.1,0.9,0.2,1.9,0.3,2.8c0.2,1.8,0.5,3.5,0.7,4.8
				c0.2,1.3,0.3,2.3,0.3,3.2c0,0.9,0,1.9-0.2,3.2l-0.6,4.7l-1.3,9.3c-0.4,3.3-0.8,5.7-1.4,8.4c-1.2,5.3-3.1,10.9-5.1,17l-3,9
				l-1.5,4.5c-0.2,0.7-0.5,1.6-0.8,2.5c-0.3,0.9-0.5,1.8-0.8,2.7c-0.5,1.8-0.9,3.7-1.2,5.4l-0.9,4.8l-0.9,4.8
				c-0.3,1.7-0.6,3.4-0.8,5.1c-0.2,1.7-0.4,3.5-0.6,5.3c-0.1,0.9-0.1,1.8-0.2,2.7c0,0.4-0.1,1.1-0.1,1.6c0,0.6,0,1.2,0,1.7
				c0.1,4.6,1,8.3,1.5,11.2l0.4,2.4c0.2,1,0.4,2,0.6,2.8l1.2,4.6c0.3,1.3,0.6,2.5,0.7,3.4c0.1,0.4,0.1,0.8,0.1,1.1
				c0,0.3,0,0.9,0,1.4c-0.1,2.2-0.6,5.1-1.1,8.5c-0.2,1.7-0.5,3.5-0.6,5.5c-0.1,1.1-0.1,1.9-0.2,2.8c0,0.9,0,1.8,0,2.7
				c0,3.6,0.2,7.2,0.5,10.6c0.2,1.7,0.4,3.4,0.5,5l0.2,2.1c0.1,0.6,0.1,1.3,0.1,1.9c0.2,2.6,0.1,5.5,0.1,8.8c0,1.6,0,3.3,0,5.1
				c0,1.9,0.2,3.8,0.4,5.7c0.4,3.9,1.3,7.8,2.4,11.4l0.7,2.1c0,0.1,0.1,0.4,0.2,1c0.2,1.2,0.4,3.2,1.3,6.3c0.3,1,0.7,2.1,1.2,3
				c0.5,1,1,1.7,1.4,2.3c0.4,0.6,0.8,1,1,1.3c0.6,0.6,0.9,0.7,1.1,0.7c0.5,0,1.1-0.3,1.7-0.5c0.6-0.2,1.2-0.5,1.3-1.2
				c0.1-0.4,0-0.8-0.3-1.6C314,863.6,313.4,862.6,312.6,861.1z"/>
		</g>
		<g id="XMLID_9_" class="st1">
			<g id="XMLID_87_">
				<g id="XMLID_99_">
					<path id="XMLID_107_" class="st2" d="M655.6,682.1c0,0-0.4-0.2-1.1-0.6c-0.7-0.4-1.8-1-3.2-1.7c-0.7-0.4-1.6-0.8-2.5-1.2
						c-0.5-0.2-1-0.4-1.5-0.7c-0.5-0.2-1.1-0.5-1.6-0.7c-2.1-0.9-4.5-1.8-7.2-2.8c-5.3-2-11.7-4-18.6-6.4c-3.5-1.2-7.3-2.5-11.3-3.9
						c-1.9-0.7-3.8-1.3-5.6-2.1c-0.4-0.2-0.9-0.4-1.3-0.6c-0.3-0.1-0.7-0.3-1.1-0.5c-0.8-0.4-1.6-0.8-2.4-1.3
						c-0.8-0.5-1.7-1-2.6-1.5l-0.7-0.4c-0.2-0.1-0.5-0.3-0.5-0.3c-0.1,0-0.2-0.1-0.3-0.3c-0.2-0.1-0.4-0.4-0.7-0.6
						c-0.4-0.4-0.7-0.8-1.1-1.2c-0.9-0.9-2.1-2.2-3.8-3.6c-0.4-0.3-0.9-0.7-1.3-1l-0.7-0.5c-0.4-0.3-0.9-0.6-1.3-1
						c-0.9-0.7-1.8-1.4-2.6-2.1c-1.8-1.5-3.5-3-5.3-4.7c-0.9-0.8-1.7-1.7-2.6-2.5l-1.3-1.3l-0.5-0.5l-0.6-0.6
						c-0.4-0.4-0.7-0.7-1.1-1c-1.4-1.3-2.6-2.2-3.5-2.9c-0.4-0.4-0.8-0.7-1.1-0.9l-0.3-0.3L566,632c-0.7-0.7-1.5-1.8-2.9-3.2
						c-1.4-1.4-3.2-3.1-5.2-4.4l-0.7-0.5l-0.6-0.4c-0.4-0.2-0.8-0.5-1.2-0.7c-0.8-0.5-1.6-0.9-2.5-1.3c-1.7-0.8-3.3-1.5-4.9-2.2
						c-3.3-1.2-6.4-2.1-9.1-3c-1.4-0.4-2.7-0.8-4-1.2c-1.5-0.5-3-0.9-4.4-1.4c-3-0.9-6.2-1.8-9.4-2.6c-1.6-0.4-3.2-0.7-4.9-1
						c-1.5-0.3-3-0.6-4.5-0.8c-3-0.6-6-1.1-9.1-1.7l-2.3-0.4l-0.9-0.2c-0.2,0-0.4-0.1-0.7-0.2c-0.9-0.2-2-0.6-3.3-1
						c-1.3-0.4-2.8-1-4.5-1.6l-1-0.3c-0.2-0.1-0.4-0.2-0.6-0.2c-0.4-0.2-0.8-0.3-1.2-0.5c-0.8-0.4-1.8-1-3.2-1.8l-2.2-1.3
						c-0.5-0.3-0.9-0.5-1.3-0.8c-1.8-1.2-3.8-2.8-6.1-4.8c-2.3-2-5-4.3-8.1-6.5c-3-2.1-5.6-3.6-7.7-5.1c-2.1-1.5-3.7-2.8-4.5-3.8
						c-0.1-0.1-0.2-0.2-0.3-0.4l-0.1-0.2l-0.3-0.4c-0.4-0.5-0.7-1.1-1.1-1.6c-0.7-1.1-1.4-2.3-2-3.4c-1.3-2.4-2.6-4.8-3.9-7.4
						c-1.3-2.7-2.6-5.4-3.9-8c-1.5-2.9-2.9-5.6-4.2-8c-1.3-2.5-2.5-4.8-3.4-6.9l-0.5-1.1l-0.6-1.3c-0.4-0.8-0.8-1.6-1.2-2.4
						c-0.8-1.5-1.7-2.9-2.4-4.1l-1.1-1.8c-0.2-0.4-0.2-0.3-0.2-0.3c0,0,0,0,0-0.1c-0.1-0.1-0.2-0.5-0.4-1.6
						c-0.1-0.7-0.3-1.4-0.4-2.1c-0.2-0.8-0.4-1.8-0.7-2.9c-0.3-1-0.8-2.2-1.2-3.2c-0.2-0.5-0.4-1-0.7-1.5l-0.7-1.3
						c-1.9-3.4-3.9-5.9-5.7-8.1c-1.8-2.2-3.4-4-4.6-5.5c-0.3-0.4-0.5-0.7-0.8-1.1c-0.3-0.4-0.6-0.8-0.8-1.2
						c-0.6-0.8-1.1-1.7-1.6-2.7c-1.1-1.8-2.2-3.8-3.3-5.9c-1.1-2.1-2.3-4.2-3.7-6.3c-0.6-1-1.2-1.9-1.8-2.8
						c-0.5-0.9-1.1-1.7-1.6-2.6c-2.1-3.4-4-6.8-5.9-10.1c-0.9-1.6-1.8-3.2-2.7-4.8c-0.7-1.3-1.4-2.6-2.1-3.9
						c-1.3-2.6-2.6-5.4-3.8-7.9c-0.6-1.3-1.2-2.5-1.8-3.7c-0.3-0.6-0.6-1.2-0.9-1.7c-0.2-0.3-0.3-0.6-0.5-0.9
						c-0.2-0.3-0.4-0.7-0.6-1c-1.5-2.4-2.5-3.7-3.2-4.9c-0.8-1.1-1.3-1.9-1.6-2.4c-0.3-0.5-0.5-0.8-0.5-0.8c-0.8-1.3-1.3-1.9-1.9-2
						c-0.6-0.2-1.1,0-1.8,0.1c-0.6,0.2-1.2,0.4-1.4,1.1c-0.2,0.7-0.1,1.8,0.8,3.4c0,0,0.2,0.3,0.5,0.8c0.4,0.6,0.9,1.4,1.7,2.6
						c0.8,1.2,1.8,2.6,3.1,4.7c0.2,0.3,0.3,0.6,0.5,0.9c0.1,0.3,0.3,0.5,0.4,0.8c0.3,0.5,0.6,1.1,0.9,1.7c0.6,1.1,1.2,2.3,1.8,3.6
						c1.2,2.5,2.4,5.2,3.8,8c0.7,1.4,1.4,2.8,2.2,4.1c0.9,1.5,1.8,3.1,2.7,4.8c1.9,3.3,3.8,6.7,5.9,10.2c0.5,0.9,1.1,1.8,1.6,2.6
						c0.6,0.9,1.2,1.9,1.8,2.8c1.2,2,2.4,4.1,3.5,6.1c2.3,4.1,4.5,8.1,7,11.5c1.3,1.7,3,3.6,4.7,5.7c1.7,2.1,3.6,4.4,5.2,7.3
						c0.8,1.4,1.6,3.2,2.1,5c0.5,1.8,0.8,3.3,1,4.5c0.2,1.2,0.5,2,0.7,2.6c0.1,0.2,0.1,0.3,0.2,0.4l0.3,0.6l1.1,1.8
						c0.7,1.2,1.5,2.5,2.3,3.9c0.4,0.7,0.8,1.4,1.1,2.2l0.5,1.1l0.5,1c1,2.3,2.3,4.7,3.6,7.2c1.3,2.5,2.8,5.1,4.2,7.9
						c1.3,2.7,2.6,5.3,3.9,8c1.3,2.6,2.6,5.2,4,7.6c0.7,1.2,1.4,2.5,2.2,3.6c0.4,0.6,0.7,1.2,1.1,1.8l0.3,0.4l0.2,0.3
						c0.1,0.2,0.3,0.4,0.5,0.6c1.3,1.6,3.2,3.2,5.5,4.8c2.3,1.6,4.9,3.2,7.7,5.1c2.9,2,5.4,4.2,7.7,6.2c2.3,2,4.5,3.8,6.6,5.2
						c0.5,0.4,1.1,0.7,1.6,1l2.1,1.2c1.4,0.8,2.5,1.5,3.6,2c0.5,0.3,1.1,0.5,1.6,0.7c0.3,0.1,0.6,0.2,0.8,0.3l1,0.3
						c1.6,0.5,3.1,1.1,4.5,1.5c1.4,0.5,2.6,0.9,3.8,1.1c0.3,0.1,0.6,0.1,0.9,0.2l1,0.2l2.3,0.4c3,0.6,6,1.1,9,1.7
						c1.5,0.3,3,0.6,4.5,0.8c1.6,0.3,3.1,0.6,4.7,1c3.1,0.7,6.1,1.6,9.1,2.5c1.5,0.5,2.9,0.9,4.3,1.4c1.3,0.4,2.7,0.8,4.1,1.3
						c2.8,0.8,5.8,1.7,8.8,2.9c1.5,0.6,3,1.2,4.5,2c0.7,0.4,1.5,0.8,2.2,1.2c0.4,0.2,0.7,0.4,1.1,0.6l0.5,0.3l0.6,0.4
						c1.6,1.1,3.1,2.4,4.3,3.7c1.2,1.3,2.1,2.3,2.9,3.2l0.6,0.6c0.2,0.2,0.3,0.3,0.5,0.5c0.4,0.3,0.8,0.7,1.3,1.1
						c1,0.8,2.1,1.7,3.4,2.8c0.3,0.3,0.6,0.6,1,0.9c0.3,0.3,0.7,0.7,0.9,0.9l1.3,1.4c0.9,0.9,1.8,1.8,2.7,2.7
						c1.8,1.7,3.7,3.4,5.5,4.9c0.9,0.8,1.9,1.5,2.8,2.2c0.5,0.3,0.9,0.7,1.4,1l0.7,0.5c0.3,0.2,0.7,0.5,1.1,0.8
						c1.4,1.1,2.4,2.2,3.3,3.1c0.9,0.9,1.6,1.6,2.1,2.1c0.3,0.2,0.6,0.5,0.8,0.6c0.1,0.1,0.4,0.2,0.6,0.4l0.7,0.4
						c0.9,0.6,1.9,1.1,2.8,1.6c0.9,0.5,1.8,1,2.7,1.4c0.4,0.2,0.9,0.4,1.3,0.6c0.5,0.2,1,0.4,1.4,0.6c1.9,0.8,3.9,1.5,5.8,2.2
						c4,1.4,7.8,2.7,11.3,3.9c7,2.4,13.3,4.4,18.5,6.4c2.6,1,4.9,1.9,7,2.7c2.1,0.9,3.9,1.8,5.3,2.5c2.8,1.4,4.1,2.2,4.1,2.2
						c3.7,2.1,6,2,6.7,1c0.3-0.5,0.1-1.4-0.5-2.3C658.7,684.2,657.5,683.1,655.6,682.1z"/>
					<path id="XMLID_106_" class="st2" d="M653.4,691.2c0,0-1.3-0.8-3.9-2.2c-1.3-0.7-2.9-1.6-4.9-2.5c-2-0.9-4.3-1.8-6.9-2.8
						c-5.1-2-11.5-4.1-18.6-6.5c-3.6-1.2-7.4-2.5-11.4-3.9c-2-0.7-4-1.4-6.1-2.2c-1-0.4-2-0.8-3.1-1.2c-1-0.4-2-0.9-2.9-1.4
						c-2-1-4-2.2-5.9-3.5c-1.7-1-3.1-2.8-5-4.7c-0.5-0.5-1-1-1.6-1.4c-0.3-0.2-0.6-0.5-0.9-0.7l-0.8-0.5c-1-0.7-2-1.5-3-2.3
						c-2-1.6-3.9-3.2-5.9-5c-1.9-1.8-3.8-3.6-5.7-5.6c-2.2-2.3-4.6-3.8-6.4-5.5c-0.9-0.8-1.8-1.8-2.7-2.9c-0.9-1.1-2-2.3-3.3-3.3
						c-0.6-0.5-1.3-1-2-1.4c-0.7-0.4-1.3-0.8-2-1.2c-1.3-0.7-2.7-1.4-4.1-2c-2.8-1.2-5.7-2.1-8.6-3c-2.9-0.8-5.6-1.7-8.5-2.6
						c-2.9-0.9-5.8-1.8-8.8-2.5c-3-0.8-6.1-1.3-9.1-1.9c-3-0.6-6-1.1-9.1-1.7c-1.5-0.3-3-0.6-4.5-0.9c-1.4-0.3-2.8-0.6-4.2-1.1
						c-1.4-0.5-2.9-1-4.3-1.5l-2.2-0.7c-0.7-0.2-1.3-0.5-2-0.7c-1.3-0.6-2.5-1.2-3.8-2l-4-2.3c-4.9-3-9.2-7.5-14.4-11.4
						c-2.6-1.9-5.3-3.5-7.8-5.2c-2.5-1.7-4.8-3.4-6.6-5.4c-0.5-0.5-0.9-1-1.3-1.6c-0.4-0.5-0.8-1.2-1.2-1.8
						c-0.8-1.2-1.6-2.5-2.3-3.8c-1.5-2.6-2.8-5.2-4.2-7.8c-1.3-2.7-2.6-5.3-3.9-8c-1.3-2.7-2.7-5.3-4.1-7.9
						c-1.4-2.6-2.7-5.1-3.8-7.6l-0.9-2c-0.3-0.7-0.7-1.4-1-2c-0.7-1.3-1.4-2.6-2.2-3.8l-1.1-1.8l-0.5-0.9c-0.1-0.2-0.3-0.5-0.4-0.7
						c-0.5-1-0.8-2.1-1.1-3.3c-0.3-1.2-0.5-2.6-0.9-4.1c-0.4-1.5-1-3-1.7-4.3c-1.4-2.6-3.1-4.8-4.8-6.9c-1.7-2.1-3.4-4-4.8-5.9
						c-2.9-3.7-5.2-7.9-7.4-12c-1.1-2-2.3-4.1-3.5-6c-0.6-1-1.2-1.9-1.8-2.8c-0.6-0.9-1.1-1.8-1.7-2.7c-2.2-3.6-4.2-7.1-6-10.4
						c-0.9-1.6-1.8-3.2-2.7-4.8c-0.9-1.5-1.6-2.9-2.3-4.4c-1.4-2.9-2.7-5.6-3.9-8.1c-1.2-2.5-2.3-4.6-3.4-6.6
						c-1.2-1.9-2.2-3.4-3-4.6c-1.6-2.4-2.3-3.6-2.3-3.6c-1-1.6-1.8-2.7-2.6-3.4c-0.8-0.7-1.5-1-2.1-0.8c-0.6,0.1-1.1,0.8-1.1,2.1
						c0,1.2,0.4,2.9,1.5,4.7c0,0,0.8,1.4,2.5,3.9c0.8,1.2,1.9,2.7,2.9,4.4c1,1.6,2.1,3.8,3.2,6.2c1.2,2.4,2.4,5.2,3.9,8.1
						c0.7,1.5,1.6,3,2.5,4.6c0.9,1.5,1.8,3.1,2.7,4.8c1.9,3.3,3.9,6.8,6.1,10.5c0.6,0.9,1.1,1.8,1.7,2.8c0.6,0.9,1.2,1.8,1.7,2.8
						c1.1,1.8,2.2,3.8,3.4,5.8c2.3,4.1,4.6,8.4,7.9,12.7c1.6,2.1,3.3,4,4.9,5.9c1.6,2,3.1,4,4.2,6c0.6,1.1,1,2.1,1.3,3.2
						c0.3,1.1,0.5,2.4,0.8,3.9c0.3,1.4,0.7,3,1.5,4.5c0.2,0.4,0.4,0.7,0.6,1.1l0.6,0.9l1.1,1.8c0.7,1.2,1.4,2.3,2,3.5
						c0.3,0.6,0.6,1.2,0.9,1.8l0.9,1.9c1.2,2.7,2.6,5.3,4,7.9c1.4,2.6,2.8,5.1,4,7.7c1.3,2.6,2.5,5.4,3.9,8.1
						c1.3,2.7,2.8,5.4,4.3,8.1c0.8,1.3,1.6,2.7,2.4,4c0.4,0.7,0.8,1.3,1.3,2c0.5,0.7,1,1.4,1.6,2c2.3,2.5,4.9,4.5,7.6,6.2
						c2.6,1.8,5.3,3.3,7.6,5.1c4.7,3.4,9,8.1,14.8,11.6l4,2.4c1.4,0.8,2.8,1.6,4.4,2.3c0.8,0.3,1.6,0.6,2.4,0.9l2.2,0.7
						c1.4,0.5,2.9,1,4.4,1.5c1.5,0.5,3.1,1,4.8,1.3c1.5,0.3,3,0.6,4.6,0.9c3,0.6,6,1.1,9,1.7c3,0.6,5.9,1.1,8.8,1.8
						c2.9,0.7,5.7,1.5,8.5,2.4c2.8,0.9,5.8,1.8,8.6,2.7c2.8,0.8,5.5,1.7,8.1,2.8c1.3,0.5,2.5,1.1,3.7,1.8c0.6,0.3,1.2,0.7,1.7,1
						c0.5,0.3,1,0.7,1.5,1.1c1.9,1.5,3.5,3.8,5.8,6c2.3,2.1,4.6,3.6,6.2,5.3c1.9,2,3.9,4,5.9,5.8c2,1.8,4.1,3.6,6.1,5.2
						c1,0.8,2.1,1.6,3.2,2.4l0.8,0.6c0.2,0.2,0.4,0.3,0.6,0.5c0.4,0.3,0.8,0.7,1.2,1.1c1.6,1.6,3.4,3.7,5.8,5.3
						c2.1,1.3,4.2,2.6,6.4,3.7c1.1,0.6,2.2,1.1,3.3,1.5c1.1,0.5,2.2,0.9,3.2,1.3c2.1,0.8,4.2,1.5,6.2,2.2c4,1.4,7.8,2.7,11.4,3.9
						c7.2,2.4,13.4,4.5,18.4,6.4c2.5,1,4.7,1.9,6.5,2.7c1.8,0.9,3.4,1.7,4.6,2.3c2.5,1.4,3.8,2.2,3.8,2.2c3.5,2,5.7,2,6.4,1
						C658.1,695.4,657,693.2,653.4,691.2z"/>
					<path id="XMLID_105_" class="st2" d="M654.7,702.5c0,0-0.2-0.2-0.7-0.5c-0.5-0.3-1.3-0.9-2.5-1.6c-2.5-1.5-6.2-3.7-10.8-5.9
						c-0.6-0.3-1.1-0.5-1.8-0.8c-0.6-0.3-1.3-0.5-2-0.8c-1.4-0.6-2.8-1.1-4.3-1.7c-3-1.1-6.4-2.3-10.1-3.5c-1.8-0.6-3.7-1.3-5.7-1.9
						c-2-0.7-4-1.4-6-2.1c-4-1.4-8.5-2.8-13.2-4.6c-0.6-0.2-1.2-0.5-1.8-0.7l-0.9-0.4l-1-0.4c-1.3-0.6-2.5-1.2-3.7-1.9
						c-1.2-0.7-2.4-1.3-3.5-2c-0.6-0.4-1.2-0.7-1.7-1.1c-0.7-0.5-1.6-1.1-2.2-1.6c-1.4-1.1-2.4-2.3-3.3-3.2
						c-0.9-0.9-1.6-1.6-2.2-2.1c-0.5-0.4-1-0.7-1.5-1.1c-0.6-0.4-1.2-0.9-1.7-1.3c-1.1-0.9-2.3-1.8-3.4-2.7
						c-2.2-1.9-4.4-3.8-6.5-5.9c-1.1-1-2.1-2.1-3.1-3.2l-0.7-0.7c-0.2-0.2-0.3-0.3-0.5-0.5c-0.4-0.4-0.8-0.7-1.3-1.1
						c-1-0.8-2.2-1.8-3.6-3c-1.4-1.3-2.6-2.6-3.5-3.7c-1-1.1-1.7-1.9-2.4-2.5c-0.4-0.3-0.7-0.6-1.1-0.8c-0.5-0.3-1-0.6-1.5-0.9
						c-2.1-1.2-4.5-2.2-7.2-3c-2.6-0.9-5.6-1.7-8.6-2.7c-1.5-0.5-2.9-0.9-4.4-1.4c-1.4-0.4-2.8-0.9-4.3-1.3c-2.8-0.8-5.7-1.5-8.6-2
						c-3.1-0.6-6.1-1.2-9.2-1.7c-1.5-0.3-3.1-0.6-4.6-0.9L497,625l-1.3-0.3c-0.5-0.1-0.9-0.2-1.4-0.3c-3.7-0.9-6.8-2.2-9.5-3
						c-1.8-0.6-3.7-1.4-5.4-2.2c-1.7-0.9-3.2-1.8-4.5-2.6l-2.1-1.2c-0.8-0.5-1.6-1-2.3-1.5c-1.5-1-2.9-2.1-4.2-3.2
						c-2.6-2.2-4.9-4.3-7.2-6c-1.1-0.9-2.2-1.6-3.4-2.5c-1.3-0.8-2.6-1.7-3.9-2.5c-2.7-1.8-5.7-3.8-8.5-6.5
						c-0.7-0.7-1.4-1.4-2.1-2.2c-0.3-0.4-0.7-0.8-1-1.2c-0.3-0.4-0.7-0.9-0.9-1.2c-0.9-1.4-1.8-2.8-2.7-4.2
						c-1.7-2.8-3.2-5.7-4.6-8.5c-1.4-2.8-2.8-5.6-4.1-8.4c-1.2-2.5-2.6-5.1-4-7.7c-1.4-2.6-2.9-5.4-4.2-8.3
						c-0.3-0.7-0.6-1.4-0.9-2.1c-0.2-0.5-0.5-1.1-0.8-1.6c-0.6-1.1-1.2-2.2-1.9-3.4l-1.1-1.8l-0.6-0.9l-0.4-0.6
						c-0.1-0.2-0.3-0.5-0.4-0.7c-1-1.9-1.6-4-1.9-5.6c-0.3-1.6-0.5-2.9-0.8-3.8c-0.1-0.5-0.3-0.8-0.4-1.2c-0.2-0.4-0.3-0.8-0.6-1.2
						c-0.9-1.7-2.4-3.6-4-5.5c-1.6-1.9-3.4-3.9-5.1-6.2c-3.6-4.7-6-9.4-8.3-13.5c-1.1-2.1-2.2-4-3.4-5.7c-0.6-1-1.2-2-1.8-2.9
						c-0.6-1-1.2-1.9-1.8-2.9c-2.3-3.8-4.3-7.5-6.3-10.8c-0.5-0.8-0.9-1.7-1.4-2.5c-0.5-0.9-1-1.7-1.4-2.5c-0.9-1.7-1.8-3.4-2.5-4.9
						c-1.5-3.1-2.8-5.9-4-8.3c-0.6-1.2-1.2-2.3-1.7-3.3c-0.3-0.5-0.4-0.8-0.7-1.2c-0.3-0.4-0.5-0.9-0.8-1.3
						c-1.1-1.7-2.2-3.3-3.1-4.6c-1.8-2.7-2.6-4.6-2.6-4.6c-1.1-2.2-2.1-4.3-2.9-6.1c-0.4-0.9-0.7-1.5-1-1.9
						c-0.3-0.4-0.6-0.6-0.9-0.6c-0.3,0-0.6,0.2-0.9,0.7c-0.3,0.5-0.6,1.2-0.6,2.4c-0.1,2.4,0.5,5.3,1.8,7.8c0,0,0.1,0.1,0.2,0.4
						c0.1,0.3,0.3,0.6,0.6,1.1c0.5,0.9,1.2,2.2,2.2,3.6c0.9,1.4,2.1,3.1,3.1,4.7c0.2,0.4,0.5,0.7,0.7,1.1c0.3,0.4,0.3,0.5,0.6,1
						c0.5,0.9,1,2,1.6,3.1c1.1,2.3,2.4,5,3.9,8.2c0.8,1.6,1.6,3.3,2.6,5.1c0.5,0.9,1,1.7,1.5,2.6c0.5,0.8,0.9,1.6,1.4,2.5
						c1.9,3.4,4,7,6.3,10.9c0.6,1,1.2,2,1.8,3c0.6,1,1.2,2,1.9,2.9c1,1.6,2.1,3.5,3.2,5.5c1.1,2,2.3,4.2,3.7,6.6
						c0.7,1.2,1.4,2.4,2.2,3.6c0.4,0.6,0.8,1.2,1.3,1.9c0.4,0.6,1,1.4,1.4,2c1.9,2.5,3.7,4.5,5.2,6.4c1.5,1.8,2.8,3.6,3.4,4.7
						c0.2,0.3,0.3,0.5,0.4,0.7c0.1,0.2,0.1,0.3,0.2,0.6c0.2,0.6,0.4,1.7,0.7,3.5c0.4,1.8,1.1,4.3,2.3,6.8c0.2,0.3,0.3,0.6,0.5,0.9
						l0.5,0.8l0.6,1l1.1,1.8c0.7,1.1,1.3,2.1,1.7,3.1c0.2,0.5,0.5,0.9,0.7,1.4l0.4,0.9l0.5,1.2c1.4,3.1,2.9,5.9,4.3,8.6
						c1.4,2.6,2.8,5.1,3.9,7.5c1.3,2.7,2.6,5.6,4.1,8.5c1.5,2.9,3,5.9,4.8,8.8c0.9,1.5,1.8,3,2.8,4.5l0.2,0.3l0.3,0.4l0.6,0.8
						c0.4,0.5,0.8,1,1.2,1.5c0.4,0.5,0.8,0.9,1.2,1.3c0.4,0.4,0.8,0.8,1.2,1.2c3.3,3.1,6.5,5.2,9.2,7.1c1.3,0.8,2.6,1.7,3.9,2.5
						c1.2,0.8,2.1,1.4,3.1,2.2c2.1,1.6,4.3,3.7,7.1,6c1.4,1.1,2.9,2.3,4.5,3.5c0.8,0.6,1.7,1.1,2.6,1.7l2.2,1.3
						c1.2,0.7,2.7,1.7,4.7,2.7c1.9,1,4.2,1.9,6.2,2.6c1.2,0.4,2.6,0.9,4.2,1.4c1.6,0.6,3.5,1.2,5.6,1.7c0.5,0.1,1.1,0.2,1.6,0.4
						l1.5,0.3l2.3,0.4c1.5,0.3,3.1,0.6,4.6,0.9c3.1,0.6,6.1,1.2,9.1,1.7c2.8,0.5,5.5,1.2,8.2,1.9c1.4,0.4,2.7,0.8,4.1,1.2
						c1.5,0.5,2.9,0.9,4.4,1.4c3.2,1,6.1,1.8,8.6,2.6c2.5,0.8,4.6,1.7,6.4,2.7c0.2,0.1,0.5,0.2,0.7,0.4l0.6,0.4
						c0.2,0.1,0.4,0.3,0.6,0.5c0.4,0.3,0.9,0.8,1.9,1.9c1,1.1,2.2,2.6,3.9,4.1c1.6,1.4,2.9,2.4,3.8,3.1c0.5,0.4,0.8,0.7,1.1,0.9
						c0.1,0.1,0.3,0.2,0.3,0.3l0.7,0.7c1.1,1.1,2.2,2.2,3.3,3.3c2.2,2.1,4.5,4.2,6.8,6.1c1.2,1,2.4,1.9,3.6,2.8
						c0.6,0.5,1.2,0.9,1.8,1.4c0.4,0.3,0.9,0.6,1.3,1c0.1,0.1,0.3,0.3,0.6,0.5c0.3,0.3,0.6,0.6,1,1.1c0.9,0.9,2.1,2.2,3.7,3.6
						c0.8,0.7,1.8,1.4,2.7,2c0.6,0.4,1.2,0.8,1.8,1.1c1.2,0.7,2.5,1.5,3.7,2.2c1.3,0.7,2.6,1.4,4.1,2l1.1,0.5l0.9,0.4
						c0.6,0.2,1.2,0.5,1.9,0.7c4.9,1.9,9.4,3.3,13.4,4.7c2.1,0.7,4.1,1.4,6,2.1c2,0.7,3.9,1.3,5.7,1.9c3.6,1.2,7,2.4,9.9,3.5
						c1.5,0.6,2.9,1.1,4.2,1.6c0.7,0.3,1.3,0.5,1.9,0.8c0.6,0.3,1.1,0.5,1.6,0.7c4.2,2,7.8,4.2,10.3,5.6c1.2,0.7,1.9,1.1,2.3,1.4
						c0.4,0.3,0.6,0.4,0.6,0.4c0.9,0.6,1.2,0.6,1.7,0.5c0.5-0.2,1.1-0.4,1.6-0.7c0.5-0.3,1-0.7,1.1-1.4
						C656.2,704.3,655.9,703.4,654.7,702.5z"/>
				</g>
			</g>
		</g>
		<g id="XMLID_10_" class="st1">
			<g id="XMLID_77_">
				<g id="XMLID_82_">
					<path id="XMLID_85_" class="st2" d="M380.7,836.9c0,0,0.8-2.5,2.2-6.9c1.3-4.5,3.2-10.9,4.9-18.8c0.4-2,0.9-4,1.3-6.2
						c0.2-1.1,0.4-2.2,0.6-3.3c0.2-1.1,0.4-2.2,0.6-3.3c0.8-4.4,1.6-9.1,2.3-14c1.4-9.9,2.7-20.7,2.2-32.1c0-1.4-0.1-2.9-0.2-4.3
						l-0.1-1.8l-0.1-1.6c-0.1-2.3-0.1-4.9-0.4-8.2c-0.2-1.6-0.4-3.4-0.9-5.3c-0.4-1.9-1.3-4.1-2-5.7c-0.8-1.7-1.4-2.7-1.6-3.1
						c-0.1-0.2-0.1-0.3-0.2-0.5c0-0.1-0.1-0.3-0.1-0.3c-0.1-0.3-0.1-1.1-0.2-2.2c-0.1-1.1-0.2-2.5-0.4-4.4c-0.1-0.9-0.3-1.9-0.6-3
						c-0.3-1.1-0.7-2.1-1.1-3.1c-0.8-1.9-1.7-3.4-2.4-4.5c-0.7-1.1-1.1-1.7-1.3-2.1c-0.2-0.4-0.2-0.4-0.2-0.5c0-0.1,0-0.4-0.1-0.6
						c0-0.1-0.1-0.2-0.1-0.3l0-0.3c0-0.2-0.1-0.4-0.1-0.7c0-0.2,0-0.5,0-0.7c0.1-2,0.7-4.3,1.6-6.2c0.8-2,1.9-3.8,2.8-5.1
						c0.9-1.3,1.7-2.4,2.3-3c0.3-0.3,0.5-0.6,0.6-0.7c0.1-0.1,0.2-0.2,0.2-0.2c0.8-0.8,0.4-2.1-0.5-3c-0.8-0.9-2.2-1.5-3.1-0.4
						c0,0-0.1,0.1-0.3,0.3c-0.2,0.2-0.4,0.5-0.8,0.9c-0.7,0.7-1.6,1.9-2.7,3.5c-1,1.6-2.2,3.6-3.2,6c-1,2.4-1.8,5.2-2,7.9
						c-0.1,1.4,0.1,2.8,0.3,4c0.2,0.9,0.8,1.9,2.1,4c0.6,1,1.4,2.3,2,3.8c0.7,1.5,1.1,3.4,1.4,4.9c0.2,1.5,0.3,2.8,0.4,4
						c0.1,1.1,0.2,2.1,0.3,2.8c0.1,0.6,0.3,1.2,0.6,2c0.3,0.7,0.9,1.8,1.6,3.2c0.7,1.4,1.3,3.2,1.7,4.8c0.4,1.6,0.6,3.2,0.8,4.6
						c0.3,2.9,0.3,5.6,0.4,8l0.1,1.7l0.1,1.9c0.1,1.4,0.2,2.7,0.2,4.1c0.4,10.9-0.8,21.5-2.2,31.2c-0.7,4.9-1.5,9.5-2.3,13.9
						c-0.4,2.2-0.8,4.3-1.2,6.4c-0.4,2.1-0.8,4.1-1.3,6c-1.7,7.7-3.5,14-4.8,18.4c-1.3,4.4-2.1,6.9-2.1,6.9
						C374.9,838.6,379.7,840.2,380.7,836.9z"/>
					<path id="XMLID_84_" class="st2" d="M371.8,835.1c0,0,0.8-2.5,2.1-6.8c1.3-4.4,3.1-10.6,4.9-18.2c0.9-3.8,1.7-8,2.5-12.4
						c0.8-4.4,1.6-9,2.3-13.8c1.4-9.6,2.6-20.1,2.3-30.6c-0.1-2.6-0.4-5.4-0.5-7.8c-0.1-2.5-0.1-5.1-0.3-7.8
						c-0.1-1.3-0.3-2.7-0.6-4.1c-0.3-1.4-0.8-2.8-1.4-4.1c-0.6-1.3-1.2-2.4-1.7-3.4c-0.5-1-0.8-1.9-1-2.9c-0.4-2-0.4-4.3-0.7-6.9
						c-0.2-1.3-0.5-2.7-1-3.9c-0.5-1.3-1.1-2.4-1.7-3.4c-1.2-2-2.2-3.5-2.6-5.1c-0.4-1.7-0.6-3.5-0.5-5.2c0.1-3.5,1.1-6.7,2.2-9.4
						c1.1-2.7,2.4-5,3.6-6.7c1.2-1.7,2.2-3.1,3-3.9c0.4-0.4,0.7-0.7,0.9-1c0.2-0.2,0.3-0.3,0.3-0.3c1.1-1.1,0.8-2.5,0-3.5
						c-0.8-0.9-2.4-1.3-3.6,0c0,0-0.1,0.1-0.4,0.4c-0.2,0.2-0.5,0.6-1,1.1c-0.9,1-2,2.4-3.4,4.4c-1.3,2-2.8,4.5-4.1,7.6
						c-0.7,1.5-1.2,3.2-1.7,5.1c-0.3,0.9-0.4,1.9-0.6,2.9c-0.1,0.5-0.1,1-0.2,1.5c-0.1,0.5-0.1,1-0.1,1.6c0,0.5,0,1.1,0,1.6
						c0,0.6,0.1,1.1,0.1,1.7c0,0.6,0.1,1.1,0.2,1.7c0.1,0.6,0.2,1.1,0.4,1.7c0.7,2.5,2.1,4.6,3.2,6.4c0.5,0.9,1,1.8,1.4,2.6
						c0.3,0.9,0.6,1.7,0.7,2.7c0.3,2.1,0.2,4.5,0.8,7.3c0.3,1.4,0.8,2.8,1.4,4c0.6,1.2,1.2,2.3,1.6,3.3c0.9,1.9,1.3,4.1,1.5,6.5
						c0.2,2.4,0.2,4.9,0.3,7.6c0.2,2.8,0.4,5.1,0.5,7.7c0.3,10.1-0.8,20.3-2.2,29.7c-0.7,4.7-1.5,9.3-2.3,13.7
						c-0.8,4.4-1.6,8.4-2.4,12.1c-1.7,7.5-3.5,13.6-4.8,17.9c-1.3,4.3-2.1,6.7-2.1,6.7C366,836.8,370.8,838.3,371.8,835.1z"/>
					<path id="XMLID_83_" class="st2" d="M362.3,835.3c0,0,0.8-2.5,2.2-6.8c1.3-4.3,3.2-10.6,5-18.1c0.9-3.8,1.8-7.8,2.5-12.2
						c0.8-4.5,1.6-9.1,2.4-14c1.5-9.6,2.7-19.8,2.5-29.8c0-1.2-0.1-2.5-0.2-3.7c-0.1-1.3-0.2-2.6-0.3-4c-0.2-2.9-0.2-5.5-0.3-7.8
						c-0.1-1.1-0.2-2.2-0.4-3.1c-0.2-0.9-0.4-1.6-0.7-2.4c-0.3-0.8-0.8-1.7-1.5-3.1c-0.7-1.4-1.4-3.2-1.8-4.9
						c-0.4-1.8-0.5-3.4-0.6-4.7c-0.1-1.3-0.2-2.4-0.3-3.3c-0.1-0.9-0.2-1.3-0.4-1.8c-0.2-0.5-0.6-1.2-1.1-2.1
						c-0.5-0.9-1.2-1.9-1.9-3.2c-0.7-1.3-1.3-2.8-1.7-4.5c-0.7-2.8-0.9-5.6-0.7-8.1c0.3-5,1.7-9.2,3.2-12.7c1.5-3.5,3.2-6.2,4.7-8.4
						c1.5-2.2,2.9-3.8,3.9-4.9c0.5-0.5,0.9-0.9,1.2-1.2c0.3-0.3,0.4-0.4,0.4-0.4c1.4-1.4,1.4-3,0.6-4c-0.8-1-2.5-1.2-4.1,0.4
						c0,0-0.2,0.2-0.5,0.5c-0.3,0.3-0.8,0.7-1.3,1.3c-1.1,1.2-2.6,3-4.3,5.4c-1.7,2.4-3.5,5.4-5.2,9.3c-1.6,3.8-3.2,8.5-3.6,14.4
						c-0.2,2.9,0,6.2,0.9,9.6c0.5,2.1,1.3,4,2.2,5.6c0.8,1.6,1.6,2.7,2.1,3.5c0.5,0.8,0.7,1.2,0.7,1.4c0,0.1,0,0.1,0,0.1
						c0,0,0,0.2,0.1,0.5c0.1,0.6,0.1,1.6,0.2,3c0.1,1.4,0.2,3.1,0.8,5.4c0.5,2.1,1.4,4.4,2.2,6c0.8,1.6,1.2,2.4,1.4,2.8
						c0.1,0.3,0.1,0.3,0.2,0.6c0,0.1,0.1,0.2,0.1,0.4c0,0.1,0.1,0.3,0.1,0.4c0.1,0.6,0.2,1.5,0.3,2.5c0.2,2,0.1,4.6,0.3,7.7
						c0.1,1.3,0.2,2.6,0.3,4c0.1,1.2,0.1,2.3,0.2,3.5c0.2,9.5-0.9,19.4-2.4,28.9c-0.7,4.7-1.5,9.4-2.3,13.8
						c-0.8,4.2-1.6,8.2-2.5,11.9c-1.8,7.3-3.6,13.5-4.9,17.7c-1.3,4.3-2.2,6.7-2.2,6.7C356.5,836.8,361.3,838.4,362.3,835.3z"/>
				</g>
			</g>
		</g>
		<g id="XMLID_11_" class="st1">
			<g id="XMLID_67_">
				<g id="XMLID_71_">
					<path id="XMLID_75_" class="st2" d="M499.4,726.4c0,0-0.2-0.3-0.5-0.7c-0.3-0.5-0.9-1.2-1.5-2.2c-0.7-1-1.5-2.3-2.5-3.9
						c-1-1.6-2.2-3.6-3.7-5.9c-1.5-2.3-3.4-4.9-5.9-7.5c-0.6-0.6-1.2-1.3-1.9-1.9c-0.7-0.6-1.4-1.3-2-1.8c-1.2-1-2.4-2.1-3.8-3.1
						c-2.7-2.1-5.8-4.3-9-6.1c-1.6-0.9-3.2-1.7-4.7-2.5c-1.4-0.7-2.9-1.4-4.4-2.1c-5.4-2.6-10.4-5.4-14.6-8.4c-4.3-2.9-7.6-6-10-8.8
						c-4.7-5.6-5.9-9.9-5.9-9.9c-0.5-1.4-5.3,0-4.7,1.7c0,0,0.1,0.3,0.3,0.9c0.2,0.6,0.6,1.4,1.1,2.5c1.1,2.1,2.7,5,5.4,8.1
						c2.7,3.1,6.4,6.5,10.9,9.6c4.5,3.1,9.8,6.1,15.3,8.8c1.4,0.7,2.9,1.4,4.3,2.1c1.5,0.7,3,1.5,4.5,2.4c3,1.7,5.9,3.7,8.4,5.7
						c1.3,1,2.5,2,3.6,3c0.6,0.6,1.2,1.1,1.8,1.7c0.6,0.6,1.1,1.2,1.7,1.7c2.2,2.3,3.9,4.7,5.4,6.8c2.9,4.3,4.7,7.7,6.1,9.8
						c0.7,1.1,1.3,1.9,1.6,2.4c0.4,0.5,0.6,0.8,0.6,0.8C496.6,730.8,500.4,727.6,499.4,726.4z"/>
					<path id="XMLID_74_" class="st2" d="M492.6,732.2c0,0-0.2-0.3-0.7-0.9c-0.4-0.6-1-1.4-1.8-2.5c-1.5-2.2-3.4-5.7-6.1-9.8
						c-1.4-2.1-3-4.3-4.9-6.4c-1-1.1-2.1-2.1-3.2-3.1c-1.1-1-2.3-1.9-3.5-2.9c-2.4-1.9-5.1-3.8-7.9-5.4c-2.8-1.6-5.8-3-8.6-4.4
						c-2.8-1.4-5.6-2.8-8.3-4.3c-2.7-1.5-5.3-3.1-7.6-4.8c-4.8-3.3-8.8-6.9-11.8-10.3c-3-3.4-4.9-6.7-6-9c-0.5-1.2-0.9-2.1-1.2-2.8
						c-0.2-0.7-0.3-1-0.3-1c-0.6-1.8-5.4-0.5-4.7,1.7c0,0,0.1,0.4,0.4,1.2c0.3,0.7,0.8,1.8,1.4,3.2c1.3,2.6,3.5,6.3,6.8,10.1
						c3.3,3.8,7.6,7.7,12.7,11.2c2.5,1.8,5.2,3.4,8,5c2.8,1.5,5.7,3.1,8.6,4.5c2.9,1.4,5.7,2.7,8.3,4.3c2.6,1.5,5,3.2,7.3,5
						c1.1,0.9,2.2,1.8,3.3,2.7c1,0.9,1.9,1.8,2.8,2.8c1.7,1.9,3.2,3.9,4.5,5.8c2.5,3.9,4.5,7.4,6.1,9.8c0.8,1.2,1.5,2.1,1.9,2.8
						c0.5,0.6,0.7,1,0.7,1C490,737.1,493.8,733.8,492.6,732.2z"/>
					<path id="XMLID_73_" class="st2" d="M486.9,739.5c0,0-0.3-0.4-0.8-1c-0.3-0.3-0.6-0.8-1-1.3c-0.4-0.5-0.8-1.1-1.2-1.7
						c-1.8-2.6-4-6.4-6.5-10.3c-1.2-1.9-2.6-3.9-4.1-5.7c-1.6-1.8-3.2-3.3-5.6-5.3c-2.2-1.8-4.5-3.4-6.9-4.9
						c-2.5-1.5-5.2-2.8-8.1-4.2c-6.1-2.9-12.1-6.2-17.5-10c-5.4-3.7-10.2-7.9-13.8-12.2c-3.6-4.2-6-8.4-7.4-11.3
						c-0.7-1.5-1.2-2.7-1.5-3.6c-0.3-0.8-0.4-1.3-0.4-1.3c-0.8-2.2-5.6-1-4.7,1.6c0,0,0.2,0.5,0.5,1.4c0.3,0.9,0.9,2.2,1.7,3.9
						c1.6,3.3,4.2,7.9,8.1,12.5c3.9,4.6,9,9.1,14.8,13c5.7,4,12,7.3,18.2,10.4c2.9,1.4,5.5,2.7,7.8,4c2.2,1.3,4.2,2.8,6.3,4.5
						c2.3,1.9,3.6,3,4.9,4.6c1.3,1.5,2.5,3.3,3.7,5.1c2.3,3.7,4.6,7.7,6.6,10.4c0.5,0.7,1,1.3,1.3,1.9c0.4,0.5,0.8,1,1.1,1.4
						c0.6,0.7,0.9,1.1,0.9,1.1C484.8,744.7,488.4,741.2,486.9,739.5z"/>
				</g>
			</g>
		</g>
		<g id="XMLID_12_" class="st1">
			<g id="XMLID_58_">
				<g id="XMLID_62_">
					<path id="XMLID_65_" class="st2" d="M456.9,850c0.6-3.2,1.1-6.2,1.5-9.1c0.4-2.9,0.7-5.7,1.2-8.1c0.1-0.6,0.2-1.2,0.3-1.8
						l0.4-2.2c0.3-1.5,0.5-2.9,0.8-4.4c0.5-3,1-6.1,1.3-9.4c0.3-3.3,0.4-6.9-0.1-10.8l-0.6-4.4l-0.6-4.4c-0.2-1.5-0.5-3.1-0.8-4.7
						c-0.2-0.8-0.3-1.6-0.5-2.5l-0.3-1.3l-0.2-0.7l-0.2-0.8c-0.8-2.7-1.9-5.4-3.5-7.7c-0.8-1.1-1.7-2.2-2.8-3.1
						c-0.5-0.4-1.1-0.8-1.7-1.2c-0.6-0.4-1.2-0.7-1.9-1l-0.8-0.4l-0.5-0.2l-0.1-0.1c-0.2-0.1-0.3-0.2-0.5-0.3
						c-0.3-0.2-0.6-0.4-0.8-0.5c-0.5-0.4-1-0.8-1.4-1.1c-0.8-0.8-1.4-1.6-1.8-2.6c-0.4-1-0.8-2.1-0.9-3.5c-0.2-1.3-0.1-3.5,0-5.7
						c0.2-4.5,0.7-9.1,1.3-13.6c0.7-4.5,1.5-9,2.7-12.6c0.1-0.5,0-0.9-0.4-1.3c-0.4-0.4-0.9-0.7-1.5-0.9c-1.2-0.4-2.5-0.4-2.9,0.7
						c-1.3,4.1-2.2,8.8-2.9,13.4c-0.7,4.7-1.1,9.5-1.3,14.1c-0.1,2.3-0.2,4.7,0.1,6.5c0.2,1.9,0.6,3.6,1.3,5.1
						c0.7,1.5,1.7,2.9,2.9,4.1c0.6,0.6,1.3,1.2,2,1.7c0.4,0.3,0.8,0.5,1.2,0.7c0.2,0.1,0.4,0.2,0.6,0.3l0.2,0.1l0.4,0.2l0.7,0.3
						c0.5,0.2,1,0.5,1.5,0.8c0.5,0.3,0.9,0.5,1.4,0.9c0.9,0.7,1.6,1.5,2.2,2.4c1.2,1.8,2,3.9,2.6,6.1l0.2,0.7l0.2,0.6l0.3,1.2
						c0.2,0.8,0.3,1.6,0.5,2.3c0.3,1.5,0.5,3,0.8,4.5l0.6,4.3l0.6,4.3c0.4,3.4,0.3,6.7,0.1,9.8c-0.3,3.1-0.7,6.1-1.2,9
						c-0.2,1.5-0.5,2.9-0.8,4.3l-0.4,2.1c-0.1,0.7-0.2,1.3-0.3,1.9c-0.9,5.3-1.4,11-2.6,17.1c-0.3,1.4,0.8,2.4,2,2.7
						C455.1,852,456.6,851.5,456.9,850z"/>
					<path id="XMLID_64_" class="st2" d="M447.9,849c1.2-5.8,1.7-11.6,2.6-17.2c0.4-2.7,1.1-5.6,1.6-8.5c0.5-2.9,0.9-5.8,1.2-8.8
						c0.3-3,0.3-6,0-9.1c-0.1-0.8-0.2-1.5-0.3-2.2l-0.3-2.1l-0.6-4.3c-0.4-2.9-0.9-5.8-1.8-8.8c-0.5-1.7-1.1-3.3-2-4.8
						c-0.5-0.7-1-1.4-1.7-1.9c-0.7-0.5-1.5-0.8-2.3-1.2l-0.5-0.2l-0.4-0.2c-0.2-0.1-0.5-0.3-0.7-0.4c-0.5-0.3-1-0.6-1.4-0.9
						c-0.9-0.6-1.8-1.3-2.5-2.1c-1.6-1.5-2.8-3.3-3.7-5.3c-0.9-2-1.4-4.1-1.7-6.4c-0.2-2.2-0.2-4.6-0.1-7c0.2-4.8,0.7-9.7,1.4-14.5
						c0.7-4.8,1.6-9.6,3-14.1c0.8-2.3-3.8-4.2-4.8-1.5c-1.6,5-2.5,9.9-3.2,14.9c-0.7,5-1.2,10-1.4,15c-0.1,2.5-0.2,5.1,0.1,7.8
						c0.3,2.7,0.9,5.4,2.1,7.9c1.2,2.5,2.8,4.8,4.8,6.8c1,1,2.1,1.8,3.2,2.6c0.6,0.4,1.1,0.8,1.7,1.1c0.3,0.2,0.6,0.3,0.9,0.5
						l0.4,0.2l0.3,0.2c0.5,0.3,1,0.5,1.5,0.7c0.5,0.3,0.8,0.8,1.1,1.3c0.6,1,0.9,2.1,1.2,3.1c0.7,2.5,1.2,5.4,1.6,8.1l0.6,4.2
						l0.3,2.1c0.1,0.7,0.2,1.4,0.3,2.1c0.3,2.6,0.2,5.4,0,8.1c-0.2,2.8-0.7,5.6-1.2,8.4c-0.5,2.8-1.1,5.5-1.6,8.5
						c-0.9,5.8-1.4,11.5-2.6,17c-0.3,1.2,0.8,2.1,2,2.4C446.2,850.7,447.6,850.4,447.9,849z"/>
					<path id="XMLID_63_" class="st2" d="M438.6,849.2c0.6-2.5,1.1-5.2,1.5-8.1l1.2-8.9c0.2-1.5,0.5-3.1,0.8-4.7l0.8-4.3
						c0.5-2.8,1-5.7,1.3-8.4c0.3-2.7,0.4-5.3,0.2-7.7c0-0.3,0-0.6-0.1-0.9l-0.1-1l-0.3-2.2l-0.6-4.3c-0.4-2.8-0.9-5.6-1.5-8
						c-0.1-0.4-0.2-0.7-0.3-1c-0.1-0.3-0.2-0.6-0.4-0.9c-0.2-0.3-0.4-0.5-0.6-0.7c-0.3-0.2-0.6-0.3-0.9-0.4l-0.2-0.1c0,0,0,0,0,0
						l-0.1-0.1l-0.3-0.1c-0.3-0.2-0.7-0.4-1-0.6c-0.7-0.4-1.3-0.8-2-1.3c-1.3-0.9-2.6-1.9-3.7-3.1c-2.3-2.3-4.3-5.1-5.6-8.1
						c-1.4-3-2.1-6.2-2.4-9.3c-0.3-3.2-0.2-5.8-0.1-8.4c0.3-5.3,0.8-10.4,1.5-15.6c0.8-5.2,1.8-10.4,3.5-15.8c1-2.8-3.6-4.9-4.7-1.6
						c-1.9,5.9-2.9,11.3-3.8,16.7c-0.8,5.4-1.3,10.6-1.6,16.1c-0.1,1.4-0.1,2.8-0.1,4.2c0,0.8,0,1.5,0,2.3c0,0.8,0.1,1.7,0.2,2.6
						c0.3,3.5,1.2,7.3,2.8,10.9c1.6,3.6,3.9,6.9,6.7,9.6c1.4,1.4,2.8,2.6,4.4,3.6c0.8,0.5,1.5,1,2.3,1.5c0.4,0.2,0.8,0.4,1.2,0.7
						l0.3,0.2l0.1,0.1l-0.2-0.1l0,0.1c0.5,2,1,4.7,1.4,7.4l0.6,4.3l0.3,2.3l0.1,0.9c0,0.2,0.1,0.5,0.1,0.7c0.2,1.9,0.1,4.3-0.2,6.8
						c-0.3,2.5-0.7,5.2-1.2,8l-0.8,4.2c-0.3,1.7-0.6,3.4-0.8,5l-1.2,8.9c-0.4,2.8-0.9,5.4-1.4,7.5c-0.2,0.9,0.8,1.7,2,2.1
						C436.9,850.4,438.3,850.3,438.6,849.2z"/>
				</g>
			</g>
		</g>
		<g id="XMLID_13_" class="st1">
			<g id="XMLID_47_">
				<g id="XMLID_52_">
					<path id="XMLID_56_" class="st2" d="M617.5,783.3c0,0-0.1-0.1-0.3-0.3c-0.2-0.2-0.5-0.5-0.9-0.9c-0.8-0.8-1.8-1.9-3.2-3.6
						c-1.4-1.6-3.1-3.8-5.2-6.5c-2.1-2.7-4.6-5.7-7.3-9c-2.7-3.3-5.6-6.9-8.7-10.7c-3.1-3.7-6.3-7.6-9.9-11.8
						c-3.6-4.1-7.6-8.4-11.9-12.5c-2.1-2-4.3-4-6.5-5.9c-1.1-1-2.2-1.9-3.3-2.8c-1.2-1-2.4-2-3.6-2.9c-2.5-1.9-5-3.6-7.4-5.3
						c-2.5-1.6-4.9-3.2-7.3-4.7c-4.7-2.9-9.1-5.6-12.9-8.4c-1.9-1.4-3.7-2.8-5.4-4.2c-0.9-0.7-1.6-1.4-2.4-2.1
						c-0.8-0.8-1.6-1.5-2.4-2.3c-3.2-3.1-6.1-6.2-8.7-9.1c-5.2-5.9-9.1-11.2-11.7-15c-2.7-3.8-4.1-6-4.1-6c-1.9-2.9-6.1-0.3-4.2,2.7
						c0,0,1.5,2.3,4.2,6.2c2.7,3.9,6.8,9.3,12.1,15.4c2.7,3,5.6,6.2,8.9,9.4c0.8,0.8,1.7,1.6,2.5,2.4c0.9,0.7,1.7,1.5,2.6,2.3
						c1.8,1.5,3.7,3,5.7,4.4c4,2.9,8.5,5.6,13.1,8.6c4.7,2.9,9.6,6.1,14.3,9.7c1.2,0.9,2.3,1.9,3.5,2.8c1.1,0.9,2.2,1.8,3.3,2.8
						c2.2,1.9,4.3,3.8,6.4,5.8c4.1,3.9,8,8.1,11.5,12.1c3.5,4.1,6.7,8,9.8,11.7c3.1,3.8,5.9,7.3,8.6,10.6c2.7,3.3,5.1,6.3,7.3,9
						c2.1,2.7,3.8,5,5.3,6.7c1.5,1.7,2.6,3,3.5,3.9c0.4,0.4,0.7,0.7,0.9,1c0.2,0.2,0.3,0.3,0.3,0.3c1.2,1.1,2.6,0.7,3.5-0.2
						C618.3,785.7,618.6,784.3,617.5,783.3z"/>
					<path id="XMLID_55_" class="st2" d="M612,790.5c0,0-0.5-0.5-1.4-1.3c-0.9-0.9-2.2-2.2-3.7-4c-1.6-1.8-3.4-4.1-5.4-6.8
						c-2.1-2.7-4.6-5.7-7.2-9c-2.7-3.3-5.6-6.8-8.6-10.6c-3.1-3.7-6.3-7.7-9.8-11.7c-3.5-4-7.2-8.1-11.3-12c-2-1.9-4.1-3.9-6.2-5.7
						c-2.1-1.9-4.3-3.7-6.6-5.5c-9.1-7.1-19.2-12.3-27.5-18.3c-4.2-3-8-6.2-11.4-9.5c-3.4-3.3-6.5-6.6-9.2-9.7
						c-5.5-6.2-9.6-11.8-12.4-15.8c-2.8-4-4.3-6.3-4.3-6.3c-2-3-6.2-0.4-4.2,2.7c0,0,1.5,2.4,4.4,6.5c2.9,4.1,7.1,9.8,12.7,16.2
						c2.8,3.2,6,6.6,9.5,10c3.5,3.4,7.6,6.8,11.9,9.9c8.8,6.3,18.8,11.5,27.4,18.2c2.1,1.7,4.3,3.5,6.3,5.3c2.1,1.8,4.1,3.7,6.1,5.6
						c3.9,3.8,7.6,7.7,11,11.6c3.4,3.9,6.6,7.9,9.7,11.6c3,3.7,5.9,7.3,8.6,10.5c2.6,3.3,5.1,6.2,7.2,8.9c2.1,2.7,4,5.1,5.6,7
						c1.6,1.9,3,3.4,4,4.3c1,1,1.5,1.5,1.5,1.5c1.4,1.3,3,1,3.8,0C613.2,793.2,613.3,791.7,612,790.5z"/>
					<path id="XMLID_54_" class="st2" d="M608.7,799.6c0,0-0.6-0.5-1.7-1.5c-1.1-1-2.7-2.5-4.6-4.5c-1.9-2-4-4.5-6.2-7.4
						c-1.1-1.4-2.2-2.9-3.4-4.4c-1.2-1.5-2.5-3.1-3.9-4.8c-2.7-3.3-5.6-6.9-8.7-10.7c-3.1-3.8-6.5-7.9-9.9-11.9
						c-3.4-4-7-8-10.9-11.8c-1.9-1.9-4-3.8-6-5.6c-1.1-0.9-2.1-1.8-3.2-2.7l-1.6-1.4l-1.6-1.3c-4.2-3.4-8.8-6.4-13.5-9.3
						c-4.7-3-9.7-6-14.3-9.3c-2.3-1.7-4.6-3.4-6.7-5.2c-1.1-0.9-2.1-1.8-3.1-2.7c-1-0.9-1.9-1.8-2.9-2.7c-3.7-3.6-7-7.1-10-10.5
						c-5.9-6.7-10.3-12.7-13.3-17c-3-4.3-4.6-6.8-4.6-6.8c-2-3.2-6.3-0.5-4.2,2.7c0,0,1.6,2.6,4.7,6.9c3.1,4.3,7.6,10.5,13.6,17.4
						c3,3.5,6.4,7.1,10.3,10.8c1,0.9,1.9,1.8,3,2.8c1.1,0.9,2.1,1.9,3.3,2.9c2.2,1.9,4.6,3.7,7,5.4c4.8,3.4,9.8,6.5,14.5,9.4
						c4.7,2.9,9.1,5.8,13.1,9l1.5,1.2l1.6,1.3c1.1,0.9,2.1,1.8,3.1,2.7c2,1.8,4,3.6,5.9,5.4c3.8,3.7,7.2,7.5,10.6,11.5
						c1.7,2,3.4,4,5,6c1.7,2,3.3,4,4.8,5.8c3.1,3.8,6,7.3,8.7,10.6c1.3,1.6,2.6,3.2,3.8,4.7c1.2,1.6,2.4,3.1,3.4,4.4
						c2.3,2.9,4.5,5.6,6.5,7.7c2,2.1,3.7,3.8,4.9,4.8c1.2,1.1,1.9,1.6,1.9,1.6c1.7,1.4,3.3,1,4.1,0
						C610.4,802.5,610.3,800.9,608.7,799.6z"/>
				</g>
			</g>
		</g>
		<g id="XMLID_31_" class="st1">
			<g id="XMLID_34_">
				<g id="XMLID_41_">
					<path id="XMLID_45_" class="st2" d="M599.8,830.5c0,0-0.4-0.3-1-0.8c-0.7-0.5-1.7-1.3-3-2.2c-2.5-1.8-6.2-3.9-10.2-6
						c-1-0.5-1.9-1-3.3-1.7c-1.2-0.6-2.5-1.2-3.7-1.7c-2.4-1.1-4.6-2-6.5-3c-0.9-0.5-1.8-1-2.5-1.5c-0.7-0.5-1.5-1-2.2-1.7
						c-1.6-1.3-3.3-3.1-5.3-5.2l-1.6-1.6l-0.7-0.7c-0.1-0.1-0.3-0.3-0.4-0.5c-0.6-0.7-1.2-1.5-2-2.5c-0.8-1.2-1.6-2.3-2.4-3.5
						c-0.5-0.7-1-1.3-1.5-2l-0.8-1l-0.5-0.6c-1.1-1.4-2.2-3.2-3.3-5.1c-0.5-0.9-1.1-1.9-1.6-2.9c-0.2-0.3-0.2-0.3-0.2-0.4l-0.1-0.2
						l-0.1-0.3c-0.2-0.4-0.4-0.9-0.6-1.3c-0.8-2-1.8-4.2-2.9-6.3c-0.5-1-1.2-2.1-1.8-3.1c-0.4-0.5-0.7-1-1-1.5
						c-0.4-0.5-0.8-1-1.2-1.4c-0.3-0.4-0.8-0.9-1.3-1.3c-0.2-0.2-0.4-0.4-0.6-0.6c-0.1-0.1-0.2-0.2-0.3-0.3
						c-0.1-0.1-0.2-0.2-0.4-0.3c-0.5-0.4-0.9-0.7-1.4-1c-0.2-0.1-0.4-0.3-0.6-0.4c-0.2-0.1-0.3-0.2-0.5-0.3
						c-0.6-0.3-1.1-0.6-1.4-0.7c-0.3-0.1-0.5-0.2-0.5-0.2c-0.9-0.3-1.7-0.4-2.3,0c-0.6,0.3-1,0.9-1.2,1.5c-0.4,1.2,0,2.5,1.3,3
						c0,0,0.1,0,0.4,0.1c0.2,0.1,0.6,0.3,1.1,0.6c0.1,0.1,0.2,0.1,0.4,0.2c0.1,0.1,0.3,0.2,0.5,0.3c0.3,0.2,0.7,0.5,1,0.8
						c0.4,0.3,0.6,0.6,1,0.9c0.3,0.3,0.7,0.7,1,1c2.5,2.9,4.3,6.9,6,10.9c0.2,0.5,0.4,0.9,0.6,1.4c0.2,0.5,0.3,0.7,0.6,1.2
						c0.5,1,1.1,2,1.6,3c1.1,2,2.4,4,3.7,5.7l0.6,0.7l0.7,0.9c0.5,0.6,0.9,1.2,1.4,1.9c0.8,1.1,1.6,2.3,2.4,3.5
						c0.8,1.1,1.5,2.1,2.3,2.9c0.2,0.2,0.4,0.4,0.6,0.6l0.7,0.7l1.5,1.6c2,2.1,3.8,4,5.7,5.6c1.8,1.6,3.6,2.7,5.7,3.8
						c2.1,1.1,4.4,2.1,6.8,3.1c2.3,1,4.8,2.3,6.6,3.2c3.9,2,7.4,4,9.7,5.7c1.2,0.8,2.1,1.5,2.7,2c0.6,0.5,0.9,0.8,0.9,0.8
						C598.3,835.7,601.7,832.1,599.8,830.5z"/>
					<path id="XMLID_44_" class="st2" d="M594.6,837.8c0,0-1.2-1-3.4-2.6c-2.2-1.6-5.4-3.5-9.4-5.5c-1-0.5-2-1-3.1-1.6
						c-1.1-0.6-2.2-1.1-3.4-1.6c-2.3-1-4.7-2.1-7-3.2c-2.3-1.2-4.5-2.5-6.6-4.3c-2.1-1.7-4-3.8-6-5.9l-1.5-1.6l-0.8-0.8
						c-0.2-0.2-0.5-0.5-0.7-0.7c-0.9-1-1.7-2.1-2.5-3.2c-0.8-1.2-1.6-2.3-2.5-3.5c-0.4-0.6-0.8-1.2-1.3-1.8c-0.4-0.6-1-1.2-1.3-1.6
						c-1.6-2-2.9-4.1-4.1-6.3c-0.6-1.1-1.2-2.1-1.7-3.1c-0.3-0.5-0.5-0.9-0.7-1.4c-0.2-0.5-0.4-1-0.6-1.5c-1.7-4-3.4-7.6-5.4-9.9
						c-0.2-0.3-0.5-0.6-0.8-0.8c-0.3-0.2-0.5-0.5-0.7-0.7c-0.5-0.4-1-0.8-1.3-0.9c-0.4-0.2-0.7-0.3-0.8-0.4
						c-0.2-0.1-0.3-0.1-0.3-0.1c-1.1-0.4-2.1,0.8-2.5,2c-0.4,1.2-0.4,2.3,0.3,2.5c0,0,0.3,0.1,0.7,0.3c0.3,0.1,0.4,0.3,0.7,0.5
						c0.1,0.1,0.3,0.3,0.4,0.4c0.2,0.2,0.3,0.3,0.5,0.5c1.4,1.5,2.9,4.6,4.6,8.6c0.2,0.5,0.5,1,0.7,1.6c0.2,0.5,0.6,1.2,0.8,1.7
						c0.6,1.1,1.1,2.2,1.8,3.3c1.3,2.2,2.7,4.6,4.5,6.9c0.5,0.6,0.8,1,1.3,1.6c0.4,0.5,0.8,1.1,1.2,1.6c0.8,1.2,1.6,2.3,2.5,3.5
						c0.9,1.2,1.8,2.4,2.8,3.6c0.3,0.3,0.5,0.6,0.8,0.9l0.8,0.8l1.5,1.6c2,2.1,4.1,4.3,6.4,6.3c2.3,2,5,3.6,7.5,4.9
						c2.5,1.3,5,2.3,7.3,3.3c1.1,0.5,2.2,1,3.2,1.5c1,0.5,2,1,3,1.5c3.8,2,6.8,3.8,8.8,5.2c2,1.4,3,2.3,3,2.3
						C592.6,842.8,596.1,839.2,594.6,837.8z"/>
					<path id="XMLID_42_" class="st2" d="M589.8,845.6c0,0-0.2-0.2-0.7-0.6c-0.4-0.4-1.1-0.9-2-1.6c-1.8-1.4-4.5-3.1-8.3-5.1
						c-1-0.5-2-1-3-1.6c-0.5-0.3-1-0.5-1.5-0.8c-0.5-0.2-1-0.5-1.6-0.7c-2.2-1-4.7-2.1-7.5-3.4c-1.4-0.7-2.8-1.4-4.3-2.3
						c-1.5-0.9-2.9-1.9-4.3-3c-2.7-2.2-5-4.6-7.1-6.7c-1.1-1.1-2.1-2.2-3.2-3.3c-1.2-1.4-2.3-2.7-3.3-4c-0.9-1.2-1.7-2.4-2.6-3.6
						c-0.4-0.6-0.8-1.1-1.1-1.6l-0.6-0.7l-0.7-0.8c-2.1-2.7-3.6-5.2-5-7.6c-0.7-1.2-1.3-2.4-1.9-3.5c-0.1-0.2-0.3-0.7-0.5-1
						c-0.2-0.4-0.3-0.7-0.4-1c-0.2-0.6-0.5-1.1-0.7-1.7c-0.9-2.1-1.6-3.7-2.3-5c-0.7-1.3-1.3-2.1-1.7-2.5c-0.1-0.1-0.2-0.2-0.2-0.2
						c-0.1-0.1-0.1,0-0.1-0.1c0,0-0.3-0.2-0.4-0.2c-0.3-0.1-0.4-0.1-0.4-0.1c-1-0.1-1.7,4.6-1.9,4.5c0,0,0.1,0.1-0.2-0.1
						c-0.1,0-0.1-0.1-0.2-0.1l-0.1-0.1l0,0l0,0l0,0c-0.4,0.5,3.4-4,1.8-2.1l-0.2,0.2c-0.5,0.6-1,1.1-1.6,1.7l-0.1,0.1c0,0,0,0,0,0
						c0,0,0,0,0,0l0,0c0,0,0,0,0,0.1c0,0,0.1,0.1,0.2,0.3l0.1,0.2c0.1,0.1,0.1,0.2,0.2,0.3c0.1,0.2,0.2,0.4,0.4,0.7
						c0.6,1,1.2,2.5,2.1,4.6c0.3,0.6,0.5,1.2,0.8,1.8c0.2,0.3,0.3,0.6,0.5,1.1c0.2,0.4,0.5,0.9,0.6,1.2c0.6,1.1,1.2,2.3,2,3.6
						c1.4,2.5,3.1,5.3,5.5,8.3l0.6,0.8l0.5,0.6c0.3,0.5,0.7,1,1.1,1.4c0.9,1.2,1.7,2.4,2.6,3.7c1,1.4,2.2,2.9,3.6,4.5
						c1.1,1.1,2.2,2.3,3.2,3.4c2.1,2.2,4.6,4.8,7.6,7.2c1.5,1.2,3.2,2.4,4.8,3.4c1.6,1,3.2,1.8,4.7,2.5c2.9,1.4,5.5,2.5,7.6,3.5
						c0.5,0.2,1,0.5,1.5,0.7c0.5,0.2,1,0.5,1.4,0.7c1,0.5,2,1.1,3,1.6c3.7,2,6.2,3.5,7.7,4.7c0.8,0.6,1.3,1,1.7,1.4
						c0.4,0.3,0.5,0.5,0.5,0.5C587.3,850.1,591,846.8,589.8,845.6z"/>
				</g>
			</g>
		</g>
	</g>
	<path id="XMLID_x5F_14_x5F_" class="st3" d="M272.8,421.5c-89.6-36.9-181-109.6-134.7-220.8c32-76.8,110.9-99.6,168.3-87.2
		c74.8,16.3,121.5,77.2,111,148.9c-8.4,57.4-61.7,97.2-119.2,88.8c-45.9-6.7-77.7-49.4-71-95.3c5.4-36.8,39.5-62.2,76.3-56.8
		c29.4,4.3,49.8,31.6,45.5,61c-3.4,23.5-25.3,41.1-48.8,37.6c-18.8-2.7-31.8-20.2-29.1-39c2.2-15.1,16.2-25.5,31.2-23.3"/>
	<text id="XMLID_7_">	<textPath  xlink:href="#XMLID_x5F_14_x5F_" startOffset="0.7373%">
<tspan  style="fill:#006633;stroke:#006633;stroke-width:3;stroke-miterlimit:10; font-family:'IntroCondBlackFree'; font-size:172.7768px; letter-spacing:300;">С</tspan><tspan  style="fill:#006633;stroke:#006633;stroke-width:3;stroke-miterlimit:10; font-family:'IntroCondBlackFree'; font-size:159.5441px; letter-spacing:300;">ъ</tspan><tspan  style="fill:#006633;stroke:#006633;stroke-width:3;stroke-miterlimit:10; font-family:'IntroCondBlackFree'; font-size:146.573px; letter-spacing:300;">с</tspan><tspan  style="fill:#006633;stroke:#006633;stroke-width:3;stroke-miterlimit:10; font-family:'IntroCondBlackFree'; font-size:133.8614px; letter-spacing:300;">т</tspan><tspan  style="fill:#006633;stroke:#006633;stroke-width:3;stroke-miterlimit:10; font-family:'IntroCondBlackFree'; font-size:120.6309px; letter-spacing:300;">р</tspan><tspan  style="fill:#006633;stroke:#006633;stroke-width:3;stroke-miterlimit:10; font-family:'IntroCondBlackFree'; font-size:107.6598px; letter-spacing:300;">а</tspan><tspan  style="fill:#006633;stroke:#006633;stroke-width:3;stroke-miterlimit:10; font-family:'IntroCondBlackFree'; font-size:94.6888px; letter-spacing:300;">д</tspan><tspan  style="fill:#006633;stroke:#006633;stroke-width:3;stroke-miterlimit:10; font-family:'IntroCondBlackFree'; font-size:81.7177px; letter-spacing:300;">а</tspan><tspan  style="fill:#006633;stroke:#006633;stroke-width:3;stroke-miterlimit:10; font-family:'IntroCondBlackFree'; font-size:68.7466px; letter-spacing:300;">н</tspan><tspan  style="fill:#006633;stroke:#006633;stroke-width:3;stroke-miterlimit:10; font-family:'IntroCondBlackFree'; font-size:55.7756px; letter-spacing:300;">и</tspan><tspan  style="fill:#006633;stroke:#006633;stroke-miterlimit:10; font-family:'IntroCondBlackFree'; font-size:42.8045px; letter-spacing:300;">е</tspan>	</textPath>
</text>
</g>
<g id="Layer_2">
</g>
</svg>
