<?xml version="1.0" encoding="utf-8"?>
<!-- Generator: Adobe Illustrator 19.0.0, SVG Export Plug-In . SVG Version: 6.00 Build 0)  -->
<svg version="1.1" id="Layer_1" xmlns="http://www.w3.org/2000/svg" xmlns:xlink="http://www.w3.org/1999/xlink" x="0px" y="0px"
	 viewBox="0 0 595.3 841.9" style="enable-background:new 0 0 595.3 841.9;" xml:space="preserve">
<style type="text/css">
	.st0{fill:none;stroke:#683C11;stroke-miterlimit:10;}
	.st1{fill:none;stroke:#397545;stroke-miterlimit:10;}
	.st2{fill:#006633;}
	.st3{fill:#432918;}
	.st4{stroke:#000000;stroke-width:3;stroke-miterlimit:10;}
	.st5{font-family:'IntroCondBlackFree';}
	.st6{font-size:87.8305px;}
	.st7{fill:none;stroke:#000000;stroke-width:3;stroke-miterlimit:10;}
	.st8{font-size:77.7171px;}
	.st9{font-size:137.1197px;}
</style>
<g id="XMLID_72_">
	<g id="XMLID_204_">
		<path id="XMLID_208_" class="st0" d="M238,415.3"/>
	</g>
</g>
<g id="XMLID_9_">
	<g id="XMLID_198_">
		<path id="XMLID_202_" class="st0" d="M235.7,513.5"/>
	</g>
</g>
<path id="XMLID_59_" d="M268,441.8"/>
<g id="XMLID_7_">
	<g id="XMLID_60_">
		<g id="XMLID_176_">
			<path id="XMLID_196_" class="st1" d="M225.3,428"/>
		</g>
	</g>
	<g id="XMLID_58_">
		<g id="XMLID_186_">
			<g id="XMLID_190_">
				<path id="XMLID_193_" class="st2" d="M473.8,168c0,0,0.3-1.5,0.5-4c0.2-2.5,0.4-6,0.4-9.9c0-0.9,0-1.8,0-2.7c0-0.2,0-0.4,0-0.6
					c0-0.2,0-0.4,0-0.6c0-0.5,0.1-1.1,0.1-1.7c0.2-2.3,0.4-4.9,0.5-7.7c0.1-2.8,0.2-5.9,0.1-9.4c-0.1-3.4-0.4-7.2-1.2-11.3
					c-0.4-2.1-0.9-4.2-1.7-6.4c-0.2-0.5-0.4-1.1-0.6-1.6c-0.2-0.6-0.5-1.1-0.7-1.7c-0.5-1.2-0.9-1.9-1.4-2.9
					c-0.9-1.8-1.8-3.6-2.9-5.3c-0.5-0.9-1-1.7-1.5-2.6c-0.5-0.9-1.1-1.7-1.7-2.6c-4.5-6.9-9.8-13.6-15.7-20.1
					c-5.9-6.5-12.6-12.6-19.8-18.4c-7.3-5.7-15-11.1-23.8-15.5c-8.9-4.5-18.2-7.3-27.3-9.3c-9.1-2-17.9-3.1-26.4-3.9
					c-8.5-0.8-16.5-1.1-24.1-1.5c-1.8-0.1-3.9-0.1-5.8-0.2c-1.9,0-3.9,0-5.8,0c-3.8,0.1-7.4,0.2-10.9,0.5c-14,1-25.7,3.8-33.8,6.5
					c-2,0.6-3.8,1.4-5.4,1.9c-1.6,0.6-2.9,1.2-3.9,1.7c-1.1,0.4-1.9,0.9-2.4,1.1c-0.5,0.3-0.8,0.4-0.8,0.4c-0.7,0.4-1.3,0.7-1.8,1.1
					c-0.5,0.4-0.8,0.8-1.1,1.3c-0.5,0.8-0.5,1.6-0.2,2.1c0.3,0.5,1,0.9,1.9,0.9c0.5,0,1-0.1,1.6-0.2c0.6-0.1,1.2-0.4,1.9-0.7
					c0,0,0.3-0.1,0.8-0.4c0.5-0.2,1.3-0.7,2.3-1.1c1-0.4,2.3-1,3.7-1.6c1.5-0.5,3.2-1.2,5.1-1.9c7.7-2.6,19-5.3,32.6-6.3
					c3.4-0.3,6.9-0.4,10.6-0.5c1.8,0,3.7,0,5.6,0c1.9,0.1,3.8,0.1,5.7,0.2c7.5,0.3,15.5,0.7,23.9,1.5c8.3,0.8,17,1.8,25.8,3.8
					c8.8,2,17.7,4.7,26.1,8.9c8.4,4.2,15.9,9.4,22.9,14.9c7,5.6,13.5,11.6,19.2,17.9c5.8,6.3,10.9,12.8,15.2,19.4
					c0.5,0.8,1.1,1.7,1.6,2.5c0.5,0.8,1,1.7,1.5,2.5c1,1.6,1.9,3.4,2.7,5c0.4,0.9,0.9,1.6,1.3,2.6c0.2,0.5,0.4,1,0.6,1.5
					c0.2,0.5,0.3,1,0.5,1.5c0.7,1.9,1.2,3.8,1.5,5.7c1.4,7.4,1.2,13.9,1,19.4c-0.1,2.8-0.3,5.3-0.5,7.6c0,0.6-0.1,1.1-0.1,1.7
					c0,0.2,0,0.5,0,0.7c0,0.2,0,0.4,0,0.7c0,0.9,0,1.9,0,2.9c0,3.8-0.1,7.1-0.4,9.4c-0.2,2.3-0.5,3.6-0.5,3.6
					c-0.3,1.7-0.3,3.1-0.2,4.2c0.2,1.1,0.5,1.8,1.1,2c0.6,0.2,1.4-0.1,2.2-1C472.8,171.4,473.5,169.9,473.8,168z"/>
				<path id="XMLID_192_" class="st2" d="M464.6,168.3c0,0,0.3-1.2,0.6-3.4c0.3-2.2,0.5-5.3,0.5-9.2c0-1.9,0-4.1,0.1-6.2
					c0.2-2.3,0.3-4.8,0.5-7.5c0.3-5.4,0.6-11.6-0.5-18.5c-0.6-3.4-1.5-7-3.2-10.5c-0.9-1.6-1.7-3.3-2.6-4.9c-1-1.6-1.9-3.3-2.9-4.9
					c-4.1-6.5-9.1-13-14.7-19.2c-5.6-6.2-11.9-12.2-18.7-17.7c-1.7-1.4-3.4-2.8-5.2-4c-0.9-0.7-1.8-1.3-2.7-2l-2.8-1.9l-1.4-0.9
					l-1.4-0.9l-2.8-1.8l-2.9-1.7c-1-0.6-2-1.1-3-1.6l-3-1.5l-3.1-1.3l-1.6-0.7l-1.6-0.6l-3.2-1.2c-4.3-1.4-8.5-2.7-12.8-3.6
					c-8.6-2-17.2-3.1-25.4-3.8c-8.3-0.8-16.3-1.1-23.8-1.5c-3.8-0.2-7.5-0.3-11.1-0.2c-3.6,0.1-7.1,0.2-10.4,0.4
					c-13.4,1-24.4,3.5-31.8,6.1c-1.9,0.6-3.5,1.3-5,1.8c-1.4,0.6-2.6,1.1-3.6,1.5c-1,0.4-1.7,0.8-2.2,1c-0.5,0.2-0.7,0.4-0.7,0.4
					c-0.7,0.3-1.2,0.7-1.6,1c-0.4,0.4-0.7,0.8-0.9,1.2c-0.4,0.8-0.4,1.5-0.1,2s0.9,0.9,1.8,1c0.4,0,0.9,0,1.4-0.1
					c0.5-0.1,1.1-0.3,1.7-0.6c0,0,0.2-0.1,0.7-0.3c0.5-0.2,1.1-0.6,2.1-1c0.9-0.4,2-0.9,3.4-1.4c1.4-0.5,2.9-1.1,4.7-1.7
					c7.1-2.4,17.7-4.9,30.6-5.8c3.2-0.3,6.6-0.4,10.1-0.4c3.5,0,7.1,0.1,10.9,0.2c7.5,0.3,15.5,0.7,23.6,1.5
					c8.1,0.8,16.5,1.8,24.8,3.7c4.2,0.9,8.3,2.1,12.3,3.4l3,1.1l1.5,0.6l1.5,0.6l2.9,1.3l2.9,1.4c1,0.5,1.9,1,2.8,1.5l2.8,1.6
					l2.7,1.7l1.4,0.9l1.3,0.9l2.7,1.8c0.9,0.6,1.7,1.3,2.6,1.9c1.7,1.2,3.4,2.6,5.1,3.9c6.6,5.3,12.7,11.1,18.2,17.1
					c5.4,6,10.2,12.2,14.2,18.5c1,1.5,1.9,3.1,2.8,4.7c0.9,1.6,1.7,3.1,2.5,4.7c1.5,2.9,2.3,6,2.8,9.1c1,6.2,0.8,12.1,0.5,17.4
					c-0.2,2.7-0.4,5.2-0.5,7.5c-0.2,2.5-0.1,4.6-0.2,6.5c0,3.8-0.2,6.7-0.5,8.6c-0.3,1.9-0.5,2.9-0.5,2.9c-0.3,1.2-0.3,2.2-0.1,3
					c0.2,0.8,0.6,1.4,1.1,1.7c0.5,0.3,1.3,0.3,2-0.3C463.5,170.9,464.2,169.9,464.6,168.3z"/>
				<path id="XMLID_191_" class="st2" d="M454.8,169c0,0,0-0.1,0.2-0.3c0.1-0.2,0.3-0.5,0.5-1.2c0.4-1.2,1-3.7,1.2-7.2
					c0.1-1.8,0.1-3.8,0.2-6.2c0-1.2,0-2.4,0.1-3.9c0-0.4,0-0.8,0.1-1.1c0-0.3,0-0.7,0.1-1c0-0.7,0.1-1.3,0.1-2
					c0.4-5.4,0.8-11.4,0.3-17.4c-0.3-3-0.7-6-1.7-8.8l-0.4-1l-0.4-1c-0.2-0.6-0.7-1.5-1.1-2.2c-0.4-0.8-0.8-1.6-1.2-2.3
					c-0.4-0.8-0.9-1.6-1.4-2.3c-3.7-6.3-8.3-12.6-13.6-18.7c-10.7-12.1-24-23.7-39-31.9c-7.3-3.9-15.3-6.7-23.6-8.6
					c-4.1-1-8.3-1.7-12.4-2.4c-4.2-0.6-8.3-1.1-12.4-1.5c-8.2-0.8-16.3-1.2-24-1.5c-2-0.1-3.8-0.1-5.6-0.2c-1.8,0-3.6,0-5.3,0
					c-1.7,0-3.5,0.1-5.2,0.2c-0.8,0-1.7,0.1-2.5,0.1c-0.8,0.1-1.6,0.1-2.4,0.2c-6.5,0.5-12.3,1.4-17.4,2.5
					c-5.1,1.1-9.4,2.4-12.9,3.6c-3.5,1.2-6.1,2.4-7.8,3.2c-1.7,0.9-2.7,1.3-2.7,1.3c-4.6,2.6-1.8,6.8,2.3,4.4c0,0,0.9-0.4,2.5-1.2
					c1.6-0.8,4.1-1.8,7.4-3c3.3-1.1,7.4-2.4,12.3-3.4c4.9-1,10.5-1.9,16.8-2.4c0.8-0.1,1.6-0.1,2.4-0.2c0.8,0,1.6-0.1,2.4-0.1
					c1.6-0.1,3.3-0.1,5-0.1c1.7,0,3.4,0,5.2,0c1.7,0.1,3.5,0.1,5.5,0.2c7.7,0.3,15.7,0.7,23.7,1.5c4,0.4,8.1,0.9,12.1,1.4
					c4,0.6,8.1,1.3,12,2.3c7.9,1.8,15.5,4.5,22.3,8.1c7.1,3.9,13.9,8.6,20.3,13.9c6.3,5.3,12.2,11,17.3,16.9c5.1,5.9,9.6,12,13,17.9
					c0.4,0.7,0.9,1.5,1.3,2.2c0.4,0.7,0.8,1.5,1.1,2.2c0.4,0.7,0.8,1.6,1,2l0.3,0.8l0.3,0.8c0.8,2.2,1.2,4.8,1.4,7.6
					c0.4,5.5,0,11.2-0.3,16.7c0,0.7-0.1,1.4-0.1,2c0,0.3,0,0.7-0.1,1c0,0.4,0,0.8-0.1,1.3c-0.1,1.6-0.1,2.9-0.1,4.1
					c0,2.4,0,4.3-0.1,5.9c-0.2,3.3-0.6,5.2-0.9,5.9c-0.1,0.2-0.1,0.2-0.1,0.3c0,0,0,0,0,0l0,0c0.1,0.1,0.2,0.1,0.3,0.2
					c0.5,0.3,0.8,0.5,1.1,0.6c0.2,0.1,0.3,0.2,0.3,0.2c2,1.4,2.3,2.1,2.4,2.1c0.1,0.1,0,0,0,0l0,0l0,0c0,0,0.1,0.1,0,0
					c0-0.1-0.1-0.1-0.1-0.2c0-0.1-0.1-0.1-0.1-0.2c0,0,0,0,0,0c0,0,0,0,0,0C454.5,169.2,454.6,169.2,454.8,169z"/>
			</g>
		</g>
	</g>
	<g id="XMLID_57_">
		<g id="XMLID_177_">
			<g id="XMLID_181_">
				<path id="XMLID_184_" class="st2" d="M403.6,428.3c0.7-0.2,1.3-0.4,1.9-0.6l1.6-0.5l3.1-1l6-2c2-0.6,3.9-1.3,5.8-1.8l2.8-0.8
					c1.4-0.4,2.8-0.8,4.1-1.4c2.7-1,5.1-2.3,7.2-3.4c2.1-1.2,3.8-2.2,5.4-3c2.1-1.1,1.5-0.9,3.6-1.5c0.9-0.3,2.2-0.6,3.8-1.2
					c0.8-0.3,1.7-0.7,2.6-1.1c0.9-0.4,1.9-1,2.7-1.5c3.1-2.1,5.1-4.2,6.7-5.8c1.6-1.7,2.8-2.9,3.6-3.6l2.4-2
					c0.9-0.7,1.8-1.4,2.6-2.2c1.7-1.5,3.4-3,5.1-4.5c6.6-6.2,12.9-12.8,18.5-20.1c5.7-7.2,10.7-15.1,14.8-23.5
					c4.1-8.4,7.4-17.4,9.2-27c1-5.4,1.1-10.8,0.7-15.7c-0.4-5-1.2-9.6-2.1-13.9c-0.9-4.4-1.8-8.4-2.5-12.3l-0.1-0.7l-0.1-0.5
					l-0.2-1.2l-0.4-3.2c-0.1-1.2-0.3-2.6-0.7-4.1c-0.1-0.4-0.2-0.8-0.3-1.2c-0.1-0.5-0.3-1-0.4-1.5c-0.3-1-0.7-2-1.1-3
					c-0.6-1.4-1.4-2.7-2.3-3.8c-0.5-0.6-1-1.1-1.5-1.7l-0.4-0.5c-0.1-0.1-0.1-0.1-0.1-0.1l0,0l-0.4-0.6c-0.3-0.5-0.6-0.9-0.9-1.5
					c-1.2-2.1-2.5-4.7-4.1-7.7c-0.8-1.5-1.7-3-2.7-4.7c-0.5-0.8-1.1-1.6-1.7-2.4c-0.3-0.4-0.6-0.8-0.9-1.2l-0.9-1.2
					c-2-2.3-4-4.7-6.2-7.1c-2.2-2.4-4.4-4.8-6.8-7.1c-1.2-1.2-2.5-2.3-3.8-3.5l-2-1.7l-1-0.8l-1.1-0.8c-2.8-2.2-6-4.2-9.3-5.9
					c-3.4-1.8-7.2-3.1-11.2-4.1c-1.9-0.3-3.4-0.3-4.4,0.1c-1,0.4-1.5,1-1.6,1.6c0,0.6,0.4,1.3,1.2,1.8c0.8,0.5,2,1.1,3.7,1.4
					c3.5,0.8,6.9,2,10,3.6c3.1,1.6,6,3.4,8.6,5.5c0.7,0.5,1.3,1,1.9,1.5l1.9,1.6c1.2,1.1,2.4,2.2,3.6,3.3c2.3,2.2,4.5,4.5,6.6,6.8
					c2.1,2.3,4.1,4.7,6.1,7c2.3,2.8,4.2,5.8,5.7,8.6c1.5,2.8,2.8,5.5,4.2,7.8c0.3,0.6,0.7,1.1,1,1.7l0.5,0.8
					c0.1,0.1,0.2,0.3,0.3,0.4l0.2,0.2l0.4,0.4c0.4,0.4,0.8,0.9,1.2,1.3c0.7,0.9,1.4,1.9,1.8,3c0.3,0.8,0.6,1.5,0.9,2.3
					c0.1,0.4,0.2,0.8,0.3,1.2c0.1,0.3,0.2,0.7,0.2,1c0.3,1.3,0.4,2.6,0.6,3.7l0.4,3.2l0.2,1.4c0.1,0.4,0.1,0.8,0.2,1.3
					c0.7,4,1.7,8.1,2.5,12.4c0.9,4.3,1.6,8.7,2,13.3c0.4,4.6,0.3,9.5-0.6,14.4c-1.7,9-4.8,17.6-8.8,25.7c-4,8.1-8.8,15.6-14.3,22.6
					c-5.5,7-11.5,13.5-18,19.5c-1.6,1.5-3.3,2.9-4.9,4.4c-0.8,0.7-1.7,1.4-2.5,2.1l-2.4,2c-1.2,1-2.5,2.4-4,4
					c-1.6,1.6-3.3,3.4-5.8,5.1c-0.6,0.4-1.4,0.9-2.1,1.2c-0.7,0.4-1.4,0.7-2.1,0.9c-1.3,0.5-2.5,0.8-3.5,1.1
					c-2.1,0.6-2.6,0.8-4.6,1.9c-1.7,0.9-3.5,2-5.5,3.1c-2,1.1-4.2,2.2-6.5,3.1c-1.2,0.5-2.4,0.9-3.6,1.2l-2.9,0.8
					c-2,0.6-3.9,1.2-5.9,1.9l-6,2l-3,1L404,423c-0.5,0.2-1.1,0.4-1.7,0.5c-1.6,0.5-2.9,1-3.8,1.7c-0.9,0.6-1.6,1.3-1.5,1.9
					c0,0.6,0.8,1.2,2,1.5C400.2,428.8,401.8,428.8,403.6,428.3z"/>
				<path id="XMLID_183_" class="st2" d="M399.3,420.1c1.1-0.3,2.2-0.6,3.3-0.9l3.1-1l6.1-2c2-0.7,4-1.3,6.1-1.9l3-0.9l1.5-0.4
					c0.6-0.2,1.1-0.3,1.7-0.5c4.4-1.4,8.3-3.9,11.9-5.9c0.9-0.5,1.8-1,2.7-1.5c0.5-0.3,0.8-0.4,1.3-0.6c0.4-0.2,0.9-0.3,1.3-0.5
					c1.9-0.6,4.1-1,6.5-2.2c2.3-1.2,4-2.9,5.6-4.4c1.6-1.6,3-3.2,4.4-4.5c0.4-0.3,0.7-0.6,1.1-0.9l1.3-1l2.5-2.1
					c1.6-1.4,3.3-2.9,4.9-4.3c6.4-5.9,12.4-12.2,17.8-19.1c5.4-6.8,10.2-14.2,14.1-22c3.9-7.8,6.9-16.2,8.7-24.8
					c0.9-4.5,1-9,0.7-13.5c-0.3-4.4-1.1-8.8-1.9-13c-0.8-4.2-1.8-8.4-2.5-12.5c-0.4-2-0.5-4-0.8-6.2c-0.1-1.1-0.3-2.2-0.5-3.4
					c-0.2-1.1-0.6-2.5-1.1-3.6c-0.4-0.8-0.8-1.6-1.4-2.3c-0.3-0.4-0.6-0.7-0.9-1l-0.4-0.4l-0.3-0.3c-0.2-0.2-0.4-0.5-0.5-0.7
					l-0.6-0.9c-0.4-0.6-0.8-1.2-1.1-1.8c-1.5-2.5-2.8-5.2-4.2-7.9c-1.5-2.7-3.2-5.5-5.3-8c-2-2.3-3.9-4.6-6-6.9
					c-2.1-2.3-4.1-4.5-6.4-6.6c-1.1-1.1-2.3-2.1-3.4-3.1c-1.2-1-2.4-2-3.6-2.9c-2.5-1.9-5.2-3.6-8-5.1c-2.8-1.5-5.9-2.5-9.1-3.3
					c-1.5-0.3-2.7-0.2-3.5,0.2c-0.8,0.4-1.2,1-1.3,1.6c0,0.6,0.3,1.3,0.9,1.8c0.6,0.5,1.5,1,2.8,1.2c2.7,0.7,5.3,1.6,7.9,2.9
					c2.5,1.3,5,2.8,7.2,4.6c1.2,0.8,2.3,1.8,3.4,2.7c1.1,1,2.2,1.9,3.2,3c2.1,2,4.1,4.2,6.1,6.4c2,2.2,3.9,4.5,5.9,6.8
					c1.8,2.1,3.3,4.5,4.7,7.1c1.4,2.6,2.7,5.3,4.3,8c0.4,0.7,0.8,1.4,1.2,2l0.7,1c0.3,0.4,0.5,0.7,0.8,1.1l0.4,0.5l0.4,0.4
					c0.2,0.2,0.4,0.4,0.6,0.7c0.4,0.4,0.7,1,0.9,1.5c0.2,0.4,0.3,0.8,0.4,1.2c0.1,0.4,0.2,0.8,0.3,1.3c0.2,0.9,0.3,1.9,0.5,3
					c0.2,2,0.4,4.3,0.8,6.5c0.8,4.3,1.7,8.5,2.6,12.6c1.7,8.3,2.8,16.6,1.3,24.5c-1.6,8.1-4.5,16.1-8.2,23.5
					c-3.7,7.5-8.4,14.6-13.6,21.1c-5.2,6.6-11,12.8-17.2,18.5c-1.6,1.4-3.1,2.8-4.7,4.2l-2.4,2l-1.2,1c-0.5,0.4-0.9,0.8-1.3,1.2
					c-1.7,1.6-3.1,3.2-4.6,4.6c-1.4,1.4-2.9,2.8-4.4,3.5c-1.5,0.8-3.4,1.2-5.7,1.9c-0.6,0.2-1.1,0.4-1.7,0.6
					c-0.5,0.2-1.2,0.5-1.7,0.8c-1,0.5-2,1-2.9,1.6c-3.8,2.1-7.3,4.3-11.1,5.5c-0.5,0.2-0.9,0.3-1.4,0.4l-1.6,0.4l-3.1,0.9
					c-2.1,0.6-4.1,1.3-6.2,2l-6.1,2l-3,1c-1,0.3-1.9,0.6-2.9,0.8c-1.2,0.3-2,0.7-2.6,1.1c-0.5,0.5-0.9,1-1.1,1.6
					c-0.1,0.6,0.2,1.3,1,1.8C396.5,420.3,397.8,420.5,399.3,420.1z"/>
				<path id="XMLID_182_" class="st2" d="M394.7,415.7c0.4-0.6,0.8-2,0.9-3.8l0-0.3l0,0l0,0c0,0,0.1,0,0.1,0c0.1,0,0.2,0,0.3,0
					c0.6-0.1,1.4-0.2,2.2-0.5c0.9-0.2,1.8-0.5,2.8-0.9l3.1-1c4.1-1.4,8.4-2.8,12.7-4.1l3.2-0.9c0.8-0.2,1.7-0.5,2.5-0.9
					c1.7-0.7,3.3-1.5,5.1-2.5c1.8-1,3.8-2.2,5.9-3.3l0.8-0.4c0.3-0.1,0.5-0.3,0.9-0.4c0.7-0.3,1.4-0.6,2.1-0.9
					c1.3-0.5,2.6-0.8,3.5-1.1c1-0.3,1.7-0.5,2.2-0.8c0.3-0.1,0.4-0.2,0.7-0.4c0.3-0.2,0.5-0.4,0.8-0.6c1.2-0.9,2.5-2.3,4.1-3.9
					c0.8-0.8,1.6-1.7,2.6-2.6c0.5-0.4,1-0.9,1.5-1.4l1.3-1.1c1.6-1.3,3.3-2.7,4.8-4.1c6.3-5.6,12.3-11.6,17.6-18.1
					c5.3-6.5,10-13.4,13.9-20.8c3.8-7.3,6.7-15.1,8.4-23l0.3-1.5l0.2-1.4c0.2-0.9,0.2-1.8,0.3-2.8c0.1-1.9,0.1-3.8,0-5.8
					c-0.2-3.9-0.9-8-1.7-12.2c-0.8-4.2-1.8-8.5-2.6-13c-0.1-0.6-0.2-1.1-0.3-1.8c-0.1-0.7-0.2-1.3-0.3-1.9l-0.4-3.3
					c-0.1-1-0.2-1.9-0.4-2.7c0-0.2-0.1-0.4-0.1-0.6c0-0.2-0.1-0.3-0.1-0.4c-0.1-0.2-0.1-0.5-0.2-0.7c-0.1-0.3-0.3-0.6-0.5-0.9
					l-0.3-0.4l-0.4-0.4c-0.2-0.2-0.4-0.4-0.6-0.7c-0.4-0.5-0.8-1-1.1-1.4l-0.7-1.1c-0.5-0.7-0.9-1.5-1.3-2.2c-1.7-3-3.1-5.8-4.4-8.3
					c-0.7-1.2-1.4-2.4-2.1-3.5c-0.4-0.5-0.7-1-1.1-1.5c-0.4-0.5-0.7-0.9-1.3-1.5c-2-2.3-3.9-4.6-5.9-6.8c-2-2.2-4-4.3-6.1-6.3
					c-2.1-1.9-4.2-3.8-6.5-5.4c-4.4-3.2-9.2-5.6-14-6.3c-0.3,0-0.5-0.1-0.8-0.1c-0.2,0-0.5,0.1-0.7,0.1c-0.4,0.1-0.8,0.3-1.1,0.5
					c-0.6,0.4-0.8,1-0.8,1.7c0,0.6,0.2,1.3,0.6,1.8c0.2,0.3,0.5,0.5,0.8,0.6c0.2,0.1,0.3,0.1,0.5,0.2c0.2,0.1,0.4,0.1,0.6,0.2
					c3.8,0.6,7.8,2.5,11.8,5.4c2,1.4,4,3.2,6,5c2,1.9,3.9,3.9,5.8,6c1.9,2.1,3.9,4.3,5.8,6.7l0.4,0.4l0.2,0.2l0.1,0.1l0.5,0.6
					c0.3,0.4,0.6,0.8,0.9,1.3c0.6,0.9,1.2,2,1.9,3.1c1.3,2.3,2.7,5.2,4.5,8.4c0.5,0.8,1,1.6,1.5,2.4l0.8,1.3
					c0.4,0.6,0.9,1.2,1.4,1.8c0.3,0.3,0.5,0.6,0.7,0.8l0.4,0.5l0,0h0l0,0c0,0,0,0,0,0.1c0,0.1,0.1,0.2,0.1,0.4
					c0.1,0.6,0.2,1.4,0.3,2.3l0.4,3.3c0.1,0.6,0.2,1.3,0.3,2.1l0.2,1.1l0.2,0.9c0.9,4.7,1.8,9,2.6,13c0.8,4.1,1.4,7.9,1.6,11.5
					c0.1,1.8,0.1,3.5,0,5.1c-0.1,0.8-0.1,1.6-0.3,2.4l-0.2,1.2l-0.3,1.4c-1.6,7.4-4.3,14.7-8,21.7c-3.7,7-8.2,13.6-13.3,19.9
					c-5.1,6.3-10.9,12.1-17,17.6c-1.5,1.4-3.1,2.7-4.7,4l-1.3,1.1c-0.7,0.5-1.2,1.1-1.8,1.6c-1.1,1-2,1.9-2.8,2.8
					c-1.6,1.7-2.8,2.9-3.5,3.4c-0.2,0.1-0.3,0.2-0.4,0.3c-0.1,0,0,0-0.1,0c-0.1,0.1-0.6,0.2-1.5,0.5c-0.9,0.3-2.2,0.6-3.8,1.1
					c-0.8,0.3-1.7,0.6-2.6,1l-0.6,0.3l-0.4,0.2l-0.9,0.4c-2.3,1.2-4.3,2.4-6.1,3.4c-1.7,1-3.2,1.7-4.6,2.3c-0.7,0.3-1.3,0.5-2,0.7
					l-3.3,0.9c-4.5,1.3-8.8,2.8-12.9,4.2l-3.1,1c-1.1,0.4-1.9,0.6-2.6,0.8c-0.7,0.2-1.3,0.3-1.4,0.3l0,0c0,0,0,0,0,0c0,0,0,0,0,0.1
					l0,0.2c0.1,0.6,0.1,1.3,0.1,1.8c0,1.2,0,2.2,0,3.1C395.5,413.8,395.1,415.1,394.7,415.7c-0.2,0.4-0.4,0.4-0.3,0.4
					c0.2-0.1,0.4-0.2,1-0.2c0.2,0,0.4,0,0.8,0c0.3,0,0.5,0,0.9,0.1c0.3,0,0.7,0.1,0.9,0.1c0.1,0,0.3,0.1,0.4,0.1
					c0.2,0,0.3,0.1,0.5,0.1c0.6,0.1,1.1,0.3,1.6,0.5c0.5,0.2,1,0.3,1.3,0.4c0.5,0.2,0.1,0,0,0c-0.1-0.1-0.3-0.1-0.4-0.2
					c-0.3-0.1-0.6-0.2-0.9-0.3c-0.1,0-0.3-0.1-0.4-0.1c0.1,0-0.7-0.2-1.3-0.4c-0.2,0-0.3-0.1-0.5-0.1c-0.1,0-0.3-0.1-0.4-0.1
					c-0.3-0.1-0.6-0.1-0.9-0.1c-0.3,0-0.6-0.1-0.9-0.1c-0.3,0-0.5,0-0.8,0c-0.5,0.1-0.8,0.1-1,0.2
					C394.4,416.1,394.5,416.1,394.7,415.7z"/>
			</g>
		</g>
	</g>
	<g id="XMLID_56_">
		<g id="XMLID_129_">
			<g id="XMLID_171_">
				<path id="XMLID_174_" class="st2" d="M132.8,361.5c0,0-0.2,0.1-0.6,0.2c-0.4,0.1-0.9,0.3-1.7,0.6c-1.6,0.6-4,1.3-8,2.7
					c-0.5,0.2-1,0.4-1.6,0.6c-0.5,0.2-1,0.4-1.6,0.7c-0.7,0.3-1.5,0.6-2.3,0.9c-1.6,0.6-3.3,1.2-5.1,1.6c-3.7,0.9-7.9,1.4-12.6,1.1
					c-2.3-0.2-4.9-0.5-7.2-1.1c-2.4-0.5-4.8-1.5-7.3-2.5c-4.9-2.2-9.7-5.7-14.3-10.1c-4.6-4.4-8.8-9.9-12.8-15.8
					c-1.9-3-3.9-6.1-5.6-9.4c-1.8-3.3-3.6-6.6-5-9.8c-1.5-3.2-2.7-6.4-3.6-9.4c-0.4-1.5-0.8-3-1-4.5c-0.1-0.7-0.2-1.5-0.3-2.2
					c-0.1-0.4-0.1-0.7-0.1-1.1l-0.1-1.3c-0.1-2.6-0.4-4.8-0.7-6.7c-0.3-1.9-0.4-3.5-0.5-4.8c-0.1-1.1,0-2.6,0.2-4
					c0.1-1.5,0.4-3,0.7-4.6c0.6-3,1.4-6,2.3-8.3c1.4-3.5,2.6-6.7,3.9-9.6c1.2-2.9,2.5-5.6,3.7-7.8c0.6-1.1,1.2-2.1,1.9-3
					c0.2-0.2,0.3-0.4,0.4-0.6l0.2-0.3l0.3-0.3c0.4-0.5,0.7-0.9,1.1-1.4c3.2-3.6,7.1-6.9,10.7-10c1.8-1.6,3.6-3.1,5.3-4.7
					c0.8-0.7,1.7-1.6,2.4-2.2c0.7-0.6,1.3-1.2,1.9-1.8c2.3-2.2,3.9-3.4,5-4.1c1-0.7,1.5-1,1.5-1c0.7-0.4,1-0.8,1.1-1.4
					c0.1-0.6,0.1-1.2-0.1-1.8C83,223,81.8,222,80,223c0,0-0.7,0.3-1.9,1.2c-1.3,0.9-3.1,2.3-5.5,4.6c-0.6,0.6-1.3,1.2-2,1.8
					c-0.7,0.7-1.5,1.4-2.3,2.1c-1.6,1.5-3.4,3-5.2,4.6c-3.7,3.2-7.7,6.5-11.2,10.5c-0.9,1-1.7,2-2.4,3c-0.7,1-1.4,2.2-2.1,3.4
					c-1.4,2.5-2.7,5.3-3.9,8.3c-1.3,3-2.5,6.3-3.9,9.7c-1.1,2.7-2,6-2.6,9.3c-0.3,1.7-0.6,3.3-0.7,5c-0.2,1.7-0.3,3.3-0.2,4.8
					c0.1,3.1,0.9,6.9,1.2,11.5l0.1,1.4c0,0.4,0,0.8,0.1,1.3c0.1,0.8,0.2,1.7,0.3,2.5c0.3,1.7,0.7,3.4,1.1,5.1
					c0.9,3.4,2.3,6.8,3.8,10.2c1.6,3.4,3.3,6.8,5.2,10.1c1.8,3.4,3.8,6.6,5.8,9.7c4.1,6.2,8.6,11.9,13.5,16.7
					c4.9,4.7,10.2,8.6,15.7,11.1c2.7,1.2,5.5,2.2,8.2,2.8c2.7,0.7,5.5,1.1,8.1,1.3c5.2,0.4,10-0.2,14.1-1.2c2.1-0.5,4-1.1,5.7-1.8
					c0.9-0.3,1.7-0.7,2.5-1c0.5-0.2,1-0.4,1.5-0.6c0.5-0.2,1-0.4,1.4-0.5c3.6-1.3,6.2-2,7.8-2.6c0.8-0.3,1.4-0.5,1.8-0.6
					c0.4-0.1,0.6-0.2,0.6-0.2c2.2-0.8,2.4-2.4,1.8-3.5c-0.3-0.6-0.7-1-1.3-1.3c-0.3-0.1-0.6-0.2-1-0.2
					C133.7,361.2,133.3,361.3,132.8,361.5z"/>
				<path id="XMLID_173_" class="st2" d="M137.4,369.3c0,0-0.2,0.1-0.6,0.3c-0.4,0.2-1.1,0.4-1.9,0.7c-1.7,0.6-4.3,1.4-7.7,2.5
					c-0.9,0.3-1.8,0.6-2.7,1c-0.9,0.4-1.8,0.8-2.8,1.2c-1.9,0.8-3.9,1.5-6.2,2.1c-4.5,1.2-9.7,2-15.4,1.8c-2.8-0.1-5.8-0.4-8.8-1.2
					c-0.7-0.2-1.5-0.3-2.3-0.5c-0.8-0.2-1.5-0.5-2.3-0.7c-0.8-0.3-1.5-0.5-2.3-0.7c-0.7-0.3-1.5-0.6-2.2-0.9c-1.5-0.6-3-1.4-4.5-2.2
					c-0.8-0.4-1.5-0.9-2.2-1.3c-0.7-0.5-1.5-0.9-2.2-1.4c-2.8-2-5.7-4.2-8.3-6.7c-10.6-10-19-23.7-25.9-37.7
					c-3.3-7-5.8-14.4-6.1-21.9c-0.2-4.2-1-8.1-1.2-11.7c-0.2-3.5,0.2-7.2,0.8-10.7c0.6-3.5,1.5-7,2.8-10.1c1.4-3.3,2.6-6.7,3.9-9.8
					c1.3-3.1,2.7-6.1,4.1-8.8c0.8-1.3,1.5-2.6,2.4-3.8c0.8-1.2,1.7-2.3,2.7-3.4c3.8-4.3,8-7.8,11.6-11c1.8-1.6,3.6-3.1,5.2-4.5
					c1.6-1.4,3-2.8,4.3-4c5-4.7,8.2-6.4,8.2-6.4c2-1.1,2.7-2.6,2.3-3.8c-0.2-0.6-0.7-1.1-1.6-1.2c-0.8-0.2-2,0-3.2,0.7
					c0,0-1,0.5-2.6,1.7c-1.7,1.1-3.9,3-6.5,5.4c-1.3,1.2-2.7,2.6-4.2,3.9c-1.5,1.4-3.2,2.9-5.1,4.4c-3.7,3.2-8,6.8-12.1,11.5
					c-1,1.2-2.1,2.4-3,3.8c-1,1.4-1.8,2.8-2.6,4.3c-1.6,3-3,6.1-4.4,9.3c-1.3,3.2-2.6,6.5-4,9.8c-1.4,3.6-2.3,7.3-3,11.1
					c-0.7,3.8-1.2,7.7-0.9,11.9c0.3,4.1,1.1,7.9,1.2,11.6c0.4,8.4,3.1,16.4,6.6,23.8c1.7,3.7,3.6,7.3,5.6,10.8c2,3.5,4.1,7,6.3,10.3
					c4.5,6.6,9.4,12.9,15.1,18.2c2.8,2.7,5.8,5,8.9,7.2c0.8,0.5,1.6,1,2.4,1.5c0.8,0.5,1.6,1,2.4,1.4c1.6,0.8,3.2,1.8,4.9,2.4
					c0.8,0.3,1.7,0.7,2.5,1c0.8,0.3,1.7,0.6,2.5,0.8c0.8,0.3,1.6,0.6,2.5,0.8c0.8,0.2,1.7,0.4,2.5,0.6c3.3,0.8,6.5,1.1,9.7,1.3
					c6.3,0.3,12.1-0.6,17-1.9c2.5-0.7,4.7-1.5,6.7-2.3c1-0.4,1.9-0.8,2.8-1.2c0.8-0.3,1.7-0.6,2.5-0.9c3.2-1.1,5.9-1.9,7.7-2.6
					c0.9-0.3,1.6-0.6,2.1-0.8c0.5-0.2,0.7-0.3,0.7-0.3c2.6-1.1,3.2-3,2.5-4C141.2,368.8,139.7,368.4,137.4,369.3z"/>
				<path id="XMLID_172_" class="st2" d="M146.2,374.9c0,0-0.3,0.2-0.8,0.5c-0.5,0.3-1.4,0.8-2.4,1.3c-2.1,1-5.1,2.2-8.6,3.3
					c-1.7,0.6-3.6,1.1-5.4,1.8c-0.4,0.2-0.9,0.3-1.3,0.5c-0.5,0.2-1,0.4-1.5,0.6c-1.2,0.5-2.4,1-3.7,1.5c-5.2,1.9-11.5,3.3-18.4,3.5
					c-3.5,0.1-7.1-0.1-10.7-0.6c-3.6-0.6-7.4-1.5-11.2-2.8c-7.5-2.6-14.6-7.1-20.9-12.6c-3.1-2.8-6.1-5.7-8.8-9
					c-1.4-1.6-2.7-3.3-4-4.9c-1.2-1.7-2.6-3.4-3.7-5.1c-2.4-3.5-4.6-7.1-6.8-10.8c-2.1-3.7-4.1-7.3-6-11.2c-1.9-3.9-3.6-7.9-5-12.2
					c-0.7-2.1-1.3-4.3-1.7-6.6c-0.5-2.2-0.8-4.5-0.9-6.8c-0.1-1-0.1-1.9-0.2-2.9c-0.1-0.9-0.2-1.8-0.3-2.7c-0.2-1.9-0.5-4-0.7-6.2
					c-0.1-1.1-0.1-2.3-0.1-3.5c0-1.1,0.1-2.3,0.2-3.4c0.2-2.2,0.4-4.3,0.8-6.4c0.7-4.1,1.7-8.1,3.3-12.2c0.7-1.7,1.4-3.4,2-5.1
					c0.7-1.7,1.4-3.4,2.1-5.1c1.4-3.4,2.9-6.7,4.7-9.9c0.9-1.6,1.9-3.2,3-4.7c1.2-1.6,2.3-2.9,3.4-4.2c4.6-5.1,9.1-8.8,12.9-12
					c1.9-1.6,3.6-3.1,5.1-4.5c0.8-0.7,1.5-1.4,2.2-2.1c0.8-0.7,1.5-1.4,2.2-2c2.8-2.6,5.5-4.6,7.4-5.8c1-0.6,1.8-1.1,2.3-1.3
					c0.6-0.3,0.8-0.4,0.8-0.4c2.9-1.4,4.3-3,4-4.2c-0.2-0.6-0.8-1.1-1.9-1.2c-1.1-0.1-2.6,0.1-4.3,0.9c0,0-0.3,0.2-1,0.5
					c-0.6,0.3-1.6,0.8-2.7,1.5c-2.3,1.4-5.2,3.6-8.1,6.3c-0.7,0.7-1.5,1.3-2.2,2.1c-0.7,0.6-1.4,1.3-2.2,2c-1.4,1.3-3.1,2.8-5,4.4
					c-3.7,3.2-8.4,7-13.3,12.5c-1.2,1.4-2.4,2.8-3.7,4.6c-1.2,1.7-2.3,3.5-3.3,5.2c-1.9,3.5-3.5,7-5,10.5c-0.7,1.7-1.4,3.5-2.1,5.2
					c-0.7,1.7-1.4,3.4-2,5.1c-1.7,4.5-2.8,8.7-3.6,13.2c-0.4,2.2-0.7,4.5-0.9,6.8c-0.1,1.2-0.1,2.4-0.2,3.7c0,1.4,0.1,2.8,0.2,4
					c0.2,2.5,0.5,4.6,0.7,6.4c0.1,0.9,0.2,1.8,0.3,2.5c0.1,0.9,0.1,1.9,0.2,2.8c0.2,2.5,0.5,5,1,7.5c0.5,2.4,1.1,4.8,1.8,7.1
					c1.5,4.6,3.3,8.9,5.3,12.9c1,2,2,4,3,5.9c1,1.9,2.1,3.8,3.1,5.7c2.2,3.8,4.5,7.5,7,11.1c1.2,1.8,2.6,3.6,3.9,5.3
					c1.4,1.7,2.7,3.5,4.2,5.1c2.8,3.4,6,6.5,9.3,9.5c6.7,5.8,14.4,10.7,22.5,13.5c1,0.3,2,0.7,3.1,1c0.5,0.2,1,0.3,1.5,0.5
					c0.5,0.1,1,0.2,1.5,0.4c2,0.5,4.1,0.9,6,1.2c3.9,0.6,7.8,0.8,11.6,0.7c7.5-0.2,14.3-1.8,19.9-3.8c1.4-0.5,2.7-1,4-1.6
					c0.5-0.2,1-0.4,1.4-0.6c0.3-0.1,0.8-0.3,1.2-0.4c1.6-0.6,3.5-1.2,5.2-1.7c3.6-1.1,6.9-2.4,9.3-3.6c0.6-0.3,1.1-0.6,1.6-0.8
					c0.5-0.3,0.9-0.5,1.2-0.7c0.6-0.4,1-0.6,1-0.6c0.9-0.6,1.6-1.1,2.1-1.8c0.6-0.6,0.9-1.2,1.2-1.7c0.5-1.1,0.4-1.9,0-2.4
					C151.3,372.3,149.1,373,146.2,374.9z"/>
			</g>
		</g>
	</g>
	<g id="XMLID_43_">
		<g id="XMLID_159_">
			<g id="XMLID_163_">
				<path id="XMLID_166_" class="st2" d="M254.4,109.6c0,0-1.9-0.6-5.3-1.6c-3.5-1-8.6-2.7-15.6-4.1c-1.8-0.3-3.6-0.6-5.6-0.8
					c-1-0.1-1.9-0.2-2.8-0.3c-0.9-0.1-1.9-0.1-2.9-0.2c-3.9-0.2-8-0.2-12.3,0c-4.3,0.2-8.6,0.7-13,1.4c-4.4,0.7-8.7,1.7-13,2.8
					c-2.2,0.6-4.1,1.1-6.5,1.9c-2.3,0.8-4.7,1.7-7.1,2.8c-4.7,2.2-9.2,5.4-12.7,8.9c-1.8,1.7-3.4,3.5-4.7,5.3
					c-0.7,0.9-1.3,1.8-2,2.6c-0.6,0.9-1.2,1.8-1.7,2.5c-2,3-3.9,5.9-5.6,8.5c-0.9,1.3-1.7,2.6-2.5,3.8l-0.3,0.4l-0.4,0.6
					c-0.2,0.4-0.5,0.8-0.7,1.3c-0.5,0.9-0.9,1.7-1.3,2.6c-0.8,1.8-1.3,3.5-1.7,5.1c-0.4,1.6-0.6,3-0.8,4.1c-0.3,2.3-0.4,3.7-0.5,4.7
					c-0.1,0.9-0.1,1.4-0.1,1.4c-0.1,1.2,1.1,1.9,2.3,2c1.2,0.2,2.6-0.3,2.7-1.5c0,0,0-0.5,0.1-1.4c0.1-0.9,0.2-2.4,0.5-4.4
					c0.3-2,0.8-4.9,2.1-7.9c0.3-0.8,0.7-1.5,1.1-2.2c0.2-0.4,0.4-0.7,0.6-1.1l0.3-0.6l0.3-0.4c0.8-1.2,1.6-2.4,2.5-3.7
					c1.7-2.6,3.6-5.4,5.5-8.4c2-3.1,4.6-6.5,7.8-9.6c3.2-3.1,7.2-5.9,11.4-7.9c2.1-1,4.3-1.8,6.4-2.6c2.2-0.7,4.2-1.2,6.3-1.8
					c4.1-1.1,8.3-2,12.5-2.7c4.2-0.7,8.4-1.1,12.5-1.3c4.1-0.2,8-0.2,11.7,0c0.9,0,1.8,0.1,2.7,0.2c0.9,0.1,1.8,0.1,2.7,0.2
					c1.9,0.2,3.6,0.5,5.2,0.8c6.6,1.3,11.6,2.9,15,4c3.4,1.1,5.3,1.7,5.3,1.7C255.5,115.1,256.9,110.3,254.4,109.6z"/>
				<path id="XMLID_165_" class="st2" d="M252.6,118.4c0,0-2-0.6-5.4-1.7c-3.5-1-8.4-2.7-14.6-4c-3.1-0.7-6.7-1-10.2-1.3
					c-3.6-0.2-7.4-0.3-11.4-0.1c-7.9,0.3-16.3,1.7-24.4,3.8c-1,0.3-2,0.5-3,0.8c-1,0.3-2,0.6-3,0.9c-2,0.7-4.1,1.4-6,2.3
					c-3.9,1.8-7.5,4.3-10.4,7.2c-3,2.8-5.4,6-7.4,9c-2,3-3.8,5.8-5.5,8.4c-0.9,1.3-1.7,2.5-2.5,3.7c-0.8,1.2-1.5,2.6-2.1,3.8
					c-1.1,2.6-1.6,5-1.8,6.9c-0.3,1.9-0.3,3.3-0.4,4.3c-0.1,0.9-0.1,1.5-0.1,1.5c-0.3,2.6,4.7,3.3,5,0.5c0,0,0-0.5,0.1-1.5
					c0.1-1,0.2-2.4,0.4-4c0.2-1.7,0.6-3.6,1.5-5.6c0.4-1,1-2,1.7-3.2c0.8-1.2,1.6-2.4,2.4-3.7c1.7-2.6,3.5-5.3,5.4-8.3
					c1.9-2.9,4.1-5.7,6.7-8.2c2.6-2.5,5.7-4.6,9.1-6.2c1.7-0.8,3.5-1.5,5.4-2.1c0.9-0.3,1.9-0.6,2.9-0.8c1-0.3,2-0.5,2.9-0.8
					c7.8-2.1,15.8-3.3,23.3-3.7c3.8-0.2,7.4-0.1,10.9,0.1c3.5,0.2,6.6,0.5,9.5,1.2c5.8,1.2,10.7,2.8,14.1,3.8
					c3.5,1.1,5.4,1.7,5.4,1.7C253.8,124,255.1,119.2,252.6,118.4z"/>
				<path id="XMLID_164_" class="st2" d="M252.5,127.8c0,0-2.1-0.6-5.7-1.7c-3.5-1.1-8.5-2.7-14.2-4.1c-1.4-0.3-2.9-0.6-4.4-0.8
					c-1.5-0.2-3-0.4-4.8-0.5c-3.4-0.3-7-0.4-10.7-0.3c-7.4,0.2-15.3,1.4-23.1,3.4l-2.9,0.8c-1,0.3-2,0.5-2.9,0.8
					c-1.8,0.5-3.5,1.2-5.1,1.9c-3.2,1.4-5.9,3.3-8.3,5.5c-1.2,1.1-2.3,2.4-3.3,3.7c-1.1,1.3-2,2.6-3,4.1c-2,3-3.8,5.8-5.5,8.4
					c-0.9,1.3-1.7,2.5-2.5,3.7c-0.6,1-1,1.8-1.4,2.7c-0.6,1.6-0.9,3.2-1.1,4.8c-0.3,3.6-0.5,5.7-0.5,5.7c-0.3,2.9,4.6,3.7,5,0.5
					c0,0,0.2-2,0.5-5.6c0.2-1.4,0.4-2.5,0.8-3.5c0.1-0.3,0.2-0.5,0.4-0.9c0.1-0.2,0.1-0.3,0.3-0.5l0.1-0.2c0-0.1,0.1-0.2,0.2-0.3
					c0.8-1.2,1.6-2.4,2.4-3.7c1.7-2.6,3.5-5.3,5.4-8.3l0.4-0.6l0.3-0.5c0.2-0.3,0.4-0.6,0.7-0.9c0.5-0.6,0.9-1.2,1.4-1.8
					c0.9-1.2,1.9-2.2,2.9-3.2c2-1.9,4.2-3.4,6.9-4.6c1.4-0.6,2.9-1.2,4.5-1.7l0.6-0.2l0.7-0.2l1.4-0.4l2.8-0.7c7.6-1.9,15-3,22-3.2
					c3.5-0.1,6.9,0,10.2,0.2c0.4,0,0.8,0.1,1.2,0.1l0.6,0l0.5,0.1c0.7,0.1,1.4,0.2,2,0.3c1.4,0.2,2.7,0.5,4.1,0.8
					c5.4,1.2,10.3,2.9,13.8,4c1.8,0.6,3.3,1,4.2,1.3c1,0.3,1.5,0.5,1.5,0.5C253.9,133.3,255.2,128.5,252.5,127.8z"/>
			</g>
		</g>
	</g>
	<g id="XMLID_22_">
		<g id="XMLID_150_">
			<g id="XMLID_154_">
				<path id="XMLID_157_" class="st2" d="M442.7,312.8c0,0,0-0.2,0-0.6c0-0.4,0-0.9,0-1.5c0-1.3-0.2-3.1-0.4-5.1
					c-0.3-2-0.7-4.4-1-6.6c-0.1-0.5-0.2-1-0.2-1.6c-0.1-0.6-0.2-1.3-0.2-1.9c-0.3-2-0.8-4.3-1.6-6.5c-0.8-2.1-1.7-4-2.4-5.5
					c-0.4-0.7-0.7-1.5-1.1-2.2c-0.3-0.7-0.7-1.4-1-2.1c-1.4-2.8-2.8-6.1-4.5-9.6c-1.7-3.5-3.5-7.3-6-11.2c-1.2-2-2.6-4-4.1-5.9
					c-0.7-1-1.7-2-2.5-2.9l-2.1-2.3c-2.8-3-5.9-6.1-9.1-9c-3.3-2.9-6.7-5.6-10.3-8c-1.8-1.2-3.6-2.3-5.4-3.3
					c-0.8-0.4-1.6-0.9-2.4-1.3c-0.5-0.3-1.1-0.6-1.8-1c-2.5-1.6-5.3-3.5-8.1-5.2c-2.8-1.7-5.8-3.3-8.7-4.6c-3-1.2-6-2.1-8.9-2.5
					c-2.8-0.4-5.4-0.3-7.1,0c-1.7,0.2-2.6,0.5-2.6,0.5c-1.2,0.3-2,0.9-2.4,1.5c-0.4,0.6-0.4,1.3-0.2,1.9c0.5,1.2,1.9,1.9,3.8,1.4
					c0,0,0.7-0.2,2.1-0.4c1.4-0.2,3.4-0.3,5.7,0c2.4,0.3,5,1,7.6,2.2c2.7,1.1,5.3,2.6,8.1,4.2c2.7,1.6,5.4,3.5,8.1,5.2
					c0.7,0.4,1.3,0.8,2,1.2c0.8,0.4,1.6,0.9,2.4,1.3c1.7,1,3.4,2,5.1,3.1c3.4,2.2,6.6,4.8,9.7,7.6c3.1,2.8,6,5.7,8.8,8.7l2.1,2.2
					c0.7,0.8,1.5,1.7,2.2,2.6c1.4,1.8,2.7,3.6,3.8,5.4c2.3,3.7,4.1,7.3,5.7,10.7c1.6,3.4,3.1,6.7,4.5,9.6c0.7,1.5,1.4,2.8,2.2,4.3
					c0.8,1.5,1.6,3.2,2.2,5c0.7,1.8,1.1,3.7,1.3,5.4c0.1,0.7,0.2,1.3,0.2,1.9c0.1,0.6,0.2,1.1,0.3,1.7c0.4,2.3,0.8,4.5,1,6.4
					c0.2,1.9,0.4,3.5,0.4,4.6c0,0.6,0,1,0,1.3c0,0.3,0,0.5,0,0.5c-0.1,1.7,1,2.8,2.3,3c0.6,0.1,1.3-0.1,1.8-0.6
					C442.3,314.6,442.7,313.8,442.7,312.8z"/>
				<path id="XMLID_156_" class="st2" d="M433.7,313.4c0,0,0.2-2.3-0.2-5.9c-0.2-1.8-0.6-4-1-6.3c-0.2-1.2-0.4-2.4-0.5-3.7
					c-0.2-1.5-0.5-3.1-1-4.7c-1-3.2-2.8-6.1-4.2-9.1c-1.5-3-3-6.3-4.6-9.7c-1.6-3.4-3.3-7-5.5-10.4c-1.1-1.7-2.2-3.5-3.5-5.1
					c-0.6-0.8-1.3-1.6-2-2.4l-2.1-2.2c-5.5-5.9-11.5-11.5-17.9-15.8c-1.6-1.1-3.2-2.1-4.8-3c-0.8-0.4-1.6-0.9-2.4-1.3
					c-0.7-0.4-1.4-0.8-2.1-1.3c-2.8-1.8-5.5-3.6-8.1-5.2c-2.6-1.6-5.1-3-7.5-4c-2.4-1-4.7-1.7-6.7-1.9c-2-0.3-3.6-0.2-4.7,0
					c-1.1,0.2-1.7,0.3-1.7,0.3c-1.5,0.4-1.8,1.9-1.2,3c0.5,1.1,1.5,2.1,2.4,1.8c0,0,0.4-0.1,1.1-0.2c0.8-0.1,1.9-0.2,3.4,0
					c1.5,0.2,3.3,0.7,5.4,1.6c2.1,0.9,4.4,2.1,6.9,3.6c2.5,1.5,5.1,3.3,8.1,5.2c0.8,0.5,1.5,0.9,2.4,1.4c0.8,0.4,1.5,0.8,2.3,1.3
					c1.5,0.9,3,1.8,4.5,2.8c6,4,11.7,9.3,17.1,15.1l2,2.2c0.6,0.7,1.2,1.4,1.8,2.1c1.2,1.5,2.2,3,3.2,4.6c2,3.2,3.6,6.6,5.2,10
					c1.6,3.4,3.1,6.7,4.6,9.8c1.6,3.2,3.1,5.9,3.9,8.4c0.4,1.3,0.6,2.5,0.8,3.7c0.2,1.5,0.4,2.8,0.6,4c0.4,2.4,0.7,4.4,0.9,6.1
					c0.4,3.3,0.2,5,0.2,5c-0.1,0.5,0.2,1,0.6,1.3c0.4,0.4,1,0.6,1.6,0.8c0.6,0.1,1.3,0.1,1.8-0.2
					C433.3,314.7,433.6,314.2,433.7,313.4z"/>
				<path id="XMLID_155_" class="st2" d="M424.5,314.1c0,0,0-0.2,0.1-0.7c0.1-0.6,0.1-1.5,0-2.9c-0.1-1.4-0.3-3.4-0.7-5.7
					c-0.2-1.3-0.4-2.6-0.7-4c-0.1-0.4-0.1-0.8-0.2-1.2c0-0.4-0.1-0.8-0.2-1.2c-0.1-0.5-0.1-1-0.2-1.5c-0.2-1-0.6-2-1.1-3.2
					c-0.5-1.2-1.3-2.7-2.1-4.3c-1.7-3.3-3.2-6.8-4.8-10.2c-1.6-3.4-3.2-6.8-5.1-10c-0.9-1.6-1.9-3.1-2.9-4.5
					c-1.1-1.4-2.1-2.5-3.5-4.1c-5.4-5.8-11-11.1-16.8-15c-1.4-1-2.9-1.9-4.4-2.7c-0.8-0.4-1.5-0.9-2.3-1.3c-0.9-0.5-1.8-1-2.6-1.5
					c-3.2-2-5.8-3.8-8.3-5.3c-2.4-1.5-4.6-2.6-6.5-3.4c-1.9-0.7-3.3-1.1-4.4-1.2c-1.1-0.1-1.8,0-2.3,0.1c-0.2,0-0.4,0.1-0.5,0.1
					c-0.1,0-0.2,0.1-0.2,0.1c-0.3,0.1-0.4,0.5-0.4,1c0.1,0.5,0.3,1.1,0.6,1.6c0.3,0.6,0.6,1.1,0.8,1.5c0.1,0.2,0.2,0.4,0.3,0.5
					c0.1,0.1,0.1,0.2,0.2,0.2c0,0,0,0,0.1,0c0.1,0,0.3-0.1,0.8,0c0.6,0.1,1.5,0.2,3,0.8c1.5,0.6,3.4,1.6,5.7,3
					c2.3,1.4,4.9,3.2,8.3,5.3c0.9,0.5,1.8,1.1,2.8,1.7c0.7,0.4,1.5,0.8,2.2,1.2c1.3,0.8,2.7,1.6,4,2.5c5.4,3.6,10.6,8.5,15.9,14.2
					l1,1.1l0.2,0.3l0.2,0.2l0.3,0.4c0.5,0.5,0.9,1.1,1.4,1.7c0.9,1.2,1.8,2.6,2.6,4c1.7,2.9,3.3,6.2,4.9,9.6
					c1.6,3.4,3.2,6.9,4.9,10.3c0.8,1.6,1.6,3.1,2,4.1c0.5,1,0.7,1.6,0.8,2.3c0.1,0.3,0.1,0.6,0.2,1c0.1,0.5,0.1,0.9,0.2,1.4
					c0.1,0.4,0.1,0.8,0.2,1.3c0.2,1.4,0.5,2.8,0.7,4c0.4,2.3,0.6,4,0.7,5.2c0.1,1.2,0,1.8,0,2c0,0.1,0,0.1,0,0.1c0,0,0,0,0,0
					c0.1,0,0.2,0,0.2,0c0.1,0,0.2,0,0.3,0c0.1,0,0.2,0,0.2,0c0.7,0.1,1.3,0.4,1.9,0.6c0.4,0.1,0.7,0.2,1,0.3
					c0.5,0.2,0.7,0.4,0.7,0.4l-0.2-0.1l-0.2-0.1l-0.1,0c0,0,0,0,0.1,0l0.2,0.1c0.2,0.1,0.4,0.1,0.6,0.1
					C424.4,314.2,424.5,314.2,424.5,314.1z"/>
			</g>
		</g>
	</g>
	<g id="XMLID_41_">
		<g id="XMLID_140_">
			<g id="XMLID_144_">
				<path id="XMLID_148_" class="st2" d="M212.2,347.3c0,0-1.5,0.1-3.9,0c-2.5-0.1-6-0.3-9.7-1.2c-3.7-0.9-7.7-2.4-10.6-4.8
					c-1.5-1.2-2.7-2.6-3.7-4.3c-1-1.7-1.8-3.7-2.3-5.9l-0.4-1.8c-0.1-0.7-0.2-1.4-0.3-2.2c-0.2-1.5-0.4-2.9-0.5-4.4
					c-0.3-2.9-0.5-5.8-0.5-8.6c0-2.8,0-5.5,0.2-8c0.1-0.6,0.1-1.2,0.2-1.9c0-0.3,0.1-0.6,0.1-0.9c0-0.3,0.1-0.5,0.1-0.7
					c0.1-0.8,0.3-1.7,0.5-2.5c0.9-3.4,2.5-7,3.6-9.9c0.6-1.4,1-2.6,1.3-3.4c0.3-0.8,0.5-1.3,0.5-1.3c0.8-2.4-3.9-3.9-4.7-1.7
					c0,0-0.6,1.7-1.7,4.5c-1.1,2.8-2.7,6.5-3.8,10.5c-0.2,1-0.5,2-0.6,3.1c-0.1,0.5-0.1,1.1-0.2,1.8c-0.1,0.6-0.1,1.3-0.2,2
					c-0.2,2.7-0.3,5.5-0.2,8.4c0,2.9,0.2,6,0.5,9c0.2,1.5,0.3,3.1,0.6,4.6c0.1,0.8,0.2,1.5,0.4,2.3l0.4,2.1c0.6,2.7,1.6,5.1,2.9,7.3
					c1.3,2.1,2.9,4,4.8,5.5c3.7,3.1,8.4,4.8,12.6,5.8c4.2,1,8,1.2,10.7,1.3c2.7,0.1,4.2,0,4.2,0
					C214.4,352.3,214.1,347.3,212.2,347.3z"/>
				<path id="XMLID_147_" class="st2" d="M213.1,356.3c0,0-1.6,0.1-4.5,0c-2.8-0.1-6.9-0.3-11.6-1.3c-4.6-1-10-2.9-14.5-6.5
					c-2.3-1.8-4.2-4-5.8-6.5c-1.6-2.5-2.7-5.5-3.5-8.5c-0.2-0.8-0.3-1.5-0.5-2.3c-0.1-0.8-0.3-1.6-0.4-2.4c-0.3-1.6-0.4-3.2-0.6-4.8
					c-0.3-3.2-0.5-6.4-0.6-9.4c0-3.1,0-6,0.2-8.8c0.1-1.4,0.2-2.8,0.4-4c0.1-1.2,0.4-2.4,0.7-3.6c1.2-4.5,2.9-8.3,4-11.1
					c1.1-2.7,1.7-4.4,1.7-4.4c0.7-2.2-4-3.6-4.7-1.7c0,0-0.5,1.5-1.6,4.2c-1,2.7-2.8,6.6-4.2,11.7c-0.3,1.3-0.6,2.7-0.8,4.1
					c-0.2,1.4-0.3,2.8-0.4,4.3c-0.2,2.9-0.3,6-0.2,9.2c0,3.2,0.2,6.5,0.6,9.9c0.2,1.7,0.4,3.4,0.6,5c0.1,0.8,0.3,1.7,0.4,2.5
					c0.2,0.9,0.3,1.7,0.6,2.6c0.9,3.5,2.2,6.9,4.1,9.9c1.9,3,4.3,5.7,7,7.8c5.4,4.3,11.4,6.3,16.5,7.4c5.1,1.1,9.5,1.3,12.5,1.4
					c1.5,0,2.7,0,3.5,0c0.8,0,1.2,0,1.2,0C215.5,361.2,215.2,356.2,213.1,356.3z"/>
				<path id="XMLID_145_" class="st2" d="M215.5,365.2c0,0-1.8,0.1-5.1,0.1c-3.2,0-7.9-0.1-13.5-1.2c-2.8-0.5-5.9-1.3-9.1-2.5
					c-3.2-1.2-6.5-2.9-9.7-5.2c-3.2-2.3-6.1-5.3-8.4-8.8c-1.2-1.7-2.1-3.6-3-5.5c-0.8-1.9-1.5-3.8-2-5.8c-0.3-1-0.5-2-0.7-2.9
					l-0.1-0.7l-0.1-0.7l-0.2-1.3c-0.3-1.8-0.5-3.6-0.7-5.4c-0.4-3.6-0.6-7.1-0.7-10.5c-0.1-3.4,0-6.7,0.3-9.8
					c0.1-0.8,0.1-1.6,0.2-2.3c0.1-0.8,0.1-1.5,0.3-2.4c0.2-1.7,0.5-3.2,0.9-4.7c0.7-2.9,1.6-5.4,2.4-7.4c0.8-2,1.5-3.7,2-5.1
					c0.5-1.3,0.9-2.4,1.2-3.1c0.2-0.7,0.4-1.1,0.4-1.1c0.6-1.9-4.2-3.3-4.7-1.6c0,0-0.1,0.3-0.3,1c-0.2,0.7-0.6,1.6-1.1,2.9
					c-0.6,1.4-1.3,3.1-2,5.1c-0.8,2.1-1.8,4.8-2.6,8c-0.4,1.6-0.8,3.4-1,5.2l-0.1,0.7c0,0.2-0.1,0.5-0.1,0.7c0,0.4-0.1,0.8-0.1,1.2
					c-0.1,0.8-0.1,1.6-0.2,2.4c-0.2,3.3-0.3,6.7-0.3,10.3c0.1,3.5,0.3,7.2,0.7,10.9c0.2,1.9,0.4,3.7,0.7,5.6l0.2,1.4l0.1,0.7
					l0.2,0.8c0.2,1.1,0.4,2.2,0.7,3.3c0.5,2.2,1.3,4.4,2.2,6.5c1,2.1,2.1,4.3,3.4,6.2c2.6,4,6,7.4,9.6,10c1.8,1.3,3.6,2.4,5.5,3.4
					c1.8,0.9,3.6,1.8,5.4,2.4c3.5,1.3,6.9,2.2,9.9,2.8c6.1,1.1,11,1.3,14.5,1.3c3.4,0,5.3-0.1,5.3-0.1
					C218.2,370.1,217.8,365.1,215.5,365.2z"/>
			</g>
		</g>
	</g>
	<g id="XMLID_15_">
		<g id="XMLID_131_">
			<g id="XMLID_135_">
				<path id="XMLID_138_" class="st2" d="M276.2,462c0,0-0.2,0.1-0.7,0.2c-0.4,0.2-1.1,0.4-1.9,0.7c-1.6,0.6-3.8,1.6-6.1,2.9
					c-2.4,1.2-5,2.8-7.5,4c-1.3,0.7-2.4,1.1-3.3,1.4l-0.3,0.1l-0.1,0.1l-0.4,0.1c-0.5,0.1-1,0.3-1.5,0.4c-1,0.3-2,0.6-3.1,0.9
					c-4.2,1.2-8.4,2.5-12.7,3.6c-2.1,0.6-4.3,1.1-6.4,1.5c-0.5,0.1-1.1,0.2-1.6,0.3l-0.8,0.1c-0.2,0-0.3,0-0.5,0.1
					c-0.7,0.1-1.4,0.1-2.2,0.1c-1.6-0.1-3.7-0.3-6.1-0.8c-0.7-0.1-1.5-0.3-2.2-0.4c-0.7-0.1-1.5-0.2-2.2-0.3
					c-1.4-0.2-2.8-0.4-4.2-0.6c-2.7-0.4-5.3-0.7-7.6-1.1c-2.3-0.4-4.3-1-5.7-1.5c-0.7-0.3-1.4-0.6-2.2-1.1c-0.8-0.5-1.7-1.1-2.6-1.7
					c-1.8-1.3-3.8-3-6-4.7c-1.1-0.9-2.2-1.8-3.5-2.8c-1-0.8-2-1.5-2.9-2.3c-1.9-1.5-3.6-3.1-5.3-4.6c-1.7-1.6-3.2-3.2-4.6-4.8
					c-0.4-0.4-0.7-0.8-1.1-1.2l-0.7-0.8l-0.8-0.9c-0.9-0.9-1.7-1.8-2.6-2.7c-0.7-0.7-1.2-1.4-1.6-1.8c-0.3-0.5-0.4-0.5-0.7-1.1
					c-0.3-0.5-0.6-1.4-1.1-2.5c-0.5-1.1-1.2-2.6-2.1-4.1c-2-3.2-3.9-5.1-5.3-6.6c-1.4-1.5-2.5-2.5-3-3.3c-0.3-0.4-0.5-0.6-0.6-0.8
					c-0.1-0.2-0.1-0.2-0.2-0.4c-0.2-0.5-0.4-1.3-0.6-2.1c-0.4-1.6-0.7-3.4-0.9-4.6c-0.2-1.3-0.3-1.9-0.3-1.9
					c-0.3-1.8-1.7-2.7-2.9-2.5c-1.2,0.2-2.3,1.4-2,3.2c0,0,0.1,0.7,0.3,1.9c0.2,1.2,0.5,3,0.9,5c0.2,1,0.5,2,0.9,2.8
					c0.2,0.4,0.3,0.7,0.6,1.1c0.3,0.4,0.5,0.8,0.9,1.3c0.8,1,1.9,2.1,3.3,3.6c1.4,1.5,3.1,3.2,4.6,5.8c1.5,2.6,2.3,4.9,3,6.3
					c0.4,0.8,0.7,1.2,1.2,1.9c0.5,0.6,1.1,1.4,1.9,2.2c0.8,0.9,1.7,1.8,2.5,2.7l0.7,0.8l0.7,0.8c0.4,0.4,0.8,0.9,1.1,1.3
					c1.5,1.7,3.2,3.4,4.9,5.1c1.8,1.7,3.6,3.3,5.6,4.9c1,0.8,2,1.6,3,2.4c1.2,0.9,2.3,1.8,3.4,2.7c2.2,1.7,4.2,3.4,6.2,4.9
					c2,1.5,4,2.7,5.8,3.4c1.9,0.8,4.3,1.4,6.7,1.8c2.5,0.5,5.1,0.8,7.8,1.2c1.4,0.2,2.8,0.4,4.1,0.6c0.7,0.1,1.4,0.2,2.1,0.3
					c0.7,0.1,1.4,0.3,2.1,0.4c2.5,0.5,4.8,0.8,6.9,0.9c1,0,2,0,2.9-0.1c0.2,0,0.5-0.1,0.7-0.1l0.8-0.1c0.6-0.1,1.1-0.2,1.7-0.3
					c2.3-0.4,4.5-1,6.7-1.6c4.4-1.2,8.7-2.5,12.8-3.6c1-0.3,2-0.6,3-0.8c0.5-0.1,1-0.3,1.5-0.4l0.4-0.1l0.2-0.1l0.5-0.1
					c1.3-0.4,2.6-1,4-1.7c2.7-1.4,5.3-2.9,7.6-4.1c2.3-1.2,4.3-2.1,5.7-2.7c0.7-0.3,1.3-0.5,1.7-0.6c0.4-0.1,0.6-0.2,0.6-0.2
					c1.1-0.3,1.9-0.9,2.3-1.5c0.5-0.6,0.7-1.3,0.6-1.9c-0.1-0.6-0.6-1.2-1.4-1.5C278.6,461.6,277.5,461.6,276.2,462z"/>
				<path id="XMLID_137_" class="st2" d="M280.3,470.2c0,0-0.2,0.1-0.5,0.2c-0.4,0.1-0.9,0.3-1.5,0.5c-1.3,0.5-3.2,1.3-5.5,2.4
					c-2.2,1.1-4.8,2.6-7.8,4.2c-1.5,0.7-3,1.5-4.6,2.1c-0.4,0.2-0.8,0.3-1.2,0.4l-0.6,0.2l-0.7,0.2c-1,0.3-2,0.5-3,0.8
					c-4.1,1.1-8.4,2.5-13,3.7c-2.3,0.6-4.6,1.2-7,1.7c-1.2,0.2-2.4,0.5-3.6,0.7c-1.1,0.2-2.3,0.2-3.5,0.2c-2.4,0-4.9-0.4-7.5-0.8
					c-1.3-0.2-2.7-0.5-4.1-0.7c-1.4-0.2-2.8-0.4-4.1-0.6c-5.4-0.7-10.9-1.3-15.7-3.1c-4.7-1.8-8.9-5.3-13.1-8.8
					c-1.1-0.9-2.2-1.7-3.3-2.6c-1.1-0.8-2.1-1.6-3.2-2.5c-2.1-1.6-4-3.3-5.9-5.1c-1.9-1.7-3.6-3.5-5.2-5.4c-0.8-1-1.7-1.9-2.5-2.8
					c-0.9-1-1.7-1.8-2.5-2.7c-0.8-0.9-1.5-1.7-2.2-2.5c-0.7-0.8-1.1-1.6-1.6-2.5c-0.9-1.8-1.6-3.9-2.9-6c-1.3-2.1-2.8-3.7-4.1-5.1
					c-1.4-1.4-2.6-2.6-3.6-3.8c-1-1.2-1.7-2.3-2.1-3.4c-0.5-1.2-0.8-2.4-1.1-3.5c-0.5-2.2-0.8-4.1-1-5.4c-0.2-1.3-0.3-2-0.3-2
					c-0.6-3.7-5.5-2.8-4.9,0.7c0,0,0.1,0.7,0.3,2c0.2,1.3,0.5,3.3,1.1,5.8c0.3,1.3,0.7,2.7,1.4,4.2c0.3,0.8,0.8,1.6,1.2,2.4
					c0.5,0.8,1,1.5,1.6,2.3c2.3,2.9,5.4,5.3,7.2,8.3c0.9,1.5,1.6,3.5,2.7,5.8c0.6,1.1,1.3,2.3,2.1,3.3c0.8,1,1.6,1.9,2.5,2.9
					c0.8,0.9,1.7,1.8,2.5,2.6c0.8,0.9,1.6,1.9,2.4,2.8c1.7,1.9,3.6,3.8,5.5,5.7c2,1.8,4,3.6,6.2,5.3c1.1,0.9,2.2,1.7,3.3,2.5
					c1,0.8,2.1,1.6,3.2,2.5c2.1,1.7,4.3,3.5,6.7,5.2c2.4,1.7,4.9,3.3,7.8,4.4c5.7,2.1,11.4,2.7,16.9,3.4c1.4,0.2,2.7,0.4,4,0.6
					c1.3,0.2,2.6,0.4,3.9,0.7c2.7,0.5,5.5,0.9,8.3,0.9c1.4,0,2.9-0.1,4.3-0.3c1.4-0.2,2.6-0.4,3.9-0.7c2.5-0.5,5-1.1,7.3-1.8
					c4.7-1.3,9-2.6,13-3.7c1-0.3,2-0.5,2.9-0.8l0.7-0.2l0.8-0.2c0.5-0.2,1.1-0.3,1.5-0.5c2-0.7,3.7-1.6,5.2-2.4
					c3.1-1.6,5.6-3.1,7.7-4.2c4.2-2.2,6.6-2.8,6.6-2.8c0.8-0.3,1.3-0.6,1.6-1.2c0.3-0.5,0.5-1.2,0.4-1.8c-0.1-0.6-0.4-1.2-1-1.6
					C282.1,470.1,281.2,469.9,280.3,470.2z"/>
				<path id="XMLID_136_" class="st2" d="M284.8,478.4c0,0-0.1,0-0.3,0c-0.2,0-0.5,0.1-0.9,0.2c-0.9,0.2-2.2,0.6-4.2,1.5
					c-2,0.9-4.4,2.2-7.5,3.9c-1.5,0.9-3.3,1.8-5.3,2.7c-0.5,0.2-1,0.5-1.6,0.7c-0.6,0.2-1.2,0.5-1.8,0.7c-0.6,0.2-1.3,0.4-2,0.6
					l-0.5,0.1l-0.4,0.1l-0.7,0.2c-4,1.1-8.4,2.4-13.3,3.8c-2.4,0.7-5,1.4-7.6,2c-1.3,0.3-2.7,0.6-4.1,0.9c-0.7,0.1-1.4,0.2-2.2,0.4
					c-0.8,0.1-1.7,0.2-2.5,0.3c-3.4,0.2-6.6-0.1-9.6-0.6c-0.7-0.1-1.5-0.3-2.2-0.4c-0.7-0.1-1.3-0.2-2-0.4c-1.3-0.2-2.6-0.4-3.9-0.6
					c-2.7-0.4-5.6-0.7-8.6-1.2c-3-0.5-6.1-1.1-9.4-2.2c-0.8-0.3-1.7-0.6-2.5-0.9c-0.8-0.4-1.7-0.8-2.4-1.2c-1.5-0.8-3-1.7-4.3-2.6
					c-2.6-1.8-5-3.7-7.2-5.5c-1.1-0.9-2.2-1.7-3.2-2.5l-1.6-1.2c-0.6-0.5-1.2-0.9-1.7-1.3c-2.3-1.8-4.5-3.7-6.6-5.7
					c-2.1-2-4.1-4-6-6c-0.8-1-1.7-1.9-2.5-2.9c-0.8-0.9-1.7-1.8-2.5-2.6c-0.9-1-1.9-2-2.8-3.2c-0.9-1.2-1.9-2.7-2.5-4
					c-0.7-1.3-1.1-2.5-1.5-3.4c-0.4-0.9-0.7-1.6-1.1-2.1c-0.6-1-1.8-2.3-3.1-3.7c-1.3-1.4-2.8-2.9-4.2-4.6c-0.7-0.9-1.4-1.9-1.9-2.9
					c-0.6-1.1-1-2.1-1.4-3c-0.7-1.9-1.1-3.5-1.4-4.9c-0.6-2.8-0.9-4.8-1.1-6.2c-0.2-1.3-0.3-2-0.3-2c-0.3-1.7-1.6-2.3-2.9-2
					c-1.2,0.3-2.3,1.1-2.1,2.8c0,0,0.1,0.7,0.3,2c0.2,1.4,0.5,3.4,1.1,6.5c0.3,1.5,0.8,3.3,1.6,5.6c0.4,1.1,1,2.4,1.7,3.7
					c0.7,1.3,1.5,2.5,2.4,3.5c1.6,2.1,3.3,3.7,4.6,5.1c1.3,1.3,2.2,2.4,2.5,2.8c0.1,0.2,0.4,0.6,0.7,1.5c0.4,0.8,0.9,2.1,1.6,3.6
					c0.7,1.5,1.9,3.4,3,4.8c1.1,1.4,2.2,2.6,3.1,3.6c0.8,0.9,1.6,1.7,2.4,2.6c0.8,0.9,1.6,1.9,2.5,2.8c2,2.2,4.1,4.3,6.3,6.4
					c2.2,2.1,4.5,4,6.9,5.9c0.6,0.5,1.2,0.9,1.8,1.4l1.6,1.2c1,0.8,2,1.6,3.1,2.5c2.2,1.8,4.6,3.8,7.5,5.7c1.4,1,3,2,4.8,2.9
					c0.9,0.5,1.8,0.9,2.8,1.3c0.9,0.4,1.9,0.8,2.8,1.1c3.7,1.3,7.1,1.9,10.2,2.4c3.1,0.5,6.1,0.8,8.7,1.2c1.3,0.2,2.6,0.4,3.8,0.6
					c0.6,0.1,1.3,0.2,1.9,0.4c0.8,0.1,1.5,0.3,2.3,0.4c3.2,0.5,6.8,0.9,10.7,0.7c1-0.1,2-0.2,3-0.3c0.8-0.1,1.6-0.3,2.3-0.4
					c1.5-0.3,2.9-0.6,4.3-0.9c2.8-0.6,5.4-1.3,7.9-2c4.9-1.4,9.3-2.7,13.2-3.7l0.7-0.2l0.4-0.1l0.6-0.2c0.8-0.2,1.6-0.5,2.3-0.7
					c0.7-0.3,1.3-0.5,2-0.8c0.6-0.3,1.2-0.5,1.7-0.8c2.2-1,4-2,5.6-2.9c3.2-1.8,5.5-3,7.2-3.8c0.4-0.2,0.8-0.3,1.2-0.5
					c0.3-0.1,0.6-0.2,0.9-0.3c0.3-0.1,0.5-0.1,0.7-0.2c0.2-0.1,0.4-0.1,0.5-0.1c0.2,0,0.4-0.1,0.5-0.1c0.1,0,0.1,0,0.1,0
					c0.1,0,0.2-0.1,0.2-0.2c0-0.2,0.1-0.4,0.1-0.5c0.1-0.5,0.2-1.1,0.3-1.7c0.1-0.6,0.1-1.2-0.1-1.7c-0.1-0.2-0.2-0.4-0.3-0.6
					C285.3,478.5,285.1,478.4,284.8,478.4z"/>
			</g>
		</g>
	</g>
	<g id="XMLID_146_">
		<g id="XMLID_120_">
			<g id="XMLID_124_">
				<path id="XMLID_127_" class="st2" d="M268.6,190.7c-0.2-0.5-0.5-1.2-0.8-1.9l-0.2-0.5l0,0l0,0c0,0-0.1,0-0.2,0.1
					c-0.2,0.1-0.6,0.1-1,0.2c-0.8,0.2-1.8,0.3-2.9,0.4l-3.7,0.4c-0.7,0.1-1.4,0.2-2.4,0.3c-1.2,0.2-2.4,0.5-3.6,0.9l-1.2,0.4
					l-0.9,0.4c-0.6,0.2-1.2,0.5-1.9,0.7c-1.2,0.5-2.5,1.1-3.7,1.7c-2.5,1.2-5,2.6-7.4,4.1c-2.4,1.6-4.8,3.4-7.1,5.6
					c-2.2,2.1-4.4,4.7-6,7.2c-1.7,2.5-3.1,5-4.3,7.6c-1.2,2.6-2.2,5.2-3,7.9c-1.6,5.4-2.7,11.1-2.5,17.5c0.1,2.1,5.1,1.5,5-0.2
					c-0.2-5.7,0.8-10.9,2.3-15.8c0.8-2.5,1.7-4.9,2.8-7.3c1.1-2.4,2.4-4.7,3.9-6.9c1.5-2.2,3.4-4.5,5.3-6.4c2-1.9,4.1-3.6,6.3-5
					c2.2-1.5,4.5-2.7,6.8-3.8c1.2-0.5,2.3-1.1,3.5-1.6c0.6-0.2,1.2-0.5,1.7-0.7l0.9-0.3l1-0.4c0.9-0.3,1.9-0.5,2.8-0.7
					c0.8-0.1,1.5-0.2,2.1-0.3l3.7-0.4c1.2-0.1,2.2-0.3,3.2-0.5c0.9-0.2,1.9-0.4,2.2-0.6c0,0,0.1-0.1,0-0.2l0-0.1
					c0,0.1,0.1,0.2,0.1,0.3c0.1,0.1,0.2,0.3,0.3,0.5c0.3,0.5,0.4,0.7,0.4,0.7s-0.1-0.2-0.4-0.7C269.6,192.8,269.3,192.1,268.6,190.7
					z"/>
				<path id="XMLID_126_" class="st2" d="M271.5,196.5c-0.8,0.4-1.9,0.7-3,0.9c-1.1,0.2-2.3,0.4-3.6,0.6l-3.8,0.4
					c-0.6,0.1-1.3,0.2-2,0.3c-0.7,0.1-1.5,0.3-2.2,0.6c-4.6,1.7-8.9,3.6-13,6.3c-2,1.3-4,2.8-5.8,4.6c-1.8,1.7-3.4,3.7-4.8,5.7
					c-1.4,2-2.5,4.2-3.6,6.4c-1,2.2-1.9,4.5-2.6,6.8c-1.4,4.6-2.3,9.5-2.1,14.5c0.1,1.6,5.1,1,5-0.2c-0.1-4.2,0.6-8.6,1.9-12.8
					c0.6-2.1,1.4-4.2,2.4-6.1c0.9-2,2-3.9,3.2-5.7c4.7-7.1,12.8-11.7,21-14.7c0.5-0.2,0.9-0.3,1.5-0.4c0.6-0.1,1.2-0.2,1.8-0.2
					l3.8-0.4c1.3-0.2,2.6-0.3,4-0.6c1.4-0.3,2.7-0.6,4.3-1.4c0.4-0.2,0.6-0.7,0.6-1.2c-0.1-0.5-0.4-1.1-0.8-1.6
					c-0.4-0.5-0.8-0.9-1.2-1.2C272,196.6,271.7,196.4,271.5,196.5z"/>
				<path id="XMLID_125_" class="st2" d="M278.2,202.7c-1.5,1.3-2.7,1.8-3.7,2.3c-1.1,0.4-2,0.7-2.8,0.9c-1.7,0.4-3.3,0.7-4.8,0.9
					c-1.5,0.2-2.9,0.3-4.2,0.5c-0.6,0.1-1.3,0.2-1.8,0.2l-0.3,0l-0.2,0c-0.1,0-0.3,0.1-0.4,0.1l-0.6,0.2l-0.7,0.3
					c-0.5,0.2-1,0.4-1.5,0.6c-1,0.4-1.9,0.8-2.9,1.3c-1.9,0.9-3.7,1.9-5.3,3c-1.7,1.1-3.2,2.3-4.5,3.6c-1.4,1.3-2.5,2.7-3.5,4.3
					c-1.1,1.6-2,3.4-2.9,5.2c-0.8,1.8-1.6,3.7-2.2,5.7c-0.6,1.9-1,3.9-1.3,5.9c-0.3,1.9-0.4,3.9-0.3,5.6c0.1,1.1,5,0.5,5-0.3
					c-0.1-1.3,0-3,0.2-4.6c0.3-1.7,0.7-3.4,1.2-5.2c0.5-1.7,1.2-3.4,1.9-5.1c0.7-1.6,1.6-3.2,2.5-4.5c0.9-1.4,1.7-2.4,2.9-3.5
					c1.1-1.1,2.4-2.1,3.8-3c1.4-0.9,3-1.8,4.7-2.7c0.9-0.4,1.7-0.8,2.6-1.2c0.4-0.2,0.9-0.4,1.4-0.5l1.2-0.4l0,0l0,0c0,0,0,0,0,0
					l0.1,0c0.4-0.1,1-0.1,1.6-0.2c1.3-0.1,2.7-0.3,4.3-0.5c1.6-0.2,3.3-0.5,5.3-1c1-0.3,2.1-0.6,3.5-1.1c0.7-0.3,1.4-0.6,2.3-1.1
					c0.4-0.2,0.9-0.6,1.4-0.9c0.2-0.2,0.5-0.4,0.8-0.6c0.3-0.2,0.5-0.4,0.8-0.7c0.6-0.6,1-1.1,1.4-1.8c0.3-0.7,0.5-1.2,0.6-1.8
					c0.1-1.2-0.3-1.9-0.9-2.1c-0.6-0.2-1.3-0.1-2.1,0.4C279.8,201.5,278.9,202,278.2,202.7z"/>
			</g>
		</g>
	</g>
	<g id="XMLID_216_">
		<g id="XMLID_94_">
			<path id="XMLID_115_" class="st1" d="M370.2,455.5"/>
		</g>
	</g>
	<g id="XMLID_236_">
		<g id="XMLID_105_">
			<g id="XMLID_109_">
				<path id="XMLID_112_" class="st2" d="M397.9,154.9c0,0-0.1-0.3-0.4-0.8c-0.2-0.5-0.6-1.3-1.1-2.2c-1-1.8-2.6-4.4-4.6-7.1
					c-2.1-2.8-4.6-5.7-7.5-8.6c-1.5-1.4-3-2.9-4.6-4.3c-1.6-1.4-3.2-2.7-5-4.1c-3.5-2.7-7.5-5.3-11.9-7.2c-4.4-1.9-9.2-3.1-13.4-3.3
					c-4.2-0.2-7.5,0.3-9.7,0.7c-2.3,0.4-3.4,0.8-3.4,0.8c-1.6,0.5-0.1,5.2,1.3,4.8c0,0,1.1-0.3,3.1-0.7c2-0.4,4.9-0.8,8.5-0.6
					c3.6,0.2,7.7,1.2,11.7,2.9c3.9,1.7,7.6,4.1,10.9,6.6c3.3,2.5,6.3,5.2,9.1,7.9c2.7,2.7,5.1,5.5,7.1,8.1c1.9,2.5,3.3,4.9,4.3,6.5
					c0.5,0.8,0.8,1.5,1,2c0.2,0.5,0.3,0.7,0.3,0.7c0.1,0.2,0.2,0.3,0.5,0.4l-6.7-3.9c0.6-0.9,0.3-3.7-0.4-4.5l11.2,6.5
					C398,155.4,398,155.1,397.9,154.9z"/>
				<path id="XMLID_111_" class="st2" d="M390,159.2c0,0-0.1-0.2-0.3-0.7c-0.2-0.4-0.5-1.1-0.9-1.8c-0.8-1.6-2.2-3.7-3.9-6.1
					c-3.6-4.9-9.1-10.5-15.4-15.3c-3.1-2.4-6.6-4.6-10.1-6.2c-3.5-1.6-7.2-2.4-10.3-2.6c-3.2-0.2-5.8,0.2-7.5,0.5
					c-1.8,0.3-2.8,0.7-2.8,0.7c-1.3,0.4,0.2,5.1,1.3,4.8c0,0,0.9-0.3,2.4-0.6c1.5-0.3,3.7-0.6,6.3-0.5c2.6,0.2,5.6,0.8,8.6,2.2
					c3,1.3,6.1,3.3,9.1,5.6c5.9,4.5,11.2,9.9,14.4,14.3c1.6,2.2,2.8,4.2,3.6,5.6c0.4,0.7,0.7,1.2,0.8,1.6c0.2,0.4,0.3,0.6,0.3,0.6
					l0,0l1,1.8l1.5-0.3c1.2-0.3,0.7-4.9-0.5-5L390,159.2C390,159.2,390,159.2,390,159.2z"/>
				<path id="XMLID_110_" class="st2" d="M389.4,166.7l-1.1,0.1l-4.5,0.4l-2-4.2c-3.7-7.8-10.6-14.9-18.1-20.8
					c-3.7-2.8-7.5-5.1-11.3-6.1c-3.8-1.1-7.6-0.9-11.7,0.3c-1,0.3,0.6,5,1.4,4.8c1.7-0.5,3.3-0.8,4.7-0.8c1.5,0,2.8,0.1,4.3,0.5
					c2.9,0.8,6.2,2.7,9.6,5.3c7.1,5.4,13.5,12.2,16.6,18.9l3.4,7.4l8.1-0.7l1.1-0.1C391.1,171.5,390.7,166.6,389.4,166.7z"/>
			</g>
		</g>
	</g>
	<g id="XMLID_3_">
		<g id="XMLID_95_">
			<g id="XMLID_100_">
				<path id="XMLID_103_" class="st2" d="M217.2,31.4c0,0-0.2,0-0.7-0.1c-0.5-0.1-1.2-0.2-2.1-0.2c-0.9-0.1-2-0.2-3.3-0.2
					c-1.3,0-2.7,0-4.4,0c-3.2,0.1-7,0.5-11.2,1.3c-4.2,0.8-8.7,2-13.4,3.5c-2.4,0.8-4.8,1.6-7.2,2.5c-1.2,0.5-2.4,1-3.7,1.5
					c-1.2,0.5-2.5,1.1-3.7,1.5c-2.3,0.9-4.8,1.8-7.2,2.8c-0.6,0.2-1.2,0.5-1.9,0.7l-1.1,0.5c-0.4,0.2-0.9,0.3-1.3,0.5
					c-1.7,0.8-3.4,1.6-4.9,2.5c-3.1,1.8-5.7,3.8-7.9,5.3c-1.1,0.8-2.1,1.5-3.1,2.1c-0.5,0.3-1,0.6-1.3,0.8c-0.4,0.2-0.8,0.4-1.2,0.6
					c-0.9,0.4-2.2,0.9-3.8,1.5c-1.6,0.6-3.4,1.4-5.4,2.5c-2,1.1-4,2.5-5.8,4.1c-1.8,1.6-3.2,3.3-4.3,4.7c-1.1,1.4-2,2.5-2.6,3.3
					c-0.3,0.4-0.6,0.7-0.9,1c-0.1,0.1-0.2,0.2-0.4,0.3l-0.5,0.4c-2.5,2-4.9,4.1-7.2,6.3c-4.7,4.3-9.1,8.8-13.1,13.5
					c-4,4.6-7.6,9.3-10.8,14c-1.6,2.3-3.1,4.6-4.4,6.8l-0.5,0.8l-0.3,0.4l-0.1,0.2l-0.2,0.3c-0.5,0.8-0.9,1.6-1.3,2.4
					c-0.8,1.6-1.3,3.1-1.8,4.5c-0.9,2.8-1.5,5.2-2,7.4c-0.4,2-0.9,4-1.3,5.8c-0.4,1.7-0.7,3-1.1,4c-0.4,1.3-1,3-1.5,4.9
					c-0.2,0.8-0.5,2.3-0.6,3.4c-0.1,1.2-0.2,2.3-0.2,3.3c0,2,0.4,3.8,0.8,5.1c0.4,1.4,0.8,2.3,1.1,3.1c0.2,0.4,0.3,0.6,0.3,0.6
					c0.4,0.9,0.6,0.8,1.1,0.6c0.4-0.2,1.1-0.3,1.7-0.4c0.6-0.1,1.2-0.4,1.6-0.6c0.4-0.3,0.6-0.7,0.2-1.6c0,0-0.1-0.2-0.2-0.6
					c-0.2-0.5-0.6-1.3-0.9-2.4c-0.3-1.1-0.6-2.4-0.6-4c0-0.8,0-1.7,0.1-2.6c0.1-0.9,0.3-2,0.5-2.7c0.4-1.6,1-3.2,1.4-4.6
					c0.4-1.3,0.8-2.7,1.2-4.4c0.8-3.4,1.5-7.7,3.2-12.7c0.4-1.3,0.9-2.6,1.6-3.9c0.3-0.7,0.7-1.4,1.1-2.1c0.2-0.4,0.3-0.6,0.5-0.9
					l0.5-0.8c1.3-2.2,2.8-4.4,4.3-6.6c3.1-4.5,6.6-9,10.4-13.5c3.9-4.5,8.1-8.9,12.7-13.1c2.3-2.1,4.6-4.1,7-6.1l0.6-0.6
					c0.2-0.2,0.4-0.3,0.6-0.5c0.4-0.4,0.8-0.8,1.2-1.3c0.8-1,1.7-2.1,2.7-3.4c1-1.3,2.3-2.8,3.8-4.1c1.5-1.4,3.2-2.5,4.9-3.5
					c3.4-1.9,6.6-2.8,8.8-3.8c1.2-0.5,2-1,3.1-1.7c1.1-0.7,2.2-1.4,3.3-2.2c2.3-1.6,4.7-3.5,7.6-5.1c1.4-0.8,2.9-1.6,4.4-2.3
					c0.4-0.2,0.8-0.3,1.2-0.5l1.1-0.4c0.6-0.2,1.3-0.5,1.9-0.7c2.5-1,4.9-1.9,7.3-2.8c1.2-0.4,2.4-1,3.6-1.5c1.2-0.5,2.4-1,3.6-1.4
					c2.4-0.9,4.7-1.7,7-2.5c4.5-1.5,8.9-2.6,12.8-3.3c3.9-0.7,7.5-1.1,10.4-1.2c1.5,0,2.8,0,4,0c1.2,0.1,2.2,0.2,3,0.2
					c0.8,0,1.4,0.2,1.9,0.2c0.4,0.1,0.6,0.1,0.6,0.1c2.3,0.3,3.7-0.5,4-1.8C220.8,33.4,219.8,31.7,217.2,31.4z"/>
				<path id="XMLID_102_" class="st2" d="M217.1,40.5c0,0-0.8-0.1-2.3-0.4c-0.8-0.1-1.7-0.2-2.8-0.3c-1.1-0.1-2.3-0.1-3.7-0.1
					c-5.6,0-13.5,1.2-22.4,4c-4.4,1.4-9.2,3.2-14,5.2c-2.4,0.9-4.9,1.9-7.5,2.9c-0.6,0.2-1.3,0.5-1.9,0.7c-0.7,0.3-1.3,0.5-2,0.8
					c-1.4,0.6-2.8,1.2-4.1,2c-5.3,3-9.7,7.1-14.6,9.4c-2.5,1.2-5.4,2.1-8.4,3.6c-1.5,0.8-2.9,1.7-4.2,2.8c-1.3,1.1-2.5,2.4-3.5,3.6
					c-2,2.5-3.6,4.9-5.6,6.5c-2.3,1.9-4.7,3.9-6.9,6c-4.5,4.1-8.7,8.4-12.5,12.8c-3.8,4.4-7.2,8.8-10.2,13.2
					c-1.5,2.2-2.9,4.4-4.2,6.5c-0.3,0.5-0.7,1.1-1,1.6c-0.3,0.6-0.7,1.2-0.9,1.8c-0.6,1.2-1,2.4-1.4,3.5c-1.6,4.6-2.3,8.8-3.1,12.4
					c-0.4,1.8-0.8,3.4-1.3,4.8c-0.5,1.5-1,2.9-1.3,4.4c-0.2,0.7-0.3,1.5-0.4,2.2c-0.1,0.7-0.1,1.4-0.1,2c0,1.3,0.2,2.3,0.5,3.1
					c0.3,0.8,0.5,1.4,0.7,1.9c0.2,0.3,0.2,0.5,0.2,0.5c0.4,0.9,0.9,1.3,1.5,1.6c0.6,0.2,1.2,0.4,1.8,0.2c0.6-0.1,1.2-0.5,1.5-1.2
					c0.3-0.7,0.2-1.7-0.2-2.6c0,0-0.1-0.2-0.2-0.5c-0.1-0.3-0.3-0.7-0.5-1.2c-0.2-0.5-0.3-1.2-0.3-2c0-0.4,0-0.8,0.1-1.3
					c0.1-0.5,0.2-0.9,0.3-1.5c0.3-1.2,0.7-2.5,1.3-4.1c0.5-1.6,1-3.4,1.4-5.2c0.8-3.7,1.6-7.8,2.9-11.8c0.4-1,0.7-2,1.2-3
					c0.2-0.5,0.5-0.9,0.7-1.4c0.3-0.5,0.6-1,0.9-1.5c1.3-2.1,2.6-4.2,4.1-6.3c2.9-4.2,6.2-8.5,9.9-12.8c3.7-4.2,7.7-8.4,12.1-12.4
					c2.2-2,4.4-3.9,6.8-5.9c2.7-2.2,4.5-5,6.3-7.2c1.8-2.2,3.7-3.9,6.2-5.2c2.4-1.3,5.3-2.1,8.2-3.5c5.9-2.9,10.3-7,15-9.6
					c1.2-0.7,2.3-1.2,3.5-1.7c0.6-0.3,1.3-0.5,1.9-0.8c0.7-0.3,1.3-0.5,1.9-0.8c2.6-1,5.1-2,7.6-2.9c4.8-2,9.3-3.7,13.6-5.1
					c8.5-2.7,15.9-3.8,20.9-3.8c1.3,0,2.4,0,3.4,0.1c1,0.1,1.8,0.1,2.5,0.2c1.3,0.2,2,0.3,2,0.3c1.8,0.4,3-0.6,3.4-1.8
					C219.9,42.4,219.2,40.9,217.1,40.5z"/>
				<path id="XMLID_101_" class="st2" d="M218.4,50c0,0-0.1-0.1-0.4-0.1c-0.3-0.1-0.7-0.2-1.3-0.3c-0.3-0.1-0.6-0.2-1-0.2
					c-0.4-0.1-0.8-0.1-1.2-0.2c-0.4-0.1-0.9-0.2-1.4-0.2c-0.5,0-1.1-0.1-1.6-0.1c-4.6-0.4-11.7,0.3-20.1,2.8
					c-4.2,1.2-8.8,2.8-13.6,4.8c-0.6,0.2-1.2,0.5-1.8,0.7c-0.6,0.3-1.3,0.5-1.9,0.8c-1.3,0.5-2.6,1-4,1.5c-1.3,0.5-2.7,1-4.1,1.6
					c-1.5,0.6-2.4,0.9-3.5,1.5c-2.1,1-4.2,2.4-6.6,4.1c-2.4,1.7-5.1,3.7-8.3,5.4c-1.7,0.9-3.4,1.7-4.9,2.3c-1.5,0.6-2.9,1.1-4,1.6
					c-1.1,0.5-2.1,1-2.9,1.7c-0.8,0.6-1.6,1.3-2.4,2.2c-0.8,0.9-1.7,2.1-2.7,3.4c-1,1.3-2.2,2.8-3.8,4.2c-0.4,0.4-0.8,0.7-1.2,1
					l-0.9,0.7l-1.7,1.4c-1.1,1-2.3,1.9-3.3,2.9c-4.4,3.9-8.4,8.1-12.1,12.3c-3.7,4.2-7,8.5-9.9,12.7c-1.4,2.1-2.8,4.2-4.1,6.3
					l-0.5,0.8c-0.2,0.3-0.3,0.5-0.4,0.7l-0.3,0.5l-0.3,0.6c-0.4,0.8-0.7,1.7-1,2.6c-1.2,3.8-2,7.9-2.9,11.8c-0.2,1-0.5,2-0.7,2.9
					c-0.1,0.5-0.3,1-0.4,1.5c-0.1,0.4-0.3,0.9-0.4,1.3c-0.3,0.8-0.5,1.5-0.7,2.1c-0.1,0.3-0.2,0.6-0.2,0.8c-0.1,0.2-0.1,0.6-0.1,0.6
					c-0.3,1.2,0,2.1,0.2,2.7c0.2,0.6,0.4,1,0.6,1.3c0.2,0.5,0.3,0.7,0.3,0.7c1.1,2.8,2.3,4.4,3.6,4.2c0.6-0.1,1.2-0.6,1.5-1.6
					c0.2-0.5,0.2-1.1,0.2-1.9c-0.1-0.8-0.3-1.8-0.6-2.5c0,0-0.1-0.3-0.3-0.8c-0.1-0.2-0.2-0.5-0.3-0.7c0-0.1-0.1-0.2-0.2-0.4
					c0-0.1,0,0,0,0c0,0,0,0,0,0c0,0,0,0,0,0c0,0,0,0,0,0l0-0.1l0.1-0.2c0.1-0.2,0.1-0.4,0.2-0.7c0.1-0.5,0.4-1.1,0.6-1.9
					c0.1-0.4,0.3-0.9,0.4-1.4c0.2-0.5,0.3-1.1,0.5-1.6c0.3-1.1,0.5-2.1,0.8-3.1c0.4-1.9,0.9-3.9,1.3-6c0.4-1.9,0.9-3.8,1.4-5.4
					c0.3-0.8,0.5-1.5,0.8-2.1l0.2-0.4l0.2-0.3c0-0.1,0.2-0.4,0.4-0.6l0.5-0.7c1.2-2,2.5-4,3.9-6.1c2.8-4.1,6-8.2,9.5-12.3
					c3.6-4.1,7.5-8.1,11.7-11.9c1-1,2.1-1.9,3.2-2.8L128,93l0.9-0.7c0.5-0.4,1-0.8,1.4-1.2c1.8-1.7,3.2-3.4,4.3-4.8
					c1.1-1.4,1.9-2.5,2.5-3.2c0.6-0.7,1.1-1.1,1.6-1.5c0.5-0.4,1.1-0.7,2-1.1c0.9-0.4,2.2-0.9,3.8-1.5c1.6-0.6,3.5-1.4,5.5-2.5
					l0.7-0.4l0.6-0.4c0.4-0.2,0.8-0.5,1.2-0.7c0.8-0.5,1.5-1,2.3-1.5c1.4-1,2.7-1.9,3.9-2.8c2.4-1.7,4.2-2.9,5.9-3.7
					c0.4-0.2,0.9-0.4,1.3-0.6l0.8-0.3l1-0.4c1.4-0.5,2.8-1.1,4.1-1.6c1.4-0.5,2.7-1,4-1.6c0.7-0.3,1.3-0.5,2-0.8
					c0.6-0.2,1.2-0.5,1.8-0.7c4.7-1.9,9.1-3.4,13.1-4.6c8-2.3,14.5-2.9,18.4-2.6c0.5,0,1,0.1,1.4,0.1c0.4,0,0.8,0.1,1.2,0.2
					c0.4,0.1,0.7,0.1,1,0.1c0.3,0,0.6,0.1,0.8,0.2c0.9,0.2,1.4,0.3,1.4,0.4c1.1,0.4,2.2-0.5,2.7-1.7C220.1,51.9,219.9,50.5,218.4,50
					z"/>
			</g>
		</g>
	</g>
</g>
<g id="XMLID_2_">
	<g id="XMLID_210_">
		<g id="XMLID_214_">
			<path id="XMLID_218_" class="st3" d="M699,666.9c0,0-0.4-0.2-1.1-0.6c-0.7-0.4-1.8-1-3.2-1.7c-0.7-0.4-1.6-0.8-2.5-1.2
				c-0.5-0.2-1-0.4-1.5-0.7c-0.5-0.2-1.1-0.5-1.6-0.7c-2.1-0.9-4.5-1.8-7.2-2.8c-5.3-2-11.7-4-18.6-6.4c-3.5-1.2-7.3-2.5-11.3-3.9
				c-1.9-0.7-3.8-1.3-5.6-2.1c-0.4-0.2-0.9-0.4-1.3-0.6c-0.3-0.1-0.7-0.3-1.1-0.5c-0.8-0.4-1.6-0.8-2.4-1.3c-0.8-0.5-1.7-1-2.6-1.5
				l-0.7-0.4c-0.2-0.1-0.5-0.3-0.5-0.3c-0.1,0-0.2-0.1-0.3-0.3c-0.2-0.1-0.4-0.4-0.7-0.6c-0.4-0.4-0.7-0.8-1.1-1.2
				c-0.9-0.9-2.1-2.2-3.8-3.6c-0.4-0.3-0.9-0.7-1.3-1l-0.7-0.5c-0.4-0.3-0.9-0.6-1.3-1c-0.9-0.7-1.8-1.4-2.6-2.1
				c-1.8-1.5-3.5-3-5.3-4.7c-0.9-0.8-1.7-1.7-2.6-2.5l-1.3-1.3l-0.5-0.5l-0.6-0.6c-0.4-0.4-0.7-0.7-1.1-1c-1.4-1.3-2.6-2.2-3.5-2.9
				c-0.4-0.4-0.8-0.7-1.1-0.9l-0.3-0.3l-0.5-0.5c-0.7-0.7-1.5-1.8-2.9-3.2c-1.4-1.4-3.2-3.1-5.2-4.4l-0.7-0.5l-0.6-0.4
				c-0.4-0.2-0.8-0.5-1.2-0.7c-0.8-0.5-1.6-0.9-2.5-1.3c-1.7-0.8-3.3-1.5-4.9-2.2c-3.3-1.2-6.4-2.1-9.1-3c-1.4-0.4-2.7-0.8-4-1.2
				c-1.5-0.5-3-0.9-4.4-1.4c-3-0.9-6.2-1.8-9.4-2.6c-1.6-0.4-3.2-0.7-4.9-1c-1.5-0.3-3-0.6-4.5-0.8c-3-0.6-6-1.1-9.1-1.7l-2.3-0.4
				l-0.9-0.2c-0.2,0-0.4-0.1-0.7-0.2c-0.9-0.2-2-0.6-3.3-1c-1.3-0.4-2.8-1-4.5-1.6l-1-0.3c-0.2-0.1-0.4-0.2-0.6-0.2
				c-0.4-0.2-0.8-0.3-1.2-0.5c-0.8-0.4-1.8-1-3.2-1.8L526,585c-0.5-0.3-0.9-0.5-1.3-0.8c-1.8-1.2-3.8-2.8-6.1-4.8
				c-2.3-2-5-4.3-8.1-6.5c-3-2.1-5.6-3.6-7.7-5.1c-2.1-1.5-3.7-2.8-4.5-3.8c-0.1-0.1-0.2-0.2-0.3-0.4l-0.1-0.2l-0.3-0.4
				c-0.4-0.5-0.7-1.1-1.1-1.6c-0.7-1.1-1.4-2.3-2-3.4c-1.3-2.4-2.6-4.8-3.9-7.4c-1.3-2.7-2.6-5.4-3.9-8c-1.5-2.9-2.9-5.6-4.2-8
				c-1.3-2.5-2.5-4.8-3.4-6.9l-0.5-1.1l-0.6-1.3c-0.4-0.8-0.8-1.6-1.2-2.4c-0.8-1.5-1.7-2.9-2.4-4.1l-1.1-1.8
				c-0.2-0.4-0.2-0.3-0.2-0.3c0,0,0,0,0-0.1c-0.1-0.1-0.2-0.5-0.4-1.6c-0.1-0.7-0.3-1.4-0.4-2.1c-0.2-0.8-0.4-1.8-0.7-2.9
				c-0.3-1-0.8-2.2-1.2-3.2c-0.2-0.5-0.4-1-0.7-1.5L469,504c-1.9-3.4-3.9-5.9-5.7-8.1c-1.8-2.2-3.4-4-4.6-5.5
				c-0.3-0.4-0.5-0.7-0.8-1.1c-0.3-0.4-0.6-0.8-0.8-1.2c-0.6-0.8-1.1-1.7-1.6-2.7c-1.1-1.8-2.2-3.8-3.3-5.9
				c-1.1-2.1-2.3-4.2-3.7-6.3c-0.6-1-1.2-1.9-1.8-2.8c-0.5-0.9-1.1-1.7-1.6-2.6c-2.1-3.4-4-6.8-5.9-10.1c-0.9-1.6-1.8-3.2-2.7-4.8
				c-0.7-1.3-1.4-2.6-2.1-3.9c-1.3-2.6-2.6-5.4-3.8-7.9c-0.6-1.3-1.2-2.5-1.8-3.7c-0.3-0.6-0.6-1.2-0.9-1.7
				c-0.2-0.3-0.3-0.6-0.5-0.9c-0.2-0.3-0.4-0.7-0.6-1c-1.5-2.4-2.5-3.7-3.2-4.9c-0.8-1.1-1.3-1.9-1.6-2.4c-0.3-0.5-0.5-0.8-0.5-0.8
				c-0.8-1.3-1.3-1.9-1.9-2c-0.6-0.2-1.1,0-1.8,0.1c-0.6,0.2-1.2,0.4-1.4,1.1c-0.2,0.7-0.1,1.8,0.8,3.4c0,0,0.2,0.3,0.5,0.8
				c0.4,0.6,0.9,1.4,1.7,2.6c0.8,1.2,1.8,2.6,3.1,4.7c0.2,0.3,0.3,0.6,0.5,0.9c0.1,0.3,0.3,0.5,0.4,0.8c0.3,0.5,0.6,1.1,0.9,1.7
				c0.6,1.1,1.2,2.3,1.8,3.6c1.2,2.5,2.4,5.2,3.8,8c0.7,1.4,1.4,2.8,2.2,4.1c0.9,1.5,1.8,3.1,2.7,4.8c1.9,3.3,3.8,6.7,5.9,10.2
				c0.5,0.9,1.1,1.8,1.6,2.6c0.6,0.9,1.2,1.9,1.8,2.8c1.2,2,2.4,4.1,3.5,6.1c2.3,4.1,4.5,8.1,7,11.5c1.3,1.7,3,3.6,4.7,5.7
				c1.7,2.1,3.6,4.4,5.2,7.3c0.8,1.4,1.6,3.2,2.1,5c0.5,1.8,0.8,3.3,1,4.5c0.2,1.2,0.5,2,0.7,2.6c0.1,0.2,0.1,0.3,0.2,0.4l0.3,0.6
				l1.1,1.8c0.7,1.2,1.5,2.5,2.3,3.9c0.4,0.7,0.8,1.4,1.1,2.2l0.5,1.1l0.5,1c1,2.3,2.3,4.7,3.6,7.2c1.3,2.5,2.8,5.1,4.2,7.9
				c1.3,2.7,2.6,5.3,3.9,8c1.3,2.6,2.6,5.2,4,7.6c0.7,1.2,1.4,2.5,2.2,3.6c0.4,0.6,0.7,1.2,1.1,1.8l0.3,0.4l0.2,0.3
				c0.1,0.2,0.3,0.4,0.5,0.6c1.3,1.6,3.2,3.2,5.5,4.8c2.3,1.6,4.9,3.2,7.7,5.1c2.9,2,5.4,4.2,7.7,6.2c2.3,2,4.5,3.8,6.6,5.2
				c0.5,0.4,1.1,0.7,1.6,1l2.1,1.2c1.4,0.8,2.5,1.5,3.6,2c0.5,0.3,1.1,0.5,1.6,0.7c0.3,0.1,0.6,0.2,0.8,0.3l1,0.3
				c1.6,0.5,3.1,1.1,4.5,1.5c1.4,0.5,2.6,0.9,3.8,1.1c0.3,0.1,0.6,0.1,0.9,0.2l1,0.2l2.3,0.4c3,0.6,6,1.1,9,1.7
				c1.5,0.3,3,0.6,4.5,0.8c1.6,0.3,3.1,0.6,4.7,1c3.1,0.7,6.1,1.6,9.1,2.5c1.5,0.5,2.9,0.9,4.3,1.4c1.3,0.4,2.7,0.8,4.1,1.3
				c2.8,0.8,5.8,1.7,8.8,2.9c1.5,0.6,3,1.2,4.5,2c0.7,0.4,1.5,0.8,2.2,1.2c0.4,0.2,0.7,0.4,1.1,0.6l0.5,0.3l0.6,0.4
				c1.6,1.1,3.1,2.4,4.3,3.7c1.2,1.3,2.1,2.3,2.9,3.2l0.6,0.6c0.2,0.2,0.3,0.3,0.5,0.5c0.4,0.3,0.8,0.7,1.3,1.1
				c1,0.8,2.1,1.7,3.4,2.8c0.3,0.3,0.6,0.6,1,0.9c0.3,0.3,0.7,0.7,0.9,0.9l1.3,1.4c0.9,0.9,1.8,1.8,2.7,2.7c1.8,1.7,3.7,3.4,5.5,4.9
				c0.9,0.8,1.9,1.5,2.8,2.2c0.5,0.3,0.9,0.7,1.4,1l0.7,0.5c0.3,0.2,0.7,0.5,1.1,0.8c1.4,1.1,2.4,2.2,3.3,3.1
				c0.9,0.9,1.6,1.6,2.1,2.1c0.3,0.2,0.6,0.5,0.8,0.6c0.1,0.1,0.4,0.2,0.6,0.4l0.7,0.4c0.9,0.6,1.9,1.1,2.8,1.6
				c0.9,0.5,1.8,1,2.7,1.4c0.4,0.2,0.9,0.4,1.3,0.6c0.5,0.2,1,0.4,1.4,0.6c1.9,0.8,3.9,1.5,5.8,2.2c4,1.4,7.8,2.7,11.3,3.9
				c7,2.4,13.3,4.4,18.5,6.4c2.6,1,4.9,1.9,7,2.7c2.1,0.9,3.9,1.8,5.3,2.5c2.8,1.4,4.1,2.2,4.1,2.2c3.7,2.1,6,2,6.7,1
				c0.3-0.5,0.1-1.4-0.5-2.3C702.1,669,700.9,667.9,699,666.9z"/>
			<path id="XMLID_217_" class="st3" d="M696.8,676c0,0-1.3-0.8-3.9-2.2c-1.3-0.7-2.9-1.6-4.9-2.5c-2-0.9-4.3-1.8-6.9-2.8
				c-5.1-2-11.5-4.1-18.6-6.5c-3.6-1.2-7.4-2.5-11.4-3.9c-2-0.7-4-1.4-6.1-2.2c-1-0.4-2-0.8-3.1-1.2c-1-0.4-2-0.9-2.9-1.4
				c-2-1-4-2.2-5.9-3.5c-1.7-1-3.1-2.8-5-4.7c-0.5-0.5-1-1-1.6-1.4c-0.3-0.2-0.6-0.5-0.9-0.7l-0.8-0.5c-1-0.7-2-1.5-3-2.3
				c-2-1.6-3.9-3.2-5.9-5c-1.9-1.8-3.8-3.6-5.7-5.6c-2.2-2.3-4.6-3.8-6.4-5.5c-0.9-0.8-1.8-1.8-2.7-2.9c-0.9-1.1-2-2.3-3.3-3.3
				c-0.6-0.5-1.3-1-2-1.4c-0.7-0.4-1.3-0.8-2-1.2c-1.3-0.7-2.7-1.4-4.1-2c-2.8-1.2-5.7-2.1-8.6-3c-2.9-0.8-5.6-1.7-8.5-2.6
				c-2.9-0.9-5.8-1.8-8.8-2.5c-3-0.8-6.1-1.3-9.1-1.9c-3-0.6-6-1.1-9.1-1.7c-1.5-0.3-3-0.6-4.5-0.9c-1.4-0.3-2.8-0.6-4.2-1.1
				c-1.4-0.5-2.9-1-4.3-1.5l-2.2-0.7c-0.7-0.2-1.3-0.5-2-0.7c-1.3-0.6-2.5-1.2-3.8-2l-4-2.3c-4.9-3-9.2-7.5-14.4-11.4
				c-2.6-1.9-5.3-3.5-7.8-5.2c-2.5-1.7-4.8-3.4-6.6-5.4c-0.5-0.5-0.9-1-1.3-1.6c-0.4-0.5-0.8-1.2-1.2-1.8c-0.8-1.2-1.6-2.5-2.3-3.8
				c-1.5-2.6-2.8-5.2-4.2-7.8c-1.3-2.7-2.6-5.3-3.9-8c-1.3-2.7-2.7-5.3-4.1-7.9c-1.4-2.6-2.7-5.1-3.8-7.6l-0.9-2
				c-0.3-0.7-0.7-1.4-1-2c-0.7-1.3-1.4-2.6-2.2-3.8l-1.1-1.8l-0.5-0.9c-0.1-0.2-0.3-0.5-0.4-0.7c-0.5-1-0.8-2.1-1.1-3.3
				c-0.3-1.2-0.5-2.6-0.9-4.1c-0.4-1.5-1-3-1.7-4.3c-1.4-2.6-3.1-4.8-4.8-6.9c-1.7-2.1-3.4-4-4.8-5.9c-2.9-3.7-5.2-7.9-7.4-12
				c-1.1-2-2.3-4.1-3.5-6c-0.6-1-1.2-1.9-1.8-2.8c-0.6-0.9-1.1-1.8-1.7-2.7c-2.2-3.6-4.2-7.1-6-10.4c-0.9-1.6-1.8-3.2-2.7-4.8
				c-0.9-1.5-1.6-2.9-2.3-4.4c-1.4-2.9-2.7-5.6-3.9-8.1c-1.2-2.5-2.3-4.6-3.4-6.6c-1.2-1.9-2.2-3.4-3-4.6c-1.6-2.4-2.3-3.6-2.3-3.6
				c-1-1.6-1.8-2.7-2.6-3.4c-0.8-0.7-1.5-1-2.1-0.8c-0.6,0.1-1.1,0.8-1.1,2.1c0,1.2,0.4,2.9,1.5,4.7c0,0,0.8,1.4,2.5,3.9
				c0.8,1.2,1.9,2.7,2.9,4.4c1,1.6,2.1,3.8,3.2,6.2c1.2,2.4,2.4,5.2,3.9,8.1c0.7,1.5,1.6,3,2.5,4.6c0.9,1.5,1.8,3.1,2.7,4.8
				c1.9,3.3,3.9,6.8,6.1,10.5c0.6,0.9,1.1,1.8,1.7,2.8c0.6,0.9,1.2,1.8,1.7,2.8c1.1,1.8,2.2,3.8,3.4,5.8c2.3,4.1,4.6,8.4,7.9,12.7
				c1.6,2.1,3.3,4,4.9,5.9c1.6,2,3.1,4,4.2,6c0.6,1.1,1,2.1,1.3,3.2c0.3,1.1,0.5,2.4,0.8,3.9c0.3,1.4,0.7,3,1.5,4.5
				c0.2,0.4,0.4,0.7,0.6,1.1l0.6,0.9l1.1,1.8c0.7,1.2,1.4,2.3,2,3.5c0.3,0.6,0.6,1.2,0.9,1.8l0.9,1.9c1.2,2.7,2.6,5.3,4,7.9
				c1.4,2.6,2.8,5.1,4,7.7c1.3,2.6,2.5,5.4,3.9,8.1c1.3,2.7,2.8,5.4,4.3,8.1c0.8,1.3,1.6,2.7,2.4,4c0.4,0.7,0.8,1.3,1.3,2
				c0.5,0.7,1,1.4,1.6,2c2.3,2.5,4.9,4.5,7.6,6.2c2.6,1.8,5.3,3.3,7.6,5.1c4.7,3.4,9,8.1,14.8,11.6l4,2.4c1.4,0.8,2.8,1.6,4.4,2.3
				c0.8,0.3,1.6,0.6,2.4,0.9l2.2,0.7c1.4,0.5,2.9,1,4.4,1.5c1.5,0.5,3.1,1,4.8,1.3c1.5,0.3,3,0.6,4.6,0.9c3,0.6,6,1.1,9,1.7
				c3,0.6,5.9,1.1,8.8,1.8c2.9,0.7,5.7,1.5,8.5,2.4c2.8,0.9,5.8,1.8,8.6,2.7c2.8,0.8,5.5,1.7,8.1,2.8c1.3,0.5,2.5,1.1,3.7,1.8
				c0.6,0.3,1.2,0.7,1.7,1c0.5,0.3,1,0.7,1.5,1.1c1.9,1.5,3.5,3.8,5.8,6c2.3,2.1,4.6,3.6,6.2,5.3c1.9,2,3.9,4,5.9,5.8
				c2,1.8,4.1,3.6,6.1,5.2c1,0.8,2.1,1.6,3.2,2.4l0.8,0.6c0.2,0.2,0.4,0.3,0.6,0.5c0.4,0.3,0.8,0.7,1.2,1.1c1.6,1.6,3.4,3.7,5.8,5.3
				c2.1,1.3,4.2,2.6,6.4,3.7c1.1,0.6,2.2,1.1,3.3,1.5c1.1,0.5,2.2,0.9,3.2,1.3c2.1,0.8,4.2,1.5,6.2,2.2c4,1.4,7.8,2.7,11.4,3.9
				c7.2,2.4,13.4,4.5,18.4,6.4c2.5,1,4.7,1.9,6.5,2.7c1.8,0.9,3.4,1.7,4.6,2.3c2.5,1.4,3.8,2.2,3.8,2.2c3.5,2,5.7,2,6.4,1
				C701.5,680.3,700.4,678,696.8,676z"/>
			<path id="XMLID_215_" class="st3" d="M698.1,687.3c0,0-0.2-0.2-0.7-0.5c-0.5-0.3-1.3-0.9-2.5-1.6c-2.5-1.5-6.2-3.7-10.8-5.9
				c-0.6-0.3-1.1-0.5-1.8-0.8c-0.6-0.3-1.3-0.5-2-0.8c-1.4-0.6-2.8-1.1-4.3-1.7c-3-1.1-6.4-2.3-10.1-3.5c-1.8-0.6-3.7-1.3-5.7-1.9
				c-2-0.7-4-1.4-6-2.1c-4-1.4-8.5-2.8-13.2-4.6c-0.6-0.2-1.2-0.5-1.8-0.7l-0.9-0.4l-1-0.4c-1.3-0.6-2.5-1.2-3.7-1.9
				c-1.2-0.7-2.4-1.3-3.5-2c-0.6-0.4-1.2-0.7-1.7-1.1c-0.7-0.5-1.6-1.1-2.2-1.6c-1.4-1.1-2.4-2.3-3.3-3.2c-0.9-0.9-1.6-1.6-2.2-2.1
				c-0.5-0.4-1-0.7-1.5-1.1c-0.6-0.4-1.2-0.9-1.7-1.3c-1.1-0.9-2.3-1.8-3.4-2.7c-2.2-1.9-4.4-3.8-6.5-5.9c-1.1-1-2.1-2.1-3.1-3.2
				l-0.7-0.7c-0.2-0.2-0.3-0.3-0.5-0.5c-0.4-0.4-0.8-0.7-1.3-1.1c-1-0.8-2.2-1.8-3.6-3c-1.4-1.3-2.6-2.6-3.5-3.7
				c-1-1.1-1.7-1.9-2.4-2.5c-0.4-0.3-0.7-0.6-1.1-0.8c-0.5-0.3-1-0.6-1.5-0.9c-2.1-1.2-4.5-2.2-7.2-3c-2.6-0.9-5.6-1.7-8.6-2.7
				c-1.5-0.5-2.9-0.9-4.4-1.4c-1.4-0.4-2.8-0.9-4.3-1.3c-2.8-0.8-5.7-1.5-8.6-2c-3.1-0.6-6.1-1.2-9.2-1.7c-1.5-0.3-3.1-0.6-4.6-0.9
				l-2.3-0.4l-1.3-0.3c-0.5-0.1-0.9-0.2-1.4-0.3c-3.7-0.9-6.8-2.2-9.5-3c-1.8-0.6-3.7-1.4-5.4-2.2c-1.7-0.9-3.2-1.8-4.5-2.6
				l-2.1-1.2c-0.8-0.5-1.6-1-2.3-1.5c-1.5-1-2.9-2.1-4.2-3.2c-2.6-2.2-4.9-4.3-7.2-6c-1.1-0.9-2.2-1.6-3.4-2.5
				c-1.3-0.8-2.6-1.7-3.9-2.5c-2.7-1.8-5.7-3.8-8.5-6.5c-0.7-0.7-1.4-1.4-2.1-2.2c-0.3-0.4-0.7-0.8-1-1.2c-0.3-0.4-0.7-0.9-0.9-1.2
				c-0.9-1.4-1.8-2.8-2.7-4.2c-1.7-2.8-3.2-5.7-4.6-8.5c-1.4-2.8-2.8-5.6-4.1-8.4c-1.2-2.5-2.6-5.1-4-7.7c-1.4-2.6-2.9-5.4-4.2-8.3
				c-0.3-0.7-0.6-1.4-0.9-2.1c-0.2-0.5-0.5-1.1-0.8-1.6c-0.6-1.1-1.2-2.2-1.9-3.4l-1.1-1.8l-0.6-0.9l-0.4-0.6
				c-0.1-0.2-0.3-0.5-0.4-0.7c-1-1.9-1.6-4-1.9-5.6c-0.3-1.6-0.5-2.9-0.8-3.8c-0.1-0.5-0.3-0.8-0.4-1.2c-0.2-0.4-0.3-0.8-0.6-1.2
				c-0.9-1.7-2.4-3.6-4-5.5c-1.6-1.9-3.4-3.9-5.1-6.2c-3.6-4.7-6-9.4-8.3-13.5c-1.1-2.1-2.2-4-3.4-5.7c-0.6-1-1.2-2-1.8-2.9
				c-0.6-1-1.2-1.9-1.8-2.9c-2.3-3.8-4.3-7.5-6.3-10.8c-0.5-0.8-0.9-1.7-1.4-2.5c-0.5-0.9-1-1.7-1.4-2.5c-0.9-1.7-1.8-3.4-2.5-4.9
				c-1.5-3.1-2.8-5.9-4-8.3c-0.6-1.2-1.2-2.3-1.7-3.3c-0.3-0.5-0.4-0.8-0.7-1.2c-0.3-0.4-0.5-0.9-0.8-1.3c-1.1-1.7-2.2-3.3-3.1-4.6
				c-1.8-2.7-2.6-4.6-2.6-4.6c-1.1-2.2-2.1-4.3-2.9-6.1c-0.4-0.9-0.7-1.5-1-1.9c-0.3-0.4-0.6-0.6-0.9-0.6c-0.3,0-0.6,0.2-0.9,0.7
				c-0.3,0.5-0.6,1.2-0.6,2.4c-0.1,2.4,0.5,5.3,1.8,7.8c0,0,0.1,0.1,0.2,0.4c0.1,0.3,0.3,0.6,0.6,1.1c0.5,0.9,1.2,2.2,2.2,3.6
				c0.9,1.4,2.1,3.1,3.1,4.7c0.2,0.4,0.5,0.7,0.7,1.1c0.3,0.4,0.3,0.5,0.6,1c0.5,0.9,1,2,1.6,3.1c1.1,2.3,2.4,5,3.9,8.2
				c0.8,1.6,1.6,3.3,2.6,5.1c0.5,0.9,1,1.7,1.5,2.6c0.5,0.8,0.9,1.6,1.4,2.5c1.9,3.4,4,7,6.3,10.9c0.6,1,1.2,2,1.8,3
				c0.6,1,1.2,2,1.9,2.9c1,1.6,2.1,3.5,3.2,5.5c1.1,2,2.3,4.2,3.7,6.6c0.7,1.2,1.4,2.4,2.2,3.6c0.4,0.6,0.8,1.2,1.3,1.9
				c0.4,0.6,1,1.4,1.4,2c1.9,2.5,3.7,4.5,5.2,6.4c1.5,1.8,2.8,3.6,3.4,4.7c0.2,0.3,0.3,0.5,0.4,0.7c0.1,0.2,0.1,0.3,0.2,0.6
				c0.2,0.6,0.4,1.7,0.7,3.5c0.4,1.8,1.1,4.3,2.3,6.8c0.2,0.3,0.3,0.6,0.5,0.9l0.5,0.8l0.6,1l1.1,1.8c0.7,1.1,1.3,2.1,1.7,3.1
				c0.2,0.5,0.5,0.9,0.7,1.4l0.4,0.9l0.5,1.2c1.4,3.1,2.9,5.9,4.3,8.6c1.4,2.6,2.8,5.1,3.9,7.5c1.3,2.7,2.6,5.6,4.1,8.5
				c1.5,2.9,3,5.9,4.8,8.8c0.9,1.5,1.8,3,2.8,4.5l0.2,0.3l0.3,0.4l0.6,0.8c0.4,0.5,0.8,1,1.2,1.5c0.4,0.5,0.8,0.9,1.2,1.3
				c0.4,0.4,0.8,0.8,1.2,1.2c3.3,3.1,6.5,5.2,9.2,7.1c1.3,0.8,2.6,1.7,3.9,2.5c1.2,0.8,2.1,1.4,3.1,2.2c2.1,1.6,4.3,3.7,7.1,6
				c1.4,1.1,2.9,2.3,4.5,3.5c0.8,0.6,1.7,1.1,2.6,1.7l2.2,1.3c1.2,0.7,2.7,1.7,4.7,2.7c1.9,1,4.2,1.9,6.2,2.6
				c1.2,0.4,2.6,0.9,4.2,1.4c1.6,0.6,3.5,1.2,5.6,1.7c0.5,0.1,1.1,0.2,1.6,0.4l1.5,0.3l2.3,0.4c1.5,0.3,3.1,0.6,4.6,0.9
				c3.1,0.6,6.1,1.2,9.1,1.7c2.8,0.5,5.5,1.2,8.2,1.9c1.4,0.4,2.7,0.8,4.1,1.2c1.5,0.5,2.9,0.9,4.4,1.4c3.2,1,6.1,1.8,8.6,2.6
				c2.5,0.8,4.6,1.7,6.4,2.7c0.2,0.1,0.5,0.2,0.7,0.4l0.6,0.4c0.2,0.1,0.4,0.3,0.6,0.5c0.4,0.3,0.9,0.8,1.9,1.9
				c1,1.1,2.2,2.6,3.9,4.1c1.6,1.4,2.9,2.4,3.8,3.1c0.5,0.4,0.8,0.7,1.1,0.9c0.1,0.1,0.3,0.2,0.3,0.3l0.7,0.7
				c1.1,1.1,2.2,2.2,3.3,3.3c2.2,2.1,4.5,4.2,6.8,6.1c1.2,1,2.4,1.9,3.6,2.8c0.6,0.5,1.2,0.9,1.8,1.4c0.4,0.3,0.9,0.6,1.3,1
				c0.1,0.1,0.3,0.3,0.6,0.5c0.3,0.3,0.6,0.6,1,1.1c0.9,0.9,2.1,2.2,3.7,3.6c0.8,0.7,1.8,1.4,2.7,2c0.6,0.4,1.2,0.8,1.8,1.1
				c1.2,0.7,2.5,1.5,3.7,2.2c1.3,0.7,2.6,1.4,4.1,2l1.1,0.5l0.9,0.4c0.6,0.2,1.2,0.5,1.9,0.7c4.9,1.9,9.4,3.3,13.4,4.7
				c2.1,0.7,4.1,1.4,6,2.1c2,0.7,3.9,1.3,5.7,1.9c3.6,1.2,7,2.4,9.9,3.5c1.5,0.6,2.9,1.1,4.2,1.6c0.7,0.3,1.3,0.5,1.9,0.8
				c0.6,0.3,1.1,0.5,1.6,0.7c4.2,2,7.8,4.2,10.3,5.6c1.2,0.7,1.9,1.1,2.3,1.4c0.4,0.3,0.6,0.4,0.6,0.4c0.9,0.6,1.2,0.6,1.7,0.5
				c0.5-0.2,1.1-0.4,1.6-0.7c0.5-0.3,1-0.7,1.1-1.4C699.6,689.1,699.3,688.2,698.1,687.3z"/>
		</g>
	</g>
</g>
<g id="XMLID_10_">
	<g id="XMLID_99_">
		<g id="XMLID_167_">
			<path id="XMLID_203_" class="st3" d="M424.1,821.7c0,0,0.8-2.5,2.2-6.9c1.3-4.5,3.2-10.9,4.9-18.8c0.4-2,0.9-4,1.3-6.2
				c0.2-1.1,0.4-2.2,0.6-3.3c0.2-1.1,0.4-2.2,0.6-3.3c0.8-4.4,1.6-9.1,2.3-14c1.4-9.9,2.7-20.7,2.2-32.1c0-1.4-0.1-2.9-0.2-4.3
				l-0.1-1.8l-0.1-1.6c-0.1-2.3-0.1-4.9-0.4-8.2c-0.2-1.6-0.4-3.4-0.9-5.3c-0.4-1.9-1.3-4.1-2-5.7c-0.8-1.7-1.4-2.7-1.6-3.1
				c-0.1-0.2-0.1-0.3-0.2-0.5c0-0.1-0.1-0.3-0.1-0.3c-0.1-0.3-0.1-1.1-0.2-2.2c-0.1-1.1-0.2-2.5-0.4-4.4c-0.1-0.9-0.3-1.9-0.6-3
				c-0.3-1.1-0.7-2.1-1.1-3.1c-0.8-1.9-1.7-3.4-2.4-4.5c-0.7-1.1-1.1-1.7-1.3-2.1c-0.2-0.4-0.2-0.4-0.2-0.5c0-0.1,0-0.4-0.1-0.6
				c0-0.1-0.1-0.2-0.1-0.3l0-0.3c0-0.2-0.1-0.4-0.1-0.7c0-0.2,0-0.5,0-0.7c0.1-2,0.7-4.3,1.6-6.2c0.8-2,1.9-3.8,2.8-5.1
				c0.9-1.3,1.7-2.4,2.3-3c0.3-0.3,0.5-0.6,0.6-0.7c0.1-0.1,0.2-0.2,0.2-0.2c0.8-0.8,0.4-2.1-0.5-3c-0.8-0.9-2.2-1.5-3.1-0.4
				c0,0-0.1,0.1-0.3,0.3c-0.2,0.2-0.4,0.5-0.8,0.9c-0.7,0.7-1.6,1.9-2.7,3.5c-1,1.6-2.2,3.6-3.2,6c-1,2.4-1.8,5.2-2,7.9
				c-0.1,1.4,0.1,2.8,0.3,4c0.2,0.9,0.8,1.9,2.1,4c0.6,1,1.4,2.3,2,3.8c0.7,1.5,1.1,3.4,1.4,4.9c0.2,1.5,0.3,2.8,0.4,4
				c0.1,1.1,0.2,2.1,0.3,2.8c0.1,0.6,0.3,1.2,0.6,2c0.3,0.7,0.9,1.8,1.6,3.2c0.7,1.4,1.3,3.2,1.7,4.8c0.4,1.6,0.6,3.2,0.8,4.6
				c0.3,2.9,0.3,5.6,0.4,8l0.1,1.7l0.1,1.9c0.1,1.4,0.2,2.7,0.2,4.1c0.4,10.9-0.8,21.5-2.2,31.2c-0.7,4.9-1.5,9.5-2.3,13.9
				c-0.4,2.2-0.8,4.3-1.2,6.4c-0.4,2.1-0.8,4.1-1.3,6c-1.7,7.7-3.5,14-4.8,18.4c-1.3,4.4-2.1,6.9-2.1,6.9
				C418.3,823.4,423.1,825,424.1,821.7z"/>
			<path id="XMLID_197_" class="st3" d="M415.2,819.9c0,0,0.8-2.5,2.1-6.8c1.3-4.4,3.1-10.6,4.9-18.2c0.9-3.8,1.7-8,2.5-12.4
				c0.8-4.4,1.6-9,2.3-13.8c1.4-9.6,2.6-20.1,2.3-30.6c-0.1-2.6-0.4-5.4-0.5-7.8c-0.1-2.5-0.1-5.1-0.3-7.8c-0.1-1.3-0.3-2.7-0.6-4.1
				c-0.3-1.4-0.8-2.8-1.4-4.1c-0.6-1.3-1.2-2.4-1.7-3.4c-0.5-1-0.8-1.9-1-2.9c-0.4-2-0.4-4.3-0.7-6.9c-0.2-1.3-0.5-2.7-1-3.9
				c-0.5-1.3-1.1-2.4-1.7-3.4c-1.2-2-2.2-3.5-2.6-5.1c-0.4-1.7-0.6-3.5-0.5-5.2c0.1-3.5,1.1-6.7,2.2-9.4c1.1-2.7,2.4-5,3.6-6.7
				c1.2-1.7,2.2-3.1,3-3.9c0.4-0.4,0.7-0.7,0.9-1c0.2-0.2,0.3-0.3,0.3-0.3c1.1-1.1,0.8-2.5,0-3.5c-0.8-0.9-2.4-1.3-3.6,0
				c0,0-0.1,0.1-0.4,0.4c-0.2,0.2-0.5,0.6-1,1.1c-0.9,1-2,2.4-3.4,4.4c-1.3,2-2.8,4.5-4.1,7.6c-0.7,1.5-1.2,3.2-1.7,5.1
				c-0.3,0.9-0.4,1.9-0.6,2.9c-0.1,0.5-0.1,1-0.2,1.5c-0.1,0.5-0.1,1-0.1,1.6c0,0.5,0,1.1,0,1.6c0,0.6,0.1,1.1,0.1,1.7
				c0,0.6,0.1,1.1,0.2,1.7c0.1,0.6,0.2,1.1,0.4,1.7c0.7,2.5,2.1,4.6,3.2,6.4c0.5,0.9,1,1.8,1.4,2.6c0.3,0.9,0.6,1.7,0.7,2.7
				c0.3,2.1,0.2,4.5,0.8,7.3c0.3,1.4,0.8,2.8,1.4,4c0.6,1.2,1.2,2.3,1.6,3.3c0.9,1.9,1.3,4.1,1.5,6.5c0.2,2.4,0.2,4.9,0.3,7.6
				c0.2,2.8,0.4,5.1,0.5,7.7c0.3,10.1-0.8,20.3-2.2,29.7c-0.7,4.7-1.5,9.3-2.3,13.7c-0.8,4.4-1.6,8.4-2.4,12.1
				c-1.7,7.5-3.5,13.6-4.8,17.9c-1.3,4.3-2.1,6.7-2.1,6.7C409.4,821.6,414.2,823.1,415.2,819.9z"/>
			<path id="XMLID_175_" class="st3" d="M405.7,820.1c0,0,0.8-2.5,2.2-6.8c1.3-4.3,3.2-10.6,5-18.1c0.9-3.8,1.8-7.8,2.5-12.2
				c0.8-4.5,1.6-9.1,2.4-14c1.5-9.6,2.7-19.8,2.5-29.8c0-1.2-0.1-2.5-0.2-3.7c-0.1-1.3-0.2-2.6-0.3-4c-0.2-2.9-0.2-5.5-0.3-7.8
				c-0.1-1.1-0.2-2.2-0.4-3.1c-0.2-0.9-0.4-1.6-0.7-2.4c-0.3-0.8-0.8-1.7-1.5-3.1c-0.7-1.4-1.4-3.2-1.8-4.9
				c-0.4-1.8-0.5-3.4-0.6-4.7c-0.1-1.3-0.2-2.4-0.3-3.3c-0.1-0.9-0.2-1.3-0.4-1.8c-0.2-0.5-0.6-1.2-1.1-2.1
				c-0.5-0.9-1.2-1.9-1.9-3.2c-0.7-1.3-1.3-2.8-1.7-4.5c-0.7-2.8-0.9-5.6-0.7-8.1c0.3-5,1.7-9.2,3.2-12.7c1.5-3.5,3.2-6.2,4.7-8.4
				c1.5-2.2,2.9-3.8,3.9-4.9c0.5-0.5,0.9-0.9,1.2-1.2c0.3-0.3,0.4-0.4,0.4-0.4c1.4-1.4,1.4-3,0.6-4c-0.8-1-2.5-1.2-4.1,0.4
				c0,0-0.2,0.2-0.5,0.5c-0.3,0.3-0.8,0.7-1.3,1.3c-1.1,1.2-2.6,3-4.3,5.4c-1.7,2.4-3.5,5.4-5.2,9.3c-1.6,3.8-3.2,8.5-3.6,14.4
				c-0.2,2.9,0,6.2,0.9,9.6c0.5,2.1,1.3,4,2.2,5.6c0.8,1.6,1.6,2.7,2.1,3.5c0.5,0.8,0.7,1.2,0.7,1.4c0,0.1,0,0.1,0,0.1
				c0,0,0,0.2,0.1,0.5c0.1,0.6,0.1,1.6,0.2,3c0.1,1.4,0.2,3.1,0.8,5.4c0.5,2.1,1.4,4.4,2.2,6c0.8,1.6,1.2,2.4,1.4,2.8
				c0.1,0.3,0.1,0.3,0.2,0.6c0,0.1,0.1,0.2,0.1,0.4c0,0.1,0.1,0.3,0.1,0.4c0.1,0.6,0.2,1.5,0.3,2.5c0.2,2,0.1,4.6,0.3,7.7
				c0.1,1.3,0.2,2.6,0.3,4c0.1,1.2,0.1,2.3,0.2,3.5c0.2,9.5-0.9,19.4-2.4,28.9c-0.7,4.7-1.5,9.4-2.3,13.8c-0.8,4.2-1.6,8.2-2.5,11.9
				c-1.8,7.3-3.6,13.5-4.9,17.7c-1.3,4.3-2.2,6.7-2.2,6.7C399.9,821.6,404.7,823.3,405.7,820.1z"/>
		</g>
	</g>
</g>
<g id="XMLID_11_">
	<g id="XMLID_85_">
		<g id="XMLID_89_">
			<path id="XMLID_92_" class="st3" d="M542.8,711.2c0,0-0.2-0.3-0.5-0.7c-0.3-0.5-0.9-1.2-1.5-2.2c-0.7-1-1.5-2.3-2.5-3.9
				c-1-1.6-2.2-3.6-3.7-5.9c-1.5-2.3-3.4-4.9-5.9-7.5c-0.6-0.6-1.2-1.3-1.9-1.9c-0.7-0.6-1.4-1.3-2-1.8c-1.2-1-2.4-2.1-3.8-3.1
				c-2.7-2.1-5.8-4.3-9-6.1c-1.6-0.9-3.2-1.7-4.7-2.5c-1.4-0.7-2.9-1.4-4.4-2.1c-5.4-2.6-10.4-5.4-14.6-8.4c-4.3-2.9-7.6-6-10-8.8
				c-4.7-5.6-5.9-9.9-5.9-9.9c-0.5-1.4-5.3,0-4.7,1.7c0,0,0.1,0.3,0.3,0.9c0.2,0.6,0.6,1.4,1.1,2.5c1.1,2.1,2.7,5,5.4,8.1
				c2.7,3.1,6.4,6.5,10.9,9.6c4.5,3.1,9.8,6.1,15.3,8.8c1.4,0.7,2.9,1.4,4.3,2.1c1.5,0.7,3,1.5,4.5,2.4c3,1.7,5.9,3.7,8.4,5.7
				c1.3,1,2.5,2,3.6,3c0.6,0.6,1.2,1.1,1.8,1.7c0.6,0.6,1.1,1.2,1.7,1.7c2.2,2.3,3.9,4.7,5.4,6.8c2.9,4.3,4.7,7.7,6.1,9.8
				c0.7,1.1,1.3,1.9,1.6,2.4c0.4,0.5,0.6,0.8,0.6,0.8C540,715.6,543.8,712.4,542.8,711.2z"/>
			<path id="XMLID_91_" class="st3" d="M536,717.1c0,0-0.2-0.3-0.7-0.9c-0.4-0.6-1-1.4-1.8-2.5c-1.5-2.2-3.4-5.7-6.1-9.8
				c-1.4-2.1-3-4.3-4.9-6.4c-1-1.1-2.1-2.1-3.2-3.1c-1.1-1-2.3-1.9-3.5-2.9c-2.4-1.9-5.1-3.8-7.9-5.4c-2.8-1.6-5.8-3-8.6-4.4
				c-2.8-1.4-5.6-2.8-8.3-4.3c-2.7-1.5-5.3-3.1-7.6-4.8c-4.8-3.3-8.8-6.9-11.8-10.3c-3-3.4-4.9-6.7-6-9c-0.5-1.2-0.9-2.1-1.2-2.8
				c-0.2-0.7-0.3-1-0.3-1c-0.6-1.8-5.4-0.5-4.7,1.7c0,0,0.1,0.4,0.4,1.2c0.3,0.7,0.8,1.8,1.4,3.2c1.3,2.6,3.5,6.3,6.8,10.1
				c3.3,3.8,7.6,7.7,12.7,11.2c2.5,1.8,5.2,3.4,8,5c2.8,1.5,5.7,3.1,8.6,4.5c2.9,1.4,5.7,2.7,8.3,4.3c2.6,1.5,5,3.2,7.3,5
				c1.1,0.9,2.2,1.8,3.3,2.7c1,0.9,1.9,1.8,2.8,2.8c1.7,1.9,3.2,3.9,4.5,5.8c2.5,3.9,4.5,7.4,6.1,9.8c0.8,1.2,1.5,2.1,1.9,2.8
				c0.5,0.6,0.7,1,0.7,1C533.4,721.9,537.2,718.6,536,717.1z"/>
			<path id="XMLID_90_" class="st3" d="M530.3,724.3c0,0-0.3-0.4-0.8-1c-0.3-0.3-0.6-0.8-1-1.3c-0.4-0.5-0.8-1.1-1.2-1.7
				c-1.8-2.6-4-6.4-6.5-10.3c-1.2-1.9-2.6-3.9-4.1-5.7c-1.6-1.8-3.2-3.3-5.6-5.3c-2.2-1.8-4.5-3.4-6.9-4.9c-2.5-1.5-5.2-2.8-8.1-4.2
				c-6.1-2.9-12.1-6.2-17.5-10c-5.4-3.7-10.2-7.9-13.8-12.2c-3.6-4.2-6-8.4-7.4-11.3c-0.7-1.5-1.2-2.7-1.5-3.6
				c-0.3-0.8-0.4-1.3-0.4-1.3c-0.8-2.2-5.6-1-4.7,1.6c0,0,0.2,0.5,0.5,1.4c0.3,0.9,0.9,2.2,1.7,3.9c1.6,3.3,4.2,7.9,8.1,12.5
				c3.9,4.6,9,9.1,14.8,13c5.7,4,12,7.3,18.2,10.4c2.9,1.4,5.5,2.7,7.8,4c2.2,1.3,4.2,2.8,6.3,4.5c2.3,1.9,3.6,3,4.9,4.6
				c1.3,1.5,2.5,3.3,3.7,5.1c2.3,3.7,4.6,7.7,6.6,10.4c0.5,0.7,1,1.3,1.3,1.9c0.4,0.5,0.8,1,1.1,1.4c0.6,0.7,0.9,1.1,0.9,1.1
				C528.2,729.5,531.8,726,530.3,724.3z"/>
		</g>
	</g>
</g>
<g id="XMLID_12_">
	<g id="XMLID_75_">
		<g id="XMLID_79_">
			<path id="XMLID_82_" class="st3" d="M500.3,834.8c0.6-3.2,1.1-6.2,1.5-9.1c0.4-2.9,0.7-5.7,1.2-8.1c0.1-0.6,0.2-1.2,0.3-1.8
				l0.4-2.2c0.3-1.5,0.5-2.9,0.8-4.4c0.5-3,1-6.1,1.3-9.4c0.3-3.3,0.4-6.9-0.1-10.8l-0.6-4.4l-0.6-4.4c-0.2-1.5-0.5-3.1-0.8-4.7
				c-0.2-0.8-0.3-1.6-0.5-2.5l-0.3-1.3l-0.2-0.7l-0.2-0.8c-0.8-2.7-1.9-5.4-3.5-7.7c-0.8-1.1-1.7-2.2-2.8-3.1
				c-0.5-0.4-1.1-0.8-1.7-1.2c-0.6-0.4-1.2-0.7-1.9-1l-0.8-0.4l-0.5-0.2l-0.1-0.1c-0.2-0.1-0.3-0.2-0.5-0.3
				c-0.3-0.2-0.6-0.4-0.8-0.5c-0.5-0.4-1-0.8-1.4-1.1c-0.8-0.8-1.4-1.6-1.8-2.6c-0.4-1-0.8-2.1-0.9-3.5c-0.2-1.3-0.1-3.5,0-5.7
				c0.2-4.5,0.7-9.1,1.3-13.6c0.7-4.5,1.5-9,2.7-12.6c0.1-0.5,0-0.9-0.4-1.3c-0.4-0.4-0.9-0.7-1.5-0.9c-1.2-0.4-2.5-0.4-2.9,0.7
				c-1.3,4.1-2.2,8.8-2.9,13.4c-0.7,4.7-1.1,9.5-1.3,14.1c-0.1,2.3-0.2,4.7,0.1,6.5c0.2,1.9,0.6,3.6,1.3,5.1
				c0.7,1.5,1.7,2.9,2.9,4.1c0.6,0.6,1.3,1.2,2,1.7c0.4,0.3,0.8,0.5,1.2,0.7c0.2,0.1,0.4,0.2,0.6,0.3l0.2,0.1l0.4,0.2l0.7,0.3
				c0.5,0.2,1,0.5,1.5,0.8c0.5,0.3,0.9,0.5,1.4,0.9c0.9,0.7,1.6,1.5,2.2,2.4c1.2,1.8,2,3.9,2.6,6.1l0.2,0.7l0.2,0.6l0.3,1.2
				c0.2,0.8,0.3,1.6,0.5,2.3c0.3,1.5,0.5,3,0.8,4.5l0.6,4.3l0.6,4.3c0.4,3.4,0.3,6.7,0.1,9.8c-0.3,3.1-0.7,6.1-1.2,9
				c-0.2,1.5-0.5,2.9-0.8,4.3l-0.4,2.1c-0.1,0.7-0.2,1.3-0.3,1.9c-0.9,5.3-1.4,11-2.6,17.1c-0.3,1.4,0.8,2.4,2,2.7
				C498.5,836.8,500,836.3,500.3,834.8z"/>
			<path id="XMLID_81_" class="st3" d="M491.3,833.8c1.2-5.8,1.7-11.6,2.6-17.2c0.4-2.7,1.1-5.6,1.6-8.5c0.5-2.9,0.9-5.8,1.2-8.8
				c0.3-3,0.3-6,0-9.1c-0.1-0.8-0.2-1.5-0.3-2.2l-0.3-2.1l-0.6-4.3c-0.4-2.9-0.9-5.8-1.8-8.8c-0.5-1.7-1.1-3.3-2-4.8
				c-0.5-0.7-1-1.4-1.7-1.9c-0.7-0.5-1.5-0.8-2.3-1.2l-0.5-0.2l-0.4-0.2c-0.2-0.1-0.5-0.3-0.7-0.4c-0.5-0.3-1-0.6-1.4-0.9
				c-0.9-0.6-1.8-1.3-2.5-2.1c-1.6-1.5-2.8-3.3-3.7-5.3c-0.9-2-1.4-4.1-1.7-6.4c-0.2-2.2-0.2-4.6-0.1-7c0.2-4.8,0.7-9.7,1.4-14.5
				c0.7-4.8,1.6-9.6,3-14.1c0.8-2.3-3.8-4.2-4.8-1.5c-1.6,5-2.5,9.9-3.2,14.9c-0.7,5-1.2,10-1.4,15c-0.1,2.5-0.2,5.1,0.1,7.8
				c0.3,2.7,0.9,5.4,2.1,7.9c1.2,2.5,2.8,4.8,4.8,6.8c1,1,2.1,1.8,3.2,2.6c0.6,0.4,1.1,0.8,1.7,1.1c0.3,0.2,0.6,0.3,0.9,0.5l0.4,0.2
				l0.3,0.2c0.5,0.3,1,0.5,1.5,0.7c0.5,0.3,0.8,0.8,1.1,1.3c0.6,1,0.9,2.1,1.2,3.1c0.7,2.5,1.2,5.4,1.6,8.1l0.6,4.2l0.3,2.1
				c0.1,0.7,0.2,1.4,0.3,2.1c0.3,2.6,0.2,5.4,0,8.1c-0.2,2.8-0.7,5.6-1.2,8.4c-0.5,2.8-1.1,5.5-1.6,8.5c-0.9,5.8-1.4,11.5-2.6,17
				c-0.3,1.2,0.8,2.1,2,2.4C489.6,835.5,491,835.2,491.3,833.8z"/>
			<path id="XMLID_80_" class="st3" d="M482,834.1c0.6-2.5,1.1-5.2,1.5-8.1l1.2-8.9c0.2-1.5,0.5-3.1,0.8-4.7l0.8-4.3
				c0.5-2.8,1-5.7,1.3-8.4c0.3-2.7,0.4-5.3,0.2-7.7c0-0.3,0-0.6-0.1-0.9l-0.1-1l-0.3-2.2l-0.6-4.3c-0.4-2.8-0.9-5.6-1.5-8
				c-0.1-0.4-0.2-0.7-0.3-1c-0.1-0.3-0.2-0.6-0.4-0.9c-0.2-0.3-0.4-0.5-0.6-0.7c-0.3-0.2-0.6-0.3-0.9-0.4l-0.2-0.1c0,0,0,0,0,0
				l-0.1-0.1l-0.3-0.1c-0.3-0.2-0.7-0.4-1-0.6c-0.7-0.4-1.3-0.8-2-1.3c-1.3-0.9-2.6-1.9-3.7-3.1c-2.3-2.3-4.3-5.1-5.6-8.1
				c-1.4-3-2.1-6.2-2.4-9.3c-0.3-3.2-0.2-5.8-0.1-8.4c0.3-5.3,0.8-10.4,1.5-15.6c0.8-5.2,1.8-10.4,3.5-15.8c1-2.8-3.6-4.9-4.7-1.6
				c-1.9,5.9-2.9,11.3-3.8,16.7c-0.8,5.4-1.3,10.6-1.6,16.1c-0.1,1.4-0.1,2.8-0.1,4.2c0,0.8,0,1.5,0,2.3c0,0.8,0.1,1.7,0.2,2.6
				c0.3,3.5,1.2,7.3,2.8,10.9c1.6,3.6,3.9,6.9,6.7,9.6c1.4,1.4,2.8,2.6,4.4,3.6c0.8,0.5,1.5,1,2.3,1.5c0.4,0.2,0.8,0.4,1.2,0.7
				l0.3,0.2l0.1,0.1l-0.2-0.1l0,0.1c0.5,2,1,4.7,1.4,7.4l0.6,4.3l0.3,2.3l0.1,0.9c0,0.2,0.1,0.5,0.1,0.7c0.2,1.9,0.1,4.3-0.2,6.8
				c-0.3,2.5-0.7,5.2-1.2,8l-0.8,4.2c-0.3,1.7-0.6,3.4-0.8,5l-1.2,8.9c-0.4,2.8-0.9,5.4-1.4,7.5c-0.2,0.9,0.8,1.7,2,2.1
				C480.3,835.2,481.7,835.1,482,834.1z"/>
		</g>
	</g>
</g>
<g id="XMLID_13_">
	<g id="XMLID_63_">
		<g id="XMLID_68_">
			<path id="XMLID_71_" class="st3" d="M660.9,768.1c0,0-0.1-0.1-0.3-0.3c-0.2-0.2-0.5-0.5-0.9-0.9c-0.8-0.8-1.8-1.9-3.2-3.6
				c-1.4-1.6-3.1-3.8-5.2-6.5c-2.1-2.7-4.6-5.7-7.3-9c-2.7-3.3-5.6-6.9-8.7-10.7c-3.1-3.7-6.3-7.6-9.9-11.8
				c-3.6-4.1-7.6-8.4-11.9-12.5c-2.1-2-4.3-4-6.5-5.9c-1.1-1-2.2-1.9-3.3-2.8c-1.2-1-2.4-2-3.6-2.9c-2.5-1.9-5-3.6-7.4-5.3
				c-2.5-1.6-4.9-3.2-7.3-4.7c-4.7-2.9-9.1-5.6-12.9-8.4c-1.9-1.4-3.7-2.8-5.4-4.2c-0.9-0.7-1.6-1.4-2.4-2.1
				c-0.8-0.8-1.6-1.5-2.4-2.3c-3.2-3.1-6.1-6.2-8.7-9.1c-5.2-5.9-9.1-11.2-11.7-15c-2.7-3.8-4.1-6-4.1-6c-1.9-2.9-6.1-0.3-4.2,2.7
				c0,0,1.5,2.3,4.2,6.2c2.7,3.9,6.8,9.3,12.1,15.4c2.7,3,5.6,6.2,8.9,9.4c0.8,0.8,1.7,1.6,2.5,2.4c0.9,0.7,1.7,1.5,2.6,2.3
				c1.8,1.5,3.7,3,5.7,4.4c4,2.9,8.5,5.6,13.1,8.6c4.7,2.9,9.6,6.1,14.3,9.7c1.2,0.9,2.3,1.9,3.5,2.8c1.1,0.9,2.2,1.8,3.3,2.8
				c2.2,1.9,4.3,3.8,6.4,5.8c4.1,3.9,8,8.1,11.5,12.1c3.5,4.1,6.7,8,9.8,11.7c3.1,3.8,5.9,7.3,8.6,10.6c2.7,3.3,5.1,6.3,7.3,9
				c2.1,2.7,3.8,5,5.3,6.7c1.5,1.7,2.6,3,3.5,3.9c0.4,0.4,0.7,0.7,0.9,1c0.2,0.2,0.3,0.3,0.3,0.3c1.2,1.1,2.6,0.7,3.5-0.2
				C661.7,770.5,662,769.1,660.9,768.1z"/>
			<path id="XMLID_70_" class="st3" d="M655.4,775.3c0,0-0.5-0.5-1.4-1.3c-0.9-0.9-2.2-2.2-3.7-4c-1.6-1.8-3.4-4.1-5.4-6.8
				c-2.1-2.7-4.6-5.7-7.2-9c-2.7-3.3-5.6-6.8-8.6-10.6c-3.1-3.7-6.3-7.7-9.8-11.7c-3.5-4-7.2-8.1-11.3-12c-2-1.9-4.1-3.9-6.2-5.7
				c-2.1-1.9-4.3-3.7-6.6-5.5c-9.1-7.1-19.2-12.3-27.5-18.3c-4.2-3-8-6.2-11.4-9.5c-3.4-3.3-6.5-6.6-9.2-9.7
				c-5.5-6.2-9.6-11.8-12.4-15.8c-2.8-4-4.3-6.3-4.3-6.3c-2-3-6.2-0.4-4.2,2.7c0,0,1.5,2.4,4.4,6.5c2.9,4.1,7.1,9.8,12.7,16.2
				c2.8,3.2,6,6.6,9.5,10c3.5,3.4,7.6,6.8,11.9,9.9c8.8,6.3,18.8,11.5,27.4,18.2c2.1,1.7,4.3,3.5,6.3,5.3c2.1,1.8,4.1,3.7,6.1,5.6
				c3.9,3.8,7.6,7.7,11,11.6c3.4,3.9,6.6,7.9,9.7,11.6c3,3.7,5.9,7.3,8.6,10.5c2.6,3.3,5.1,6.2,7.2,8.9c2.1,2.7,4,5.1,5.6,7
				c1.6,1.9,3,3.4,4,4.3c1,1,1.5,1.5,1.5,1.5c1.4,1.3,3,1,3.8,0C656.6,778,656.7,776.5,655.4,775.3z"/>
			<path id="XMLID_69_" class="st3" d="M652.1,784.4c0,0-0.6-0.5-1.7-1.5c-1.1-1-2.7-2.5-4.6-4.5c-1.9-2-4-4.5-6.2-7.4
				c-1.1-1.4-2.2-2.9-3.4-4.4c-1.2-1.5-2.5-3.1-3.9-4.8c-2.7-3.3-5.6-6.9-8.7-10.7c-3.1-3.8-6.5-7.9-9.9-11.9c-3.4-4-7-8-10.9-11.8
				c-1.9-1.9-4-3.8-6-5.6c-1.1-0.9-2.1-1.8-3.2-2.7l-1.6-1.4l-1.6-1.3c-4.2-3.4-8.8-6.4-13.5-9.3c-4.7-3-9.7-6-14.3-9.3
				c-2.3-1.7-4.6-3.4-6.7-5.2c-1.1-0.9-2.1-1.8-3.1-2.7c-1-0.9-1.9-1.8-2.9-2.7c-3.7-3.6-7-7.1-10-10.5c-5.9-6.7-10.3-12.7-13.3-17
				c-3-4.3-4.6-6.8-4.6-6.8c-2-3.2-6.3-0.5-4.2,2.7c0,0,1.6,2.6,4.7,6.9c3.1,4.3,7.6,10.5,13.6,17.4c3,3.5,6.4,7.1,10.3,10.8
				c1,0.9,1.9,1.8,3,2.8c1.1,0.9,2.1,1.9,3.3,2.9c2.2,1.9,4.6,3.7,7,5.4c4.8,3.4,9.8,6.5,14.5,9.4c4.7,2.9,9.1,5.8,13.1,9l1.5,1.2
				l1.6,1.3c1.1,0.9,2.1,1.8,3.1,2.7c2,1.8,4,3.6,5.9,5.4c3.8,3.7,7.2,7.5,10.6,11.5c1.7,2,3.4,4,5,6c1.7,2,3.3,4,4.8,5.8
				c3.1,3.8,6,7.3,8.7,10.6c1.3,1.6,2.6,3.2,3.8,4.7c1.2,1.6,2.4,3.1,3.4,4.4c2.3,2.9,4.5,5.6,6.5,7.7c2,2.1,3.7,3.8,4.9,4.8
				c1.2,1.1,1.9,1.6,1.9,1.6c1.7,1.4,3.3,1,4.1,0C653.8,787.3,653.7,785.7,652.1,784.4z"/>
		</g>
	</g>
</g>
<g id="XMLID_31_">
	<g id="XMLID_48_">
		<g id="XMLID_53_">
			<path id="XMLID_61_" class="st3" d="M643.2,815.3c0,0-0.4-0.3-1-0.8c-0.7-0.5-1.7-1.3-3-2.2c-2.5-1.8-6.2-3.9-10.2-6
				c-1-0.5-1.9-1-3.3-1.7c-1.2-0.6-2.5-1.2-3.7-1.7c-2.4-1.1-4.6-2-6.5-3c-0.9-0.5-1.8-1-2.5-1.5c-0.7-0.5-1.5-1-2.2-1.7
				c-1.6-1.3-3.3-3.1-5.3-5.2l-1.6-1.6l-0.7-0.7c-0.1-0.1-0.3-0.3-0.4-0.5c-0.6-0.7-1.2-1.5-2-2.5c-0.8-1.2-1.6-2.3-2.4-3.5
				c-0.5-0.7-1-1.3-1.5-2l-0.8-1l-0.5-0.6c-1.1-1.4-2.2-3.2-3.3-5.1c-0.5-0.9-1.1-1.9-1.6-2.9c-0.2-0.3-0.2-0.3-0.2-0.4l-0.1-0.2
				l-0.1-0.3c-0.2-0.4-0.4-0.9-0.6-1.3c-0.8-2-1.8-4.2-2.9-6.3c-0.5-1-1.2-2.1-1.8-3.1c-0.4-0.5-0.7-1-1-1.5c-0.4-0.5-0.8-1-1.2-1.4
				c-0.3-0.4-0.8-0.9-1.3-1.3c-0.2-0.2-0.4-0.4-0.6-0.6c-0.1-0.1-0.2-0.2-0.3-0.3c-0.1-0.1-0.2-0.2-0.4-0.3c-0.5-0.4-0.9-0.7-1.4-1
				c-0.2-0.1-0.4-0.3-0.6-0.4c-0.2-0.1-0.3-0.2-0.5-0.3c-0.6-0.3-1.1-0.6-1.4-0.7c-0.3-0.1-0.5-0.2-0.5-0.2c-0.9-0.3-1.7-0.4-2.3,0
				c-0.6,0.3-1,0.9-1.2,1.5c-0.4,1.2,0,2.5,1.3,3c0,0,0.1,0,0.4,0.1c0.2,0.1,0.6,0.3,1.1,0.6c0.1,0.1,0.2,0.1,0.4,0.2
				c0.1,0.1,0.3,0.2,0.5,0.3c0.3,0.2,0.7,0.5,1,0.8c0.4,0.3,0.6,0.6,1,0.9c0.3,0.3,0.7,0.7,1,1c2.5,2.9,4.3,6.9,6,10.9
				c0.2,0.5,0.4,0.9,0.6,1.4c0.2,0.5,0.3,0.7,0.6,1.2c0.5,1,1.1,2,1.6,3c1.1,2,2.4,4,3.7,5.7l0.6,0.7l0.7,0.9
				c0.5,0.6,0.9,1.2,1.4,1.9c0.8,1.1,1.6,2.3,2.4,3.5c0.8,1.1,1.5,2.1,2.3,2.9c0.2,0.2,0.4,0.4,0.6,0.6l0.7,0.7l1.5,1.6
				c2,2.1,3.8,4,5.7,5.6c1.8,1.6,3.6,2.7,5.7,3.8c2.1,1.1,4.4,2.1,6.8,3.1c2.3,1,4.8,2.3,6.6,3.2c3.9,2,7.4,4,9.7,5.7
				c1.2,0.8,2.1,1.5,2.7,2c0.6,0.5,0.9,0.8,0.9,0.8C641.7,820.5,645.1,816.9,643.2,815.3z"/>
			<path id="XMLID_55_" class="st3" d="M638,822.6c0,0-1.2-1-3.4-2.6c-2.2-1.6-5.4-3.5-9.4-5.5c-1-0.5-2-1-3.1-1.6
				c-1.1-0.6-2.2-1.1-3.4-1.6c-2.3-1-4.7-2.1-7-3.2c-2.3-1.2-4.5-2.5-6.6-4.3c-2.1-1.7-4-3.8-6-5.9l-1.5-1.6l-0.8-0.8
				c-0.2-0.2-0.5-0.5-0.7-0.7c-0.9-1-1.7-2.1-2.5-3.2c-0.8-1.2-1.6-2.3-2.5-3.5c-0.4-0.6-0.8-1.2-1.3-1.8c-0.4-0.6-1-1.2-1.3-1.6
				c-1.6-2-2.9-4.1-4.1-6.3c-0.6-1.1-1.2-2.1-1.7-3.1c-0.3-0.5-0.5-0.9-0.7-1.4c-0.2-0.5-0.4-1-0.6-1.5c-1.7-4-3.4-7.6-5.4-9.9
				c-0.2-0.3-0.5-0.6-0.8-0.8c-0.3-0.2-0.5-0.5-0.7-0.7c-0.5-0.4-1-0.8-1.3-0.9c-0.4-0.2-0.7-0.3-0.8-0.4c-0.2-0.1-0.3-0.1-0.3-0.1
				c-1.1-0.4-2.1,0.8-2.5,2c-0.4,1.2-0.4,2.3,0.3,2.5c0,0,0.3,0.1,0.7,0.3c0.3,0.1,0.4,0.3,0.7,0.5c0.1,0.1,0.3,0.3,0.4,0.4
				c0.2,0.2,0.3,0.3,0.5,0.5c1.4,1.5,2.9,4.6,4.6,8.6c0.2,0.5,0.5,1,0.7,1.6c0.2,0.5,0.6,1.2,0.8,1.7c0.6,1.1,1.1,2.2,1.8,3.3
				c1.3,2.2,2.7,4.6,4.5,6.9c0.5,0.6,0.8,1,1.3,1.6c0.4,0.5,0.8,1.1,1.2,1.6c0.8,1.2,1.6,2.3,2.5,3.5c0.9,1.2,1.8,2.4,2.8,3.6
				c0.3,0.3,0.5,0.6,0.8,0.9l0.8,0.8l1.5,1.6c2,2.1,4.1,4.3,6.4,6.3c2.3,2,5,3.6,7.5,4.9c2.5,1.3,5,2.3,7.3,3.3
				c1.1,0.5,2.2,1,3.2,1.5c1,0.5,2,1,3,1.5c3.8,2,6.8,3.8,8.8,5.2c2,1.4,3,2.3,3,2.3C636,827.6,639.5,824,638,822.6z"/>
			<path id="XMLID_54_" class="st3" d="M633.2,830.4c0,0-0.2-0.2-0.7-0.6c-0.4-0.4-1.1-0.9-2-1.6c-1.8-1.4-4.5-3.1-8.3-5.1
				c-1-0.5-2-1-3-1.6c-0.5-0.3-1-0.5-1.5-0.8c-0.5-0.2-1-0.5-1.6-0.7c-2.2-1-4.7-2.1-7.5-3.4c-1.4-0.7-2.8-1.4-4.3-2.3
				c-1.5-0.9-2.9-1.9-4.3-3c-2.7-2.2-5-4.6-7.1-6.7c-1.1-1.1-2.1-2.2-3.2-3.3c-1.2-1.4-2.3-2.7-3.3-4c-0.9-1.2-1.7-2.4-2.6-3.6
				c-0.4-0.6-0.8-1.1-1.1-1.6l-0.6-0.7l-0.7-0.8c-2.1-2.7-3.6-5.2-5-7.6c-0.7-1.2-1.3-2.4-1.9-3.5c-0.1-0.2-0.3-0.7-0.5-1
				c-0.2-0.4-0.3-0.7-0.4-1c-0.2-0.6-0.5-1.1-0.7-1.7c-0.9-2.1-1.6-3.7-2.3-5c-0.7-1.3-1.3-2.1-1.7-2.5c-0.1-0.1-0.2-0.2-0.2-0.2
				c-0.1-0.1-0.1,0-0.1-0.1c0,0-0.3-0.2-0.4-0.2c-0.3-0.1-0.4-0.1-0.4-0.1c-1-0.1-1.7,4.6-1.9,4.5c0,0,0.1,0.1-0.2-0.1
				c-0.1,0-0.1-0.1-0.2-0.1l-0.1-0.1l0,0l0,0l0,0c-0.4,0.5,3.4-4,1.8-2.1l-0.2,0.2c-0.5,0.6-1,1.1-1.6,1.7l-0.1,0.1c0,0,0,0,0,0
				c0,0,0,0,0,0l0,0c0,0,0,0,0,0.1c0,0,0.1,0.1,0.2,0.3l0.1,0.2c0.1,0.1,0.1,0.2,0.2,0.3c0.1,0.2,0.2,0.4,0.4,0.7
				c0.6,1,1.2,2.5,2.1,4.6c0.3,0.6,0.5,1.2,0.8,1.8c0.2,0.3,0.3,0.6,0.5,1.1c0.2,0.4,0.5,0.9,0.6,1.2c0.6,1.1,1.2,2.3,2,3.6
				c1.4,2.5,3.1,5.3,5.5,8.3l0.6,0.8l0.5,0.6c0.3,0.5,0.7,1,1.1,1.4c0.9,1.2,1.7,2.4,2.6,3.7c1,1.4,2.2,2.9,3.6,4.5
				c1.1,1.1,2.2,2.3,3.2,3.4c2.1,2.2,4.6,4.8,7.6,7.2c1.5,1.2,3.2,2.4,4.8,3.4c1.6,1,3.2,1.8,4.7,2.5c2.9,1.4,5.5,2.5,7.6,3.5
				c0.5,0.2,1,0.5,1.5,0.7c0.5,0.2,1,0.5,1.4,0.7c1,0.5,2,1.1,3,1.6c3.7,2,6.2,3.5,7.7,4.7c0.8,0.6,1.3,1,1.7,1.4
				c0.4,0.3,0.5,0.5,0.5,0.5C630.7,834.9,634.4,831.6,633.2,830.4z"/>
		</g>
	</g>
</g>
<g id="XMLID_4_">
	<path id="XMLID_14_" class="st3" d="M368.8,846.2c-0.8-2.4-1.2-4.6-1.5-6.9c-0.1-1.2-0.2-2.4-0.3-3.6c0-1.3-0.1-2.7-0.1-4.2
		c0-2.9,0.1-6.2-0.1-9.7c-0.1-1.8-0.2-3.6-0.4-5.4l-0.5-4.4c-0.3-2.8-0.5-5.6-0.6-8.2c0-1.3,0-2.6,0-3.9l0-1l0.1-0.8
		c0.1-0.6,0.1-1.2,0.2-1.8c0.3-2.6,0.9-5.7,1.3-9.3c0.2-1.8,0.4-3.7,0.3-6c0-2.6-0.4-4.7-0.8-6.7c-0.8-3.8-1.7-6.8-2.2-9l-0.8-4.3
		c-0.3-1.5-0.5-2.8-0.6-3.8c-0.1-1.1-0.2-2-0.2-2.8l0-0.3l0-0.5l0.1-1l0.2-2c0.3-2.7,0.7-5.4,1.2-8.2l0.8-4.5c0.3-1.5,0.5-3,0.8-4.3
		c0.3-1.3,0.5-2.5,0.9-3.7c0.2-0.6,0.3-1.2,0.5-1.8l0.7-2l5.9-17.5c2-6,4-12.5,5.2-19.5c0.2-0.9,0.3-1.8,0.4-2.6l0.3-2.3l0.6-4.6
		l1.2-9.2c0.2-1.3,0.5-3.5,0.5-5.6c0.1-2.1,0-4.4-0.3-6.4c-0.2-2-0.5-3.6-0.7-5l-0.3-2c-0.1-0.6-0.1-1.2-0.2-1.8
		c-0.2-2.6-0.3-5.7-0.7-9.4c-0.1-0.9-0.2-1.9-0.4-2.9c-0.2-1-0.4-2.1-0.6-3c-0.4-2-1-3.7-1.4-5.1c-0.4-1.5-0.8-2.7-1-3.7
		c-0.1-0.5-0.2-1-0.3-1.4c0-0.2-0.1-0.4-0.1-0.6l-0.1-0.9c-0.3-3.3-0.6-6.6-1-9.8c-0.9-6.4-2-12.6-3-18.6l-0.7-4.4l-0.3-2.2
		l-0.1-0.5l-0.1-0.5l-0.1-0.9c-0.3-2.4-0.4-5-0.4-7.7c0-5.4,0.6-11.4,1-17.9c0.1-1.1,0-2.1-0.1-3.2c-0.1-1-0.2-1.9-0.4-2.6l-0.2-1.3
		c0,0,0,0,0,0l0,0h0c0,0,0,0.1,0,0l0.1-0.7l0.2-1c0.1-0.4,0.2-0.8,0.3-1.4c0.2-1.1,0.3-2.3,0.3-3.5l0-1.4l-0.1-1.2
		c-0.1-0.8-0.1-1.5-0.2-2.2c-0.2-1.4-0.4-2.8-0.6-4c-0.5-2.5-1-4.8-1.4-6.7l-0.7-3.4c-0.3-1.2-0.5-2.4-0.8-3.6
		c-0.6-2.4-1.3-4.8-2.1-7.2l-0.5-1.4c-0.1-0.3-0.2-0.7-0.3-1.1l-0.8-3.1c-0.3-1.2-0.7-2.7-1.3-4.3c-0.5-1.6-1.3-3.3-2.2-4.8
		c-2-3.5-3.9-7.3-5.8-11.3c-3.8-7.9-7.8-16.4-13.5-24.9c-0.7-1.1-1.4-2.1-2.2-3.1l-1.2-1.6l-1.3-1.5l-1.3-1.5l-1.4-1.5
		c-0.5-0.5-0.9-1-1.4-1.4l-1.3-1.3c-1.7-1.7-3.3-3.2-4.6-4.5c-1.3-1.3-2.3-2.4-3.2-3.7c-0.5-0.7-1.1-1.4-1.7-2.1
		c-0.6-0.7-1.3-1.3-1.8-1.8c-1.2-1.1-2.3-1.8-3-2.4c-0.8-0.6-1.3-0.9-1.5-1.1c-0.2-0.2-0.2-0.1-0.3-0.3
		c-0.3-0.3-12.4-10.7-13.5-11.5c-1.1-0.9-1.1,2.7-1.6,3.1c-0.5,0.3,0.4-0.6,0.7,0.7c0.2,1.3,9.8,9.9,10.5,10.8c0.3,0.4,0.5,0.6,1,1
		c0.4,0.3,1,0.8,1.8,1.3c0.8,0.5,1.7,1.2,2.6,2c1,0.8,2,1.9,2.8,3c1.1,1.5,2.3,2.9,3.7,4.3c1.4,1.4,3,2.9,4.7,4.5
		c0.8,0.8,1.7,1.7,2.5,2.6l1.3,1.4l1.2,1.4l1.2,1.4l1.1,1.5c0.8,1,1.4,2,2.1,2.9c5.4,8,9.3,16.3,13.1,24.3c1.9,4,3.9,7.8,5.9,11.5
		c0.7,1.2,1.4,2.7,1.8,4c0.5,1.4,0.8,2.6,1.1,3.8l0.8,3.1c0.1,0.5,0.3,0.9,0.4,1.3l0.5,1.5c0.7,2.3,1.4,4.5,2,6.8
		c0.3,1.1,0.6,2.3,0.8,3.4l0.7,3.3c0.4,2,1,4.3,1.4,6.6c0.2,1.2,0.4,2.4,0.6,3.7c0.1,0.6,0.1,1.3,0.2,2l0.1,1l0,1.2
		c0,0.9-0.1,1.8-0.2,2.7c-0.2,0.9-0.3,1.5-0.4,2.1l-0.2,0.7l-0.1,0.4c0,0.2-0.1,0.5-0.1,0.8c0,0.2,0,0.5,0.1,0.7l0.2,1.4
		c0.2,1.2,0.5,3,0.3,4.7c-0.3,6.3-0.9,12.3-1,18.1c0,2.9,0.1,5.7,0.4,8.4c0.2,1.3,0.4,2.8,0.6,4.3l0.7,4.5c1,6,2.1,12.1,3,18.4
		c0.4,3.1,0.8,6.3,1,9.5l0.1,1c0,0.3,0.1,0.6,0.1,0.8c0.1,0.6,0.2,1.2,0.3,1.8c0.3,1.2,0.6,2.5,1.1,4c0.4,1.5,0.9,3.1,1.3,4.8
		c0.4,1.8,0.7,3.6,0.8,5.3c0.3,3.4,0.4,6.5,0.7,9.3c0.2,2.7,0.8,5.4,1.2,8.9c0.2,1.8,0.3,3.7,0.2,5.6c-0.1,1.9-0.3,3.7-0.5,5.1
		l-1.2,9.2l-0.6,4.6l-0.3,2.3c-0.1,0.8-0.2,1.7-0.4,2.5c-1.1,6.6-3,12.8-5,18.7l-5.9,17.5l-0.7,2.1c-0.2,0.7-0.4,1.3-0.6,2
		c-0.4,1.3-0.7,2.6-1,4c-0.3,1.4-0.5,2.9-0.8,4.4l-0.8,4.5c-0.5,2.9-1,5.7-1.2,8.6c-0.1,0.7-0.1,1.4-0.2,2.1l-0.1,1.1l0,0.5l0,0.4
		c0,1.1,0,2.3,0.2,3.6c0.2,1.3,0.4,2.7,0.7,4.1l0.8,4.4c0.5,2.6,1.5,5.6,2.2,9c0.3,1.7,0.6,3.6,0.7,5.7c0,2-0.1,3.7-0.3,5.4
		c-0.4,3.4-0.9,6.4-1.3,9.2c-0.1,0.7-0.2,1.4-0.2,2l-0.1,1l-0.1,1c-0.1,1.4-0.1,2.8,0,4.2c0.1,2.8,0.3,5.7,0.6,8.6l0.5,4.5
		c0.2,1.7,0.3,3.4,0.4,5.1c0.1,3.3,0.1,6.5,0.1,9.5c0,1.5,0,3,0.1,4.4c0.1,1.4,0.2,2.7,0.3,4c0.3,2.6,0.9,5.2,1.7,7.8
		c0.1,0.5,0.3,0.9,0.5,1.3c0.3,0.7,0.5,1.3,0.7,1.9c0.4,1.1,0.7,1.8,1,2.4c0.6,1.1,1.3,1.4,1.9,1.3c0.6-0.1,1.2-0.6,1.5-1.8
		c0.1-0.7,0.2-1.5,0-2.9c-0.1-0.7-0.3-1.5-0.5-2.4C369,847,368.9,846.6,368.8,846.2z"/>
	<path id="XMLID_6_" class="st3" d="M361.1,851.7c-0.1-0.4-0.2-0.9-0.4-1.3l-0.4-1.1c-0.2-0.7-0.4-1.4-0.6-2.1
		c-0.4-1.4-0.7-2.9-1-4.3c-0.5-2.9-0.7-5.8-0.8-8.8l0-9.3c0-1.6-0.1-3.2-0.2-4.8c-0.1-1.6-0.3-3.2-0.5-4.7c-0.7-6.1-1.2-12.1-0.7-18
		c0.3-2.9,0.8-5.9,1.2-9.1c0.2-1.6,0.4-3.2,0.5-4.8c0.1-1.6,0.1-3.4-0.2-5.1c-0.5-3.3-1.4-6.4-2.1-9.3c-0.2-0.7-0.3-1.4-0.5-2.2
		l-0.4-2.2c-0.3-1.6-0.6-3.1-0.8-4.5c-0.2-1.5-0.4-2.9-0.5-4.3c0-0.7,0-1.4,0-2.1c0-0.7,0.1-1.5,0.2-2.2c0.2-3,0.6-6,1.1-9l1.7-9.1
		c0.6-3,1.2-5.8,2.2-8.7l5.9-17.6c2-5.9,3.9-11.9,5.1-18.2c0.6-3.2,0.9-6.2,1.4-9.3l1.2-9.2l0.3-2.3c0.1-0.8,0.2-1.6,0.2-2.4
		c0.1-1.7,0.1-3.4,0-5c-0.3-3.3-1-6.3-1.3-9.2c-0.3-2.9-0.4-6-0.6-9.2c-0.1-1.6-0.3-3.2-0.7-4.9c-0.3-1.6-0.8-3.2-1.2-4.7
		c-0.9-3-1.7-5.8-1.9-8.5c-0.2-3.1-0.6-6.3-1-9.4c-0.8-6.2-1.9-12.3-2.9-18.4c-0.5-3-1-6.1-1.4-9.1c-0.4-2.9-0.5-5.9-0.5-8.9
		c0-6,0.6-12.2,1-18.4c0.1-1.3-0.1-2.7-0.3-3.8l-0.3-1.5c-0.1-0.4-0.1-0.8-0.1-1.3c0-0.5,0-0.9,0.1-1.4c0-0.2,0.1-0.4,0.1-0.7
		l0.2-0.8c0.3-1.1,0.6-2.6,0.6-4c0-2.6-0.4-4.8-0.8-7.1c-0.4-2.3-0.9-4.4-1.4-6.6c-0.9-4.4-2-8.9-3.4-13.2l-0.5-1.5
		c-0.2-0.5-0.3-1-0.4-1.5l-0.8-3.2c-0.5-2.2-1.3-4.7-2.6-6.8c-2.1-3.8-4.1-7.7-6-11.7c-3.9-8-7.7-16.2-12.8-23.8
		c-2.6-3.8-5.6-7.4-8.9-10.6c-1.6-1.6-3.3-3.1-4.8-4.6c-1.5-1.5-2.9-3.1-4.1-4.8c-0.6-0.9-1.4-1.7-2.2-2.4c-0.8-0.7-1.6-1.3-2.3-1.8
		c-1.5-1.1-5.6-3.9-6.5-5c-4.3-6.7-9.1-4.8-3.9,3.1c1.3,1.7,6.1,5,7.5,6c1.5,1,2.5,1.9,3.4,3c1.4,1.9,3,3.7,4.6,5.4
		c1.6,1.6,3.3,3.2,4.8,4.7c3.1,3,5.8,6.2,8.2,9.8c4.9,7.1,8.6,15.1,12.5,23.1c1.9,4,3.9,8,6.2,12c1,1.7,1.6,3.5,2.1,5.6l0.8,3.3
		c0.2,0.6,0.3,1.1,0.5,1.7l0.5,1.6c1.4,4.1,2.4,8.3,3.2,12.6c0.5,2.2,1,4.4,1.4,6.5c0.4,2.1,0.7,4.2,0.7,6.1c0,0.9-0.2,1.7-0.5,2.9
		l-0.2,0.9c-0.1,0.3-0.1,0.7-0.2,1c-0.1,0.7-0.2,1.4-0.1,2.1c0,0.6,0.1,1.3,0.2,1.9c0.1,0.6,0.2,1.1,0.3,1.6c0.2,1,0.3,1.8,0.2,2.6
		c-0.3,6.1-0.9,12.3-1,18.7c0,3.2,0.1,6.4,0.5,9.6c0.4,3.2,1,6.2,1.5,9.3c1,6.1,2.1,12.2,2.9,18.2c0.4,3,0.7,6.1,0.9,9.1
		c0.2,3.4,1.2,6.6,2.1,9.6c0.9,3,1.5,5.6,1.7,8.6c0.3,3,0.3,6.1,0.7,9.3c0.3,3.2,1,6.4,1.3,9.2c0.1,1.4,0.1,2.8,0,4.2
		c-0.1,0.7-0.1,1.4-0.2,2.2l-0.3,2.3l-1.2,9.2c-0.4,3.1-0.8,6.2-1.3,9.1c-1.1,5.9-2.9,11.7-4.9,17.5l-5.9,17.6c-1,3-1.8,6.2-2.4,9.3
		l-1.7,9.2c-0.5,3.1-0.9,6.3-1.2,9.4c-0.1,0.8-0.1,1.6-0.2,2.4c0,0.9,0,1.7,0,2.6c0.1,1.7,0.3,3.3,0.5,4.9c0.3,1.6,0.6,3.1,0.8,4.6
		l0.4,2.3c0.2,0.8,0.3,1.6,0.5,2.4c0.8,3.1,1.6,6,2,8.8c0.4,2.7,0.1,5.6-0.3,8.6c-0.4,3-1,6.1-1.3,9.3c-0.5,6.5,0,12.8,0.7,19
		c0.2,1.6,0.4,3,0.5,4.5c0.1,1.5,0.2,3,0.2,4.5l0,9.3c0,3.2,0.3,6.5,0.8,9.6c0.3,1.6,0.7,3.2,1.1,4.8c0.2,0.8,0.5,1.6,0.7,2.3
		l0.4,1.1c0.1,0.3,0.2,0.6,0.3,0.9c0.4,1.7,0.8,3.3,1.5,4.3c0.6,1.1,1.4,1.6,2,1.5c0.2,0,0.4,0,0.5-0.2c0.5-0.3,0.9-1,1.1-2
		C361.4,855.5,361.6,854,361.1,851.7z"/>
	<path id="XMLID_5_" class="st3" d="M354.7,863c-0.4-0.8-0.7-1.6-1-2.4c-0.7-2.4-0.9-4.2-1.1-5.6c-0.1-0.7-0.2-1.2-0.3-1.6l-0.7-2.2
		c-1.1-3.4-1.8-6.9-2.2-10.5c-0.2-1.8-0.3-3.6-0.4-5.3c0-1.7,0-3.3,0-4.9c0-3.2,0-6.2-0.1-9.1c0-0.7-0.1-1.4-0.2-2.1l-0.3-2.2
		c-0.2-1.6-0.4-3.2-0.5-4.9c-0.3-3.3-0.5-6.7-0.5-10.1c0-1.7,0.1-3.4,0.2-5.2c0.1-1.8,0.4-3.5,0.6-5.2c0.5-3.2,1-6.2,1.2-8.9
		c0-0.6,0.1-1.3,0-1.8c0-0.5-0.1-1-0.1-1.6c-0.2-1.2-0.4-2.5-0.8-4l-1.2-4.6c-0.4-1.6-0.8-3.7-1-5c-0.5-3-1.3-6.4-1.4-10.4
		c0-0.5,0-1,0-1.5c0-0.5,0-1.1,0.1-1.4l0.2-2.5c0.1-1.7,0.3-3.4,0.6-5c0.2-1.7,0.5-3.3,0.8-4.9l0.9-4.7c0.6-3,1.1-6.4,2-9.8
		c0.2-0.8,0.5-1.7,0.7-2.5c0.3-0.8,0.5-1.7,0.8-2.4l1.5-4.5l3-9c2-6,4-11.8,5.3-17.5c0.7-2.9,1-5.6,1.5-8.8l1.3-9.4l0.6-4.7
		c0.2-1.4,0.3-2.6,0.3-3.8c0-1.2-0.1-2.4-0.4-3.8c-0.2-1.4-0.5-3.1-0.7-4.8c-0.5-3.5-0.6-6.9-0.8-9.9c-0.1-1.5-0.2-2.9-0.4-4.2
		c-0.2-1.3-0.5-2.5-0.9-3.9c-0.8-2.8-1.9-6.1-2.5-10.1c-0.1-0.5-0.1-1-0.2-1.5l-0.1-1.2c-0.1-0.8-0.1-1.5-0.2-2.3
		c-0.1-1.5-0.3-3-0.5-4.5c-0.8-6.1-1.8-12.2-2.9-18.5l-0.8-4.7l-0.4-2.4c-0.1-0.8-0.3-1.6-0.4-2.5c-0.5-3.5-0.6-7-0.6-10.4
		c0-6.8,0.7-13.2,1-19.3c0-0.5,0-0.8-0.2-1.7c-0.1-0.5-0.2-1-0.3-1.8c-0.1-0.8-0.2-1.7-0.2-2.5c0-0.9,0-1.8,0.2-2.7l0.1-0.7l0.1-0.6
		l0.2-1c0.1-0.6,0.2-1.1,0.3-1.3c0-0.2,0.1-0.5,0.1-0.8l0-0.5l0-0.6c0-0.4-0.1-0.9-0.1-1.3c-0.1-0.9-0.3-1.9-0.5-2.9
		c-0.4-2-0.9-4.1-1.4-6.4l-0.7-3.2c-0.2-1-0.5-2-0.7-3.1c-0.5-2-1.1-4-1.7-6l-0.5-1.7c-0.2-0.6-0.4-1.3-0.5-1.9
		c-0.3-1.2-0.6-2.3-0.8-3.3c-0.5-2-0.9-3.3-1.7-4.6c-2.3-4.1-4.3-8.2-6.3-12.2c-3.9-8-7.6-15.9-12.2-22.6c-0.6-0.8-1.1-1.7-1.8-2.5
		l-0.9-1.2l-1-1.1l-1-1.1l-1-1.1c-0.7-0.7-1.4-1.4-2.1-2.2c-1.5-1.5-3.2-3-4.9-4.7c-1.7-1.7-3.5-3.7-5-5.8c-0.3-0.4-0.6-0.7-1.1-1.2
		c-0.6-0.5-1.4-1-2.5-1.8c-1.1-0.8-2.4-1.8-3.5-3.1c-1.1-1.3-2-2.5-2.6-3.6c-2.5-4.2-3.6-3.1-4.5-2.3c-0.4,0.5-0.9,0.9-1.1,1.4
		c-0.2,0.5-0.1,1.2,1.3,3.5c0.7,1.2,1.7,2.7,3.1,4.3c1.5,1.7,3.1,3,4.3,3.9c1.2,0.9,2,1.4,2.3,1.7c0.4,0.3,0.2,0.2,0.2,0.2
		c1.7,2.3,3.6,4.6,5.5,6.4c1.8,1.9,3.5,3.4,5,4.8l1,1c0.3,0.3,0.6,0.7,0.9,1l0.9,1l0.9,1l0.9,1l0.8,1.1c0.6,0.7,1.1,1.5,1.6,2.3
		c4.3,6.3,7.9,13.9,11.8,22c2,4.1,4,8.2,6.4,12.4c0.3,0.5,0.4,0.8,0.6,1.3c0.2,0.5,0.4,1.2,0.6,2.1c0.2,0.9,0.5,2.1,0.8,3.4
		c0.2,0.7,0.4,1.4,0.6,2.1l0.6,1.7c0.6,1.9,1.1,3.7,1.6,5.6c0.2,1,0.5,1.9,0.7,2.9l0.7,3.1c0.5,2.4,1,4.5,1.3,6.3
		c0.2,0.9,0.3,1.8,0.4,2.5c0,0.4,0.1,0.7,0.1,1.1l0,0.5c0,0.1,0,0.1,0,0.2c0,0.1,0,0,0,0l0,0l-0.1,0.3l-0.2,0.7l-0.2,1l-0.2,0.8
		l-0.1,0.9c-0.2,1.1-0.3,2.3-0.2,3.5c0,1.1,0.1,2.2,0.3,3.2c0.1,0.8,0.3,1.5,0.3,1.9c0.1,0.8,0.1,0.5,0.1,0.6c-0.3,6-1,12.4-1,19.5
		c0,3.5,0.2,7.2,0.7,11c0.1,1,0.3,1.8,0.4,2.6l0.4,2.4l0.8,4.8c1.1,6.3,2.1,12.3,2.9,18.2c0.2,1.5,0.4,2.9,0.5,4.4
		c0.1,0.7,0.1,1.5,0.2,2.2l0.1,1.2c0.1,0.6,0.1,1.2,0.2,1.7c0.3,2.3,0.8,4.4,1.3,6.2l1.3,4.6c0.2,0.6,0.3,1.2,0.4,1.7
		c0.1,0.5,0.2,1,0.3,1.5c0.2,1.1,0.3,2.4,0.4,3.8l0.3,4.7c0.1,0.9,0.1,1.7,0.2,2.7c0.1,0.9,0.2,1.9,0.3,2.8c0.2,1.8,0.5,3.5,0.7,4.8
		c0.2,1.3,0.3,2.3,0.3,3.2c0,0.9,0,1.9-0.2,3.2l-0.6,4.7l-1.3,9.3c-0.4,3.3-0.8,5.7-1.4,8.4c-1.2,5.3-3.1,10.9-5.1,17l-3,9l-1.5,4.5
		c-0.2,0.7-0.5,1.6-0.8,2.5c-0.3,0.9-0.5,1.8-0.8,2.7c-0.5,1.8-0.9,3.7-1.2,5.4l-0.9,4.8l-0.9,4.8c-0.3,1.7-0.6,3.4-0.8,5.1
		c-0.2,1.7-0.4,3.5-0.6,5.3c-0.1,0.9-0.1,1.8-0.2,2.7c0,0.4-0.1,1.1-0.1,1.6c0,0.6,0,1.2,0,1.7c0.1,4.6,1,8.3,1.5,11.2l0.4,2.4
		c0.2,1,0.4,2,0.6,2.8l1.2,4.6c0.3,1.3,0.6,2.5,0.7,3.4c0.1,0.4,0.1,0.8,0.1,1.1c0,0.3,0,0.9,0,1.4c-0.1,2.2-0.6,5.1-1.1,8.5
		c-0.2,1.7-0.5,3.5-0.6,5.5c-0.1,1.1-0.1,1.9-0.2,2.8c0,0.9,0,1.8,0,2.7c0,3.6,0.2,7.2,0.5,10.6c0.2,1.7,0.4,3.4,0.5,5l0.2,2.1
		c0.1,0.6,0.1,1.3,0.1,1.9c0.2,2.6,0.1,5.5,0.1,8.8c0,1.6,0,3.3,0,5.1c0,1.9,0.2,3.8,0.4,5.7c0.4,3.9,1.3,7.8,2.4,11.4l0.7,2.1
		c0,0.1,0.1,0.4,0.2,1c0.2,1.2,0.4,3.2,1.3,6.3c0.3,1,0.7,2.1,1.2,3c0.5,1,1,1.7,1.4,2.3c0.4,0.6,0.8,1,1,1.3
		c0.6,0.6,0.9,0.7,1.1,0.7c0.5,0,1.1-0.3,1.7-0.5c0.6-0.2,1.2-0.5,1.3-1.2c0.1-0.4,0-0.8-0.3-1.6C356.1,865.6,355.4,864.6,354.7,863
		z"/>
</g>
<g id="XMLID_24_">
	<text id="XMLID_8_" transform="matrix(1 0 0 1 53.0364 599.3879)" class="st4 st5 st6"></text>
	<text id="XMLID_17_" transform="matrix(1 0 0 1 53.0361 677.9901)" class="st7 st5 st8"></text>
	<text id="XMLID_18_" transform="matrix(1 0 0 1 56.9994 797.6707)" class="st4 st5 st9">.</text>
</g>
</svg>
